<svg width="667" height="667" viewBox="0 0 667 667" fill="none" xmlns="http://www.w3.org/2000/svg">
<mask id="mask0_274_2" style="mask-type:luminance" maskUnits="userSpaceOnUse" x="0" y="0" width="667" height="667">
<path d="M0 -0.000123024H666.667V666.667H0V-0.000123024Z" fill="white"/>
</mask>
<g mask="url(#mask0_274_2)">
<path d="M440.069 61.1138C380.55 28.1778 308.222 25.1031 240.654 50.4418C181.75 72.5311 114.256 200.158 84.8024 234.519C55.3504 268.88 3.80907 349.874 29.5797 407.552C55.3504 465.228 133.292 469.388 171.634 536.031C209.976 602.672 349.874 648.079 434.549 605.127C519.225 562.175 513.089 479.955 575.676 450.503C638.262 421.051 634.581 324.103 612.49 263.971C598.153 224.944 568.354 190.767 542.142 159.243C528.32 142.62 514.082 126.354 499.961 109.986C483.485 90.8857 462.161 73.3391 440.069 61.1138Z" fill="#5AE4A7"/>
<mask id="mask1_274_2" style="mask-type:luminance" maskUnits="userSpaceOnUse" x="22" y="33" width="606" height="589">
<path d="M22.5812 33.6213H627.101V621.916H22.5812V33.6213Z" fill="white"/>
</mask>
<g mask="url(#mask1_274_2)">
<g opacity="0.699997">
<path d="M440.069 61.1138C380.55 28.1778 308.222 25.1031 240.654 50.4418C181.75 72.5311 114.256 200.158 84.8024 234.519C55.3504 268.88 3.80907 349.874 29.5797 407.552C55.3504 465.228 133.292 469.388 171.634 536.031C209.976 602.672 349.874 648.079 434.549 605.127C519.225 562.175 513.089 479.955 575.676 450.503C638.262 421.051 634.581 324.103 612.49 263.971C598.153 224.944 568.354 190.767 542.142 159.243C528.32 142.62 514.082 126.354 499.961 109.986C483.485 90.8857 462.161 73.3391 440.069 61.1138Z" fill="white"/>
</g>
</g>
</g>
<mask id="mask2_274_2" style="mask-type:luminance" maskUnits="userSpaceOnUse" x="0" y="0" width="667" height="667">
<path d="M0 -0.000123024H666.667V666.667H0V-0.000123024Z" fill="white"/>
</mask>
<g mask="url(#mask2_274_2)">
<path d="M504 479.333C504 476.02 501.313 473.333 498 473.333C494.687 473.333 492 476.02 492 479.333C492 482.646 494.687 485.333 498 485.333C501.313 485.333 504 482.646 504 479.333Z" stroke="#1A2E35" stroke-width="1.33333" stroke-miterlimit="10" stroke-linejoin="round"/>
<path d="M582 539.333C582 536.02 579.313 533.333 576 533.333C572.687 533.333 570 536.02 570 539.333C570 542.646 572.687 545.333 576 545.333C579.313 545.333 582 542.646 582 539.333Z" stroke="#1A2E35" stroke-width="1.33333" stroke-miterlimit="10" stroke-linejoin="round"/>
<path d="M475.333 535.333C475.333 532.02 472.647 529.333 469.333 529.333C466.02 529.333 463.333 532.02 463.333 535.333C463.333 538.646 466.02 541.333 469.333 541.333C472.647 541.333 475.333 538.646 475.333 535.333Z" stroke="#1A2E35" stroke-width="1.33333" stroke-miterlimit="10"/>
<path d="M514.667 527.333C514.667 521.809 510.191 517.333 504.667 517.333C499.143 517.333 494.667 521.809 494.667 527.333C494.667 532.857 499.143 537.333 504.667 537.333C510.191 537.333 514.667 532.857 514.667 527.333Z" stroke="#1A2E35" stroke-width="1.33333" stroke-miterlimit="10" stroke-linejoin="round"/>
<path d="M498.667 572C498.667 568.687 495.98 566 492.667 566C489.353 566 486.667 568.687 486.667 572C486.667 575.313 489.353 578 492.667 578C495.98 578 498.667 575.313 498.667 572Z" stroke="#1A2E35" stroke-width="1.33333" stroke-miterlimit="10" stroke-linejoin="round"/>
<path d="M625.333 582.667C625.333 579.353 622.647 576.667 619.333 576.667C616.02 576.667 613.333 579.353 613.333 582.667C613.333 585.98 616.02 588.667 619.333 588.667C622.647 588.667 625.333 585.98 625.333 582.667Z" stroke="#1A2E35" stroke-width="1.33333" stroke-miterlimit="10" stroke-linejoin="round"/>
<path d="M631.333 480.667C631.333 477.353 628.647 474.667 625.333 474.667C622.02 474.667 619.333 477.353 619.333 480.667C619.333 483.98 622.02 486.667 625.333 486.667C628.647 486.667 631.333 483.98 631.333 480.667Z" stroke="#1A2E35" stroke-width="1.33333" stroke-miterlimit="10" stroke-linejoin="round"/>
<path d="M582.667 465.333C582.667 462.02 579.98 459.333 576.667 459.333C573.353 459.333 570.667 462.02 570.667 465.333C570.667 468.646 573.353 471.333 576.667 471.333C579.98 471.333 582.667 468.646 582.667 465.333Z" stroke="#1A2E35" stroke-width="1.33333" stroke-miterlimit="10" stroke-linejoin="round"/>
<path d="M606.667 493.333C606.667 487.809 602.191 483.333 596.667 483.333C591.143 483.333 586.667 487.809 586.667 493.333C586.667 498.857 591.143 503.333 596.667 503.333C602.191 503.333 606.667 498.857 606.667 493.333Z" stroke="#1A2E35" stroke-width="1.33333" stroke-miterlimit="10" stroke-linejoin="round"/>
<path d="M502.667 482L571.333 535.333" stroke="#1A2E35" stroke-width="1.33333" stroke-miterlimit="10" stroke-linejoin="round"/>
<path d="M578.667 534.667L593.333 503.333" stroke="#1A2E35" stroke-width="1.33333" stroke-miterlimit="10" stroke-linejoin="round"/>
<path d="M600 503.333L619.333 576.667L625.333 486.667" stroke="#1A2E35" stroke-width="1.33333" stroke-miterlimit="10" stroke-linejoin="round"/>
<path d="M570 542.667L498.667 572" stroke="#1A2E35" stroke-width="1.33333" stroke-miterlimit="10" stroke-linejoin="round"/>
<path d="M514.667 527.333L587.333 496.666" stroke="#1A2E35" stroke-width="1.33333" stroke-miterlimit="10" stroke-linejoin="round"/>
<path d="M502 517.333L498 485.333" stroke="#1A2E35" stroke-width="1.33333" stroke-miterlimit="10" stroke-linejoin="round"/>
<path d="M606.667 490L620 484" stroke="#1A2E35" stroke-width="1.33333" stroke-miterlimit="10" stroke-linejoin="round"/>
<path d="M472.667 540.667L488.667 566.667" stroke="#1A2E35" stroke-width="1.33333" stroke-miterlimit="10" stroke-linejoin="round"/>
<path d="M469.333 529.333L494 484" stroke="#1A2E35" stroke-width="1.33333" stroke-miterlimit="10" stroke-linejoin="round"/>
<path d="M512 534.667L613.333 582.667" stroke="#1A2E35" stroke-width="1.33333" stroke-miterlimit="10" stroke-linejoin="round"/>
<path d="M576 545.333L616 578.667" stroke="#1A2E35" stroke-width="1.33333" stroke-miterlimit="10" stroke-linejoin="round"/>
<path d="M504 479.333L586.667 493.333" stroke="#1A2E35" stroke-width="1.33333" stroke-miterlimit="10" stroke-linejoin="round"/>
<path d="M619.333 480.667L502.667 476.667" stroke="#1A2E35" stroke-width="1.33333" stroke-miterlimit="10" stroke-linejoin="round"/>
<path d="M620 478L582.667 468.667" stroke="#1A2E35" stroke-width="1.33333" stroke-miterlimit="10" stroke-linejoin="round"/>
<path d="M570.667 468L496.667 567.333" stroke="#1A2E35" stroke-width="1.33333" stroke-miterlimit="10" stroke-linejoin="round"/>
<path d="M494.667 530.666L475.333 535.333" stroke="#1A2E35" stroke-width="1.33333" stroke-miterlimit="10" stroke-linejoin="round"/>
<path d="M537.092 484.376C537.092 482.827 535.838 481.571 534.287 481.571C532.738 481.571 531.483 482.827 531.483 484.376C531.483 485.926 532.738 487.182 534.287 487.182C535.838 487.182 537.092 485.926 537.092 484.376Z" fill="#1A2E35"/>
<path d="M509.078 554.129C509.078 552.579 507.822 551.323 506.273 551.323C504.722 551.323 503.467 552.579 503.467 554.129C503.467 555.678 504.722 556.934 506.273 556.934C507.822 556.934 509.078 555.678 509.078 554.129Z" fill="#1A2E35"/>
<path d="M587.693 521.254C587.693 519.704 586.437 518.448 584.887 518.448C583.337 518.448 582.082 519.704 582.082 521.254C582.082 522.802 583.337 524.059 584.887 524.059C586.437 524.059 587.693 522.802 587.693 521.254Z" fill="#1A2E35"/>
<path d="M586.956 568.611C586.956 567.061 585.7 565.805 584.15 565.805C582.601 565.805 581.345 567.061 581.345 568.611C581.345 570.16 582.601 571.416 584.15 571.416C585.7 571.416 586.956 570.16 586.956 568.611Z" fill="#1A2E35"/>
<path d="M486.614 503.432C486.614 501.883 485.358 500.627 483.809 500.627C482.26 500.627 481.004 501.883 481.004 503.432C481.004 504.98 482.26 506.237 483.809 506.237C485.358 506.237 486.614 504.98 486.614 503.432Z" fill="#1A2E35"/>
<path d="M626.719 498.922C626.719 497.372 625.463 496.116 623.913 496.116C622.364 496.116 621.108 497.372 621.108 498.922C621.108 500.471 622.364 501.727 623.913 501.727C625.463 501.727 626.719 500.471 626.719 498.922Z" fill="#1A2E35"/>
</g>
<mask id="mask3_274_2" style="mask-type:luminance" maskUnits="userSpaceOnUse" x="0" y="0" width="667" height="667">
<path d="M0 -0.000123024H666.667V666.667H0V-0.000123024Z" fill="white"/>
</mask>
<g mask="url(#mask3_274_2)">
<path d="M522.395 388.958V320.597C522.395 318.697 523.936 317.154 525.837 317.154H597.62C599.521 317.154 601.061 318.697 601.061 320.597V323.204" stroke="#1A2E35" stroke-width="1.33333" stroke-miterlimit="10"/>
<path d="M528.475 397.155H525.837C523.937 397.155 522.394 395.613 522.394 393.712" stroke="#1A2E35" stroke-width="1.33333" stroke-miterlimit="10"/>
<path d="M601.061 327.881V393.712C601.061 395.613 599.521 397.155 597.62 397.155H533.413" stroke="#1A2E35" stroke-width="1.33333" stroke-miterlimit="10"/>
<path d="M544.684 347.374V339.822H578.773V374.488H568.24" stroke="#1A2E35" stroke-width="1.33333" stroke-miterlimit="10"/>
<path d="M544.684 357.25V352.053" stroke="#1A2E35" stroke-width="1.33333" stroke-miterlimit="10"/>
<path d="M564.081 374.488H544.683V361.928" stroke="#1A2E35" stroke-width="1.33333" stroke-miterlimit="10"/>
<path d="M538.546 317.771V296.134" stroke="#1A2E35" stroke-width="1.33333" stroke-miterlimit="10"/>
<path d="M554.001 317.771V296.134" stroke="#1A2E35" stroke-width="1.33333" stroke-miterlimit="10"/>
<path d="M569.456 317.771V296.134" stroke="#1A2E35" stroke-width="1.33333" stroke-miterlimit="10"/>
<path d="M584.911 317.771V296.134" stroke="#1A2E35" stroke-width="1.33333" stroke-miterlimit="10"/>
<path d="M538.546 419.004V397.367" stroke="#1A2E35" stroke-width="1.33333" stroke-miterlimit="10"/>
<path d="M554.001 419.004V397.367" stroke="#1A2E35" stroke-width="1.33333" stroke-miterlimit="10"/>
<path d="M569.456 419.004V397.367" stroke="#1A2E35" stroke-width="1.33333" stroke-miterlimit="10"/>
<path d="M584.911 419.004V397.367" stroke="#1A2E35" stroke-width="1.33333" stroke-miterlimit="10"/>
<path d="M601.526 334.386H623.165" stroke="#1A2E35" stroke-width="1.33333" stroke-miterlimit="10"/>
<path d="M601.526 349.841H623.165" stroke="#1A2E35" stroke-width="1.33333" stroke-miterlimit="10"/>
<path d="M601.526 365.297H623.165" stroke="#1A2E35" stroke-width="1.33333" stroke-miterlimit="10"/>
<path d="M601.526 380.753H623.165" stroke="#1A2E35" stroke-width="1.33333" stroke-miterlimit="10"/>
<path d="M500.293 334.386H521.932" stroke="#1A2E35" stroke-width="1.33333" stroke-miterlimit="10"/>
<path d="M500.293 349.841H521.932" stroke="#1A2E35" stroke-width="1.33333" stroke-miterlimit="10"/>
<path d="M500.293 365.297H521.932" stroke="#1A2E35" stroke-width="1.33333" stroke-miterlimit="10"/>
<path d="M500.293 380.753H521.932" stroke="#1A2E35" stroke-width="1.33333" stroke-miterlimit="10"/>
<path d="M625.969 365.297C625.969 363.748 624.713 362.492 623.163 362.492C621.614 362.492 620.358 363.748 620.358 365.297C620.358 366.847 621.614 368.103 623.163 368.103C624.713 368.103 625.969 366.847 625.969 365.297Z" fill="#1A2E35"/>
<path d="M532.633 317.768C532.633 316.219 531.377 314.963 529.828 314.963C528.278 314.963 527.022 316.219 527.022 317.768C527.022 319.317 528.278 320.573 529.828 320.573C531.377 320.573 532.633 319.317 532.633 317.768Z" fill="#1A2E35"/>
<path d="M513.259 380.12C513.259 378.571 512.003 377.315 510.454 377.315C508.904 377.315 507.648 378.571 507.648 380.12C507.648 381.669 508.904 382.925 510.454 382.925C512.003 382.925 513.259 381.669 513.259 380.12Z" fill="#1A2E35"/>
<path d="M572.263 303.121C572.263 301.572 571.008 300.316 569.458 300.316C567.908 300.316 566.654 301.572 566.654 303.121C566.654 304.67 567.908 305.926 569.458 305.926C571.008 305.926 572.263 304.67 572.263 303.121Z" fill="#1A2E35"/>
<path d="M564.018 397.277C564.018 395.728 562.762 394.472 561.213 394.472C559.664 394.472 558.408 395.728 558.408 397.277C558.408 398.827 559.664 400.083 561.213 400.083C562.762 400.083 564.018 398.827 564.018 397.277Z" fill="#1A2E35"/>
<path d="M587.747 412.343C587.747 410.793 586.491 409.537 584.942 409.537C583.391 409.537 582.137 410.793 582.137 412.343C582.137 413.892 583.391 415.148 584.942 415.148C586.491 415.148 587.747 413.892 587.747 412.343Z" fill="#1A2E35"/>
</g>
<mask id="mask4_274_2" style="mask-type:luminance" maskUnits="userSpaceOnUse" x="0" y="0" width="667" height="667">
<path d="M0 -0.000123024H666.667V666.667H0V-0.000123024Z" fill="white"/>
</mask>
<g mask="url(#mask4_274_2)">
<path d="M465.152 102.299C465.152 102.299 459.54 103.593 457.814 107.909C456.087 112.227 444 141.149 444 144.604C444 148.056 446.59 150.647 446.59 150.647L475.08 162.301C475.08 162.301 481.124 160.576 485.874 161.439C490.622 162.301 493.643 170.504 498.392 171.367C503.14 172.231 522.998 170.936 532.495 166.619C541.992 162.301 545.014 148.92 545.014 139.855C545.014 130.789 541.992 121.724 539.402 119.997C536.811 118.271 535.516 117.408 535.516 117.408" stroke="#1A2E35" stroke-width="1.33333" stroke-miterlimit="10"/>
<path d="M529.042 113.09C529.042 113.09 526.019 110.501 533.79 111.796C541.56 113.09 560.986 138.56 567.46 146.761C573.936 154.964 580.411 155.396 585.591 150.214C590.772 145.034 586.887 138.56 585.16 135.106C583.432 131.653 576.094 123.02 573.504 116.976C570.914 110.932 563.575 95.3917 557.532 91.5064C551.488 87.621 542.423 86.757 528.61 92.369C514.795 97.981 508.32 102.73 508.32 102.73" stroke="#1A2E35" stroke-width="1.33333" stroke-miterlimit="10"/>
<path d="M470.332 101.867L497.528 100.141" stroke="#1A2E35" stroke-width="1.33333" stroke-miterlimit="10"/>
<path d="M484.578 153.669C489.758 151.942 489.327 149.352 494.506 142.445C499.686 135.538 505.73 112.228 506.161 109.206C506.594 106.184 504.867 104.026 504.867 104.026L530.767 117.058" stroke="#1A2E35" stroke-width="1.33333" stroke-miterlimit="10"/>
<path d="M453.065 150.647H476.808C476.808 150.647 483.282 146.33 486.305 138.561C489.326 130.79 495.37 113.091 497.096 109.206C498.822 105.321 497.096 102.73 497.096 102.73" stroke="#1A2E35" stroke-width="1.33333" stroke-miterlimit="10"/>
<path d="M479.398 161.007C479.398 161.007 467.312 154.533 472.924 155.395C478.534 156.258 491.053 164.029 500.118 164.029C509.184 164.029 512.637 158.849 516.954 151.942C521.27 145.035 531.632 126.473 531.632 120.861" stroke="#1A2E35" stroke-width="1.33333" stroke-miterlimit="10"/>
<path d="M570.051 163.165C570.051 163.165 577.389 153.668 584.297 162.303C591.203 170.936 581.705 184.317 577.821 188.203C573.936 192.088 563.144 192.088 561.416 191.224C559.689 190.361 558.396 189.067 558.396 189.067" stroke="#1A2E35" stroke-width="1.33333" stroke-miterlimit="10"/>
<path d="M577.389 153.669L599.837 179.57C599.837 179.57 600.268 172.664 604.153 169.641C608.039 166.62 609.765 165.756 609.765 165.756L589.044 144.172" stroke="#1A2E35" stroke-width="1.33333" stroke-miterlimit="10"/>
<path d="M612.355 166.619H615.378C615.378 166.619 623.147 176.117 623.147 178.706C623.147 181.297 611.059 198.563 607.175 198.563C603.29 198.563 597.678 195.542 597.678 195.542C597.678 195.542 599.837 192.521 601.563 189.498C603.29 186.477 601.563 182.159 601.563 182.159C601.563 182.159 609.333 187.771 608.039 195.11" stroke="#1A2E35" stroke-width="1.33333" stroke-miterlimit="10"/>
<path d="M485.081 219.759C492.914 221.496 507.201 221.746 510.047 223.17C513.499 224.896 521.271 246.48 521.271 246.48" stroke="#1A2E35" stroke-width="1.33333" stroke-miterlimit="10"/>
<path d="M478.534 163.597C478.534 163.597 474.65 166.188 476.807 169.641C478.966 173.095 483.715 175.253 483.715 175.253C483.715 175.253 477.239 182.16 478.534 185.181C479.83 188.204 478.534 191.225 478.534 191.225C478.534 191.225 477.239 195.111 477.671 197.268C478.103 199.428 478.534 202.88 478.534 202.88C478.534 202.88 475.945 215.4 481.125 218.421" stroke="#1A2E35" stroke-width="1.33333" stroke-miterlimit="10"/>
<path d="M597.678 195.542C597.678 195.542 589.477 202.881 589.044 211.946C588.613 221.011 587.75 223.601 587.75 223.601" stroke="#1A2E35" stroke-width="1.33333" stroke-miterlimit="10"/>
<path d="M619.816 154.309C619.016 159.194 617.836 162.941 617.104 164.893" stroke="#1A2E35" stroke-width="1.33333" stroke-miterlimit="10"/>
<path d="M620.613 141.355C620.695 143.229 620.684 145.045 620.604 146.785" stroke="#1A2E35" stroke-width="1.33333" stroke-miterlimit="10"/>
<path d="M555.806 87.6212C555.806 87.6212 582.138 82.8732 605.017 105.752C614.749 115.484 618.857 126.388 620.166 136.236" stroke="#1A2E35" stroke-width="1.33333" stroke-miterlimit="10"/>
<path d="M455.746 119.837C455.746 118.123 454.357 116.732 452.641 116.732C450.926 116.732 449.535 118.123 449.535 119.837C449.535 121.553 450.926 122.944 452.641 122.944C454.357 122.944 455.746 121.553 455.746 119.837Z" fill="#1A2E35"/>
<path d="M519.417 169.919C519.417 168.205 518.026 166.814 516.311 166.814C514.595 166.814 513.206 168.205 513.206 169.919C513.206 171.635 514.595 173.026 516.311 173.026C518.026 173.026 519.417 171.635 519.417 169.919Z" fill="#1A2E35"/>
<path d="M514.37 222.719C514.37 221.004 512.979 219.614 511.264 219.614C509.548 219.614 508.158 221.004 508.158 222.719C508.158 224.435 509.548 225.826 511.264 225.826C512.979 225.826 514.37 224.435 514.37 222.719Z" fill="#1A2E35"/>
<path d="M570.566 146.762C570.566 145.046 569.176 143.655 567.461 143.655C565.745 143.655 564.356 145.046 564.356 146.762C564.356 148.478 565.745 149.869 567.461 149.869C569.176 149.869 570.566 148.478 570.566 146.762Z" fill="#1A2E35"/>
<path d="M566.393 98.0965C566.393 96.3805 565.002 94.9911 563.288 94.9911C561.572 94.9911 560.181 96.3805 560.181 98.0965C560.181 99.8125 561.572 101.203 563.288 101.203C565.002 101.203 566.393 99.8125 566.393 98.0965Z" fill="#1A2E35"/>
<path d="M512.979 101.954C512.979 100.238 511.589 98.8472 509.874 98.8472C508.158 98.8472 506.767 100.238 506.767 101.954C506.767 103.67 508.158 105.061 509.874 105.061C511.589 105.061 512.979 103.67 512.979 101.954Z" fill="#1A2E35"/>
<path d="M616.863 166.814C616.863 165.098 615.473 163.707 613.758 163.707C612.042 163.707 610.651 165.098 610.651 166.814C610.651 168.529 612.042 169.919 613.758 169.919C615.473 169.919 616.863 168.529 616.863 166.814Z" fill="#1A2E35"/>
</g>
<path d="M98.8171 94.1768H93.3491" stroke="#1A2E35" stroke-width="1.33333" stroke-miterlimit="10"/>
<mask id="mask5_274_2" style="mask-type:luminance" maskUnits="userSpaceOnUse" x="0" y="0" width="667" height="667">
<path d="M0 -0.000123024H666.667V666.667H0V-0.000123024Z" fill="white"/>
</mask>
<g mask="url(#mask5_274_2)">
<path d="M74.3164 156.938H98.8164C101.003 156.938 103.023 155.772 104.115 153.88L118.702 128.617C119.794 126.724 119.794 124.392 118.702 122.498L104.115 97.2358" stroke="#1A2E35" stroke-width="1.33333" stroke-miterlimit="10"/>
<path d="M88.2506 94.1767H69.6453C67.46 94.1767 65.4413 95.3433 64.348 97.2353L49.7626 122.499C48.6693 124.391 48.6693 126.723 49.7626 128.617L64.348 153.879C65.4413 155.773 67.46 156.938 69.6453 156.938" stroke="#1A2E35" stroke-width="1.33333" stroke-miterlimit="10"/>
<path d="M118.484 180.22L122.661 187.455C123.753 189.347 125.773 190.513 127.958 190.513H157.13C159.316 190.513 161.336 189.347 162.428 187.455L177.013 162.192C178.106 160.299 178.106 157.967 177.013 156.073L168.402 141.16" stroke="#1A2E35" stroke-width="1.33333" stroke-miterlimit="10"/>
<path d="M114.73 173.719L116.882 177.445" stroke="#1A2E35" stroke-width="1.33333" stroke-miterlimit="10"/>
<path d="M165.725 136.52L162.428 130.81C161.336 128.916 159.316 127.751 157.13 127.751H127.958C125.773 127.751 123.753 128.916 122.661 130.81L108.074 156.074C106.982 157.966 106.982 160.298 108.074 162.191L112.392 169.668" stroke="#1A2E35" stroke-width="1.33333" stroke-miterlimit="10"/>
<path d="M117.654 71.4498L108.074 88.0418C106.982 89.9338 106.982 92.2671 108.074 94.1591L122.661 119.422C123.753 121.315 125.773 122.48 127.96 122.48H157.13C159.316 122.48 161.336 121.315 162.429 119.422L177.014 94.1591C178.106 92.2671 178.106 89.9338 177.014 88.0418L176.037 86.3498" stroke="#1A2E35" stroke-width="1.33333" stroke-miterlimit="10"/>
<path d="M122.661 62.7782L120.371 66.7422" stroke="#1A2E35" stroke-width="1.33333" stroke-miterlimit="10"/>
<path d="M174.435 83.5747L162.428 62.7787C161.335 60.8854 159.316 59.72 157.13 59.72H127.959C127.474 59.72 126.998 59.7774 126.538 59.8867" stroke="#1A2E35" stroke-width="1.33333" stroke-miterlimit="10"/>
<path d="M215.443 93.2934H186.272C184.085 93.2934 182.067 94.46 180.973 96.352L166.388 121.616C165.295 123.508 165.295 125.84 166.388 127.733L180.973 152.996C182.067 154.889 184.085 156.055 186.272 156.055H215.443C217.629 156.055 219.648 154.889 220.741 152.996L235.327 127.733C236.419 125.84 236.419 123.508 235.327 121.616L220.741 96.352C219.648 94.46 217.629 93.2934 215.443 93.2934Z" stroke="#1A2E35" stroke-width="1.33333" stroke-miterlimit="10"/>
<path d="M156.776 197.293H127.605C125.419 197.293 123.4 198.46 122.307 200.352L107.721 225.616C106.628 227.508 106.628 229.84 107.721 231.733L122.307 256.996C123.4 258.889 125.419 260.055 127.605 260.055H156.776C158.963 260.055 160.981 258.889 162.075 256.996L176.66 231.733C177.752 229.84 177.752 227.508 176.66 225.616L162.075 200.352C160.981 198.46 158.963 197.293 156.776 197.293Z" stroke="#1A2E35" stroke-width="1.33333" stroke-miterlimit="10"/>
<path d="M225.51 215.478L236.644 196.191C237.738 194.299 237.738 191.967 236.644 190.074L222.059 164.811C220.966 162.918 218.947 161.752 216.76 161.752H187.59C185.404 161.752 183.384 162.918 182.291 164.811L167.706 190.074C166.614 191.967 166.614 194.299 167.706 196.191L182.291 221.454C183.384 223.347 185.404 224.514 187.59 224.514H210.943" stroke="#1A2E35" stroke-width="1.33333" stroke-miterlimit="10"/>
<path d="M216.761 224.514C218.946 224.514 220.966 223.347 222.06 221.455L222.94 219.93" stroke="#1A2E35" stroke-width="1.33333" stroke-miterlimit="10"/>
<path d="M146.264 164.676C146.264 162.672 147.888 161.048 149.892 161.048C151.896 161.048 153.519 162.672 153.519 164.676C153.519 166.679 151.896 168.304 149.892 168.304C147.888 168.304 146.264 166.679 146.264 164.676ZM157.086 168.553L160.639 169.364L161.462 165.759L158.048 164.98C158.052 164.879 158.064 164.779 158.064 164.676C158.064 163.545 157.834 162.468 157.418 161.488L160.186 159.28L157.88 156.389L155.234 158.501C154.318 157.708 153.224 157.119 152.02 156.795V153.347H148.323V156.659C147.079 156.9 145.94 157.428 144.967 158.167L142.291 156.032L139.986 158.923L142.598 161.007C142.062 162.071 141.748 163.267 141.727 164.536L138.322 165.313L139.146 168.919L142.504 168.151C143.016 169.237 143.755 170.197 144.667 170.957L143.104 174.203L146.436 175.807L147.975 172.612C148.591 172.76 149.231 172.847 149.892 172.847C150.423 172.847 150.94 172.792 151.443 172.696L153.036 176.005L156.368 174.4L154.819 171.184C155.748 170.479 156.528 169.587 157.086 168.553Z" stroke="#1A2E35" stroke-width="1.33333" stroke-miterlimit="10"/>
<path d="M128.92 150.097C128.92 148.093 130.544 146.469 132.548 146.469C134.552 146.469 136.175 148.093 136.175 150.097C136.175 152.1 134.552 153.725 132.548 153.725C130.544 153.725 128.92 152.1 128.92 150.097ZM139.741 153.974L143.295 154.785L144.117 151.18L140.704 150.401C140.708 150.3 140.72 150.2 140.72 150.097C140.72 148.966 140.489 147.889 140.073 146.909L142.841 144.701L140.536 141.81L137.889 143.922C136.973 143.129 135.88 142.54 134.676 142.216V138.768H130.979V142.08C129.735 142.321 128.596 142.849 127.623 143.588L124.947 141.453L122.641 144.344L125.253 146.428C124.717 147.492 124.404 148.688 124.383 149.957L120.977 150.734L121.801 154.34L125.16 153.572C125.672 154.658 126.411 155.618 127.323 156.378L125.76 159.624L129.092 161.228L130.631 158.033C131.247 158.181 131.887 158.268 132.548 158.268C133.079 158.268 133.596 158.213 134.099 158.117L135.692 161.426L139.024 159.821L137.475 156.605C138.404 155.901 139.184 155.008 139.741 153.974Z" stroke="#1A2E35" stroke-width="1.33333" stroke-miterlimit="10"/>
<path d="M209.013 122.16C209.013 115.567 203.668 110.221 197.074 110.221C190.482 110.221 185.137 115.567 185.137 122.16C185.137 128.753 190.482 134.099 197.074 134.099C203.668 134.099 209.013 128.753 209.013 122.16Z" stroke="#1A2E35" stroke-width="1.33333" stroke-miterlimit="10"/>
<path d="M207.204 122.16C207.204 116.565 202.67 112.03 197.075 112.03C191.48 112.03 186.946 116.565 186.946 122.16C186.946 127.754 191.48 132.289 197.075 132.289C202.67 132.289 207.204 127.754 207.204 122.16Z" stroke="#1A2E35" stroke-width="1.33333" stroke-miterlimit="10"/>
<path d="M210.501 134.773L218.418 141.333" stroke="#1A2E35" stroke-width="4" stroke-miterlimit="10"/>
<path d="M205.757 130.842L210.501 134.773" stroke="#1A2E35" stroke-width="2.66667" stroke-miterlimit="10"/>
<path d="M66.0983 117.57H101.554" stroke="#1A2E35" stroke-width="1.33333" stroke-miterlimit="10"/>
<path d="M73.6786 119.281H70.0106V115.613H73.6786V119.281Z" fill="#1A2E35"/>
<path d="M66.0983 125.884H101.554" stroke="#1A2E35" stroke-width="1.33333" stroke-miterlimit="10"/>
<path d="M92.6293 127.596H88.9613V123.928H92.6293V127.596Z" fill="#1A2E35"/>
<path d="M66.0983 134.198H101.554" stroke="#1A2E35" stroke-width="1.33333" stroke-miterlimit="10"/>
<path d="M84.1933 135.909H80.5253V132.241H84.1933V135.909Z" fill="#1A2E35"/>
<path d="M204.139 224.306C204.139 222.757 202.883 221.501 201.333 221.501C199.784 221.501 198.528 222.757 198.528 224.306C198.528 225.855 199.784 227.111 201.333 227.111C202.883 227.111 204.139 225.855 204.139 224.306Z" fill="#1A2E35"/>
<path d="M225.983 166.76C225.983 165.211 224.727 163.955 223.178 163.955C221.628 163.955 220.372 165.211 220.372 166.76C220.372 168.309 221.628 169.565 223.178 169.565C224.727 169.565 225.983 168.309 225.983 166.76Z" fill="#1A2E35"/>
<path d="M141.016 128.355C141.016 126.806 139.76 125.55 138.211 125.55C136.662 125.55 135.406 126.806 135.406 128.355C135.406 129.905 136.662 131.161 138.211 131.161C139.76 131.161 141.016 129.905 141.016 128.355Z" fill="#1A2E35"/>
<path d="M170.925 72.9569C170.925 71.4075 169.669 70.1515 168.12 70.1515C166.57 70.1515 165.314 71.4075 165.314 72.9569C165.314 74.5062 166.57 75.7622 168.12 75.7622C169.669 75.7622 170.925 74.5062 170.925 72.9569Z" fill="#1A2E35"/>
<path d="M63.1867 147.388C63.1867 145.839 61.9307 144.583 60.3814 144.583C58.832 144.583 57.576 145.839 57.576 147.388C57.576 148.937 58.832 150.193 60.3814 150.193C61.9307 150.193 63.1867 148.937 63.1867 147.388Z" fill="#1A2E35"/>
<path d="M150.193 190.211C150.193 188.661 148.937 187.405 147.387 187.405C145.838 187.405 144.582 188.661 144.582 190.211C144.582 191.76 145.838 193.016 147.387 193.016C148.937 193.016 150.193 191.76 150.193 190.211Z" fill="#1A2E35"/>
<path d="M113.737 236.812C113.737 235.263 112.481 234.007 110.932 234.007C109.382 234.007 108.126 235.263 108.126 236.812C108.126 238.362 109.382 239.618 110.932 239.618C112.481 239.618 113.737 238.362 113.737 236.812Z" fill="#1A2E35"/>
<path d="M173.269 214.999C173.269 213.45 172.013 212.194 170.464 212.194C168.914 212.194 167.658 213.45 167.658 214.999C167.658 216.549 168.914 217.805 170.464 217.805C172.013 217.805 173.269 216.549 173.269 214.999Z" fill="#1A2E35"/>
<path d="M230.062 108.303C230.062 106.754 228.806 105.498 227.257 105.498C225.707 105.498 224.451 106.754 224.451 108.303C224.451 109.852 225.707 111.108 227.257 111.108C228.806 111.108 230.062 109.852 230.062 108.303Z" fill="#1A2E35"/>
<path d="M192.676 155.885C192.676 154.335 191.42 153.079 189.871 153.079C188.322 153.079 187.066 154.335 187.066 155.885C187.066 157.434 188.322 158.69 189.871 158.69C191.42 158.69 192.676 157.434 192.676 155.885Z" fill="#1A2E35"/>
<path d="M115.867 103.205C115.867 101.656 114.611 100.4 113.061 100.4C111.512 100.4 110.256 101.656 110.256 103.205C110.256 104.754 111.512 106.01 113.061 106.01C114.611 106.01 115.867 104.754 115.867 103.205Z" fill="#1A2E35"/>
</g>
<mask id="mask6_274_2" style="mask-type:luminance" maskUnits="userSpaceOnUse" x="0" y="0" width="667" height="667">
<path d="M0 -0.000123024H666.667V666.667H0V-0.000123024Z" fill="white"/>
</mask>
<g mask="url(#mask6_274_2)">
<path d="M137.945 421.029C137.945 423.031 136.322 424.655 134.319 424.655H73.2101C71.2074 424.655 69.5847 423.031 69.5847 421.029V307.095C69.5847 305.093 71.2074 303.471 73.2101 303.471H134.319C136.322 303.471 137.945 305.093 137.945 307.095V409.879" stroke="#1A2E35" stroke-width="1.33333" stroke-miterlimit="10"/>
<path d="M120.286 314.471H133.873V413.653H73.6566V398.695" stroke="#1A2E35" stroke-width="1.33333" stroke-miterlimit="10"/>
<path d="M107.704 314.472H114.694" stroke="#1A2E35" stroke-width="1.33333" stroke-miterlimit="10"/>
<path d="M73.657 391.707V314.472H102.113" stroke="#1A2E35" stroke-width="1.33333" stroke-miterlimit="10"/>
<path d="M105.898 418.13C105.898 416.893 104.896 415.891 103.659 415.891C102.423 415.891 101.422 416.893 101.422 418.13C101.422 419.366 102.423 420.369 103.659 420.369C104.896 420.369 105.898 419.366 105.898 418.13Z" stroke="#1A2E35" stroke-width="1.33333" stroke-miterlimit="10"/>
<path d="M104.706 303.941C104.706 302.392 103.45 301.136 101.9 301.136C100.351 301.136 99.0951 302.392 99.0951 303.941C99.0951 305.491 100.351 306.747 101.9 306.747C103.45 306.747 104.706 305.491 104.706 303.941Z" fill="#1A2E35"/>
<path d="M124.489 413.14C124.489 411.592 123.233 410.335 121.684 410.335C120.134 410.335 118.878 411.592 118.878 413.14C118.878 414.69 120.134 415.946 121.684 415.946C123.233 415.946 124.489 414.69 124.489 413.14Z" fill="#1A2E35"/>
<path d="M140.798 360.02C140.798 358.471 139.542 357.215 137.993 357.215C136.444 357.215 135.188 358.471 135.188 360.02C135.188 361.568 136.444 362.826 137.993 362.826C139.542 362.826 140.798 361.568 140.798 360.02Z" fill="#1A2E35"/>
<path d="M85.8133 423.858C85.8133 422.31 84.5573 421.052 83.008 421.052C81.4586 421.052 80.2026 422.31 80.2026 423.858C80.2026 425.407 81.4586 426.663 83.008 426.663C84.5573 426.663 85.8133 425.407 85.8133 423.858Z" fill="#1A2E35"/>
<path d="M84.4154 313.889C84.4154 312.34 83.1594 311.084 81.61 311.084C80.0607 311.084 78.8047 312.34 78.8047 313.889C78.8047 315.438 80.0607 316.694 81.61 316.694C83.1594 316.694 84.4154 315.438 84.4154 313.889Z" fill="#1A2E35"/>
</g>
<mask id="mask7_274_2" style="mask-type:luminance" maskUnits="userSpaceOnUse" x="0" y="0" width="667" height="667">
<path d="M0 -0.000123024H666.667V666.667H0V-0.000123024Z" fill="white"/>
</mask>
<g mask="url(#mask7_274_2)">
<path d="M41.5046 547.14V473.662C41.5046 470.219 44.2953 467.427 47.7393 467.427H160.789C164.233 467.427 167.025 470.219 167.025 473.662V547.45" stroke="#1A2E35" stroke-width="1.33333" stroke-miterlimit="10"/>
<path d="M88.5084 555.54H82.6138" stroke="#1A2E35" stroke-width="1.33333" stroke-miterlimit="10"/>
<path d="M75.1681 555.54H36.3987C33.2507 555.54 30.6974 552.987 30.6974 549.839V547.228H177.831V549.839C177.831 552.987 175.279 555.54 172.129 555.54H94.0934" stroke="#1A2E35" stroke-width="1.33333" stroke-miterlimit="10"/>
<path d="M95.3341 472.06H101.539" stroke="#1A2E35" stroke-width="1.33333" stroke-miterlimit="10"/>
<path d="M106.193 472.06H162.969V546.209H45.6941V472.06H86.9581" stroke="#1A2E35" stroke-width="1.33333" stroke-miterlimit="10"/>
<path d="M66.0411 466.998C66.0411 465.449 64.7851 464.193 63.2358 464.193C61.6864 464.193 60.4304 465.449 60.4304 466.998C60.4304 468.546 61.6864 469.804 63.2358 469.804C64.7851 469.804 66.0411 468.546 66.0411 466.998Z" fill="#1A2E35"/>
<path d="M176.801 547.353C176.801 545.804 175.545 544.548 173.996 544.548C172.446 544.548 171.19 545.804 171.19 547.353C171.19 548.902 172.446 550.158 173.996 550.158C175.545 550.158 176.801 548.902 176.801 547.353Z" fill="#1A2E35"/>
<path d="M156.156 472.369C156.156 470.82 154.9 469.564 153.351 469.564C151.802 469.564 150.546 470.82 150.546 472.369C150.546 473.919 151.802 475.175 153.351 475.175C154.9 475.175 156.156 473.919 156.156 472.369Z" fill="#1A2E35"/>
<path d="M54.7044 555.207C54.7044 553.658 53.4484 552.402 51.8991 552.402C50.3498 552.402 49.0938 553.658 49.0938 555.207C49.0938 556.755 50.3498 558.012 51.8991 558.012C53.4484 558.012 54.7044 556.755 54.7044 555.207Z" fill="#1A2E35"/>
</g>
<mask id="mask8_274_2" style="mask-type:luminance" maskUnits="userSpaceOnUse" x="0" y="0" width="667" height="667">
<path d="M0 -0.000123024H666.667V666.667H0V-0.000123024Z" fill="white"/>
</mask>
<g mask="url(#mask8_274_2)">
<path d="M422.889 52.1075H344.148C341.765 52.1075 339.835 54.0381 339.835 56.4195V96.7194C339.835 99.1021 341.765 101.033 344.148 101.033H387.207L380.607 120.835L397.439 101.033H422.889C425.271 101.033 427.201 99.1021 427.201 96.7194V56.4195C427.201 54.0381 425.271 52.1075 422.889 52.1075Z" stroke="#1A2E35" stroke-width="1.33333" stroke-miterlimit="10"/>
<path d="M401.543 66.0259H417.022" stroke="#1A2E35" stroke-width="1.33333" stroke-miterlimit="10"/>
<path d="M391.043 66.0259H397.399" stroke="#1A2E35" stroke-width="1.33333" stroke-miterlimit="10"/>
<path d="M365.348 66.0259H384.965" stroke="#1A2E35" stroke-width="1.33333" stroke-miterlimit="10"/>
<path d="M352.692 66.0259H360.376" stroke="#1A2E35" stroke-width="1.33333" stroke-miterlimit="10"/>
<path d="M412.318 76.1836H417.022" stroke="#1A2E35" stroke-width="1.33333" stroke-miterlimit="10"/>
<path d="M371.15 76.1836H409.003" stroke="#1A2E35" stroke-width="1.33333" stroke-miterlimit="10"/>
<path d="M352.692 76.1836H367.282" stroke="#1A2E35" stroke-width="1.33333" stroke-miterlimit="10"/>
<path d="M411.212 86.3413H417.022" stroke="#1A2E35" stroke-width="1.33333" stroke-miterlimit="10"/>
<path d="M399.056 86.3413H405.135" stroke="#1A2E35" stroke-width="1.33333" stroke-miterlimit="10"/>
<path d="M365.072 86.3413H393.806" stroke="#1A2E35" stroke-width="1.33333" stroke-miterlimit="10"/>
<path d="M352.692 86.3413H361.757" stroke="#1A2E35" stroke-width="1.33333" stroke-miterlimit="10"/>
</g>
<path d="M407.476 454.298H256.452V521.289H407.476V454.298Z" fill="#1A2E35" stroke="#1A2E35" stroke-width="1.33333" stroke-miterlimit="10"/>
<path d="M343.545 465.285H320.705V456.552H343.545V465.285Z" fill="white" stroke="#1A2E35" stroke-width="1.33333" stroke-miterlimit="10"/>
<mask id="mask9_274_2" style="mask-type:luminance" maskUnits="userSpaceOnUse" x="0" y="0" width="667" height="667">
<path d="M0 -0.000123024H666.667V666.667H0V-0.000123024Z" fill="white"/>
</mask>
<g mask="url(#mask9_274_2)">
<path d="M434.76 278.779C434.76 277.182 431.167 274.785 425.574 271.59C419.983 268.394 367.262 244.43 367.262 244.43L336.108 242.807V242.434L332.512 242.621L328.919 242.434V242.807L297.764 244.43C297.764 244.43 245.043 268.394 239.452 271.59C233.86 274.785 230.264 277.182 230.264 278.779C230.264 280.377 253.671 430.693 254.09 434.887C254.51 439.081 254.09 451.242 254.09 454.178C254.09 457.113 260.38 458.79 260.38 458.79H328.738H336.288H404.646C404.646 458.79 410.936 457.113 410.936 454.178C410.936 451.242 410.516 439.081 410.936 434.887C411.355 430.693 434.76 280.377 434.76 278.779Z" fill="#5AE4A7"/>
<path d="M434.76 278.779C434.76 277.182 431.167 274.785 425.574 271.59C419.983 268.394 367.262 244.43 367.262 244.43L336.108 242.807V242.434L332.512 242.621L328.919 242.434V242.807L297.764 244.43C297.764 244.43 245.043 268.394 239.452 271.59C233.86 274.785 230.264 277.182 230.264 278.779C230.264 280.377 253.671 430.693 254.09 434.887C254.51 439.081 254.09 451.242 254.09 454.178C254.09 457.113 260.38 458.79 260.38 458.79H328.738H336.288H404.646C404.646 458.79 410.936 457.113 410.936 454.178C410.936 451.242 410.516 439.081 410.936 434.887C411.355 430.693 434.76 280.377 434.76 278.779Z" stroke="#1A2E35" stroke-width="1.33333" stroke-miterlimit="10"/>
<path d="M425.574 271.59C419.984 268.395 367.262 244.43 367.262 244.43L336.108 242.808V242.434L332.513 242.62L328.918 242.434V242.808L297.765 244.43C297.765 244.43 245.044 268.395 239.452 271.59C233.86 274.784 230.265 277.182 230.265 278.779C230.265 279.315 232.906 296.631 236.428 319.544L238.098 320.92C238.098 320.92 247.51 288.92 275.744 275.744C303.98 262.568 315.273 258.803 342.566 258.803C368.156 258.803 414.425 296.03 428.637 319.294C432.14 296.506 434.761 279.314 434.761 278.779C434.761 277.182 431.166 274.784 425.574 271.59Z" fill="#1A2E35"/>
<path d="M425.574 271.59C419.984 268.395 367.262 244.43 367.262 244.43L336.108 242.808V242.434L332.513 242.62L328.918 242.434V242.808L297.765 244.43C297.765 244.43 245.044 268.395 239.452 271.59C233.86 274.784 230.265 277.182 230.265 278.779C230.265 279.315 232.906 296.631 236.428 319.544L238.098 320.92C238.098 320.92 247.51 288.92 275.744 275.744C303.98 262.568 315.273 258.803 342.566 258.803C368.156 258.803 414.425 296.03 428.637 319.294C432.14 296.506 434.761 279.314 434.761 278.779C434.761 277.182 431.166 274.784 425.574 271.59Z" stroke="#1A2E35" stroke-width="1.33333" stroke-miterlimit="10"/>
<path d="M316.137 273.587L331.315 288.365L311.344 425.358L331.609 456.458L354.956 424.993L339.701 287.966L354.081 272.789L335.708 253.218L316.137 273.587Z" fill="#1A2E35"/>
<path d="M316.137 273.587L331.315 288.365L311.344 425.358L331.609 456.458L354.956 424.993L339.701 287.966L354.081 272.789L335.708 253.218L316.137 273.587Z" stroke="#1A2E35" stroke-width="1.33333" stroke-miterlimit="10"/>
<path d="M363.094 128.823C358.738 127.89 349.03 125.921 341.258 124.354V122.105C341.258 122.105 339.011 122.554 335.659 123.227C332.308 122.554 330.06 122.105 330.06 122.105V124.354C322.288 125.921 312.58 127.89 308.226 128.823C300.387 130.503 295.627 130.503 295.627 138.342C295.627 138.342 297.867 194.609 298.987 199.929C300.107 205.247 300.947 212.245 304.586 215.325C308.226 218.405 308.506 219.523 308.506 219.523V236.321C308.506 236.321 321.94 265.15 324.462 267.114C331.732 272.771 340.1 272.369 346.856 267.114C349.376 265.154 362.814 236.321 362.814 236.321V219.523C362.814 219.523 363.094 218.405 366.732 215.325C370.371 212.245 371.211 205.247 372.331 199.929C373.451 194.609 375.69 138.342 375.69 138.342C375.69 130.503 370.931 130.503 363.094 128.823Z" fill="white"/>
<path d="M363.094 128.823C358.738 127.89 349.03 125.921 341.258 124.354V122.105C341.258 122.105 339.011 122.554 335.659 123.227C332.308 122.554 330.06 122.105 330.06 122.105V124.354C322.288 125.921 312.58 127.89 308.226 128.823C300.387 130.503 295.627 130.503 295.627 138.342C295.627 138.342 297.867 194.609 298.987 199.929C300.107 205.247 300.947 212.245 304.586 215.325C308.226 218.405 308.506 219.523 308.506 219.523V236.321C308.506 236.321 321.94 265.15 324.462 267.114C331.732 272.771 340.1 272.369 346.856 267.114C349.376 265.154 362.814 236.321 362.814 236.321V219.523C362.814 219.523 363.094 218.405 366.732 215.325C370.371 212.245 371.211 205.247 372.331 199.929C373.451 194.609 375.69 138.342 375.69 138.342C375.69 130.503 370.931 130.503 363.094 128.823Z" stroke="#1A2E35" stroke-width="1.33333" stroke-miterlimit="10"/>
<path d="M311.585 137.782C311.585 137.782 339.298 149.259 347.137 149.259C354.975 149.259 346.297 145.62 346.297 145.62C346.297 145.62 357.215 149.259 361.414 149.259H365.613C365.613 149.259 366.173 157.098 366.733 157.938C367.291 158.778 367.011 159.896 367.851 160.456C368.691 161.016 369.811 162.136 369.811 162.136C369.811 162.136 371.771 192.65 372.89 195.728C374.01 198.808 375.97 150.659 375.97 150.659C375.97 150.659 380.169 146.74 379.33 139.462C378.49 132.183 362.814 120.146 346.297 114.547C329.781 108.948 317.183 116.226 311.585 121.266C305.986 126.304 305.146 128.544 305.146 128.544C305.146 128.544 296.467 127.984 295.067 131.343C293.669 134.702 299.547 194.33 299.547 194.33L300.946 162.136C300.946 162.136 305.426 157.378 305.706 154.858C305.986 152.338 308.785 141.142 308.785 141.142C308.785 141.142 312.985 143.66 314.105 142.82C315.223 141.98 311.585 137.782 311.585 137.782Z" fill="#1A2E35"/>
<path d="M311.585 137.782C311.585 137.782 339.298 149.259 347.137 149.259C354.975 149.259 346.297 145.62 346.297 145.62C346.297 145.62 357.215 149.259 361.414 149.259H365.613C365.613 149.259 366.173 157.098 366.733 157.938C367.291 158.778 367.011 159.896 367.851 160.456C368.691 161.016 369.811 162.136 369.811 162.136C369.811 162.136 371.771 192.65 372.89 195.728C374.01 198.808 375.97 150.659 375.97 150.659C375.97 150.659 380.169 146.74 379.33 139.462C378.49 132.183 362.814 120.146 346.297 114.547C329.781 108.948 317.183 116.226 311.585 121.266C305.986 126.304 305.146 128.544 305.146 128.544C305.146 128.544 296.467 127.984 295.067 131.343C293.669 134.702 299.547 194.33 299.547 194.33L300.946 162.136C300.946 162.136 305.426 157.378 305.706 154.858C305.986 152.338 308.785 141.142 308.785 141.142C308.785 141.142 312.985 143.66 314.105 142.82C315.223 141.98 311.585 137.782 311.585 137.782Z" stroke="#1A2E35" stroke-width="1.33333" stroke-miterlimit="10"/>
<path d="M297.867 176.973C297.867 176.973 296.187 174.453 294.229 176.133C292.269 177.813 290.59 189.01 291.709 191.809C292.829 194.609 294.507 198.808 295.907 199.088C297.307 199.368 298.987 199.928 298.987 199.928L297.867 176.973Z" fill="#1A2E35"/>
<path d="M297.867 176.973C297.867 176.973 296.187 174.453 294.229 176.133C292.269 177.813 290.59 189.01 291.709 191.809C292.829 194.609 294.507 198.808 295.907 199.088C297.307 199.368 298.987 199.928 298.987 199.928L297.867 176.973Z" stroke="#1A2E35" stroke-width="1.33333" stroke-miterlimit="10"/>
<path d="M373.651 176.973C373.651 176.973 375.331 174.453 377.29 176.133C379.25 177.813 380.93 189.01 379.81 191.809C378.69 194.609 377.011 198.808 375.611 199.088C374.211 199.368 372.531 199.928 372.531 199.928L373.651 176.973Z" fill="#1A2E35"/>
<path d="M373.651 176.973C373.651 176.973 375.331 174.453 377.29 176.133C379.25 177.813 380.93 189.01 379.81 191.809C378.69 194.609 377.011 198.808 375.611 199.088C374.211 199.368 372.531 199.928 372.531 199.928L373.651 176.973Z" stroke="#1A2E35" stroke-width="1.33333" stroke-miterlimit="10"/>
<path d="M305.706 160.177C305.706 160.177 308.506 154.859 313.264 154.299C318.023 153.739 329.22 156.539 328.38 160.177C327.54 163.816 305.706 160.177 305.706 160.177Z" fill="#1A2E35"/>
<path d="M305.706 160.177C305.706 160.177 308.506 154.859 313.264 154.299C318.023 153.739 329.22 156.539 328.38 160.177C327.54 163.816 305.706 160.177 305.706 160.177Z" stroke="#1A2E35" stroke-width="1.33333" stroke-miterlimit="10"/>
<path d="M365.658 160.177C365.658 160.177 362.858 154.859 358.099 154.299C353.34 153.739 342.142 156.539 342.982 160.177C343.822 163.816 365.658 160.177 365.658 160.177Z" fill="#1A2E35"/>
<path d="M365.658 160.177C365.658 160.177 362.858 154.859 358.099 154.299C353.34 153.739 342.142 156.539 342.982 160.177C343.822 163.816 365.658 160.177 365.658 160.177Z" stroke="#1A2E35" stroke-width="1.33333" stroke-miterlimit="10"/>
<path d="M328.785 176.973H305.301C303.677 176.973 302.363 175.657 302.363 174.033L301.227 162.277C301.227 160.653 302.543 159.337 304.167 159.337H329.921C331.544 159.337 332.86 160.653 332.86 162.277L331.725 174.033C331.725 175.657 330.408 176.973 328.785 176.973Z" fill="white"/>
<path d="M328.785 176.973H305.301C303.677 176.973 302.363 175.657 302.363 174.033L301.227 162.277C301.227 160.653 302.543 159.337 304.167 159.337H329.921C331.544 159.337 332.86 160.653 332.86 162.277L331.725 174.033C331.725 175.657 330.408 176.973 328.785 176.973Z" stroke="#1A2E35" stroke-width="1.33333" stroke-miterlimit="10"/>
<path d="M365.177 176.973H341.694C340.07 176.973 338.754 175.657 338.754 174.033L337.618 162.277C337.618 160.653 338.934 159.337 340.558 159.337H366.313C367.936 159.337 369.252 160.653 369.252 162.277L368.116 174.033C368.116 175.657 366.801 176.973 365.177 176.973Z" fill="white"/>
<path d="M365.177 176.973H341.694C340.07 176.973 338.754 175.657 338.754 174.033L337.618 162.277C337.618 160.653 338.934 159.337 340.558 159.337H366.313C367.936 159.337 369.252 160.653 369.252 162.277L368.116 174.033C368.116 175.657 366.801 176.973 365.177 176.973Z" stroke="#1A2E35" stroke-width="1.33333" stroke-miterlimit="10"/>
<path d="M340.559 159.337H329.92" stroke="#1A2E35" stroke-width="1.33333" stroke-miterlimit="10"/>
<path d="M332.86 162.276H337.619" stroke="#1A2E35" stroke-width="1.33333" stroke-miterlimit="10"/>
<path d="M332.58 164.656C332.58 164.656 328.661 178.654 328.661 180.332C328.661 182.012 330.06 182.572 330.06 182.572C330.06 182.572 331.46 177.814 332.86 177.254C334.26 176.694 338.739 176.974 338.739 176.974L341.537 182.572C341.537 182.572 342.377 182.012 342.657 180.052C342.937 178.094 337.899 164.376 337.899 164.376C337.899 164.376 333.98 163.256 332.58 164.656Z" fill="#1A2E35"/>
<path d="M332.58 164.656C332.58 164.656 328.661 178.654 328.661 180.332C328.661 182.012 330.06 182.572 330.06 182.572C330.06 182.572 331.46 177.814 332.86 177.254C334.26 176.694 338.739 176.974 338.739 176.974L341.537 182.572C341.537 182.572 342.377 182.012 342.657 180.052C342.937 178.094 337.899 164.376 337.899 164.376C337.899 164.376 333.98 163.256 332.58 164.656Z" stroke="#1A2E35" stroke-width="1.33333" stroke-miterlimit="10"/>
<path d="M321.766 225.65C322.531 225.902 323.252 226.106 323.902 226.243" stroke="#1A2E35" stroke-width="1.33333" stroke-miterlimit="10"/>
<path d="M308.505 219.524C308.505 219.524 314.064 222.612 319.104 224.66" stroke="#1A2E35" stroke-width="1.33333" stroke-miterlimit="10"/>
<path d="M362.814 218.684C362.814 218.684 356.375 224.283 350.497 225.123" stroke="#1A2E35" stroke-width="1.33333" stroke-miterlimit="10"/>
<path d="M322.222 200.209C322.222 200.209 331.741 198.249 337.058 198.249C342.378 198.249 348.817 200.769 348.817 200.769C348.817 200.769 342.938 192.65 340.698 191.81C338.458 190.971 332.301 191.81 330.341 191.81C328.381 191.81 322.222 200.209 322.222 200.209Z" fill="#1A2E35"/>
<path d="M322.222 200.209C322.222 200.209 331.741 198.249 337.058 198.249C342.378 198.249 348.817 200.769 348.817 200.769C348.817 200.769 342.938 192.65 340.698 191.81C338.458 190.971 332.301 191.81 330.341 191.81C328.381 191.81 322.222 200.209 322.222 200.209Z" stroke="#1A2E35" stroke-width="1.33333" stroke-miterlimit="10" stroke-linejoin="round"/>
<path d="M343.777 205.758C343.777 205.758 333.42 205.478 329.78 205.758C326.141 206.038 325.581 210.517 325.581 210.517C325.581 210.517 332.3 208.558 336.219 208.558C340.139 208.558 346.577 209.957 346.577 209.957C346.577 209.957 347.137 207.718 343.777 205.758Z" fill="#1A2E35"/>
<path d="M343.777 205.758C343.777 205.758 333.42 205.478 329.78 205.758C326.141 206.038 325.581 210.517 325.581 210.517C325.581 210.517 332.3 208.558 336.219 208.558C340.139 208.558 346.577 209.957 346.577 209.957C346.577 209.957 347.137 207.718 343.777 205.758Z" stroke="#1A2E35" stroke-width="1.33333" stroke-miterlimit="10" stroke-linejoin="round"/>
<path d="M230.265 278.779L188.728 388.615L225.872 405.79L246.241 366.649L230.265 278.779Z" fill="#5AE4A7"/>
<path d="M230.265 278.779L188.728 388.615L225.872 405.79L246.241 366.649L230.265 278.779Z" stroke="#1A2E35" stroke-width="1.33333" stroke-miterlimit="10"/>
<path d="M239.674 379.268C238.249 376.755 236.131 373.251 233.062 368.646C225.871 357.862 218.283 351.072 218.283 351.072C218.283 351.072 221.079 351.87 226.671 355.464C232.262 359.06 235.458 361.058 234.259 356.264C233.062 351.471 221.479 335.895 220.679 333.099C219.881 330.303 224.674 329.903 225.871 325.11C226.831 321.275 230.343 296.492 231.711 286.73L230.265 278.779L188.727 388.616L199.093 393.408H212.293L236.118 386.102L239.674 379.268Z" fill="#1A2E35"/>
<path d="M239.674 379.268C238.249 376.755 236.131 373.251 233.062 368.646C225.871 357.862 218.283 351.072 218.283 351.072C218.283 351.072 221.079 351.87 226.671 355.464C232.262 359.06 235.458 361.058 234.259 356.264C233.062 351.471 221.479 335.895 220.679 333.099C219.881 330.303 224.674 329.903 225.871 325.11C226.831 321.275 230.343 296.492 231.711 286.73L230.265 278.779L188.727 388.616L199.093 393.408H212.293L236.118 386.102L239.674 379.268Z" stroke="#1A2E35" stroke-width="1.33333" stroke-miterlimit="10"/>
<path d="M233.86 375.835C233.86 375.835 217.084 374.637 210.695 374.637C204.304 374.637 194.719 375.435 191.124 381.425C187.528 387.419 186.331 406.191 191.124 416.575C195.916 426.959 209.496 429.753 217.084 429.356C224.673 428.956 239.052 417.772 241.049 412.181C243.047 406.588 240.649 393.807 238.653 387.019C236.656 380.228 233.86 375.835 233.86 375.835Z" fill="#5AE4A7"/>
<path d="M233.86 375.835C233.86 375.835 217.084 374.637 210.695 374.637C204.304 374.637 194.719 375.435 191.124 381.425C187.528 387.419 186.331 406.191 191.124 416.575C195.916 426.959 209.496 429.753 217.084 429.356C224.673 428.956 239.052 417.772 241.049 412.181C243.047 406.588 240.649 393.807 238.653 387.019C236.656 380.228 233.86 375.835 233.86 375.835Z" stroke="#1A2E35" stroke-width="1.33333" stroke-miterlimit="10"/>
<path d="M233.86 375.835C233.86 375.835 219.881 378.631 219.881 387.419C219.881 396.204 224.275 404.991 229.467 406.588C234.659 408.187 241.848 403.393 241.848 403.393C241.848 403.393 246.64 400.197 244.644 390.613C242.647 381.028 237.455 376.235 233.86 375.835Z" fill="#5AE4A7"/>
<path d="M233.86 375.835C233.86 375.835 219.881 378.631 219.881 387.419C219.881 396.204 224.275 404.991 229.467 406.588C234.659 408.187 241.848 403.393 241.848 403.393C241.848 403.393 246.64 400.197 244.644 390.613C242.647 381.028 237.455 376.235 233.86 375.835Z" stroke="#1A2E35" stroke-width="1.33333" stroke-miterlimit="10"/>
<path d="M243.445 359.459C243.445 359.459 247.839 352.669 249.037 351.071C250.236 349.474 254.629 345.081 257.025 341.086C259.421 337.093 262.217 333.098 263.016 338.69C263.815 344.281 258.223 350.271 257.025 351.87C255.827 353.467 251.035 359.858 251.035 359.858C251.035 359.858 243.047 364.251 243.445 359.459Z" fill="white"/>
<path d="M243.445 359.459C243.445 359.459 247.839 352.669 249.037 351.071C250.236 349.474 254.629 345.081 257.025 341.086C259.421 337.093 262.217 333.098 263.016 338.69C263.815 344.281 258.223 350.271 257.025 351.87C255.827 353.467 251.035 359.858 251.035 359.858C251.035 359.858 243.047 364.251 243.445 359.459Z" stroke="#1A2E35" stroke-width="1.33333" stroke-miterlimit="10"/>
<path d="M232.262 383.023C232.262 383.023 235.058 367.049 237.454 363.853C239.85 360.658 257.025 349.474 260.62 347.477C264.214 345.481 286.981 345.879 286.981 345.879C286.981 345.879 292.972 347.477 289.377 349.874C285.782 352.27 276.996 351.471 276.996 351.471L263.416 358.261L276.996 355.465L290.576 357.462C290.576 357.462 293.372 359.858 292.173 361.855C290.974 363.853 282.588 363.853 282.588 363.853H276.197L261.418 370.642L277.794 368.246C277.794 368.246 288.18 366.249 288.578 369.045C288.978 371.841 285.782 374.237 283.786 374.237C281.789 374.237 276.596 375.834 276.596 375.834L266.612 379.43L281.789 377.033C281.789 377.033 282.588 379.43 281.389 380.627C280.19 381.826 265.413 387.418 265.413 387.418C265.413 387.418 251.433 393.009 249.437 394.607C247.44 396.205 243.845 400.598 237.056 399.799C230.265 398.999 230.665 385.421 232.262 383.023Z" fill="white"/>
<path d="M232.262 383.023C232.262 383.023 235.058 367.049 237.454 363.853C239.85 360.658 257.025 349.474 260.62 347.477C264.214 345.481 286.981 345.879 286.981 345.879C286.981 345.879 292.972 347.477 289.377 349.874C285.782 352.27 276.996 351.471 276.996 351.471L263.416 358.261L276.996 355.465L290.576 357.462C290.576 357.462 293.372 359.858 292.173 361.855C290.974 363.853 282.588 363.853 282.588 363.853H276.197L261.418 370.642L277.794 368.246C277.794 368.246 288.18 366.249 288.578 369.045C288.978 371.841 285.782 374.237 283.786 374.237C281.789 374.237 276.596 375.834 276.596 375.834L266.612 379.43L281.789 377.033C281.789 377.033 282.588 379.43 281.389 380.627C280.19 381.826 265.413 387.418 265.413 387.418C265.413 387.418 251.433 393.009 249.437 394.607C247.44 396.205 243.845 400.598 237.056 399.799C230.265 398.999 230.665 385.421 232.262 383.023Z" stroke="#1A2E35" stroke-width="1.33333" stroke-miterlimit="10"/>
<path d="M266.611 379.43L261.418 381.426Z" fill="white"/>
<path d="M266.611 379.43L261.418 381.426" stroke="#1A2E35" stroke-width="1.33333" stroke-miterlimit="10"/>
<path d="M263.416 358.26L257.824 360.258Z" fill="white"/>
<path d="M263.416 358.26L257.824 360.258" stroke="#1A2E35" stroke-width="1.33333" stroke-miterlimit="10"/>
<path d="M434.694 278.779L476.231 388.615L439.087 405.79L418.718 366.649L434.694 278.779Z" fill="#5AE4A7"/>
<path d="M434.694 278.779L476.231 388.615L439.087 405.79L418.718 366.649L434.694 278.779Z" stroke="#1A2E35" stroke-width="1.33333" stroke-miterlimit="10"/>
<path d="M425.285 379.268C426.71 376.755 428.828 373.251 431.898 368.646C439.088 357.862 446.676 351.072 446.676 351.072C446.676 351.072 443.88 351.87 438.289 355.464C432.697 359.06 429.501 361.058 430.7 356.264C431.898 351.471 443.48 335.895 444.28 333.099C445.078 330.303 440.285 329.903 439.088 325.11C438.129 321.275 434.616 296.492 433.249 286.73L434.694 278.779L476.232 388.616L465.866 393.408H452.666L428.841 386.102L425.285 379.268Z" fill="#1A2E35"/>
<path d="M425.285 379.268C426.71 376.755 428.828 373.251 431.898 368.646C439.088 357.862 446.676 351.072 446.676 351.072C446.676 351.072 443.88 351.87 438.289 355.464C432.697 359.06 429.501 361.058 430.7 356.264C431.898 351.471 443.48 335.895 444.28 333.099C445.078 330.303 440.285 329.903 439.088 325.11C438.129 321.275 434.616 296.492 433.249 286.73L434.694 278.779L476.232 388.616L465.866 393.408H452.666L428.841 386.102L425.285 379.268Z" stroke="#1A2E35" stroke-width="1.33333" stroke-miterlimit="10"/>
<path d="M307.75 229.253L327.321 263.203L310.945 287.167L295.767 244.031L307.75 229.253Z" fill="#5AE4A7"/>
<path d="M307.75 229.253L327.321 263.203L310.945 287.167L295.767 244.031L307.75 229.253Z" stroke="#1A2E35" stroke-width="1.33333" stroke-miterlimit="10"/>
<path d="M363.267 229.253L343.696 263.203L360.072 287.167L375.248 244.031L363.267 229.253Z" fill="#5AE4A7"/>
<path d="M363.267 229.253L343.696 263.203L360.072 287.167L375.248 244.031L363.267 229.253Z" stroke="#1A2E35" stroke-width="1.33333" stroke-miterlimit="10"/>
<path d="M431.099 375.835C431.099 375.835 447.873 374.637 454.264 374.637C460.655 374.637 470.24 375.435 473.836 381.425C477.429 387.419 478.628 406.191 473.836 416.575C469.043 426.959 455.463 429.753 447.873 429.356C440.285 428.956 425.907 417.772 423.909 412.181C421.912 406.588 424.309 393.807 426.305 387.019C428.303 380.228 431.099 375.835 431.099 375.835Z" fill="#5AE4A7"/>
<path d="M431.099 375.835C431.099 375.835 447.873 374.637 454.264 374.637C460.655 374.637 470.24 375.435 473.836 381.425C477.429 387.419 478.628 406.191 473.836 416.575C469.043 426.959 455.463 429.753 447.873 429.356C440.285 428.956 425.907 417.772 423.909 412.181C421.912 406.588 424.309 393.807 426.305 387.019C428.303 380.228 431.099 375.835 431.099 375.835Z" stroke="#1A2E35" stroke-width="1.33333" stroke-miterlimit="10"/>
<path d="M431.099 375.835C431.099 375.835 445.078 378.631 445.078 387.419C445.078 396.204 440.684 404.991 435.492 406.588C430.3 408.187 423.111 403.393 423.111 403.393C423.111 403.393 418.318 400.197 420.315 390.613C422.312 381.028 427.504 376.235 431.099 375.835Z" fill="#5AE4A7"/>
<path d="M431.099 375.835C431.099 375.835 445.078 378.631 445.078 387.419C445.078 396.204 440.684 404.991 435.492 406.588C430.3 408.187 423.111 403.393 423.111 403.393C423.111 403.393 418.318 400.197 420.315 390.613C422.312 381.028 427.504 376.235 431.099 375.835Z" stroke="#1A2E35" stroke-width="1.33333" stroke-miterlimit="10"/>
<path d="M421.513 359.459C421.513 359.459 417.12 352.669 415.922 351.071C414.724 349.474 410.33 345.081 407.933 341.086C405.538 337.093 402.741 333.098 401.942 338.69C401.144 344.281 406.736 350.271 407.933 351.87C409.132 353.467 413.925 359.858 413.925 359.858C413.925 359.858 421.913 364.251 421.513 359.459Z" fill="white"/>
<path d="M421.513 359.459C421.513 359.459 417.12 352.669 415.922 351.071C414.724 349.474 410.33 345.081 407.933 341.086C405.538 337.093 402.741 333.098 401.942 338.69C401.144 344.281 406.736 350.271 407.933 351.87C409.132 353.467 413.925 359.858 413.925 359.858C413.925 359.858 421.913 364.251 421.513 359.459Z" stroke="#1A2E35" stroke-width="1.33333" stroke-miterlimit="10"/>
<path d="M432.697 383.023C432.697 383.023 429.901 367.049 427.503 363.853C425.109 360.658 407.934 349.474 404.338 347.477C400.745 345.481 377.978 345.879 377.978 345.879C377.978 345.879 371.987 347.477 375.582 349.874C379.177 352.27 387.963 351.471 387.963 351.471L401.543 358.261L387.963 355.465L374.385 357.462C374.385 357.462 371.587 359.858 372.786 361.855C373.985 363.853 382.373 363.853 382.373 363.853H388.762L403.541 370.642L387.165 368.246C387.165 368.246 376.779 366.249 376.381 369.045C375.982 371.841 379.177 374.237 381.173 374.237C383.17 374.237 388.363 375.834 388.363 375.834L398.347 379.43L383.17 377.033C383.17 377.033 382.373 379.43 383.57 380.627C384.769 381.826 399.546 387.418 399.546 387.418C399.546 387.418 413.525 393.009 415.522 394.607C417.519 396.205 421.114 400.598 427.903 399.799C434.694 398.999 434.294 385.421 432.697 383.023Z" fill="white"/>
<path d="M432.697 383.023C432.697 383.023 429.901 367.049 427.503 363.853C425.109 360.658 407.934 349.474 404.338 347.477C400.745 345.481 377.978 345.879 377.978 345.879C377.978 345.879 371.987 347.477 375.582 349.874C379.177 352.27 387.963 351.471 387.963 351.471L401.543 358.261L387.963 355.465L374.385 357.462C374.385 357.462 371.587 359.858 372.786 361.855C373.985 363.853 382.373 363.853 382.373 363.853H388.762L403.541 370.642L387.165 368.246C387.165 368.246 376.779 366.249 376.381 369.045C375.982 371.841 379.177 374.237 381.173 374.237C383.17 374.237 388.363 375.834 388.363 375.834L398.347 379.43L383.17 377.033C383.17 377.033 382.373 379.43 383.57 380.627C384.769 381.826 399.546 387.418 399.546 387.418C399.546 387.418 413.525 393.009 415.522 394.607C417.519 396.205 421.114 400.598 427.903 399.799C434.694 398.999 434.294 385.421 432.697 383.023Z" stroke="#1A2E35" stroke-width="1.33333" stroke-miterlimit="10"/>
<path d="M398.348 379.43L403.541 381.426Z" fill="white"/>
<path d="M398.348 379.43L403.541 381.426" stroke="#1A2E35" stroke-width="1.33333" stroke-miterlimit="10"/>
<path d="M401.543 358.26L407.135 360.258Z" fill="white"/>
<path d="M401.543 358.26L407.135 360.258" stroke="#1A2E35" stroke-width="1.33333" stroke-miterlimit="10"/>
<path d="M268.98 518.354V525.744H348.92V531.118H301.896V535.149H367.057V528.432H356.309V524.401H400.647V514.325" fill="#1A2E35"/>
<path d="M268.98 518.354V525.744H348.92V531.118H301.896V535.149H367.057V528.432H356.309V524.401H400.647V514.325" stroke="#1A2E35" stroke-width="1.33333" stroke-miterlimit="10"/>
<path d="M293.835 535.82H278.384V532.461H293.835V535.82Z" fill="#1A2E35" stroke="#1A2E35" stroke-width="1.33333" stroke-miterlimit="10"/>
<path d="M287.768 557.234H277.213V549.494H287.768V557.234Z" stroke="#1A2E35" stroke-width="1.33333" stroke-miterlimit="10"/>
<path d="M318.021 562.159H310.985V557.937H318.021V562.159Z" stroke="#1A2E35" stroke-width="1.33333" stroke-miterlimit="10"/>
<path d="M348.977 559.345H337.721V555.827H348.977V559.345Z" stroke="#1A2E35" stroke-width="1.33333" stroke-miterlimit="10"/>
<path d="M330.685 579.75H323.649V575.528H330.685V579.75Z" stroke="#1A2E35" stroke-width="1.33333" stroke-miterlimit="10"/>
<path d="M358.124 567.084H353.2V564.269H358.124V567.084Z" stroke="#1A2E35" stroke-width="1.33333" stroke-miterlimit="10"/>
<path d="M385.564 555.124H362.345V548.088H385.564V555.124Z" stroke="#1A2E35" stroke-width="1.33333" stroke-miterlimit="10"/>
<path d="M306.764 579.75H295.507V574.12H306.764V579.75Z" stroke="#1A2E35" stroke-width="1.33333" stroke-miterlimit="10"/>
<path d="M334.203 596.635H328.573V593.821H334.203V596.635Z" stroke="#1A2E35" stroke-width="1.33333" stroke-miterlimit="10"/>
<path d="M327.423 545.225H304.583V541.196H327.423V545.225Z" fill="#1A2E35" stroke="#1A2E35" stroke-width="1.33333" stroke-miterlimit="10"/>
<path d="M361.684 540.524H347.577V538.508H361.684V540.524Z" fill="#1A2E35" stroke="#1A2E35" stroke-width="1.33333" stroke-miterlimit="10"/>
<path d="M385.867 530.447H371.759V527.759H385.867V530.447Z" fill="#1A2E35" stroke="#1A2E35" stroke-width="1.33333" stroke-miterlimit="10"/>
<path d="M266.964 534.476H260.247V527.759H266.964V534.476Z" fill="#1A2E35" stroke="#1A2E35" stroke-width="1.33333" stroke-miterlimit="10"/>
<path d="M399.973 539.18H393.256V532.463H399.973V539.18Z" fill="#1A2E35" stroke="#1A2E35" stroke-width="1.33333" stroke-miterlimit="10"/>
<path d="M251.713 590.532L265.333 632" stroke="#1A2E35" stroke-width="1.33333" stroke-miterlimit="10"/>
<path d="M247.966 579.125L250.005 585.332" stroke="#1A2E35" stroke-width="1.33333" stroke-miterlimit="10"/>
<path d="M205.333 449.333L245.86 572.712" stroke="#1A2E35" stroke-width="1.33333" stroke-miterlimit="10"/>
<path d="M288 586.667L294.667 621.333" stroke="#1A2E35" stroke-width="1.33333" stroke-miterlimit="10"/>
<path d="M449.31 485.937L401.334 632" stroke="#1A2E35" stroke-width="1.33333" stroke-miterlimit="10"/>
<path d="M453.835 472.164L450.945 480.958" stroke="#1A2E35" stroke-width="1.33333" stroke-miterlimit="10"/>
<path d="M461.333 449.333L457.121 462.159" stroke="#1A2E35" stroke-width="1.33333" stroke-miterlimit="10"/>
<path d="M378.667 586.667L372 621.333" stroke="#1A2E35" stroke-width="1.33333" stroke-miterlimit="10"/>
</g>
</svg>
