<svg width="667" height="667" viewBox="0 0 667 667" fill="none" xmlns="http://www.w3.org/2000/svg">
<mask id="mask0_247_4" style="mask-type:luminance" maskUnits="userSpaceOnUse" x="0" y="0" width="667" height="667">
<path d="M0 -0.00012207H666.667V666.667H0V-0.00012207Z" fill="white"/>
</mask>
<g mask="url(#mask0_247_4)">
<mask id="mask1_247_4" style="mask-type:luminance" maskUnits="userSpaceOnUse" x="77" y="38" width="509" height="592">
<path d="M77.7531 38.8199H585.153V629.464H77.7531V38.8199Z" fill="white"/>
</mask>
<g mask="url(#mask1_247_4)">
<g opacity="0.699997">
<path d="M90.5749 222.781C90.5749 222.781 53.4056 318.764 105.638 415.452C157.868 512.141 265.476 563.188 351.596 606.851C437.716 650.512 527.144 629.249 569.642 557.733C612.138 486.217 553.848 435.161 553.779 333.175C553.711 231.188 569.042 204.187 513.828 118.023C458.615 31.8599 323.083 12.7892 220.63 76.6945C118.174 140.6 90.5749 222.781 90.5749 222.781Z" fill="white"/>
</g>
</g>
<path d="M553.779 346.509C553.711 244.521 569.041 217.519 513.828 131.355C458.615 45.1928 323.084 26.1221 220.629 90.0275C118.173 153.933 90.5747 236.114 90.5747 236.114C90.5747 236.114 53.4054 332.097 105.637 428.785C153.407 517.213 247.492 567.465 329.1 608.806H537.749C550.084 598.453 560.865 585.834 569.641 571.066C612.139 499.55 553.848 448.494 553.779 346.509Z" fill="#5AE4A7"/>
<mask id="mask2_247_4" style="mask-type:luminance" maskUnits="userSpaceOnUse" x="77" y="52" width="509" height="557">
<path d="M77.7531 52.1531H585.153V608.806H77.7531V52.1531Z" fill="white"/>
</mask>
<g mask="url(#mask2_247_4)">
<g opacity="0.699997">
<path d="M553.779 346.509C553.711 244.521 569.041 217.519 513.828 131.355C458.615 45.1928 323.084 26.1221 220.629 90.0275C118.173 153.933 90.5747 236.114 90.5747 236.114C90.5747 236.114 53.4054 332.097 105.637 428.785C153.407 517.213 247.492 567.465 329.1 608.806H537.749C550.084 598.453 560.865 585.834 569.641 571.066C612.139 499.55 553.848 448.494 553.779 346.509Z" fill="white"/>
</g>
</g>
</g>
<mask id="mask3_247_4" style="mask-type:luminance" maskUnits="userSpaceOnUse" x="0" y="0" width="667" height="667">
<path d="M0 -0.00012207H666.667V666.667H0V-0.00012207Z" fill="white"/>
</mask>
<g mask="url(#mask3_247_4)">
<path d="M306.391 67.6231C308.193 74.7591 307.306 61.6231 310.838 45.5525C314.371 29.4805 320.419 35.9991 320.419 35.9991" stroke="#1A2E35" stroke-width="1.33333" stroke-miterlimit="10" stroke-linecap="round" stroke-linejoin="round"/>
<path d="M305.283 51.2056L316.357 46.6642" stroke="#1A2E35" stroke-width="1.33333" stroke-miterlimit="10" stroke-linecap="round" stroke-linejoin="round"/>
<path d="M325.514 41.2217C325.514 41.2217 318.894 54.9084 328.872 60.7271" stroke="#1A2E35" stroke-width="1.33333" stroke-miterlimit="10" stroke-linecap="round" stroke-linejoin="round"/>
<path d="M334.902 37.3717C334.902 37.3717 345.828 43.4411 338.984 56.5811" stroke="#1A2E35" stroke-width="1.33333" stroke-miterlimit="10" stroke-linecap="round" stroke-linejoin="round"/>
<path d="M327.415 45.8577L335.243 51.5737" stroke="#1A2E35" stroke-width="1.33333" stroke-miterlimit="10" stroke-linecap="round" stroke-linejoin="round"/>
<path d="M333.554 43.3402L327.429 53.0908" stroke="#1A2E35" stroke-width="1.33333" stroke-miterlimit="10" stroke-linecap="round" stroke-linejoin="round"/>
<path d="M95.0749 389.894C95.0749 389.894 76.5029 389.62 76.4776 405.654" stroke="#1A2E35" stroke-width="1.33333" stroke-miterlimit="10" stroke-linecap="round" stroke-linejoin="round"/>
<path d="M93.5397 399.985C93.1517 397.628 85.0624 394.708 83.6677 400.819C82.2717 406.929 92.3051 403.275 95.4144 400.399C95.4144 400.399 89.6597 406.003 91.4677 407.579" stroke="#1A2E35" stroke-width="1.33333" stroke-miterlimit="10" stroke-linecap="round" stroke-linejoin="round"/>
<path d="M94.6953 409.354C94.6953 409.354 92.2487 412.414 89.6087 410.962" stroke="#1A2E35" stroke-width="1.33333" stroke-miterlimit="10" stroke-linecap="round" stroke-linejoin="round"/>
<path d="M110.921 398.605L96.9939 412.818C96.9939 412.818 103.957 405.712 108.065 407.969C113.127 410.752 106.562 418.35 101.15 412.902" stroke="#1A2E35" stroke-width="1.33333" stroke-miterlimit="10" stroke-linecap="round" stroke-linejoin="round"/>
<path d="M117.963 402.476C117.963 402.476 121.65 419.404 102.594 420.01" stroke="#1A2E35" stroke-width="1.33333" stroke-miterlimit="10" stroke-linecap="round" stroke-linejoin="round"/>
<path d="M366.71 114.843L373.426 115.949L373.524 131.217L388.239 104.37L411.46 108.19" stroke="#1A2E35" stroke-width="1.33333" stroke-miterlimit="10" stroke-linecap="round" stroke-linejoin="round"/>
<path d="M390.786 116.127L401.004 134.157" stroke="#1A2E35" stroke-width="1.33333" stroke-miterlimit="10" stroke-linecap="round" stroke-linejoin="round"/>
<path d="M403.624 118.239L385.344 131.58" stroke="#1A2E35" stroke-width="1.33333" stroke-miterlimit="10" stroke-linecap="round" stroke-linejoin="round"/>
<path d="M274.881 142.012C273.161 139.823 263.259 141.38 265.265 148.405C267.271 155.431 275.467 146.064 277.028 141.38C277.028 141.38 274.296 150.336 277.028 150.932" stroke="#1A2E35" stroke-width="1.33333" stroke-miterlimit="10" stroke-linecap="round" stroke-linejoin="round"/>
<path d="M282.471 134.804L280.256 142.725C280.256 142.725 281.363 138.765 283.301 138.765C285.688 138.765 284.823 142.824 281.779 141.928" stroke="#1A2E35" stroke-width="1.33333" stroke-miterlimit="10" stroke-linecap="round" stroke-linejoin="round"/>
<path d="M469.237 231.766L464.566 248.633L474.776 259.795" stroke="#1A2E35" stroke-width="1.33333" stroke-miterlimit="10" stroke-linecap="round" stroke-linejoin="round"/>
<path d="M475.077 238.619L486.766 248.392" stroke="#1A2E35" stroke-width="1.33333" stroke-miterlimit="10" stroke-linecap="round" stroke-linejoin="round"/>
<path d="M483.124 236.212L478.069 248.623" stroke="#1A2E35" stroke-width="1.33333" stroke-miterlimit="10" stroke-linecap="round" stroke-linejoin="round"/>
<path d="M491.333 247.026C491.333 247.026 491.439 250.548 489.917 251.003" stroke="#1A2E35" stroke-width="1.33333" stroke-miterlimit="10" stroke-linecap="round" stroke-linejoin="round"/>
<path d="M492.82 234.735L499.863 239.974" stroke="#1A2E35" stroke-width="1.33333" stroke-miterlimit="10" stroke-linecap="round" stroke-linejoin="round"/>
<path d="M502.486 230.423L495.522 255.487" stroke="#1A2E35" stroke-width="1.33333" stroke-miterlimit="10" stroke-linecap="round" stroke-linejoin="round"/>
<path d="M502.823 221.723L514.131 234.522L509.314 248.521" stroke="#1A2E35" stroke-width="1.33333" stroke-miterlimit="10" stroke-linecap="round" stroke-linejoin="round"/>
<path d="M191.441 552.011L207.794 503.322L227.635 525.465L191.441 552.011Z" stroke="#1A2E35" stroke-width="1.33333" stroke-miterlimit="10" stroke-linecap="round" stroke-linejoin="round"/>
<path d="M222.778 529.027L218.59 524.235L223.051 520.368" stroke="#1A2E35" stroke-width="1.33333" stroke-miterlimit="10" stroke-linecap="round" stroke-linejoin="round"/>
<path d="M105.019 263.049C105.019 272.249 97.5603 279.709 88.3603 279.709C79.1589 279.709 71.7016 272.249 71.7016 263.049C71.7016 253.849 79.1589 246.39 88.3603 246.39C97.5603 246.39 105.019 253.849 105.019 263.049Z" stroke="#1A2E35" stroke-width="1.33333" stroke-miterlimit="10" stroke-linecap="round" stroke-linejoin="round"/>
<path d="M125.33 248.468C125.33 258.678 117.054 266.954 106.845 266.954C96.6355 266.954 88.3595 258.678 88.3595 248.468C88.3595 238.259 96.6355 229.983 106.845 229.983C117.054 229.983 125.33 238.259 125.33 248.468Z" stroke="#1A2E35" stroke-width="1.33333" stroke-miterlimit="10" stroke-linecap="round" stroke-linejoin="round"/>
<path d="M91.64 246.715L89.3867 254.551" stroke="#1A2E35" stroke-width="1.33333" stroke-miterlimit="10" stroke-linecap="round" stroke-linejoin="round"/>
<path d="M94.8333 247.695L91.64 258.977" stroke="#1A2E35" stroke-width="1.33333" stroke-miterlimit="10" stroke-linecap="round" stroke-linejoin="round"/>
<path d="M98.168 249.587L94.8333 262.343" stroke="#1A2E35" stroke-width="1.33333" stroke-miterlimit="10" stroke-linecap="round" stroke-linejoin="round"/>
<path d="M101.89 253.336L99.51 265.438" stroke="#1A2E35" stroke-width="1.33333" stroke-miterlimit="10" stroke-linecap="round" stroke-linejoin="round"/>
<path d="M103.992 257.28L101.889 266.277" stroke="#1A2E35" stroke-width="1.33333" stroke-miterlimit="10" stroke-linecap="round" stroke-linejoin="round"/>
<path d="M72.446 241.713C70.9873 241.261 67.0033 245.048 70.098 247.593C73.1913 250.139 73.9727 243.359 73.218 240.76C73.218 240.76 74.774 245.652 76.1927 245.071" stroke="#1A2E35" stroke-width="1.33333" stroke-miterlimit="10" stroke-linecap="round" stroke-linejoin="round"/>
<path d="M93.9349 220.328L99.2336 230.039C99.2336 230.039 96.5843 225.184 98.4509 223.365C100.752 221.125 103.727 225.848 99.9523 227.841" stroke="#1A2E35" stroke-width="1.33333" stroke-miterlimit="10" stroke-linecap="round" stroke-linejoin="round"/>
<path d="M191.387 219.177L198.92 226.305" stroke="#1A2E35" stroke-width="1.33333" stroke-miterlimit="10" stroke-linecap="round" stroke-linejoin="round"/>
<path d="M198.92 217.314L192.612 226.737" stroke="#1A2E35" stroke-width="1.33333" stroke-miterlimit="10" stroke-linecap="round" stroke-linejoin="round"/>
<path d="M206.329 220.02L213.865 217.219" stroke="#1A2E35" stroke-width="1.33333" stroke-miterlimit="10" stroke-linecap="round" stroke-linejoin="round"/>
<path d="M217.479 209.361L222.061 213.417" stroke="#1A2E35" stroke-width="1.33333" stroke-miterlimit="10" stroke-linecap="round" stroke-linejoin="round"/>
<path d="M225.573 204.486L219.77 224.403" stroke="#1A2E35" stroke-width="1.33333" stroke-miterlimit="10" stroke-linecap="round" stroke-linejoin="round"/>
<path d="M554.848 200.477L554.538 185.256H566.042C566.042 185.256 559.668 188.768 562.594 196.964C565.521 205.16 570.256 200.477 570.256 200.477" stroke="#1A2E35" stroke-width="1.33333" stroke-miterlimit="10" stroke-linecap="round" stroke-linejoin="round"/>
<path d="M535.358 460.223L548.449 451.215L565.786 452.431L566.87 474.407L554.143 483.504L538.441 482.361L535.358 460.223Z" stroke="#1A2E35" stroke-width="1.33333" stroke-miterlimit="10" stroke-linecap="round" stroke-linejoin="round"/>
<path d="M538.44 482.36L551.113 473.234L566.869 474.406" stroke="#1A2E35" stroke-width="1.33333" stroke-miterlimit="10" stroke-linecap="round" stroke-linejoin="round"/>
<path d="M551.113 473.234L548.449 451.214" stroke="#1A2E35" stroke-width="1.33333" stroke-miterlimit="10" stroke-linecap="round" stroke-linejoin="round"/>
<path d="M535.358 460.222L552.658 462.225L565.786 452.43" stroke="#1A2E35" stroke-width="1.33333" stroke-miterlimit="10" stroke-linecap="round" stroke-linejoin="round"/>
<path d="M552.658 462.225L554.143 483.503" stroke="#1A2E35" stroke-width="1.33333" stroke-miterlimit="10" stroke-linecap="round" stroke-linejoin="round"/>
<path d="M537.741 295.183L537.184 324.486L562.854 312.825L537.741 295.183Z" stroke="#1A2E35" stroke-width="1.33333" stroke-miterlimit="10" stroke-linecap="round" stroke-linejoin="round"/>
<path d="M537.741 295.183L549.973 318.5" stroke="#1A2E35" stroke-width="1.33333" stroke-miterlimit="10" stroke-linecap="round" stroke-linejoin="round"/>
<path d="M548.012 314.763L550.99 313.325L552.984 317.308" stroke="#1A2E35" stroke-width="1.33333" stroke-miterlimit="10" stroke-linecap="round" stroke-linejoin="round"/>
<path d="M313.959 292.409L324.572 303.784" stroke="#1A2E35" stroke-width="1.33333" stroke-miterlimit="10" stroke-linecap="round" stroke-linejoin="round"/>
<path d="M324.658 290.879L315.739 303.09" stroke="#1A2E35" stroke-width="1.33333" stroke-miterlimit="10" stroke-linecap="round" stroke-linejoin="round"/>
<path d="M328.995 284.923C328.995 284.923 331.467 283.963 331.987 286.522C332.507 289.079 328.306 292.409 328.306 292.409H334.299" stroke="#1A2E35" stroke-width="1.33333" stroke-miterlimit="10" stroke-linecap="round" stroke-linejoin="round"/>
<path d="M148.715 122.002C149.801 108.384 157.827 96.9798 169.044 90.9851" stroke="#1A2E35" stroke-width="1.33333" stroke-miterlimit="10" stroke-linecap="round" stroke-linejoin="round"/>
<path d="M178.206 162.646C168.274 160.275 159.94 154.114 154.67 145.879" stroke="#1A2E35" stroke-width="1.33333" stroke-miterlimit="10" stroke-linecap="round" stroke-linejoin="round"/>
<path d="M225.732 128.152C224.034 149.42 205.416 165.284 184.149 163.585" stroke="#1A2E35" stroke-width="1.33333" stroke-miterlimit="10" stroke-linecap="round" stroke-linejoin="round"/>
<path d="M190.298 86.5679C208.731 88.0399 223.106 102.223 225.503 119.825" stroke="#1A2E35" stroke-width="1.33333" stroke-miterlimit="10" stroke-linecap="round" stroke-linejoin="round"/>
<path d="M203.887 154.811C198.19 158.01 191.513 159.61 184.511 159.05C165.747 157.553 151.751 141.127 153.249 122.365" stroke="#1A2E35" stroke-width="1.33333" stroke-miterlimit="10" stroke-linecap="round" stroke-linejoin="round"/>
<path d="M155.415 112.811C160.7 99.0888 174.529 89.8728 189.936 91.1022C208.699 92.6008 222.695 109.026 221.197 127.789C220.581 135.505 217.441 142.414 212.652 147.771" stroke="#1A2E35" stroke-width="1.33333" stroke-miterlimit="10" stroke-linecap="round" stroke-linejoin="round"/>
<path d="M183.877 100.55L187.224 125.077L206.084 119.217" stroke="#1A2E35" stroke-width="1.33333" stroke-miterlimit="10" stroke-linecap="round" stroke-linejoin="round"/>
<path d="M481.198 172.76C470.074 172.865 459.621 165.969 455.722 154.892C452.043 144.444 455.239 133.244 462.946 126.226" stroke="#1A2E35" stroke-width="1.33333" stroke-miterlimit="10" stroke-linecap="round" stroke-linejoin="round"/>
<path d="M506.258 154.641C503.701 162.125 497.865 168.407 489.826 171.236" stroke="#1A2E35" stroke-width="1.33333" stroke-miterlimit="10" stroke-linecap="round" stroke-linejoin="round"/>
<path d="M472.065 120.787C485.996 115.883 501.265 123.201 506.169 137.131" stroke="#1A2E35" stroke-width="1.33333" stroke-miterlimit="10" stroke-linecap="round" stroke-linejoin="round"/>
<path d="M494.15 126.459C498.206 129.193 501.451 133.208 503.199 138.177C507.526 150.468 501.07 163.939 488.78 168.265C479.563 171.511 469.679 168.691 463.49 161.893" stroke="#1A2E35" stroke-width="1.33333" stroke-miterlimit="10" stroke-linecap="round" stroke-linejoin="round"/>
<path d="M458.691 153.846C454.365 141.556 460.821 128.085 473.11 123.758C477.719 122.136 482.495 122.029 486.891 123.178" stroke="#1A2E35" stroke-width="1.33333" stroke-miterlimit="10" stroke-linecap="round" stroke-linejoin="round"/>
<path d="M471.934 131.438L480.946 146.012L472.732 156.674" stroke="#1A2E35" stroke-width="1.33333" stroke-miterlimit="10" stroke-linecap="round" stroke-linejoin="round"/>
<path d="M291.958 544.571C291.958 537.183 295.694 530.667 301.38 526.811" stroke="#1A2E35" stroke-width="1.33333" stroke-miterlimit="10" stroke-linecap="round" stroke-linejoin="round"/>
<path d="M328.951 559.347C325.044 563.457 319.524 566.018 313.405 566.018C303.979 566.018 295.971 559.934 293.096 551.481" stroke="#1A2E35" stroke-width="1.33333" stroke-miterlimit="10" stroke-linecap="round" stroke-linejoin="round"/>
<path d="M313.406 523.125C325.251 523.125 334.852 532.726 334.852 544.571" stroke="#1A2E35" stroke-width="1.33333" stroke-miterlimit="10" stroke-linecap="round" stroke-linejoin="round"/>
<path d="M313.406 563.493C302.955 563.493 294.484 555.021 294.484 544.572" stroke="#1A2E35" stroke-width="1.33333" stroke-miterlimit="10" stroke-linecap="round" stroke-linejoin="round"/>
<path d="M298.671 532.699C302.139 528.399 307.451 525.65 313.406 525.65C323.855 525.65 332.327 534.12 332.327 544.571C332.327 551.679 328.407 557.874 322.611 561.107" stroke="#1A2E35" stroke-width="1.33333" stroke-miterlimit="10" stroke-linecap="round" stroke-linejoin="round"/>
<path d="M310.469 557.432L313.405 544.571L309.303 534.061" stroke="#1A2E35" stroke-width="1.33333" stroke-miterlimit="10" stroke-linecap="round" stroke-linejoin="round"/>
<path d="M63.6192 609.267H603.049" stroke="#1A2E35" stroke-width="1.33333" stroke-miterlimit="10" stroke-linecap="round" stroke-linejoin="round"/>
</g>
<path d="M337.316 328.102L328.532 495.404L217.215 489.555L218.142 471.823L225.999 322.252L296.095 325.932L337.316 328.102Z" fill="white"/>
<mask id="mask4_247_4" style="mask-type:luminance" maskUnits="userSpaceOnUse" x="217" y="322" width="121" height="174">
<path d="M218.141 471.822L217.215 489.554L328.532 495.404L337.316 328.101L296.095 325.932L226 322.252L218.141 471.822Z" fill="white"/>
</mask>
<g mask="url(#mask4_247_4)">
<mask id="mask5_247_4" style="mask-type:luminance" maskUnits="userSpaceOnUse" x="218" y="322" width="85" height="150">
<path d="M218.141 322.253H302.575V471.822H218.141V322.253Z" fill="white"/>
</mask>
<g mask="url(#mask5_247_4)">
<g opacity="0.199997">
<mask id="mask6_247_4" style="mask-type:luminance" maskUnits="userSpaceOnUse" x="218" y="322" width="85" height="150">
<path d="M218.141 322.253H302.575V471.822H218.141V322.253Z" fill="white"/>
</mask>
<g mask="url(#mask6_247_4)">
<g opacity="0.699997">
<path d="M302.575 426.118L277.495 428.186L284.811 459.773L218.142 471.822L225.999 322.253L296.095 325.932L302.575 426.118Z" fill="black"/>
</g>
</g>
</g>
</g>
</g>
<path d="M337.316 328.102L328.532 495.404L217.215 489.555L218.142 471.823L225.999 322.252L296.095 325.932L337.316 328.102Z" stroke="#1A2E35" stroke-width="1.33333" stroke-miterlimit="10" stroke-linecap="round" stroke-linejoin="round"/>
<path d="M233.858 333.697L262.825 335.218" stroke="#1A2E35" stroke-width="2.66667" stroke-miterlimit="10" stroke-linecap="round" stroke-linejoin="round"/>
<path d="M233.566 339.259L253.264 340.292" stroke="#1A2E35" stroke-width="2.66667" stroke-miterlimit="10" stroke-linecap="round" stroke-linejoin="round"/>
<path d="M239.935 352.758L323.26 357.134" stroke="#1A2E35" stroke-width="2.66667" stroke-miterlimit="10" stroke-linecap="round" stroke-linejoin="round"/>
<path d="M239.643 358.319L322.969 362.695" stroke="#1A2E35" stroke-width="2.66667" stroke-miterlimit="10" stroke-linecap="round" stroke-linejoin="round"/>
<path d="M239.302 364.807L310.37 368.539" stroke="#1A2E35" stroke-width="2.66667" stroke-miterlimit="10" stroke-linecap="round" stroke-linejoin="round"/>
<path d="M245.775 377.871L238.993 377.515L239.349 370.732L246.133 371.088L245.775 377.871Z" stroke="#1A2E35" stroke-width="1.33333" stroke-miterlimit="10" stroke-linecap="round" stroke-linejoin="round"/>
<path d="M258.059 378.517L251.275 378.159L251.631 371.378L258.415 371.733L258.059 378.517Z" stroke="#1A2E35" stroke-width="1.33333" stroke-miterlimit="10" stroke-linecap="round" stroke-linejoin="round"/>
<path d="M270.342 379.161L263.56 378.805L263.916 372.022L270.698 372.378L270.342 379.161Z" stroke="#1A2E35" stroke-width="1.33333" stroke-miterlimit="10" stroke-linecap="round" stroke-linejoin="round"/>
<path d="M282.626 379.807L275.843 379.45L276.199 372.668L282.982 373.023L282.626 379.807Z" stroke="#1A2E35" stroke-width="1.33333" stroke-miterlimit="10" stroke-linecap="round" stroke-linejoin="round"/>
<mask id="mask7_247_4" style="mask-type:luminance" maskUnits="userSpaceOnUse" x="0" y="0" width="667" height="667">
<path d="M0 -0.00012207H666.667V666.667H0V-0.00012207Z" fill="white"/>
</mask>
<g mask="url(#mask7_247_4)">
<path d="M235.499 352.525C235.45 353.461 234.651 354.181 233.715 354.131C232.778 354.082 232.058 353.283 232.107 352.346C232.157 351.41 232.955 350.691 233.893 350.739C234.83 350.789 235.549 351.589 235.499 352.525Z" fill="#1A2E35"/>
<path d="M238.231 385.198L321.556 389.574" stroke="#1A2E35" stroke-width="2.66667" stroke-miterlimit="10" stroke-linecap="round" stroke-linejoin="round"/>
<path d="M237.939 390.759L321.265 395.135" stroke="#1A2E35" stroke-width="2.66667" stroke-miterlimit="10" stroke-linecap="round" stroke-linejoin="round"/>
<path d="M237.598 397.247L308.666 400.979" stroke="#1A2E35" stroke-width="2.66667" stroke-miterlimit="10" stroke-linecap="round" stroke-linejoin="round"/>
<path d="M244.072 410.311L237.289 409.955L237.645 403.172L244.428 403.528L244.072 410.311Z" stroke="#1A2E35" stroke-width="1.33333" stroke-miterlimit="10" stroke-linecap="round" stroke-linejoin="round"/>
<path d="M256.355 410.957L249.572 410.6L249.928 403.818L256.712 404.173L256.355 410.957Z" stroke="#1A2E35" stroke-width="1.33333" stroke-miterlimit="10" stroke-linecap="round" stroke-linejoin="round"/>
<path d="M268.639 411.602L261.855 411.246L262.212 404.463L268.995 404.819L268.639 411.602Z" stroke="#1A2E35" stroke-width="1.33333" stroke-miterlimit="10" stroke-linecap="round" stroke-linejoin="round"/>
<path d="M280.922 412.247L274.139 411.89L274.495 405.107L281.278 405.463L280.922 412.247Z" stroke="#1A2E35" stroke-width="1.33333" stroke-miterlimit="10" stroke-linecap="round" stroke-linejoin="round"/>
<path d="M233.796 384.965C233.746 385.901 232.948 386.621 232.01 386.571C231.074 386.522 230.354 385.722 230.404 384.786C230.453 383.85 231.252 383.13 232.189 383.179C233.126 383.229 233.845 384.029 233.796 384.965Z" fill="#1A2E35"/>
<path d="M236.527 417.638L319.853 422.014" stroke="#1A2E35" stroke-width="2.66667" stroke-miterlimit="10" stroke-linecap="round" stroke-linejoin="round"/>
<path d="M236.235 423.199L319.56 427.575" stroke="#1A2E35" stroke-width="2.66667" stroke-miterlimit="10" stroke-linecap="round" stroke-linejoin="round"/>
<path d="M235.895 429.686L306.963 433.419" stroke="#1A2E35" stroke-width="2.66667" stroke-miterlimit="10" stroke-linecap="round" stroke-linejoin="round"/>
<path d="M242.368 442.751L235.585 442.394L235.941 435.613L242.724 435.969L242.368 442.751Z" stroke="#1A2E35" stroke-width="1.33333" stroke-miterlimit="10" stroke-linecap="round" stroke-linejoin="round"/>
<path d="M254.651 443.397L247.868 443.04L248.224 436.257L255.007 436.613L254.651 443.397Z" stroke="#1A2E35" stroke-width="1.33333" stroke-miterlimit="10" stroke-linecap="round" stroke-linejoin="round"/>
<path d="M266.934 444.042L260.152 443.684L260.508 436.903L267.292 437.258L266.934 444.042Z" stroke="#1A2E35" stroke-width="1.33333" stroke-miterlimit="10" stroke-linecap="round" stroke-linejoin="round"/>
<path d="M279.218 444.688L272.434 444.33L272.791 437.548L279.574 437.904L279.218 444.688Z" stroke="#1A2E35" stroke-width="1.33333" stroke-miterlimit="10" stroke-linecap="round" stroke-linejoin="round"/>
<path d="M232.092 417.405C232.042 418.341 231.244 419.059 230.306 419.011C229.37 418.962 228.65 418.162 228.7 417.226C228.749 416.29 229.548 415.57 230.485 415.619C231.422 415.669 232.141 416.467 232.092 417.405Z" fill="#1A2E35"/>
<path d="M234.775 451.004L318.1 455.38" stroke="#1A2E35" stroke-width="2.66667" stroke-miterlimit="10" stroke-linecap="round" stroke-linejoin="round"/>
<path d="M234.483 456.565L317.808 460.941" stroke="#1A2E35" stroke-width="2.66667" stroke-miterlimit="10" stroke-linecap="round" stroke-linejoin="round"/>
<path d="M234.142 463.053L305.21 466.787" stroke="#1A2E35" stroke-width="2.66667" stroke-miterlimit="10" stroke-linecap="round" stroke-linejoin="round"/>
<path d="M240.615 476.119L233.833 475.761L234.189 468.98L240.971 469.335L240.615 476.119Z" stroke="#1A2E35" stroke-width="1.33333" stroke-miterlimit="10" stroke-linecap="round" stroke-linejoin="round"/>
<path d="M252.898 476.763L246.116 476.407L246.472 469.625L253.256 469.981L252.898 476.763Z" stroke="#1A2E35" stroke-width="1.33333" stroke-miterlimit="10" stroke-linecap="round" stroke-linejoin="round"/>
<path d="M265.182 477.409L258.398 477.051L258.756 470.27L265.538 470.625L265.182 477.409Z" stroke="#1A2E35" stroke-width="1.33333" stroke-miterlimit="10" stroke-linecap="round" stroke-linejoin="round"/>
<path d="M277.465 478.053L270.683 477.697L271.039 470.915L277.821 471.271L277.465 478.053Z" stroke="#1A2E35" stroke-width="1.33333" stroke-miterlimit="10" stroke-linecap="round" stroke-linejoin="round"/>
<path d="M230.339 450.771C230.29 451.708 229.491 452.427 228.554 452.377C227.618 452.329 226.898 451.529 226.947 450.593C226.997 449.656 227.795 448.937 228.733 448.987C229.669 449.035 230.389 449.835 230.339 450.771Z" fill="#1A2E35"/>
<path d="M241.641 373.56L242.522 375.077L246.133 371.088" stroke="#1A2E35" stroke-width="2.66667" stroke-miterlimit="10" stroke-linecap="round" stroke-linejoin="round"/>
<path d="M264.525 406.884L265.405 408.401L269.016 404.412" stroke="#1A2E35" stroke-width="2.66667" stroke-miterlimit="10" stroke-linecap="round" stroke-linejoin="round"/>
<path d="M276.005 441.117L276.885 442.634L280.495 438.645" stroke="#1A2E35" stroke-width="2.66667" stroke-miterlimit="10" stroke-linecap="round" stroke-linejoin="round"/>
<path d="M248.805 471.677L249.685 473.194L253.295 469.205" stroke="#1A2E35" stroke-width="2.66667" stroke-miterlimit="10" stroke-linecap="round" stroke-linejoin="round"/>
<path d="M263.35 448.056L155.951 477.901L111.098 316.477L155.564 304.124L218.496 286.641L259.192 433.1L263.35 448.056Z" fill="white"/>
</g>
<mask id="mask8_247_4" style="mask-type:luminance" maskUnits="userSpaceOnUse" x="111" y="286" width="153" height="192">
<path d="M155.564 304.124L111.097 316.477L155.951 477.901L263.349 448.056L259.192 433.1L218.497 286.643L155.564 304.124Z" fill="white"/>
</mask>
<g mask="url(#mask8_247_4)">
<mask id="mask9_247_4" style="mask-type:luminance" maskUnits="userSpaceOnUse" x="155" y="286" width="105" height="153">
<path d="M155.564 286.641H259.192V438.471H155.564V286.641Z" fill="white"/>
</mask>
<g mask="url(#mask9_247_4)">
<g opacity="0.199997">
<mask id="mask10_247_4" style="mask-type:luminance" maskUnits="userSpaceOnUse" x="155" y="286" width="105" height="153">
<path d="M155.564 286.641H259.192V438.471H155.564V286.641Z" fill="white"/>
</mask>
<g mask="url(#mask10_247_4)">
<g opacity="0.699997">
<path d="M259.192 433.1L176.149 438.471L155.564 304.124L218.497 286.641L259.192 433.1Z" fill="black"/>
</g>
</g>
</g>
</g>
</g>
<mask id="mask11_247_4" style="mask-type:luminance" maskUnits="userSpaceOnUse" x="0" y="0" width="667" height="667">
<path d="M0 -0.00012207H666.667V666.667H0V-0.00012207Z" fill="white"/>
</mask>
<g mask="url(#mask11_247_4)">
<path d="M263.35 448.056L155.951 477.901L111.098 316.477L155.564 304.124L218.496 286.641L259.192 433.1L263.35 448.056Z" stroke="#1A2E35" stroke-width="1.33333" stroke-miterlimit="10" stroke-linecap="round" stroke-linejoin="round"/>
<path d="M122.182 324.833L150.129 317.067" stroke="#1A2E35" stroke-width="2.66667" stroke-miterlimit="10" stroke-linecap="round" stroke-linejoin="round"/>
<path d="M123.673 330.199L142.679 324.917" stroke="#1A2E35" stroke-width="2.66667" stroke-miterlimit="10" stroke-linecap="round" stroke-linejoin="round"/>
<path d="M134.003 340.973L214.396 318.634" stroke="#1A2E35" stroke-width="2.66667" stroke-miterlimit="10" stroke-linecap="round" stroke-linejoin="round"/>
<path d="M135.493 346.338L215.888 324" stroke="#1A2E35" stroke-width="2.66667" stroke-miterlimit="10" stroke-linecap="round" stroke-linejoin="round"/>
<path d="M137.233 352.598L205.801 333.544" stroke="#1A2E35" stroke-width="2.66667" stroke-miterlimit="10" stroke-linecap="round" stroke-linejoin="round"/>
<path d="M147.524 362.927L140.979 364.746L139.161 358.2L145.705 356.383L147.524 362.927Z" stroke="#1A2E35" stroke-width="1.33333" stroke-miterlimit="10" stroke-linecap="round" stroke-linejoin="round"/>
<path d="M159.375 359.634L152.83 361.453L151.012 354.907L157.556 353.09L159.375 359.634Z" stroke="#1A2E35" stroke-width="1.33333" stroke-miterlimit="10" stroke-linecap="round" stroke-linejoin="round"/>
<path d="M171.227 356.341L164.681 358.159L162.864 351.615L169.408 349.796L171.227 356.341Z" stroke="#1A2E35" stroke-width="1.33333" stroke-miterlimit="10" stroke-linecap="round" stroke-linejoin="round"/>
<path d="M183.077 353.048L176.532 354.866L174.715 348.322L181.259 346.503L183.077 353.048Z" stroke="#1A2E35" stroke-width="1.33333" stroke-miterlimit="10" stroke-linecap="round" stroke-linejoin="round"/>
<path d="M129.723 342.161C129.974 343.065 129.446 344.001 128.542 344.252C127.638 344.504 126.702 343.975 126.45 343.072C126.199 342.168 126.729 341.232 127.633 340.98C128.535 340.729 129.473 341.257 129.723 342.161Z" fill="#1A2E35"/>
<path d="M142.7 372.271L223.093 349.932" stroke="#1A2E35" stroke-width="2.66667" stroke-miterlimit="10" stroke-linecap="round" stroke-linejoin="round"/>
<path d="M144.191 377.637L224.584 355.298" stroke="#1A2E35" stroke-width="2.66667" stroke-miterlimit="10" stroke-linecap="round" stroke-linejoin="round"/>
<path d="M145.93 383.897L214.497 364.844" stroke="#1A2E35" stroke-width="2.66667" stroke-miterlimit="10" stroke-linecap="round" stroke-linejoin="round"/>
<path d="M156.221 394.225L149.677 396.044L147.858 389.5L154.402 387.681L156.221 394.225Z" stroke="#1A2E35" stroke-width="1.33333" stroke-miterlimit="10" stroke-linecap="round" stroke-linejoin="round"/>
<path d="M168.072 390.932L161.527 392.751L159.71 386.207L166.254 384.388L168.072 390.932Z" stroke="#1A2E35" stroke-width="1.33333" stroke-miterlimit="10" stroke-linecap="round" stroke-linejoin="round"/>
<path d="M179.923 387.639L173.378 389.458L171.561 382.914L178.105 381.095L179.923 387.639Z" stroke="#1A2E35" stroke-width="1.33333" stroke-miterlimit="10" stroke-linecap="round" stroke-linejoin="round"/>
<path d="M191.775 384.346L185.229 386.165L183.412 379.62L189.956 377.802L191.775 384.346Z" stroke="#1A2E35" stroke-width="1.33333" stroke-miterlimit="10" stroke-linecap="round" stroke-linejoin="round"/>
<path d="M138.42 373.461C138.671 374.365 138.143 375.301 137.239 375.552C136.335 375.802 135.399 375.273 135.148 374.37C134.896 373.466 135.425 372.53 136.329 372.278C137.233 372.029 138.169 372.557 138.42 373.461Z" fill="#1A2E35"/>
<path d="M151.397 403.57L231.791 381.23" stroke="#1A2E35" stroke-width="2.66667" stroke-miterlimit="10" stroke-linecap="round" stroke-linejoin="round"/>
<path d="M152.887 408.936L233.282 386.596" stroke="#1A2E35" stroke-width="2.66667" stroke-miterlimit="10" stroke-linecap="round" stroke-linejoin="round"/>
<path d="M154.627 415.195L223.195 396.142" stroke="#1A2E35" stroke-width="2.66667" stroke-miterlimit="10" stroke-linecap="round" stroke-linejoin="round"/>
<path d="M164.918 425.525L158.373 427.344L156.555 420.798L163.099 418.981L164.918 425.525Z" stroke="#1A2E35" stroke-width="1.33333" stroke-miterlimit="10" stroke-linecap="round" stroke-linejoin="round"/>
<path d="M176.769 422.232L170.225 424.049L168.406 417.505L174.95 415.687L176.769 422.232Z" stroke="#1A2E35" stroke-width="1.33333" stroke-miterlimit="10" stroke-linecap="round" stroke-linejoin="round"/>
<path d="M188.62 418.939L182.075 420.756L180.258 414.212L186.802 412.394L188.62 418.939Z" stroke="#1A2E35" stroke-width="1.33333" stroke-miterlimit="10" stroke-linecap="round" stroke-linejoin="round"/>
<path d="M200.471 415.646L193.927 417.463L192.109 410.919L198.653 409.101L200.471 415.646Z" stroke="#1A2E35" stroke-width="1.33333" stroke-miterlimit="10" stroke-linecap="round" stroke-linejoin="round"/>
<path d="M147.117 404.759C147.368 405.663 146.84 406.599 145.936 406.85C145.032 407.102 144.096 406.571 143.845 405.669C143.593 404.765 144.123 403.83 145.027 403.578C145.929 403.327 146.867 403.855 147.117 404.759Z" fill="#1A2E35"/>
<path d="M160.342 435.763L240.736 413.425" stroke="#1A2E35" stroke-width="2.66667" stroke-miterlimit="10" stroke-linecap="round" stroke-linejoin="round"/>
<path d="M161.833 441.129L242.227 418.789" stroke="#1A2E35" stroke-width="2.66667" stroke-miterlimit="10" stroke-linecap="round" stroke-linejoin="round"/>
<path d="M163.572 447.388L232.14 428.336" stroke="#1A2E35" stroke-width="2.66667" stroke-miterlimit="10" stroke-linecap="round" stroke-linejoin="round"/>
<path d="M173.863 457.717L167.318 459.536L165.501 452.991L172.045 451.173L173.863 457.717Z" stroke="#1A2E35" stroke-width="1.33333" stroke-miterlimit="10" stroke-linecap="round" stroke-linejoin="round"/>
<path d="M185.715 454.424L179.169 456.243L177.351 449.698L183.896 447.88L185.715 454.424Z" stroke="#1A2E35" stroke-width="1.33333" stroke-miterlimit="10" stroke-linecap="round" stroke-linejoin="round"/>
<path d="M197.566 451.131L191.02 452.949L189.203 446.405L195.747 444.586L197.566 451.131Z" stroke="#1A2E35" stroke-width="1.33333" stroke-miterlimit="10" stroke-linecap="round" stroke-linejoin="round"/>
<path d="M209.417 447.838L202.872 449.656L201.055 443.112L207.599 441.293L209.417 447.838Z" stroke="#1A2E35" stroke-width="1.33333" stroke-miterlimit="10" stroke-linecap="round" stroke-linejoin="round"/>
<path d="M156.063 436.952C156.313 437.856 155.785 438.792 154.881 439.043C153.977 439.295 153.041 438.765 152.791 437.863C152.539 436.959 153.068 436.023 153.972 435.771C154.876 435.52 155.812 436.048 156.063 436.952Z" fill="#1A2E35"/>
<path d="M153.392 357.037L154.709 358.195L156.864 353.266" stroke="#1A2E35" stroke-width="2.66667" stroke-miterlimit="10" stroke-linecap="round" stroke-linejoin="round"/>
<path d="M150.173 391.959L151.491 393.118L153.645 388.189" stroke="#1A2E35" stroke-width="2.66667" stroke-miterlimit="10" stroke-linecap="round" stroke-linejoin="round"/>
<path d="M158.863 422.935L160.181 424.092L162.335 419.163" stroke="#1A2E35" stroke-width="2.66667" stroke-miterlimit="10" stroke-linecap="round" stroke-linejoin="round"/>
<path d="M191.496 448.308L192.813 449.466L194.968 444.536" stroke="#1A2E35" stroke-width="2.66667" stroke-miterlimit="10" stroke-linecap="round" stroke-linejoin="round"/>
<path d="M289.853 416.141L178.896 426.798L162.877 260.033L273.835 249.375L289.853 416.141Z" fill="white"/>
<path d="M289.853 416.141L178.896 426.798L162.877 260.033L273.835 249.375L289.853 416.141Z" stroke="#1A2E35" stroke-width="1.33333" stroke-miterlimit="10" stroke-linecap="round" stroke-linejoin="round"/>
<path d="M172.337 270.189L201.211 267.416" stroke="#1A2E35" stroke-width="2.66667" stroke-miterlimit="10" stroke-linecap="round" stroke-linejoin="round"/>
<path d="M172.87 275.732L192.504 273.845" stroke="#1A2E35" stroke-width="2.66667" stroke-miterlimit="10" stroke-linecap="round" stroke-linejoin="round"/>
<path d="M181.162 288.143L264.219 280.165" stroke="#1A2E35" stroke-width="2.66667" stroke-miterlimit="10" stroke-linecap="round" stroke-linejoin="round"/>
<path d="M181.695 293.686L264.752 285.708" stroke="#1A2E35" stroke-width="2.66667" stroke-miterlimit="10" stroke-linecap="round" stroke-linejoin="round"/>
<path d="M182.316 300.153L253.156 293.347" stroke="#1A2E35" stroke-width="2.66667" stroke-miterlimit="10" stroke-linecap="round" stroke-linejoin="round"/>
<path d="M190.648 312.119L183.886 312.768L183.237 306.007L189.998 305.357L190.648 312.119Z" stroke="#1A2E35" stroke-width="1.33333" stroke-miterlimit="10" stroke-linecap="round" stroke-linejoin="round"/>
<path d="M202.892 310.942L196.131 311.591L195.48 304.83L202.243 304.181L202.892 310.942Z" stroke="#1A2E35" stroke-width="1.33333" stroke-miterlimit="10" stroke-linecap="round" stroke-linejoin="round"/>
<path d="M215.135 309.766L208.374 310.416L207.725 303.654L214.486 303.005L215.135 309.766Z" stroke="#1A2E35" stroke-width="1.33333" stroke-miterlimit="10" stroke-linecap="round" stroke-linejoin="round"/>
<path d="M227.38 308.59L220.618 309.239L219.969 302.478L226.73 301.829L227.38 308.59Z" stroke="#1A2E35" stroke-width="1.33333" stroke-miterlimit="10" stroke-linecap="round" stroke-linejoin="round"/>
<path d="M176.741 288.567C176.83 289.5 176.146 290.33 175.213 290.42C174.28 290.51 173.45 289.826 173.36 288.892C173.27 287.958 173.954 287.128 174.888 287.039C175.822 286.95 176.652 287.634 176.741 288.567Z" fill="#1A2E35"/>
<path d="M184.268 320.479L267.326 312.5" stroke="#1A2E35" stroke-width="2.66667" stroke-miterlimit="10" stroke-linecap="round" stroke-linejoin="round"/>
<path d="M184.801 326.021L267.858 318.044" stroke="#1A2E35" stroke-width="2.66667" stroke-miterlimit="10" stroke-linecap="round" stroke-linejoin="round"/>
<path d="M185.422 332.489L256.261 325.683" stroke="#1A2E35" stroke-width="2.66667" stroke-miterlimit="10" stroke-linecap="round" stroke-linejoin="round"/>
<path d="M193.754 344.455L186.993 345.104L186.343 338.343L193.105 337.693L193.754 344.455Z" stroke="#1A2E35" stroke-width="1.33333" stroke-miterlimit="10" stroke-linecap="round" stroke-linejoin="round"/>
<path d="M205.998 343.279L199.237 343.927L198.586 337.165L205.349 336.517L205.998 343.279Z" stroke="#1A2E35" stroke-width="1.33333" stroke-miterlimit="10" stroke-linecap="round" stroke-linejoin="round"/>
<path d="M218.242 342.102L211.48 342.751L210.831 335.99L217.592 335.34L218.242 342.102Z" stroke="#1A2E35" stroke-width="1.33333" stroke-miterlimit="10" stroke-linecap="round" stroke-linejoin="round"/>
<path d="M230.486 340.926L223.724 341.575L223.074 334.814L229.836 334.165L230.486 340.926Z" stroke="#1A2E35" stroke-width="1.33333" stroke-miterlimit="10" stroke-linecap="round" stroke-linejoin="round"/>
<path d="M179.847 320.903C179.936 321.836 179.252 322.666 178.319 322.756C177.386 322.846 176.556 322.162 176.466 321.228C176.376 320.294 177.06 319.464 177.994 319.375C178.928 319.286 179.758 319.97 179.847 320.903Z" fill="#1A2E35"/>
<path d="M187.374 352.814L270.432 344.837" stroke="#1A2E35" stroke-width="2.66667" stroke-miterlimit="10" stroke-linecap="round" stroke-linejoin="round"/>
<path d="M187.907 358.357L270.964 350.38" stroke="#1A2E35" stroke-width="2.66667" stroke-miterlimit="10" stroke-linecap="round" stroke-linejoin="round"/>
<path d="M188.528 364.824L259.367 358.019" stroke="#1A2E35" stroke-width="2.66667" stroke-miterlimit="10" stroke-linecap="round" stroke-linejoin="round"/>
<path d="M196.86 376.79L190.099 377.438L189.448 370.677L196.211 370.029L196.86 376.79Z" stroke="#1A2E35" stroke-width="1.33333" stroke-miterlimit="10" stroke-linecap="round" stroke-linejoin="round"/>
<path d="M209.103 375.613L202.342 376.263L201.693 369.501L208.454 368.852L209.103 375.613Z" stroke="#1A2E35" stroke-width="1.33333" stroke-miterlimit="10" stroke-linecap="round" stroke-linejoin="round"/>
<path d="M221.348 374.438L214.586 375.087L213.937 368.326L220.698 367.676L221.348 374.438Z" stroke="#1A2E35" stroke-width="1.33333" stroke-miterlimit="10" stroke-linecap="round" stroke-linejoin="round"/>
<path d="M233.592 373.262L226.83 373.911L226.18 367.15L232.942 366.5L233.592 373.262Z" stroke="#1A2E35" stroke-width="1.33333" stroke-miterlimit="10" stroke-linecap="round" stroke-linejoin="round"/>
<path d="M182.953 353.238C183.042 354.172 182.358 355.001 181.425 355.092C180.491 355.181 179.662 354.497 179.573 353.564C179.482 352.63 180.167 351.801 181.101 351.71C182.034 351.621 182.863 352.305 182.953 353.238Z" fill="#1A2E35"/>
<path d="M190.569 386.074L273.626 378.096" stroke="#1A2E35" stroke-width="2.66667" stroke-miterlimit="10" stroke-linecap="round" stroke-linejoin="round"/>
<path d="M191.102 391.617L274.159 383.64" stroke="#1A2E35" stroke-width="2.66667" stroke-miterlimit="10" stroke-linecap="round" stroke-linejoin="round"/>
<path d="M191.723 398.085L262.561 391.28" stroke="#1A2E35" stroke-width="2.66667" stroke-miterlimit="10" stroke-linecap="round" stroke-linejoin="round"/>
<path d="M200.055 410.049L193.293 410.699L192.643 403.937L199.405 403.288L200.055 410.049Z" stroke="#1A2E35" stroke-width="1.33333" stroke-miterlimit="10" stroke-linecap="round" stroke-linejoin="round"/>
<path d="M212.298 408.874L205.537 409.523L204.887 402.762L211.649 402.112L212.298 408.874Z" stroke="#1A2E35" stroke-width="1.33333" stroke-miterlimit="10" stroke-linecap="round" stroke-linejoin="round"/>
<path d="M224.542 407.698L217.781 408.346L217.132 401.584L223.893 400.936L224.542 407.698Z" stroke="#1A2E35" stroke-width="1.33333" stroke-miterlimit="10" stroke-linecap="round" stroke-linejoin="round"/>
<path d="M236.786 406.521L230.025 407.17L229.376 400.409L236.137 399.759L236.786 406.521Z" stroke="#1A2E35" stroke-width="1.33333" stroke-miterlimit="10" stroke-linecap="round" stroke-linejoin="round"/>
<path d="M186.148 386.499C186.237 387.432 185.553 388.261 184.62 388.352C183.685 388.441 182.856 387.756 182.766 386.823C182.677 385.889 183.361 385.06 184.294 384.971C185.229 384.88 186.058 385.565 186.148 386.499Z" fill="#1A2E35"/>
<path d="M185.922 308.465L187.017 309.834L189.998 305.357" stroke="#1A2E35" stroke-width="2.66667" stroke-miterlimit="10" stroke-linecap="round" stroke-linejoin="round"/>
<path d="M213.477 338.043L214.571 339.414L217.554 334.935" stroke="#1A2E35" stroke-width="2.66667" stroke-miterlimit="10" stroke-linecap="round" stroke-linejoin="round"/>
<path d="M204.404 372.229L205.498 373.6L208.48 369.121" stroke="#1A2E35" stroke-width="2.66667" stroke-miterlimit="10" stroke-linecap="round" stroke-linejoin="round"/>
<path d="M231.908 402.881L233.003 404.252L235.984 399.775" stroke="#1A2E35" stroke-width="2.66667" stroke-miterlimit="10" stroke-linecap="round" stroke-linejoin="round"/>
</g>
<mask id="mask12_247_4" style="mask-type:luminance" maskUnits="userSpaceOnUse" x="0" y="0" width="667" height="667">
<path d="M0 -0.00012207H666.667V666.667H0V-0.00012207Z" fill="white"/>
</mask>
<g mask="url(#mask12_247_4)">
<path d="M409.529 183.615H340.646C335.579 183.615 331.473 187.723 331.473 192.789V251.958C331.473 257.025 335.579 261.131 340.646 261.131H371.178L388.667 282.219L384.283 261.131H409.529C414.597 261.131 418.703 257.025 418.703 251.958V192.789C418.703 187.723 414.597 183.615 409.529 183.615Z" fill="white"/>
<path d="M409.529 183.615H340.646C335.579 183.615 331.473 187.723 331.473 192.789V251.958C331.473 257.025 335.579 261.131 340.646 261.131H371.178L388.667 282.219L384.283 261.131H409.529C414.597 261.131 418.703 257.025 418.703 251.958V192.789C418.703 187.723 414.597 183.615 409.529 183.615Z" stroke="#1A2E35" stroke-width="1.33333" stroke-miterlimit="10" stroke-linecap="round" stroke-linejoin="round"/>
<path d="M363.387 220.247C359.365 220.247 356.105 216.987 356.105 212.965C356.105 208.943 359.365 205.683 363.387 205.683C367.409 205.683 370.669 208.943 370.669 212.965C370.669 216.987 367.409 220.247 363.387 220.247ZM380.595 216.099V209.831L375.901 209.427C375.621 208.437 375.233 207.493 374.741 206.613L377.771 203.012L373.34 198.58L369.739 201.611C368.859 201.117 367.915 200.729 366.924 200.451L366.521 195.756H360.253L359.849 200.451C358.859 200.729 357.915 201.117 357.036 201.611L353.435 198.58L349.003 203.012L352.033 206.613C351.54 207.493 351.152 208.436 350.872 209.427L346.179 209.831V216.099L350.872 216.503C351.152 217.493 351.54 218.436 352.033 219.316L349.003 222.917L353.435 227.348L357.036 224.319C357.915 224.811 358.859 225.199 359.849 225.479L360.253 230.173H366.521L366.924 225.479C367.915 225.199 368.859 224.811 369.739 224.319L373.34 227.348L377.771 222.917L374.741 219.316C375.233 218.436 375.621 217.493 375.901 216.503L380.595 216.099Z" fill="#5AE4A7"/>
<path d="M389.085 233.039C386.223 233.039 383.903 230.719 383.903 227.856C383.903 224.995 386.223 222.675 389.085 222.675C391.946 222.675 394.267 224.995 394.267 227.856C394.267 230.719 391.946 233.039 389.085 233.039ZM401.331 230.087V225.627L397.99 225.34C397.79 224.635 397.514 223.963 397.165 223.338L399.321 220.775L396.167 217.622L393.605 219.778C392.978 219.427 392.307 219.151 391.603 218.952L391.315 215.612H386.855L386.567 218.952C385.863 219.151 385.191 219.427 384.566 219.778L382.002 217.622L378.849 220.775L381.005 223.338C380.655 223.963 380.379 224.635 380.179 225.34L376.839 225.627V230.087L380.179 230.374C380.379 231.079 380.655 231.751 381.005 232.376L378.849 234.939L382.002 238.092L384.565 235.936C385.191 236.287 385.863 236.563 386.567 236.762L386.855 240.102H391.315L391.603 236.762C392.307 236.563 392.978 236.287 393.605 235.936L396.167 238.092L399.321 234.939L397.165 232.376C397.514 231.751 397.79 231.079 397.99 230.374L401.331 230.087Z" fill="#5AE4A7"/>
<path d="M370.803 242.574C368.767 242.574 367.115 240.924 367.115 238.886C367.115 236.85 368.767 235.2 370.803 235.2C372.839 235.2 374.491 236.85 374.491 238.886C374.491 240.924 372.839 242.574 370.803 242.574ZM379.517 240.473V237.3L377.139 237.096C376.998 236.594 376.802 236.117 376.553 235.672L378.086 233.848L375.842 231.604L374.018 233.138C373.573 232.888 373.097 232.692 372.594 232.55L372.389 230.173H369.217L369.011 232.55C368.51 232.692 368.033 232.888 367.587 233.138L365.763 231.604L363.519 233.848L365.054 235.672C364.805 236.117 364.609 236.594 364.466 237.096L362.09 237.3V240.473L364.466 240.678C364.609 241.18 364.805 241.658 365.054 242.102L363.519 243.926L365.763 246.17L367.587 244.636C368.033 244.885 368.51 245.082 369.011 245.224L369.217 247.601H372.389L372.594 245.224C373.097 245.082 373.574 244.885 374.018 244.636L375.842 246.17L378.086 243.926L376.553 242.102C376.802 241.658 376.998 241.18 377.139 240.678L379.517 240.473Z" fill="#5AE4A7"/>
</g>
<path d="M373.246 411.156L426.946 609.267H434.978L381.277 411.156H373.246Z" fill="#767676"/>
<path d="M373.246 411.156L426.946 609.267H434.978L381.277 411.156H373.246Z" stroke="#1A2E35" stroke-width="1.33333" stroke-miterlimit="10" stroke-linecap="round" stroke-linejoin="round"/>
<path d="M494.197 561.392H392.395V553.104H494.197V561.392Z" fill="#9A9A9A" stroke="#1A2E35" stroke-width="1.33333" stroke-miterlimit="10" stroke-linecap="round" stroke-linejoin="round"/>
<mask id="mask13_247_4" style="mask-type:luminance" maskUnits="userSpaceOnUse" x="0" y="0" width="667" height="667">
<path d="M0 -0.00012207H666.667V666.667H0V-0.00012207Z" fill="white"/>
</mask>
<g mask="url(#mask13_247_4)">
<path d="M548.503 366.653L482.74 609.267H474.708L540.472 366.653C542.897 357.705 537.335 350.432 528.067 350.432H471.397C462.144 350.432 452.624 357.705 450.197 366.653L384.435 609.267H376.404L442.167 366.653C445.756 353.409 459.781 342.68 473.499 342.68H530.168C543.885 342.68 552.092 353.409 548.503 366.653Z" fill="#767676"/>
<path d="M548.503 366.653L482.74 609.267H474.708L540.472 366.653C542.897 357.705 537.335 350.432 528.067 350.432H471.397C462.144 350.432 452.624 357.705 450.197 366.653L384.435 609.267H376.404L442.167 366.653C445.756 353.409 459.781 342.68 473.499 342.68H530.168C543.885 342.68 552.092 353.409 548.503 366.653Z" stroke="#1A2E35" stroke-width="1.33333" stroke-miterlimit="10" stroke-linecap="round" stroke-linejoin="round"/>
<path d="M549.547 366.733L533.227 426.974C531.88 431.946 526.614 435.974 521.466 435.974H428.347C423.2 435.974 420.12 431.946 421.466 426.974L437.799 366.733C439.147 361.773 444.412 357.733 449.56 357.733H542.667C547.814 357.733 550.894 361.773 549.547 366.733Z" fill="#5AE4A7"/>
</g>
<mask id="mask14_247_4" style="mask-type:luminance" maskUnits="userSpaceOnUse" x="421" y="357" width="129" height="79">
<path d="M449.56 357.732C444.413 357.732 439.147 361.773 437.8 366.732L421.467 426.973C420.12 431.946 423.2 435.973 428.345 435.973H521.465C526.613 435.973 531.88 431.946 533.225 426.973L549.547 366.732C550.893 361.773 547.813 357.732 542.667 357.732H449.56Z" fill="white"/>
</mask>
<g mask="url(#mask14_247_4)">
<mask id="mask15_247_4" style="mask-type:luminance" maskUnits="userSpaceOnUse" x="421" y="357" width="129" height="79">
<path d="M421.151 357.733H549.863V435.973H421.151V357.733Z" fill="white"/>
</mask>
<g mask="url(#mask15_247_4)">
<g opacity="0.199997">
<mask id="mask16_247_4" style="mask-type:luminance" maskUnits="userSpaceOnUse" x="421" y="357" width="129" height="79">
<path d="M421.151 357.733H549.863V435.973H421.151V357.733Z" fill="white"/>
</mask>
<g mask="url(#mask16_247_4)">
<g opacity="0.699997">
<path d="M549.547 366.733L533.227 426.974C531.88 431.946 526.614 435.974 521.466 435.974H428.347C423.2 435.974 420.12 431.946 421.466 426.974L437.799 366.733C439.147 361.773 444.412 357.733 449.56 357.733H497.707C518.519 379.106 515.867 418.386 514.507 430.254C518.774 429.239 522.667 425.733 523.799 421.559L540.132 361.319C540.48 360.039 540.534 358.826 540.334 357.733H542.667C547.814 357.733 550.894 361.773 549.547 366.733Z" fill="black"/>
</g>
</g>
</g>
</g>
</g>
<mask id="mask17_247_4" style="mask-type:luminance" maskUnits="userSpaceOnUse" x="0" y="0" width="667" height="667">
<path d="M0 -0.00012207H666.667V666.667H0V-0.00012207Z" fill="white"/>
</mask>
<g mask="url(#mask17_247_4)">
<path d="M549.547 366.733L533.227 426.975C531.88 431.947 526.614 435.975 521.466 435.975H428.347C423.2 435.975 420.12 431.947 421.466 426.975L437.799 366.733C439.147 361.773 444.412 357.733 449.56 357.733H542.667C547.814 357.733 550.894 361.773 549.547 366.733Z" stroke="#1A2E35" stroke-width="1.33333" stroke-miterlimit="10" stroke-linecap="round" stroke-linejoin="round"/>
<path d="M494.805 496.943L525.251 609.267H533.282L502.835 496.943H494.805Z" fill="#767676"/>
<path d="M494.805 496.943L525.251 609.267H533.282L502.835 496.943H494.805Z" stroke="#1A2E35" stroke-width="1.33333" stroke-miterlimit="10" stroke-linecap="round" stroke-linejoin="round"/>
<path d="M502.867 484.053V495.04H382.974V484.053C382.974 479.587 386.587 475.973 391.054 475.973H494.774C498.506 475.973 501.654 478.493 502.587 481.933C502.774 482.6 502.867 483.32 502.867 484.053Z" fill="#5AE4A7"/>
</g>
<mask id="mask18_247_4" style="mask-type:luminance" maskUnits="userSpaceOnUse" x="382" y="475" width="121" height="21">
<path d="M391.053 475.973C386.587 475.973 382.973 479.587 382.973 484.053V495.04H502.867V484.053C502.867 483.32 502.773 482.6 502.588 481.933C501.655 478.493 498.507 475.973 494.773 475.973H391.053Z" fill="white"/>
</mask>
<g mask="url(#mask18_247_4)">
<mask id="mask19_247_4" style="mask-type:luminance" maskUnits="userSpaceOnUse" x="382" y="475" width="121" height="21">
<path d="M382.973 475.973H502.587V495.04H382.973V475.973Z" fill="white"/>
</mask>
<g mask="url(#mask19_247_4)">
<g opacity="0.199997">
<mask id="mask20_247_4" style="mask-type:luminance" maskUnits="userSpaceOnUse" x="382" y="475" width="121" height="21">
<path d="M382.973 475.973H502.587V495.04H382.973V475.973Z" fill="white"/>
</mask>
<g mask="url(#mask20_247_4)">
<g opacity="0.699997">
<path d="M502.587 481.934C498.707 486.494 491.746 491.133 479.774 495.041H382.974V484.054C382.974 479.587 386.587 475.974 391.054 475.974H494.774C498.506 475.974 501.654 478.494 502.587 481.934Z" fill="black"/>
</g>
</g>
</g>
</g>
</g>
<mask id="mask21_247_4" style="mask-type:luminance" maskUnits="userSpaceOnUse" x="0" y="0" width="667" height="667">
<path d="M0 -0.00012207H666.667V666.667H0V-0.00012207Z" fill="white"/>
</mask>
<g mask="url(#mask21_247_4)">
<path d="M502.867 484.053V495.04H382.974V484.053C382.974 479.586 386.587 475.973 391.054 475.973H494.774C498.506 475.973 501.654 478.493 502.587 481.933C502.774 482.6 502.867 483.32 502.867 484.053Z" stroke="#1A2E35" stroke-width="1.33333" stroke-miterlimit="10" stroke-linecap="round" stroke-linejoin="round"/>
<path d="M506.94 501.981H379.944C378.689 501.981 377.669 500.963 377.669 499.707V493.948C377.669 492.691 378.689 491.673 379.944 491.673H506.94C508.196 491.673 509.215 492.691 509.215 493.948V499.707C509.215 500.963 508.196 501.981 506.94 501.981Z" fill="#9A9A9A"/>
<path d="M506.94 501.981H379.944C378.689 501.981 377.669 500.963 377.669 499.707V493.948C377.669 492.691 378.689 491.673 379.944 491.673H506.94C508.196 491.673 509.215 492.691 509.215 493.948V499.707C509.215 500.963 508.196 501.981 506.94 501.981Z" stroke="#1A2E35" stroke-width="1.33333" stroke-miterlimit="10" stroke-linecap="round" stroke-linejoin="round"/>
<path d="M379.079 492.053C373.333 497.906 401.186 589.88 401.186 589.88C398.147 592.52 393.666 593.773 389.427 594.333C383.293 595.146 377.679 594.506 377.679 594.506C377.679 594.506 337.761 497.68 348.746 473.653C359.733 449.626 427.906 438.626 427.906 438.626L430.814 431.426L466.079 426.466L471.906 469.653C471.906 469.653 466.119 470.213 457.413 471.333C434.066 474.333 389.641 481.306 379.079 492.053Z" fill="#1A2E35"/>
</g>
<mask id="mask22_247_4" style="mask-type:luminance" maskUnits="userSpaceOnUse" x="346" y="426" width="126" height="169">
<path d="M430.813 431.426L427.907 438.625C427.907 438.625 359.733 449.626 348.747 473.653C337.76 497.68 377.68 594.506 377.68 594.506C377.68 594.506 383.293 595.146 389.428 594.333C393.667 593.773 398.147 592.52 401.187 589.88C401.187 589.88 373.333 497.905 379.08 492.053C389.641 481.308 434.067 474.333 457.412 471.333C466.12 470.213 471.907 469.653 471.907 469.653L466.08 426.466L430.813 431.426Z" fill="white"/>
</mask>
<g mask="url(#mask22_247_4)">
<mask id="mask23_247_4" style="mask-type:luminance" maskUnits="userSpaceOnUse" x="367" y="445" width="91" height="150">
<path d="M367.776 445.88H457.413V594.333H367.776V445.88Z" fill="white"/>
</mask>
<g mask="url(#mask23_247_4)">
<g opacity="0.300003">
<path d="M401.186 589.88C398.147 592.519 393.666 593.773 389.427 594.333C381.679 565.533 361.959 488.68 369.439 479.28C378.654 467.68 424.254 457.132 424.254 457.132C424.439 451.214 440.427 445.88 440.427 445.88L457.413 471.334C434.066 474.334 389.641 481.307 379.079 492.054C373.333 497.907 401.186 589.88 401.186 589.88Z" fill="black"/>
</g>
</g>
</g>
<mask id="mask24_247_4" style="mask-type:luminance" maskUnits="userSpaceOnUse" x="0" y="0" width="667" height="667">
<path d="M0 -0.00012207H666.667V666.667H0V-0.00012207Z" fill="white"/>
</mask>
<g mask="url(#mask24_247_4)">
<path d="M379.079 492.053C373.333 497.906 401.186 589.88 401.186 589.88C398.147 592.52 393.666 593.773 389.427 594.333C383.293 595.146 377.679 594.506 377.679 594.506C377.679 594.506 337.761 497.68 348.746 473.653C359.733 449.626 427.906 438.626 427.906 438.626L430.814 431.426L466.079 426.466L471.906 469.653C471.906 469.653 466.119 470.213 457.413 471.333C434.066 474.333 389.641 481.306 379.079 492.053Z" stroke="#1A2E35" stroke-width="1.33333" stroke-miterlimit="10" stroke-linecap="round" stroke-linejoin="round"/>
<path d="M359.353 404.951C353.494 403.941 395.165 367.414 395.165 367.414L415.253 380.937C415.253 380.937 381.062 405.013 375.693 405.671C370.322 406.331 359.353 404.951 359.353 404.951Z" fill="white"/>
</g>
<mask id="mask25_247_4" style="mask-type:luminance" maskUnits="userSpaceOnUse" x="358" y="367" width="58" height="39">
<path d="M359.353 404.952C359.353 404.952 370.321 406.332 375.692 405.672C381.063 405.013 415.253 380.937 415.253 380.937L395.165 367.414C395.165 367.414 353.495 403.941 359.353 404.952Z" fill="white"/>
</mask>
<g mask="url(#mask25_247_4)">
<mask id="mask26_247_4" style="mask-type:luminance" maskUnits="userSpaceOnUse" x="358" y="367" width="58" height="39">
<path d="M358.788 367.413H415.253V405.851H358.788V367.413Z" fill="white"/>
</mask>
<g mask="url(#mask26_247_4)">
<g opacity="0.199997">
<mask id="mask27_247_4" style="mask-type:luminance" maskUnits="userSpaceOnUse" x="358" y="367" width="58" height="39">
<path d="M358.788 367.413H415.253V405.851H358.788V367.413Z" fill="white"/>
</mask>
<g mask="url(#mask27_247_4)">
<g opacity="0.699997">
<path d="M359.353 404.952C353.494 403.941 395.165 367.414 395.165 367.414L415.253 380.937C415.253 380.937 381.062 405.013 375.693 405.672C370.322 406.332 359.353 404.952 359.353 404.952Z" fill="black"/>
</g>
</g>
</g>
</g>
</g>
<mask id="mask28_247_4" style="mask-type:luminance" maskUnits="userSpaceOnUse" x="0" y="0" width="667" height="667">
<path d="M0 -0.00012207H666.667V666.667H0V-0.00012207Z" fill="white"/>
</mask>
<g mask="url(#mask28_247_4)">
<path d="M359.353 404.952C353.494 403.941 395.165 367.414 395.165 367.414L415.253 380.937C415.253 380.937 381.062 405.013 375.693 405.672C370.322 406.332 359.353 404.952 359.353 404.952Z" stroke="#1A2E35" stroke-width="1.33333" stroke-miterlimit="10" stroke-linecap="round" stroke-linejoin="round"/>
<path d="M366.698 389.585C366.698 389.585 375.434 391.757 378.102 393.621C380.77 395.486 380.017 402.057 380.017 402.057C380.017 402.057 368.349 398.727 366.698 389.585Z" fill="white"/>
<path d="M366.698 389.585C366.698 389.585 375.434 391.757 378.102 393.621C380.77 395.486 380.017 402.057 380.017 402.057C380.017 402.057 368.349 398.727 366.698 389.585Z" stroke="#1A2E35" stroke-width="1.33333" stroke-miterlimit="10" stroke-linecap="round" stroke-linejoin="round"/>
<path d="M361.095 372.861L377.33 403.998H379.254L363.832 371.323L361.095 372.861Z" fill="#1A2E35"/>
<path d="M375.733 395.372C375.733 395.372 365.493 388.09 362.99 388.09C360.488 388.09 352.98 396.96 352.98 401.4C352.98 405.839 369.342 408.308 372.548 404.531C374.141 402.654 370.976 398.122 370.976 398.122C370.976 398.122 375.733 403.052 377.098 403.791C378.464 404.531 380.968 403.564 380.968 403.564C380.968 403.564 377.553 398.122 375.733 395.372Z" fill="white"/>
<path d="M375.733 395.372C375.733 395.372 365.493 388.09 362.99 388.09C360.488 388.09 352.98 396.96 352.98 401.4C352.98 405.839 369.342 408.308 372.548 404.531C374.141 402.654 370.976 398.122 370.976 398.122C370.976 398.122 375.733 403.052 377.098 403.791C378.464 404.531 380.968 403.564 380.968 403.564C380.968 403.564 377.553 398.122 375.733 395.372Z" stroke="#1A2E35" stroke-width="1.33333" stroke-miterlimit="10" stroke-linecap="round" stroke-linejoin="round"/>
<path d="M370.975 405.583C370.975 405.583 367.086 400.53 362.422 398.121" stroke="#1A2E35" stroke-width="1.33333" stroke-miterlimit="10" stroke-linecap="round" stroke-linejoin="round"/>
<path d="M370.975 398.121C370.975 398.121 367.429 395.03 365.039 394.348" stroke="#1A2E35" stroke-width="1.33333" stroke-miterlimit="10" stroke-linecap="round" stroke-linejoin="round"/>
<path d="M359.813 402.056C359.813 402.056 365.55 405.072 366.973 406.354" stroke="#1A2E35" stroke-width="1.33333" stroke-miterlimit="10" stroke-linecap="round" stroke-linejoin="round"/>
<path d="M408.22 351.439C402.969 355.1 379.443 379.294 379.443 379.294C379.443 379.294 390.469 391.834 400.132 393.656L426.329 380.938L408.22 351.439Z" fill="#5AE4A7"/>
<path d="M408.22 351.439C402.969 355.1 379.443 379.294 379.443 379.294C379.443 379.294 390.469 391.834 400.132 393.656L426.329 380.938L408.22 351.439Z" stroke="#1A2E35" stroke-width="1.33333" stroke-miterlimit="10" stroke-linecap="round" stroke-linejoin="round"/>
<mask id="mask29_247_4" style="mask-type:luminance" maskUnits="userSpaceOnUse" x="378" y="350" width="49" height="45">
<path d="M378.776 350.772H426.996V394.323H378.776V350.772Z" fill="white"/>
</mask>
<g mask="url(#mask29_247_4)">
<g opacity="0.399994">
<path d="M408.22 351.439C402.969 355.1 379.443 379.294 379.443 379.294C379.443 379.294 390.469 391.834 400.132 393.656L426.329 380.938L408.22 351.439Z" fill="white"/>
<path d="M408.22 351.439C402.969 355.1 379.443 379.294 379.443 379.294C379.443 379.294 390.469 391.834 400.132 393.656L426.329 380.938L408.22 351.439Z" stroke="#1A2E35" stroke-width="1.33333" stroke-miterlimit="10" stroke-linecap="round" stroke-linejoin="round"/>
</g>
</g>
<path d="M395.56 580.117L406.637 609.267C406.637 609.267 408.483 616.776 374.989 614.403L356.528 612.82L395.56 580.117Z" fill="#5AE4A7"/>
</g>
<mask id="mask30_247_4" style="mask-type:luminance" maskUnits="userSpaceOnUse" x="356" y="580" width="51" height="35">
<path d="M356.527 612.82L374.989 614.401C408.484 616.776 406.637 609.266 406.637 609.266L395.56 580.116L356.527 612.82Z" fill="white"/>
</mask>
<g mask="url(#mask30_247_4)">
<mask id="mask31_247_4" style="mask-type:luminance" maskUnits="userSpaceOnUse" x="356" y="580" width="51" height="35">
<path d="M356.528 580.117H406.656V614.866H356.528V580.117Z" fill="white"/>
</mask>
<g mask="url(#mask31_247_4)">
<g opacity="0.300003">
<path d="M395.56 580.117L406.637 609.266C406.637 609.266 408.483 616.775 374.989 614.402L356.528 612.819L395.56 580.117Z" fill="black"/>
</g>
</g>
</g>
<mask id="mask32_247_4" style="mask-type:luminance" maskUnits="userSpaceOnUse" x="0" y="0" width="667" height="667">
<path d="M0 -0.00012207H666.667V666.667H0V-0.00012207Z" fill="white"/>
</mask>
<g mask="url(#mask32_247_4)">
<path d="M395.56 580.117L406.637 609.267C406.637 609.267 408.483 616.776 374.989 614.403L356.528 612.82L395.56 580.117Z" stroke="#1A2E35" stroke-width="1.33333" stroke-miterlimit="10" stroke-linecap="round" stroke-linejoin="round"/>
<path d="M391.341 594.095C391.341 594.095 393.715 605.436 391.341 613.875C391.341 613.875 356 619.414 348.088 617.303C340.176 615.194 335.383 611.251 335.143 609.267C335.143 609.267 335.428 603.852 343.341 602.271C351.253 600.688 367.02 599.634 373.247 590.667C379.473 581.699 391.341 594.095 391.341 594.095Z" fill="#5AE4A7"/>
<path d="M391.341 594.095C391.341 594.095 393.715 605.436 391.341 613.875C391.341 613.875 356 619.414 348.088 617.303C340.176 615.194 335.383 611.251 335.143 609.267C335.143 609.267 335.428 603.852 343.341 602.271C351.253 600.688 367.02 599.634 373.247 590.667C379.473 581.699 391.341 594.095 391.341 594.095Z" stroke="#1A2E35" stroke-width="1.33333" stroke-miterlimit="10" stroke-linecap="round" stroke-linejoin="round"/>
<path d="M437.987 430.299C449.283 414.189 501.195 433.576 501.195 433.576C501.195 433.576 506.15 472.349 485.471 482.689C464.792 493.029 434.978 492.479 426.924 500.865L394.148 597.642C394.148 597.642 382.379 602.566 365.254 594.813C365.254 594.813 386.067 521.729 392.171 495.782C398.212 470.109 437.326 452.674 437.326 452.674C437.326 452.674 434.035 448.95 432.822 444.57" fill="#1A2E35"/>
<path d="M437.987 430.299C449.283 414.189 501.195 433.575 501.195 433.575C501.195 433.575 506.15 472.349 485.471 482.689C464.792 493.029 434.978 492.479 426.924 500.865L394.148 597.642C394.148 597.642 382.379 602.566 365.254 594.813C365.254 594.813 386.067 521.729 392.171 495.782C398.212 470.109 437.326 452.674 437.326 452.674C437.326 452.674 434.035 448.95 432.822 444.57" stroke="#1A2E35" stroke-width="1.33333" stroke-miterlimit="10" stroke-linecap="round" stroke-linejoin="round"/>
<path d="M490.553 467.36C488.891 468.833 487.14 470.205 485.315 471.47" stroke="white" stroke-width="1.33333" stroke-miterlimit="10" stroke-linecap="round" stroke-linejoin="round"/>
<path d="M494.805 434.524C499.038 443.718 499.371 455.406 493.434 463.921" stroke="white" stroke-width="1.33333" stroke-miterlimit="10" stroke-linecap="round" stroke-linejoin="round"/>
<path d="M482.977 435.974C482.977 435.974 481.891 443.062 485.055 445.875C488.221 448.689 497.91 450.125 497.91 450.125" stroke="white" stroke-width="1.33333" stroke-miterlimit="10" stroke-linecap="round" stroke-linejoin="round"/>
<path d="M440.409 436.316C440.409 436.316 440.853 443.388 437.987 443.05C435.121 442.711 434.978 445.875 434.978 445.875" stroke="white" stroke-width="1.33333" stroke-miterlimit="10" stroke-linecap="round" stroke-linejoin="round"/>
<path d="M408.904 356.874C408.47 354.996 408.22 353.166 408.22 351.439C408.22 351.439 424.258 337.95 444.816 338.019C469.345 338.104 484.342 345.82 490.353 356.54C499.865 373.504 501.196 433.575 501.196 433.575C501.196 433.575 439.644 443.07 430.81 431.422C429.278 429.403 430.452 415.087 430.452 415.087C430.452 415.087 423.56 397.014 422.105 382.988C422.105 382.988 419.453 379.418 416.468 374.324C414.497 370.964 412.382 366.943 410.788 362.846" fill="#5AE4A7"/>
<path d="M408.904 356.874C408.47 354.996 408.22 353.166 408.22 351.439C408.22 351.439 424.258 337.95 444.816 338.019C469.345 338.104 484.342 345.82 490.353 356.54C499.865 373.504 501.196 433.575 501.196 433.575C501.196 433.575 439.644 443.07 430.81 431.422C429.278 429.403 430.452 415.087 430.452 415.087C430.452 415.087 423.56 397.014 422.105 382.988C422.105 382.988 419.453 379.418 416.468 374.324C414.497 370.964 412.382 366.943 410.788 362.846" stroke="#1A2E35" stroke-width="1.33333" stroke-miterlimit="10" stroke-linecap="round" stroke-linejoin="round"/>
<mask id="mask33_247_4" style="mask-type:luminance" maskUnits="userSpaceOnUse" x="407" y="337" width="95" height="101">
<path d="M407.553 337.353H501.863V437.889H407.553V337.353Z" fill="white"/>
</mask>
<g mask="url(#mask33_247_4)">
<g opacity="0.600006">
<path d="M408.904 356.873C408.47 354.996 408.22 353.165 408.22 351.439C408.22 351.439 424.258 337.949 444.816 338.019C469.345 338.104 484.342 345.82 490.353 356.54C499.865 373.504 501.196 433.575 501.196 433.575C501.196 433.575 439.644 443.069 430.81 431.421C429.278 429.403 430.452 415.087 430.452 415.087C430.452 415.087 423.56 397.013 422.105 382.988C422.105 382.988 419.453 379.417 416.468 374.324C414.497 370.964 412.382 366.943 410.788 362.845" fill="white"/>
<path d="M408.904 356.873C408.47 354.996 408.22 353.165 408.22 351.439C408.22 351.439 424.258 337.949 444.816 338.019C469.345 338.104 484.342 345.82 490.353 356.54C499.865 373.504 501.196 433.575 501.196 433.575C501.196 433.575 439.644 443.069 430.81 431.421C429.278 429.403 430.452 415.087 430.452 415.087C430.452 415.087 423.56 397.013 422.105 382.988C422.105 382.988 419.453 379.417 416.468 374.324C414.497 370.964 412.382 366.943 410.788 362.845" stroke="#1A2E35" stroke-width="1.33333" stroke-miterlimit="10" stroke-linecap="round" stroke-linejoin="round"/>
</g>
</g>
<path d="M432.481 371.323C432.481 371.323 441.881 407.794 440.434 415.81C439.717 419.779 441.802 423.9 441.802 423.9C441.802 423.9 437.511 428.123 440.434 433.743" stroke="#1A2E35" stroke-width="1.33333" stroke-miterlimit="10" stroke-linecap="round" stroke-linejoin="round"/>
<path d="M457.419 401.488C455.585 401.334 453.902 400.896 452.697 400L449.909 387.787C449.909 387.787 458.505 388.734 466.418 386.632L469.406 400C469.406 400 467.191 400.647 464.289 401.107" stroke="#1A2E35" stroke-width="1.33333" stroke-miterlimit="10" stroke-linecap="round" stroke-linejoin="round"/>
<path d="M425.803 376.062C425.803 376.062 417.859 341.981 437.987 338.02C458.114 334.058 462.322 343.492 461.13 349.884C459.543 358.398 442.819 379.293 442.819 379.293L432.481 371.322L425.803 376.062Z" fill="#5AE4A7"/>
<path d="M425.803 376.062C425.803 376.062 417.859 341.981 437.987 338.02C458.114 334.058 462.322 343.492 461.13 349.884C459.543 358.398 442.819 379.293 442.819 379.293L432.481 371.322L425.803 376.062Z" stroke="#1A2E35" stroke-width="1.33333" stroke-miterlimit="10" stroke-linecap="round" stroke-linejoin="round"/>
<mask id="mask34_247_4" style="mask-type:luminance" maskUnits="userSpaceOnUse" x="423" y="336" width="39" height="44">
<path d="M423.591 336.412H461.981V379.96H423.591V336.412Z" fill="white"/>
</mask>
<g mask="url(#mask34_247_4)">
<g opacity="0.399994">
<path d="M425.803 376.062C425.803 376.062 417.859 341.981 437.987 338.02C458.114 334.058 462.322 343.492 461.13 349.884C459.543 358.398 442.819 379.293 442.819 379.293L432.481 371.322L425.803 376.062Z" fill="white"/>
<path d="M425.803 376.062C425.803 376.062 417.859 341.981 437.987 338.02C458.114 334.058 462.322 343.492 461.13 349.884C459.543 358.398 442.819 379.293 442.819 379.293L432.481 371.322L425.803 376.062Z" stroke="#1A2E35" stroke-width="1.33333" stroke-miterlimit="10" stroke-linecap="round" stroke-linejoin="round"/>
</g>
</g>
<path d="M399.325 481.271C399.325 481.271 412.357 466.214 441.801 454.843C441.801 454.843 434.172 452.504 432.48 449.34" stroke="white" stroke-width="1.33333" stroke-miterlimit="10" stroke-linecap="round" stroke-linejoin="round"/>
<path d="M383.991 527.405L372.06 570.678" stroke="white" stroke-width="1.33333" stroke-miterlimit="10" stroke-linecap="round" stroke-linejoin="round"/>
<path d="M476.089 402.664C476.089 402.664 481.454 411.673 503.387 410.84C503.387 410.84 497.363 403.975 488.395 401.54C479.429 399.107 476.089 402.664 476.089 402.664Z" fill="#5AE4A7"/>
<path d="M476.089 402.664C476.089 402.664 481.454 411.673 503.387 410.84C503.387 410.84 497.363 403.975 488.395 401.54C479.429 399.107 476.089 402.664 476.089 402.664Z" stroke="#1A2E35" stroke-width="1.33333" stroke-miterlimit="10" stroke-linecap="round" stroke-linejoin="round"/>
<path d="M390.889 406.285C390.889 406.285 395.984 398.388 400.659 396.807C405.333 395.224 419.032 395.085 421.143 395.031C423.252 394.975 460.939 404.547 478.608 410.435L477.069 380.937L500.824 382.809C500.824 382.809 499.865 418.82 496.175 428.348C492.481 437.875 487.192 435.56 478.161 431.669C442.651 416.369 421.848 405.715 419.92 406.285C417.992 406.857 390.889 406.285 390.889 406.285Z" fill="white"/>
<path d="M390.889 406.285C390.889 406.285 395.984 398.388 400.659 396.807C405.333 395.224 419.032 395.085 421.143 395.031C423.252 394.975 460.939 404.547 478.608 410.435L477.069 380.937L500.824 382.809C500.824 382.809 499.865 418.82 496.175 428.348C492.481 437.875 487.192 435.56 478.161 431.669C442.651 416.369 421.848 405.715 419.92 406.285C417.992 406.857 390.889 406.285 390.889 406.285Z" stroke="#1A2E35" stroke-width="1.33333" stroke-miterlimit="10" stroke-linecap="round" stroke-linejoin="round"/>
<path d="M471.138 363.791C470.517 366.368 470.286 368.972 470.551 371.28C471.606 380.511 476.089 402.664 476.089 402.664C476.089 402.664 498.245 405.829 503.387 410.84C503.387 410.84 507.034 381.472 499.606 366.617C492.177 351.763 484.467 350.079 484.467 350.079C479.603 348.875 475.19 353.416 472.663 359.236" fill="#5AE4A7"/>
<path d="M471.138 363.791C470.517 366.368 470.286 368.972 470.551 371.28C471.606 380.511 476.089 402.664 476.089 402.664C476.089 402.664 498.245 405.829 503.387 410.84C503.387 410.84 507.034 381.472 499.606 366.617C492.177 351.763 484.467 350.079 484.467 350.079C479.603 348.875 475.19 353.416 472.663 359.236" stroke="#1A2E35" stroke-width="1.33333" stroke-miterlimit="10" stroke-linecap="round" stroke-linejoin="round"/>
<mask id="mask35_247_4" style="mask-type:luminance" maskUnits="userSpaceOnUse" x="469" y="349" width="36" height="63">
<path d="M469.776 349.217H504.948V411.507H469.776V349.217Z" fill="white"/>
</mask>
<g mask="url(#mask35_247_4)">
<g opacity="0.399994">
<path d="M471.138 363.791C470.517 366.368 470.286 368.972 470.551 371.28C471.606 380.511 476.089 402.664 476.089 402.664C476.089 402.664 498.245 405.829 503.387 410.84C503.387 410.84 507.034 381.472 499.606 366.617C492.177 351.763 484.467 350.079 484.467 350.079C479.603 348.875 475.19 353.416 472.663 359.236" fill="white"/>
<path d="M471.138 363.791C470.517 366.368 470.286 368.972 470.551 371.28C471.606 380.511 476.089 402.664 476.089 402.664C476.089 402.664 498.245 405.829 503.387 410.84C503.387 410.84 507.034 381.472 499.606 366.617C492.177 351.763 484.467 350.079 484.467 350.079C479.603 348.875 475.19 353.416 472.663 359.236" stroke="#1A2E35" stroke-width="1.33333" stroke-miterlimit="10" stroke-linecap="round" stroke-linejoin="round"/>
</g>
</g>
<path d="M406.065 375.194C406.065 375.194 410.414 379.121 417.405 380.938" stroke="#1A2E35" stroke-width="1.33333" stroke-miterlimit="10" stroke-linecap="round" stroke-linejoin="round"/>
<path d="M476.089 375.194C476.089 375.194 484.137 390.314 494.198 393.657" stroke="#1A2E35" stroke-width="1.33333" stroke-miterlimit="10" stroke-linecap="round" stroke-linejoin="round"/>
<path d="M424.258 491.673C424.258 491.673 425.735 492.791 426.33 496.827" stroke="white" stroke-width="1.33333" stroke-miterlimit="10" stroke-linecap="round" stroke-linejoin="round"/>
<path d="M418.769 496.827C418.769 496.827 422.851 497.079 425.293 500.591" stroke="white" stroke-width="1.33333" stroke-miterlimit="10" stroke-linecap="round" stroke-linejoin="round"/>
<path d="M374.68 481.271C374.68 481.271 378.953 483.429 378.026 489.545" stroke="white" stroke-width="1.33333" stroke-miterlimit="10" stroke-linecap="round" stroke-linejoin="round"/>
<path d="M370.174 486.529C370.174 486.529 376.002 489.982 376.42 493.086" stroke="white" stroke-width="1.33333" stroke-miterlimit="10" stroke-linecap="round" stroke-linejoin="round"/>
<path d="M437.706 449.221C437.706 449.221 450.68 451.044 453.582 449.221" stroke="white" stroke-width="1.33333" stroke-miterlimit="10" stroke-linecap="round" stroke-linejoin="round"/>
<path d="M432.481 369.853C432.481 369.853 430.827 365.921 431.119 359.946C431.174 358.868 431.281 357.733 431.481 356.548L429.227 352.974L426.334 348.374L429.679 334.974C429.679 334.974 450.987 339.08 452.614 345.026C454.227 351 432.481 369.853 432.481 369.853Z" fill="white"/>
</g>
<mask id="mask36_247_4" style="mask-type:luminance" maskUnits="userSpaceOnUse" x="426" y="334" width="27" height="36">
<path d="M426.333 348.373L429.227 352.973L431.48 356.547C431.28 357.732 431.173 358.867 431.119 359.947C430.827 365.92 432.48 369.852 432.48 369.852C432.48 369.852 454.227 351 452.613 345.025C450.987 339.08 429.679 334.973 429.679 334.973L426.333 348.373Z" fill="white"/>
</mask>
<g mask="url(#mask36_247_4)">
<mask id="mask37_247_4" style="mask-type:luminance" maskUnits="userSpaceOnUse" x="429" y="347" width="11" height="13">
<path d="M429.227 347.133H439.652V359.947H429.227V347.133Z" fill="white"/>
</mask>
<g mask="url(#mask37_247_4)">
<g opacity="0.199997">
<mask id="mask38_247_4" style="mask-type:luminance" maskUnits="userSpaceOnUse" x="429" y="347" width="11" height="13">
<path d="M429.227 347.133H439.652V359.947H429.227V347.133Z" fill="white"/>
</mask>
<g mask="url(#mask38_247_4)">
<g opacity="0.699997">
<path d="M431.12 359.947C431.173 358.867 431.28 357.733 431.481 356.547L429.226 352.975C432.921 352.24 436.96 350.6 439.641 347.133C439.641 347.133 440.346 356.373 431.12 359.947Z" fill="black"/>
</g>
</g>
</g>
</g>
</g>
<mask id="mask39_247_4" style="mask-type:luminance" maskUnits="userSpaceOnUse" x="0" y="0" width="667" height="667">
<path d="M0 -0.00012207H666.667V666.667H0V-0.00012207Z" fill="white"/>
</mask>
<g mask="url(#mask39_247_4)">
<path d="M432.481 369.853C432.481 369.853 430.827 365.921 431.119 359.946C431.174 358.867 431.281 357.733 431.481 356.547L429.227 352.974L426.334 348.374L429.679 334.974C429.679 334.974 450.987 339.079 452.614 345.026C454.227 350.999 432.481 369.853 432.481 369.853Z" stroke="#1A2E35" stroke-width="1.33333" stroke-miterlimit="10" stroke-linecap="round" stroke-linejoin="round"/>
<path d="M445.871 336.161C452.466 318.776 448.111 289.32 416.102 294.976C397.26 298.305 395.067 321.002 401.36 331.074C407.652 341.145 400.967 341.476 410.404 348.949C414.222 351.969 417.312 357.113 421.87 357.434C427.288 357.817 434.244 352.678 439.424 347.137" fill="white"/>
<path d="M445.871 336.161C452.466 318.776 448.111 289.32 416.102 294.976C397.26 298.305 395.067 321.002 401.36 331.074C407.652 341.145 400.967 341.476 410.404 348.949C414.222 351.969 417.312 357.113 421.87 357.434C427.288 357.817 434.244 352.678 439.424 347.137" stroke="#1A2E35" stroke-width="1.33333" stroke-miterlimit="10" stroke-linecap="round" stroke-linejoin="round"/>
<path d="M414.339 331.074C414.339 331.074 419.057 326.791 424.661 328.56" stroke="#1A2E35" stroke-width="1.33333" stroke-miterlimit="10" stroke-linecap="round" stroke-linejoin="round"/>
<path d="M405.49 331.074C405.49 331.074 403.884 327.679 399.378 326.94" stroke="#1A2E35" stroke-width="1.33333" stroke-miterlimit="10" stroke-linecap="round" stroke-linejoin="round"/>
<path d="M408.608 337.26C408.608 337.26 407.935 340.721 407.043 344.217C406.179 347.611 412.637 345.801 412.348 345.26" fill="white"/>
<path d="M408.608 337.26C408.608 337.26 407.935 340.721 407.043 344.217C406.179 347.611 412.637 345.801 412.348 345.26" stroke="#1A2E35" stroke-width="1.33333" stroke-miterlimit="10" stroke-linecap="round" stroke-linejoin="round"/>
<path d="M415.719 349.696C415.719 349.696 419.856 348.707 422.743 345.092" stroke="#1A2E35" stroke-width="1.33333" stroke-miterlimit="10" stroke-linecap="round" stroke-linejoin="round"/>
<path d="M420.901 335.466C421.165 336.435 420.765 337.387 420.008 337.595C419.252 337.8 418.424 337.183 418.158 336.214C417.894 335.244 418.294 334.291 419.05 334.084C419.809 333.879 420.637 334.496 420.901 335.466Z" fill="#1A2E35"/>
<path d="M406.631 335.168C406.895 336.137 406.701 337.034 406.195 337.172C405.691 337.309 405.067 336.636 404.803 335.666C404.539 334.697 404.734 333.801 405.238 333.662C405.743 333.525 406.367 334.198 406.631 335.168Z" fill="#1A2E35"/>
<path d="M426.137 313.223C426.137 313.223 421.17 326.201 408.906 325.906C408.906 325.906 413.159 322.667 414.338 319.567C414.338 319.567 404.899 328.914 395.461 324.166C386.023 319.418 390.61 297.359 405.129 288.617C419.647 279.873 434.394 282.229 439.409 290.557C439.409 290.557 449.549 289.625 454.009 304.522C457.991 317.822 451.619 338.059 445.355 338.294C435.665 338.655 433.715 328.133 433.715 328.133C433.715 328.133 427.906 322.957 426.137 313.223Z" fill="#1A2E35"/>
<path d="M426.137 313.223C426.137 313.223 421.17 326.201 408.906 325.906C408.906 325.906 413.159 322.667 414.338 319.567C414.338 319.567 404.899 328.914 395.461 324.166C386.023 319.418 390.61 297.359 405.129 288.617C419.647 279.873 434.394 282.229 439.409 290.557C439.409 290.557 449.549 289.625 454.009 304.522C457.991 317.822 451.619 338.059 445.355 338.294C435.665 338.655 433.715 328.133 433.715 328.133C433.715 328.133 427.906 322.957 426.137 313.223Z" stroke="#1A2E35" stroke-width="1.33333" stroke-miterlimit="10" stroke-linecap="round" stroke-linejoin="round"/>
<path d="M436.754 336.229C436.754 336.229 436.459 323.989 443.391 325.464C450.322 326.938 445.306 341.096 440.071 340.949" fill="white"/>
<path d="M436.754 336.229C436.754 336.229 436.459 323.989 443.391 325.464C450.322 326.938 445.306 341.096 440.071 340.949" stroke="#1A2E35" stroke-width="1.33333" stroke-miterlimit="10" stroke-linecap="round" stroke-linejoin="round"/>
<path d="M415.233 413.04H307.718C306.518 413.04 305.546 412.068 305.546 410.868V407.124C305.546 405.924 306.518 404.952 307.718 404.952H415.233C416.432 404.952 417.405 405.924 417.405 407.124V410.868C417.405 412.068 416.432 413.04 415.233 413.04Z" fill="#5AE4A7"/>
<path d="M415.233 413.04H307.718C306.518 413.04 305.546 412.068 305.546 410.868V407.124C305.546 405.924 306.518 404.952 307.718 404.952H415.233C416.432 404.952 417.405 405.924 417.405 407.124V410.868C417.405 412.068 416.432 413.04 415.233 413.04Z" stroke="#1A2E35" stroke-width="1.33333" stroke-miterlimit="10" stroke-linecap="round" stroke-linejoin="round"/>
</g>
<path d="M149.055 567.818H103.71L108.459 609.267H144.306L149.055 567.818Z" fill="#1A2E35"/>
<path d="M149.055 567.818H103.71L108.459 609.267H144.306L149.055 567.818Z" stroke="#1A2E35" stroke-width="1.33333" stroke-miterlimit="10" stroke-linecap="round" stroke-linejoin="round"/>
<mask id="mask40_247_4" style="mask-type:luminance" maskUnits="userSpaceOnUse" x="0" y="0" width="667" height="667">
<path d="M0 -0.00012207H666.667V666.667H0V-0.00012207Z" fill="white"/>
</mask>
<g mask="url(#mask40_247_4)">
<path d="M154.426 538.956C154.426 538.956 134.621 540.518 133.796 555.13C133.796 555.13 153.85 564.364 154.426 538.956Z" fill="#5AE4A7"/>
<path d="M154.426 538.956C154.426 538.956 134.621 540.518 133.796 555.13C133.796 555.13 153.85 564.364 154.426 538.956Z" stroke="#1A2E35" stroke-width="1.33333" stroke-miterlimit="10" stroke-linecap="round" stroke-linejoin="round"/>
<path d="M115.249 542.583C115.249 542.583 104.185 527.625 86.3073 535.297C86.3073 535.297 97.2247 553.381 115.249 542.583Z" fill="#5AE4A7"/>
<path d="M115.249 542.583C115.249 542.583 104.185 527.625 86.3073 535.297C86.3073 535.297 97.2247 553.381 115.249 542.583Z" stroke="#1A2E35" stroke-width="1.33333" stroke-miterlimit="10" stroke-linecap="round" stroke-linejoin="round"/>
<path d="M87.8223 495.355C87.8223 495.355 84.6409 524.134 110.836 516.21C110.836 516.21 102.517 495.051 87.8223 495.355Z" fill="#5AE4A7"/>
<path d="M87.8223 495.355C87.8223 495.355 84.6409 524.134 110.836 516.21C110.836 516.21 102.517 495.051 87.8223 495.355Z" stroke="#1A2E35" stroke-width="1.33333" stroke-miterlimit="10" stroke-linecap="round" stroke-linejoin="round"/>
<path d="M119.985 479.336C119.985 479.336 99.2677 490.508 114.501 507.46C114.501 507.46 129.03 495.353 119.985 479.336Z" fill="#5AE4A7"/>
<path d="M119.985 479.336C119.985 479.336 99.2677 490.508 114.501 507.46C114.501 507.46 129.03 495.353 119.985 479.336Z" stroke="#1A2E35" stroke-width="1.33333" stroke-miterlimit="10" stroke-linecap="round" stroke-linejoin="round"/>
<path d="M145.476 505.052C145.476 505.052 122.951 502.779 122.951 523.631C122.951 523.631 145.476 524.519 145.476 505.052Z" fill="#5AE4A7"/>
<path d="M145.476 505.052C145.476 505.052 122.951 502.779 122.951 523.631C122.951 523.631 145.476 524.519 145.476 505.052Z" stroke="#1A2E35" stroke-width="1.33333" stroke-miterlimit="10" stroke-linecap="round" stroke-linejoin="round"/>
<path d="M124.235 584.893C124.235 584.893 134.504 563.342 124.647 541.393C114.79 519.444 111.456 500.961 116.607 487.932" stroke="#1A2E35" stroke-width="1.33333" stroke-miterlimit="10" stroke-linecap="round" stroke-linejoin="round"/>
<path d="M138.075 510.658C138.075 510.658 124.574 516.02 119.985 529.928" stroke="#1A2E35" stroke-width="1.33333" stroke-miterlimit="10" stroke-linecap="round" stroke-linejoin="round"/>
<path d="M94.9427 506.87C94.9427 506.87 102.745 517.498 115.964 516.35" stroke="#1A2E35" stroke-width="1.33333" stroke-miterlimit="10" stroke-linecap="round" stroke-linejoin="round"/>
<path d="M94.9427 538.353C94.9427 538.353 116.552 544.579 125.139 542.542" stroke="#1A2E35" stroke-width="1.33333" stroke-miterlimit="10" stroke-linecap="round" stroke-linejoin="round"/>
<path d="M147.968 545.535C147.968 545.535 138.309 556.137 128.595 555.971" stroke="#1A2E35" stroke-width="1.33333" stroke-miterlimit="10" stroke-linecap="round" stroke-linejoin="round"/>
<path d="M101.76 572.749H151.004V566.902H101.76V572.749Z" fill="#1A2E35" stroke="#1A2E35" stroke-width="1.33333" stroke-miterlimit="10" stroke-linecap="round" stroke-linejoin="round"/>
</g>
<mask id="mask41_247_4" style="mask-type:luminance" maskUnits="userSpaceOnUse" x="0" y="0" width="667" height="667">
<path d="M0 -0.00012207H666.667V666.667H0V-0.00012207Z" fill="white"/>
</mask>
<g mask="url(#mask41_247_4)">
<path d="M508.322 529.296C508.322 529.296 491.799 539.048 480.062 558.652C468.323 578.254 459.016 605.825 473.471 609.268L487.212 608.748L513.668 599.661L510.896 594.293C510.896 594.293 487.728 606.569 483.768 606.569C479.808 606.569 474.66 607.56 472.482 605.976C470.303 604.392 480.099 568.75 501.042 556.87C521.984 544.989 508.322 529.296 508.322 529.296Z" fill="#5AE4A7"/>
</g>
<mask id="mask42_247_4" style="mask-type:luminance" maskUnits="userSpaceOnUse" x="466" y="529" width="48" height="81">
<path d="M480.061 558.651C468.323 578.255 459.017 605.825 473.471 609.267L487.212 608.748L513.668 599.661L510.896 594.293C510.896 594.293 487.728 606.569 483.768 606.569C479.808 606.569 474.66 607.56 472.481 605.976C470.303 604.392 480.099 568.751 501.041 556.871C521.984 544.988 508.321 529.296 508.321 529.296C508.321 529.296 491.8 539.048 480.061 558.651Z" fill="white"/>
</mask>
<g mask="url(#mask42_247_4)">
<mask id="mask43_247_4" style="mask-type:luminance" maskUnits="userSpaceOnUse" x="466" y="529" width="48" height="81">
<path d="M466.103 529.295H513.668V609.267H466.103V529.295Z" fill="white"/>
</mask>
<g mask="url(#mask43_247_4)">
<g opacity="0.5">
<mask id="mask44_247_4" style="mask-type:luminance" maskUnits="userSpaceOnUse" x="466" y="529" width="48" height="81">
<path d="M466.103 529.295H513.668V609.267H466.103V529.295Z" fill="white"/>
</mask>
<g mask="url(#mask44_247_4)">
<g opacity="0.699997">
<path d="M508.322 529.296C508.322 529.296 491.799 539.048 480.062 558.652C468.323 578.254 459.016 605.825 473.471 609.268L487.212 608.748L513.668 599.661L510.896 594.293C510.896 594.293 487.728 606.569 483.768 606.569C479.808 606.569 474.66 607.56 472.482 605.976C470.303 604.392 480.099 568.75 501.042 556.87C521.984 544.989 508.322 529.296 508.322 529.296Z" fill="black"/>
</g>
</g>
</g>
</g>
</g>
<mask id="mask45_247_4" style="mask-type:luminance" maskUnits="userSpaceOnUse" x="0" y="0" width="667" height="667">
<path d="M0 -0.00012207H666.667V666.667H0V-0.00012207Z" fill="white"/>
</mask>
<g mask="url(#mask45_247_4)">
<path d="M508.322 529.296C508.322 529.296 491.799 539.048 480.062 558.652C468.323 578.254 459.016 605.825 473.471 609.268L487.212 608.748L513.668 599.661L510.896 594.293C510.896 594.293 487.728 606.569 483.768 606.569C479.808 606.569 474.66 607.56 472.482 605.976C470.303 604.392 480.099 568.75 501.042 556.87C521.984 544.989 508.322 529.296 508.322 529.296Z" stroke="#1A2E35" stroke-width="1.33333" stroke-miterlimit="10" stroke-linecap="round" stroke-linejoin="round"/>
<path d="M523.37 516.475C523.37 516.475 523.37 510.733 532.082 509.942C540.794 509.15 542.023 517.546 542.023 517.546H539.023C539.023 517.546 539.096 512.518 532.696 512.133C526.296 511.746 526.538 517.546 526.538 517.546L523.37 516.475Z" fill="#5AE4A7"/>
<path d="M523.37 516.475C523.37 516.475 523.37 510.733 532.082 509.942C540.794 509.15 542.023 517.546 542.023 517.546H539.023C539.023 517.546 539.096 512.518 532.696 512.133C526.296 511.746 526.538 517.546 526.538 517.546L523.37 516.475Z" stroke="#1A2E35" stroke-width="1.33333" stroke-miterlimit="10" stroke-linecap="round" stroke-linejoin="round"/>
<path d="M510.499 609.267C492.084 609.267 495.58 526.687 497.693 522.572C499.807 518.456 553.235 516.435 558.501 518.168C563.767 519.902 584.889 602.214 573.237 608.747L510.499 609.267Z" fill="#5AE4A7"/>
</g>
<mask id="mask46_247_4" style="mask-type:luminance" maskUnits="userSpaceOnUse" x="495" y="517" width="82" height="93">
<path d="M497.693 522.572C495.58 526.688 492.085 609.267 510.499 609.267L573.236 608.748C584.889 602.213 563.767 519.9 558.501 518.168C557.216 517.745 553.067 517.545 547.492 517.545C530.219 517.547 499.291 519.46 497.693 522.572Z" fill="white"/>
</mask>
<g mask="url(#mask46_247_4)">
<mask id="mask47_247_4" style="mask-type:luminance" maskUnits="userSpaceOnUse" x="495" y="517" width="82" height="93">
<path d="M495.959 517.545H576.693V609.267H495.959V517.545Z" fill="white"/>
</mask>
<g mask="url(#mask47_247_4)">
<g opacity="0.199997">
<mask id="mask48_247_4" style="mask-type:luminance" maskUnits="userSpaceOnUse" x="495" y="517" width="82" height="93">
<path d="M495.959 517.545H576.693V609.267H495.959V517.545Z" fill="white"/>
</mask>
<g mask="url(#mask48_247_4)">
<g opacity="0.699997">
<path d="M510.499 609.267C492.084 609.267 495.58 526.687 497.693 522.572C499.807 518.456 553.235 516.435 558.501 518.168C563.767 519.901 584.889 602.213 573.237 608.747L510.499 609.267Z" fill="black"/>
</g>
</g>
</g>
</g>
</g>
<mask id="mask49_247_4" style="mask-type:luminance" maskUnits="userSpaceOnUse" x="0" y="0" width="667" height="667">
<path d="M0 -0.00012207H666.667V666.667H0V-0.00012207Z" fill="white"/>
</mask>
<g mask="url(#mask49_247_4)">
<path d="M510.499 609.267C492.084 609.267 495.58 526.687 497.693 522.572C499.807 518.456 553.235 516.435 558.501 518.168C563.767 519.901 584.889 602.213 573.237 608.747L510.499 609.267Z" stroke="#1A2E35" stroke-width="1.33333" stroke-miterlimit="10" stroke-linecap="round" stroke-linejoin="round"/>
<path d="M497.693 522.572C504.361 524 508.198 551.026 517.17 557.908C526.142 564.79 568.454 563.302 573.237 557.908C578.021 552.513 568.67 522.18 561.861 517.545C555.051 512.912 550.226 517.416 531.097 515.288C502.729 512.133 497.693 522.572 497.693 522.572Z" fill="#5AE4A7"/>
<path d="M497.693 522.572C504.361 524 508.198 551.026 517.17 557.908C526.142 564.79 568.454 563.302 573.237 557.908C578.021 552.513 568.67 522.18 561.861 517.545C555.051 512.912 550.226 517.416 531.097 515.288C502.729 512.133 497.693 522.572 497.693 522.572Z" stroke="#1A2E35" stroke-width="1.33333" stroke-miterlimit="10" stroke-linecap="round" stroke-linejoin="round"/>
<path d="M546.25 538.108L554.089 544.513C554.554 544.893 554.602 545.585 554.194 546.026L548.099 552.612C547.705 553.037 547.038 553.06 546.617 552.66L538.834 545.281C538.398 544.866 538.402 544.17 538.842 543.761L544.882 538.152C545.263 537.798 545.846 537.778 546.25 538.108Z" fill="#5AE4A7"/>
</g>
<mask id="mask50_247_4" style="mask-type:luminance" maskUnits="userSpaceOnUse" x="538" y="537" width="17" height="16">
<path d="M544.881 538.153L538.843 543.761C538.403 544.17 538.397 544.866 538.835 545.28L546.617 552.66C547.039 553.06 547.704 553.037 548.099 552.612L554.193 546.026C554.601 545.585 554.553 544.893 554.088 544.512L546.249 538.108C546.057 537.95 545.824 537.873 545.592 537.873C545.336 537.873 545.081 537.966 544.881 538.153Z" fill="white"/>
</mask>
<g mask="url(#mask50_247_4)">
<mask id="mask51_247_4" style="mask-type:luminance" maskUnits="userSpaceOnUse" x="538" y="537" width="17" height="16">
<path d="M538.509 537.873H554.471V552.946H538.509V537.873Z" fill="white"/>
</mask>
<g mask="url(#mask51_247_4)">
<g opacity="0.199997">
<mask id="mask52_247_4" style="mask-type:luminance" maskUnits="userSpaceOnUse" x="538" y="537" width="17" height="16">
<path d="M538.509 537.873H554.471V552.946H538.509V537.873Z" fill="white"/>
</mask>
<g mask="url(#mask52_247_4)">
<g opacity="0.699997">
<path d="M546.25 538.108L554.089 544.513C554.554 544.893 554.602 545.585 554.194 546.026L548.099 552.612C547.705 553.037 547.038 553.06 546.617 552.66L538.834 545.281C538.398 544.866 538.402 544.17 538.842 543.761L544.882 538.152C545.263 537.798 545.846 537.778 546.25 538.108Z" fill="black"/>
</g>
</g>
</g>
</g>
</g>
<mask id="mask53_247_4" style="mask-type:luminance" maskUnits="userSpaceOnUse" x="0" y="0" width="667" height="667">
<path d="M0 -0.00012207H666.667V666.667H0V-0.00012207Z" fill="white"/>
</mask>
<g mask="url(#mask53_247_4)">
<path d="M546.25 538.108L554.089 544.514C554.554 544.894 554.602 545.586 554.194 546.027L548.099 552.612C547.705 553.038 547.038 553.06 546.617 552.66L538.834 545.282C538.398 544.867 538.402 544.171 538.842 543.762L544.882 538.152C545.263 537.799 545.846 537.779 546.25 538.108Z" stroke="#1A2E35" stroke-width="1.33333" stroke-miterlimit="10" stroke-linecap="round" stroke-linejoin="round"/>
<path d="M520.4 571.72C520.4 571.72 555.836 574.637 573.237 570.136C573.237 570.136 576.634 572.512 578.218 577.264C579.802 582.017 583.108 598.252 573.237 602.412C563.368 606.569 527.925 605.777 523.172 601.025C518.42 596.273 520.4 571.72 520.4 571.72Z" fill="#5AE4A7"/>
</g>
<mask id="mask54_247_4" style="mask-type:luminance" maskUnits="userSpaceOnUse" x="519" y="570" width="62" height="36">
<path d="M520.399 571.72C520.399 571.72 518.419 596.273 523.172 601.024C527.924 605.777 563.368 606.569 573.236 602.412C583.108 598.252 579.801 582.017 578.219 577.264C576.633 572.512 573.236 570.134 573.236 570.134C555.836 574.636 520.399 571.72 520.399 571.72Z" fill="white"/>
</mask>
<g mask="url(#mask54_247_4)">
<mask id="mask55_247_4" style="mask-type:luminance" maskUnits="userSpaceOnUse" x="519" y="570" width="62" height="36">
<path d="M519.991 570.135H580.047V605.109H519.991V570.135Z" fill="white"/>
</mask>
<g mask="url(#mask55_247_4)">
<g opacity="0.399994">
<mask id="mask56_247_4" style="mask-type:luminance" maskUnits="userSpaceOnUse" x="519" y="570" width="62" height="36">
<path d="M519.991 570.135H580.047V605.109H519.991V570.135Z" fill="white"/>
</mask>
<g mask="url(#mask56_247_4)">
<g opacity="0.699997">
<path d="M520.4 571.719C520.4 571.719 555.836 574.637 573.237 570.135C573.237 570.135 576.634 572.511 578.218 577.263C579.802 582.017 583.108 598.251 573.237 602.411C563.368 606.569 527.925 605.777 523.172 601.025C518.42 596.273 520.4 571.719 520.4 571.719Z" fill="black"/>
</g>
</g>
</g>
</g>
</g>
<mask id="mask57_247_4" style="mask-type:luminance" maskUnits="userSpaceOnUse" x="0" y="0" width="667" height="667">
<path d="M0 -0.00012207H666.667V666.667H0V-0.00012207Z" fill="white"/>
</mask>
<g mask="url(#mask57_247_4)">
<path d="M520.4 571.72C520.4 571.72 555.836 574.637 573.237 570.136C573.237 570.136 576.634 572.512 578.218 577.264C579.802 582.017 583.108 598.252 573.237 602.412C563.368 606.569 527.925 605.777 523.172 601.025C518.42 596.273 520.4 571.72 520.4 571.72Z" stroke="#1A2E35" stroke-width="1.33333" stroke-miterlimit="10" stroke-linecap="round" stroke-linejoin="round"/>
<path d="M520.4 571.72C520.4 571.72 524.558 582.939 526.736 584.656C528.914 586.372 574.945 586.372 580.046 582.215C585.149 578.056 578.157 570.532 573.237 570.136C573.237 570.136 540.992 573.899 520.4 571.72Z" fill="#5AE4A7"/>
<path d="M520.4 571.72C520.4 571.72 524.558 582.939 526.736 584.656C528.914 586.372 574.945 586.372 580.046 582.215C585.149 578.056 578.157 570.532 573.237 570.136C573.237 570.136 540.992 573.899 520.4 571.72Z" stroke="#1A2E35" stroke-width="1.33333" stroke-miterlimit="10" stroke-linecap="round" stroke-linejoin="round"/>
<path d="M505.549 569.344C505.549 569.344 506.737 592.908 509.113 598.253C509.113 598.253 503.697 601.422 497.692 598.253C491.688 595.085 492.679 574.785 493.865 574.837C495.055 574.888 505.549 569.344 505.549 569.344Z" fill="#5AE4A7"/>
</g>
<mask id="mask58_247_4" style="mask-type:luminance" maskUnits="userSpaceOnUse" x="492" y="569" width="18" height="31">
<path d="M493.867 574.837C492.677 574.785 491.689 595.084 497.693 598.252C503.697 601.421 509.113 598.252 509.113 598.252C506.737 592.908 505.549 569.344 505.549 569.344C505.549 569.344 495.055 574.888 493.867 574.837Z" fill="white"/>
</mask>
<g mask="url(#mask58_247_4)">
<mask id="mask59_247_4" style="mask-type:luminance" maskUnits="userSpaceOnUse" x="492" y="569" width="18" height="31">
<path d="M492.971 569.344H509.113V599.661H492.971V569.344Z" fill="white"/>
</mask>
<g mask="url(#mask59_247_4)">
<g opacity="0.399994">
<mask id="mask60_247_4" style="mask-type:luminance" maskUnits="userSpaceOnUse" x="492" y="569" width="18" height="31">
<path d="M492.971 569.344H509.113V599.661H492.971V569.344Z" fill="white"/>
</mask>
<g mask="url(#mask60_247_4)">
<g opacity="0.699997">
<path d="M505.549 569.344C505.549 569.344 506.737 592.908 509.113 598.253C509.113 598.253 503.697 601.422 497.692 598.253C491.688 595.085 492.679 574.785 493.865 574.837C495.055 574.888 505.549 569.344 505.549 569.344Z" fill="black"/>
</g>
</g>
</g>
</g>
</g>
<mask id="mask61_247_4" style="mask-type:luminance" maskUnits="userSpaceOnUse" x="0" y="0" width="667" height="667">
<path d="M0 -0.00012207H666.667V666.667H0V-0.00012207Z" fill="white"/>
</mask>
<g mask="url(#mask61_247_4)">
<path d="M505.549 569.344C505.549 569.344 506.737 592.908 509.113 598.253C509.113 598.253 503.697 601.422 497.692 598.253C491.688 595.085 492.679 574.785 493.865 574.837C495.055 574.888 505.549 569.344 505.549 569.344Z" stroke="#1A2E35" stroke-width="1.33333" stroke-miterlimit="10" stroke-linecap="round" stroke-linejoin="round"/>
<path d="M505.549 569.344L496.628 571.126C496.628 571.126 488.124 577.66 491.887 579.838C495.648 582.017 505.352 576.67 505.549 569.344Z" fill="#5AE4A7"/>
<path d="M505.549 569.344L496.628 571.126C496.628 571.126 488.124 577.66 491.887 579.838C495.648 582.017 505.352 576.67 505.549 569.344Z" stroke="#1A2E35" stroke-width="1.33333" stroke-miterlimit="10" stroke-linecap="round" stroke-linejoin="round"/>
</g>
</svg>
