<svg width="667" height="667" viewBox="0 0 667 667" fill="none" xmlns="http://www.w3.org/2000/svg">
<mask id="mask0_252_2" style="mask-type:luminance" maskUnits="userSpaceOnUse" x="0" y="0" width="667" height="667">
<path d="M0 -0.00012207H666.667V666.667H0V-0.00012207Z" fill="white"/>
</mask>
<g mask="url(#mask0_252_2)">
<path d="M556.92 69.1169C516.326 43.8702 467.647 41.0995 424.769 62.1409C388.259 80.0555 359.846 110.361 323.277 128.23C273.263 152.67 218.495 166.026 167.991 189.434C117.487 212.841 69.1605 249.544 51.0512 302.18C29.6605 364.357 37.2179 437.469 69.8459 494.312C122.877 586.7 228.083 619.502 329.355 618.308C543.378 615.782 653.61 356.582 618.667 170.361C611.082 129.941 592.495 91.2409 556.92 69.1169Z" fill="#5AE4A7"/>
<mask id="mask1_252_2" style="mask-type:luminance" maskUnits="userSpaceOnUse" x="38" y="48" width="588" height="571">
<path d="M38.993 48.0797H625.048V618.338H38.993V48.0797Z" fill="white"/>
</mask>
<g mask="url(#mask1_252_2)">
<g opacity="0.699997">
<path d="M556.92 69.1169C516.326 43.8702 467.647 41.0995 424.769 62.1409C388.259 80.0555 359.846 110.361 323.277 128.23C273.263 152.67 218.495 166.026 167.991 189.434C117.487 212.841 69.1605 249.544 51.0512 302.18C29.6605 364.357 37.2179 437.469 69.8459 494.312C122.877 586.7 228.083 619.502 329.355 618.308C543.378 615.782 653.61 356.582 618.667 170.361C611.082 129.941 592.495 91.2409 556.92 69.1169Z" fill="white"/>
</g>
</g>
</g>
<path d="M160.809 413.698L149.619 415.726L147.42 403.586L134.112 405.996L136.309 418.135L125.119 420.162L127.613 433.932L138.804 431.906L141.003 444.044L154.311 441.634L152.112 429.496L163.303 427.47L160.809 413.698Z" stroke="#5AE4A7" stroke-width="1.33333" stroke-miterlimit="10" stroke-linecap="round" stroke-linejoin="round"/>
<path d="M272.62 227.831L261.897 224.043L266.005 212.412L253.252 207.907L249.144 219.539L238.421 215.751L233.76 228.947L244.482 232.735L240.373 244.366L253.126 248.871L257.236 237.239L267.958 241.027L272.62 227.831Z" stroke="#5AE4A7" stroke-width="1.33333" stroke-miterlimit="10" stroke-linecap="round" stroke-linejoin="round"/>
<path d="M543.341 366.781L533.29 372.101L527.52 361.198L515.565 367.526L521.336 378.428L511.285 383.749L517.832 396.118L527.882 390.798L533.654 401.7L545.608 395.372L539.837 384.47L549.888 379.149L543.341 366.781Z" stroke="#5AE4A7" stroke-width="1.33333" stroke-miterlimit="10" stroke-linecap="round" stroke-linejoin="round"/>
<mask id="mask2_252_2" style="mask-type:luminance" maskUnits="userSpaceOnUse" x="0" y="0" width="667" height="667">
<path d="M0 -0.00012207H666.667V666.667H0V-0.00012207Z" fill="white"/>
</mask>
<g mask="url(#mask2_252_2)">
<path d="M122.199 376.626C122.199 381.133 118.545 384.786 114.039 384.786C109.532 384.786 105.879 381.133 105.879 376.626C105.879 372.119 109.532 368.466 114.039 368.466C118.545 368.466 122.199 372.119 122.199 376.626Z" stroke="#5AE4A7" stroke-width="1.33333" stroke-miterlimit="10" stroke-linecap="round" stroke-linejoin="round"/>
<path d="M241.144 267.536C241.144 268.728 240.177 269.693 238.985 269.693C237.795 269.693 236.828 268.728 236.828 267.536C236.828 266.344 237.795 265.377 238.985 265.377C240.177 265.377 241.144 266.344 241.144 267.536Z" stroke="#5AE4A7" stroke-width="1.33333" stroke-miterlimit="10" stroke-linecap="round" stroke-linejoin="round"/>
<path d="M142.311 230.482C142.311 234.696 138.893 238.114 134.679 238.114C130.464 238.114 127.047 234.696 127.047 230.482C127.047 226.267 130.464 222.85 134.679 222.85C138.893 222.85 142.311 226.267 142.311 230.482Z" stroke="#5AE4A7" stroke-width="1.33333" stroke-miterlimit="10" stroke-linecap="round" stroke-linejoin="round"/>
<path d="M478.348 333.789C478.348 336.173 476.414 338.106 474.03 338.106C471.645 338.106 469.712 336.173 469.712 333.789C469.712 331.404 471.645 329.47 474.03 329.47C476.414 329.47 478.348 331.404 478.348 333.789Z" stroke="#5AE4A7" stroke-width="1.33333" stroke-miterlimit="10" stroke-linecap="round" stroke-linejoin="round"/>
<path d="M444.344 192.451C444.344 197.788 440.017 202.116 434.678 202.116C429.341 202.116 425.014 197.788 425.014 192.451C425.014 187.114 429.341 182.786 434.678 182.786C440.017 182.786 444.344 187.114 444.344 192.451Z" stroke="#5AE4A7" stroke-width="1.33333" stroke-miterlimit="10" stroke-linecap="round" stroke-linejoin="round"/>
</g>
<mask id="mask3_252_2" style="mask-type:luminance" maskUnits="userSpaceOnUse" x="0" y="0" width="667" height="667">
<path d="M0 -0.00012207H666.667V666.667H0V-0.00012207Z" fill="white"/>
</mask>
<g mask="url(#mask3_252_2)">
<path d="M375.156 279.341C375.672 280.113 390.963 283.157 398.89 294.689C406.814 306.221 410.442 315.905 410.442 315.905C410.442 315.905 423.708 323.795 430.507 330.307C437.306 336.818 445.412 345.453 451.672 349.99C457.932 354.525 470.782 363.121 474.03 373.191C474.03 373.191 454.735 426.023 449.286 437.701C443.836 449.378 430.368 474.169 430.368 474.169L406.424 576.131H267.162L262.412 541.158C262.412 541.158 219.804 532.787 201.919 517.189C201.919 517.189 200.236 478.542 207.698 444.021C215.158 409.501 240.494 337.815 257.666 315.909C257.666 315.909 285.099 302.785 309.292 298.522C309.292 298.522 324.996 286.113 335.287 284.785C345.575 283.457 375.156 279.341 375.156 279.341Z" fill="white"/>
<path d="M264.295 556.918C276.651 559.275 287.432 561.322 300.008 561.177C312.586 561.034 325.45 558.203 335.75 550.987C337.864 549.505 339.926 547.817 342.411 547.118C347.882 545.582 353.294 549.198 358.719 550.882C365.6 553.017 373.151 551.998 379.888 549.443C386.626 546.89 392.702 542.889 398.715 538.919C397.819 551.182 397.532 563.49 397.856 575.781L406.424 576.131L428.391 479.501C428.391 479.501 390.827 523.137 372.516 536.162L337.404 527.121C337.404 527.121 334.088 529.871 327.132 531.255C327.132 531.255 323.944 543.51 306.031 543.533C288.116 543.555 262.412 541.158 262.412 541.158L264.295 556.918Z" fill="#5AE4A7"/>
<mask id="mask4_252_2" style="mask-type:luminance" maskUnits="userSpaceOnUse" x="262" y="479" width="167" height="98">
<path d="M262.412 479.501H428.389V576.132H262.412V479.501Z" fill="white"/>
</mask>
<g mask="url(#mask4_252_2)">
<g opacity="0.5">
<path d="M264.295 556.918C276.651 559.275 287.432 561.322 300.008 561.177C312.586 561.034 325.45 558.203 335.75 550.987C337.864 549.505 339.926 547.817 342.411 547.118C347.882 545.582 353.294 549.198 358.719 550.882C365.6 553.017 373.151 551.998 379.888 549.443C386.626 546.89 392.702 542.889 398.715 538.919C397.819 551.182 397.532 563.49 397.856 575.781L406.424 576.131L428.391 479.501C428.391 479.501 390.827 523.137 372.516 536.162L337.404 527.121C337.404 527.121 334.088 529.871 327.132 531.255C327.132 531.255 323.944 543.51 306.031 543.533C288.116 543.555 262.412 541.158 262.412 541.158L264.295 556.918Z" fill="white"/>
</g>
</g>
<path d="M228.313 376.626C228.313 376.626 211.973 455.783 212.829 482.979C212.829 482.979 234.98 476.763 250.449 482.979C250.449 482.979 224.133 480.042 212.796 492.109C201.459 504.177 236.343 535.877 306.144 529.446C306.144 529.446 320.069 533.821 327.132 531.255C327.132 531.255 325.236 543.862 306.031 543.533C286.895 542.767 230.917 542.303 201.919 517.189C201.919 517.189 198.272 444.409 228.313 376.626Z" fill="#5AE4A7"/>
<mask id="mask5_252_2" style="mask-type:luminance" maskUnits="userSpaceOnUse" x="201" y="376" width="127" height="168">
<path d="M201.78 376.626H327.132V543.539H201.78V376.626Z" fill="white"/>
</mask>
<g mask="url(#mask5_252_2)">
<g opacity="0.600006">
<path d="M228.313 376.626C228.313 376.626 211.973 455.783 212.829 482.979C212.829 482.979 234.98 476.763 250.449 482.979C250.449 482.979 224.133 480.042 212.796 492.109C201.458 504.177 236.342 535.877 306.144 529.446C306.144 529.446 320.069 533.821 327.132 531.255C327.132 531.255 325.236 543.862 306.03 543.533C286.894 542.767 230.917 542.303 201.918 517.189C201.918 517.189 198.272 444.409 228.313 376.626Z" fill="white"/>
</g>
</g>
<path d="M261.648 391.797C261.648 391.797 266.468 426.846 274.238 434.18C282.007 441.513 318.282 439.126 332.592 447.022C332.592 447.022 346.092 423.63 370.519 408.982L337.403 461.14L308.772 454.369L273.823 448.976L270.888 455.718L265.635 455.676C265.635 455.676 265.047 418.378 261.648 391.797Z" fill="#5AE4A7"/>
<mask id="mask6_252_2" style="mask-type:luminance" maskUnits="userSpaceOnUse" x="261" y="391" width="110" height="71">
<path d="M261.648 391.797H370.52V461.14H261.648V391.797Z" fill="white"/>
</mask>
<g mask="url(#mask6_252_2)">
<g opacity="0.5">
<path d="M261.648 391.797C261.648 391.797 266.468 426.846 274.238 434.18C282.007 441.513 318.282 439.126 332.592 447.022C332.592 447.022 346.092 423.63 370.519 408.982L337.403 461.14L308.772 454.369L273.823 448.976L270.888 455.718L265.635 455.676C265.635 455.676 265.047 418.378 261.648 391.797Z" fill="white"/>
</g>
</g>
<path d="M398.578 320.393C413.545 329.208 415.222 339.145 418.313 346.24C410.526 347.781 402.47 349.438 396.039 354.09C387.993 359.913 383.705 369.528 380.35 378.876C377.177 387.717 374.514 396.741 372.378 405.888C379.565 392.87 389.947 381.636 402.357 373.444C409.55 368.696 418.431 364.868 426.623 367.55C419.747 370.46 411.974 374.42 410.513 381.741C410.27 382.962 410.23 384.254 410.649 385.426C411.882 388.878 416.175 389.81 419.433 391.49C425.773 394.764 429.074 402.208 429.363 409.338C429.653 416.469 427.446 423.436 425.266 430.232C423.357 436.176 421.447 442.12 419.541 448.062C417.099 455.665 414.607 463.374 410.203 470.034C405.799 476.694 399.161 482.288 391.286 483.604C387.998 484.153 384.515 483.921 381.501 482.498C379.11 481.37 377.125 479.562 375.071 477.9C365.683 470.293 354.181 465.325 342.207 463.709C357.706 473.945 365.034 492.542 371.463 509.969C368.533 504.833 364.235 500.484 359.135 497.49C357.762 496.685 356.237 495.954 354.649 496.082C350.445 496.42 349.107 501.78 346.566 505.144C343.535 509.157 337.977 510.572 332.986 509.938C327.995 509.306 323.409 506.964 318.938 504.657C300.042 494.913 281.146 485.168 262.25 475.421L258.198 487.422C258.198 487.422 303.346 523.405 372.515 536.161C372.515 536.161 417.458 500.648 433.371 469.174C449.285 437.7 474.03 373.192 474.03 373.192C474.03 373.192 464.973 356.045 449.447 347.088C449.447 347.088 437.866 341.612 435.426 334.838C432.985 328.064 411.209 316.373 411.209 316.373C411.209 316.373 414.061 323.529 398.578 320.393Z" fill="#5AE4A7"/>
<mask id="mask7_252_2" style="mask-type:luminance" maskUnits="userSpaceOnUse" x="258" y="316" width="217" height="221">
<path d="M258.197 316.373H474.029V536.161H258.197V316.373Z" fill="white"/>
</mask>
<g mask="url(#mask7_252_2)">
<g opacity="0.600006">
<path d="M398.578 320.393C413.545 329.208 415.222 339.145 418.313 346.24C410.526 347.781 402.47 349.438 396.039 354.09C387.993 359.913 383.705 369.528 380.35 378.876C377.177 387.717 374.514 396.741 372.378 405.888C379.565 392.87 389.947 381.636 402.357 373.444C409.55 368.696 418.431 364.868 426.623 367.55C419.747 370.46 411.974 374.42 410.513 381.741C410.27 382.962 410.23 384.254 410.649 385.426C411.882 388.878 416.175 389.81 419.433 391.49C425.773 394.764 429.074 402.208 429.363 409.338C429.653 416.469 427.446 423.436 425.266 430.232C423.357 436.176 421.447 442.12 419.541 448.062C417.099 455.665 414.607 463.374 410.203 470.034C405.799 476.694 399.161 482.288 391.286 483.604C387.998 484.153 384.515 483.921 381.501 482.498C379.11 481.37 377.125 479.562 375.071 477.9C365.683 470.293 354.181 465.325 342.207 463.709C357.706 473.945 365.034 492.542 371.463 509.969C368.533 504.833 364.235 500.484 359.135 497.49C357.762 496.685 356.237 495.954 354.649 496.082C350.445 496.42 349.107 501.78 346.566 505.144C343.535 509.157 337.977 510.572 332.986 509.938C327.995 509.306 323.409 506.964 318.938 504.657C300.042 494.913 281.146 485.168 262.25 475.421L258.198 487.422C258.198 487.422 303.346 523.405 372.515 536.161C372.515 536.161 417.458 500.648 433.371 469.174C449.285 437.7 474.03 373.192 474.03 373.192C474.03 373.192 464.973 356.045 449.447 347.088C449.447 347.088 437.866 341.612 435.426 334.838C432.985 328.064 411.209 316.373 411.209 316.373C411.209 316.373 414.061 323.529 398.578 320.393Z" fill="white"/>
</g>
</g>
<path d="M393.815 197.67C393.815 197.67 396.843 162.37 381.623 158.976C366.403 155.582 357.87 141.666 357.87 141.666L303.891 156.728L295.514 189.182L300.903 205.618C300.903 205.618 302.027 220.85 302.275 228.39C302.522 235.93 302.299 241.779 307.99 250.87C313.682 259.962 318.995 269.1 331.33 277V297.79C331.33 297.79 323.707 320.043 327.915 333.699C327.915 333.699 330.434 336.356 337.403 332.348C344.374 328.34 374.136 308.456 384.526 287.684L387.752 234.868C387.752 234.868 396.32 236.187 400.019 228.39C405.438 220.751 405.222 211.835 403.122 204.583C401.024 197.331 391.951 202.032 391.951 202.032L393.815 197.67Z" fill="#9A9A9A"/>
<path d="M331.829 249.415C331.829 249.415 336.13 244.103 343.929 244.591C343.929 244.591 350.426 234.332 357.249 236.219C357.249 236.219 359.354 247.082 351.157 251.359C340.507 256.915 331.829 249.415 331.829 249.415Z" fill="#747474"/>
<path d="M311.769 152.246C311.769 152.246 298.86 169.213 299.597 186.918C300.334 204.622 302.917 217.163 302.18 230.811C301.441 244.458 315.826 267.327 330.58 276.549C341.617 283.446 355.436 282.267 366.168 275.149C378.145 267.206 384.776 252.767 387.182 238.971C387.421 237.61 387.612 236.242 387.753 234.869" stroke="#1A2E35" stroke-width="1.33333" stroke-miterlimit="10" stroke-linecap="round" stroke-linejoin="round"/>
<path d="M330.58 276.548C330.58 276.548 332.68 295.662 330.58 302.215C328.277 309.398 325.493 326.131 327.915 333.699C330.337 341.267 375.747 309.48 384.525 287.684C384.525 287.684 385.732 245.326 388.759 234.73" stroke="#1A2E35" stroke-width="1.33333" stroke-miterlimit="10" stroke-linecap="round" stroke-linejoin="round"/>
<path d="M329.378 248.947C329.378 248.947 350.032 254.782 358.478 233.473" stroke="#1A2E35" stroke-width="1.33333" stroke-miterlimit="10" stroke-linecap="round" stroke-linejoin="round"/>
<path d="M331.001 281.149C331.001 281.149 335.402 294.784 344.897 295.602C354.391 296.421 378.126 277.384 386.177 254.98V243.758C386.177 243.758 379.49 273.034 359.983 278.452C340.477 283.87 331.33 277 331.33 277L331.001 281.149Z" fill="#1A2E35"/>
<path d="M357.249 236.219C348.077 235.579 343.929 244.591 343.929 244.591C336.11 243.645 331.829 249.415 331.829 249.415C331.829 249.415 338.333 256.11 348.749 252.481C359.163 248.851 357.249 236.219 357.249 236.219Z" stroke="#1A2E35" stroke-width="1.33333" stroke-miterlimit="10" stroke-linecap="round" stroke-linejoin="round"/>
<path d="M334.252 196.008C334.295 200.212 334.252 204.516 333.699 208.682C333.199 212.456 331.46 216.062 330.004 219.611C328.68 222.839 326.445 227.8 328.3 231.2C330.4 235.051 337.404 231.2 337.404 231.2" stroke="#1A2E35" stroke-width="1.33333" stroke-miterlimit="10" stroke-linecap="round" stroke-linejoin="round"/>
<path d="M341.711 230.384C344.068 230.712 347.416 230.411 348.083 226.297" stroke="#1A2E35" stroke-width="1.33333" stroke-miterlimit="10" stroke-linecap="round" stroke-linejoin="round"/>
<path d="M349.354 190.909C349.354 190.909 357.266 183.135 366.287 190.909" stroke="#1A2E35" stroke-width="2.66667" stroke-miterlimit="10" stroke-linecap="round" stroke-linejoin="round"/>
<path d="M322.426 194.24C322.426 194.24 316.179 186.19 307.99 194.24" stroke="#1A2E35" stroke-width="2.66667" stroke-miterlimit="10" stroke-linecap="round" stroke-linejoin="round"/>
<path d="M382.835 214.46C382.835 214.46 389.975 197.335 399.273 201.019C405.691 203.563 406.077 214.624 402.675 222.278C399.273 229.931 397.573 237.866 386.236 233.472" stroke="#1A2E35" stroke-width="1.33333" stroke-miterlimit="10" stroke-linecap="round" stroke-linejoin="round"/>
<path d="M384.1 211.833C384.1 211.833 377.25 209.409 375.986 198.285C374.722 187.163 381.547 176.039 379.019 167.949C376.491 159.86 356.519 163.904 351.968 150C351.968 150 336.986 161.173 307.99 158.776C307.99 158.776 301.86 169.196 300.795 175.569C299.763 181.745 299.046 194.921 300.903 205.617C300.962 205.959 301.024 206.299 301.09 206.635C303.178 217.5 292.812 191.861 293.066 180.917C293.318 169.972 286.744 156.067 295.34 145.701C303.935 135.337 335.498 129.269 341.711 124.467C347.924 119.663 360.059 132.556 373.963 137.36C387.867 142.163 399.496 147.831 397.727 167.623C395.958 187.416 397.832 190.075 397.906 200.5C397.906 200.5 391.456 198.077 384.1 211.833Z" fill="#1A2E35"/>
<path d="M357.82 205.378C357.82 208.072 356.792 210.256 355.526 210.256C354.259 210.256 353.232 208.072 353.232 205.378C353.232 202.684 354.259 200.5 355.526 200.5C356.792 200.5 357.82 202.684 357.82 205.378Z" fill="#1A2E35"/>
<path d="M322.426 205.378C322.426 208.072 321.399 210.256 320.131 210.256C318.864 210.256 317.838 208.072 317.838 205.378C317.838 202.684 318.864 200.5 320.131 200.5C321.399 200.5 322.426 202.684 322.426 205.378Z" fill="#1A2E35"/>
<path d="M349.354 211.833C349.354 211.833 354.114 216.892 360.149 217.615" stroke="#1A2E35" stroke-width="1.33333" stroke-miterlimit="10" stroke-linecap="round" stroke-linejoin="round"/>
<path d="M316.908 217.615C316.908 217.615 325.608 216.994 327.594 211.834" stroke="#1A2E35" stroke-width="1.33333" stroke-miterlimit="10" stroke-linecap="round" stroke-linejoin="round"/>
<path d="M337.143 336.939C343.627 332.818 352.194 334.355 359.297 337.284C363.193 338.89 366.893 340.922 370.773 342.566C372.699 343.383 374.663 344.134 376.691 344.663C381.562 345.935 379.81 339.888 379.531 337.18C379.133 333.308 378.846 329.419 378.383 325.554C378.286 324.748 378.207 323.868 378.649 323.188C379.061 322.551 379.826 322.255 380.549 322.026C389.094 319.31 398.307 320.535 407.273 320.719C408.078 320.736 408.939 320.728 409.613 320.284C410.937 319.41 410.803 317.45 410.442 315.904C407.355 302.728 396.49 289.626 384.681 283.04" stroke="#1A2E35" stroke-width="1.33333" stroke-miterlimit="10" stroke-linecap="round" stroke-linejoin="round"/>
<path d="M331.332 285.202C325.452 287.656 319.412 290.202 314.345 293.962C312.519 295.309 310.812 296.816 309.292 298.522C308.185 299.776 307.132 301.256 307.119 302.936C307.105 304.522 308.012 305.842 309.239 306.896C310.119 307.642 311.159 308.256 312.172 308.736C314.625 309.896 317.439 311.029 318.545 313.496C318.772 314.016 318.919 314.602 318.812 315.162C318.719 315.682 318.412 316.136 318.065 316.549C316.039 319.016 312.465 320.922 312.692 324.109C312.865 326.576 315.332 328.162 317.572 329.202C319.812 330.256 322.372 331.429 323.132 333.789" stroke="#1A2E35" stroke-width="1.33333" stroke-miterlimit="10" stroke-linecap="round" stroke-linejoin="round"/>
<path d="M296.527 160.176C297.385 154.814 302.961 151.402 308.321 150.528C313.681 149.656 319.18 150.567 324.588 150.068C333.601 149.236 342.148 144.27 347.333 136.852" stroke="white" stroke-width="1.33333" stroke-miterlimit="10" stroke-linecap="round" stroke-linejoin="round"/>
<path d="M302.591 145.182C312.27 139.467 325.871 145.41 335.311 139.311C338.082 137.521 340.161 134.866 342.183 132.261" stroke="white" stroke-width="1.33333" stroke-miterlimit="10" stroke-linecap="round" stroke-linejoin="round"/>
<path d="M426.065 364.028C391.353 370.942 378.472 396.456 378.472 396.456L337.404 461.139" stroke="#1A2E35" stroke-width="1.33333" stroke-miterlimit="10" stroke-linecap="round" stroke-linejoin="round"/>
<path d="M396.759 357.02C399.663 354.364 402.876 352.102 406.424 350.429" stroke="#1A2E35" stroke-width="1.33333" stroke-miterlimit="10" stroke-linecap="round" stroke-linejoin="round"/>
<path d="M372.516 405.838C372.516 405.838 376.897 382.484 389.458 365.272" stroke="#1A2E35" stroke-width="1.33333" stroke-miterlimit="10" stroke-linecap="round" stroke-linejoin="round"/>
<path d="M265.635 455.676C265.635 455.676 263.837 384.117 257.662 373.192" stroke="#1A2E35" stroke-width="1.33333" stroke-miterlimit="10" stroke-linecap="round" stroke-linejoin="round"/>
<path d="M410.441 315.904C410.441 315.904 430.436 327.883 439.316 339.184C448.196 350.487 469.187 357.955 474.029 373.191C474.029 373.191 446.383 460.276 417.42 491.76C388.459 523.244 372.516 536.162 372.516 536.162C372.516 536.162 302.852 524.052 257.661 486.11L273.824 448.975C273.824 448.975 319.387 454.738 337.404 461.139C355.42 467.542 372.516 506.292 372.516 506.292" stroke="#1A2E35" stroke-width="1.33333" stroke-miterlimit="10" stroke-linecap="round" stroke-linejoin="round"/>
<path d="M337.404 461.139C337.404 461.139 369.298 467.329 379.653 481.859" stroke="#1A2E35" stroke-width="1.33333" stroke-miterlimit="10" stroke-linecap="round" stroke-linejoin="round"/>
<path d="M429.171 476.07L406.424 576.131H267.163L262.412 541.157" stroke="#1A2E35" stroke-width="1.33333" stroke-miterlimit="10" stroke-linecap="round" stroke-linejoin="round"/>
<path d="M327.132 531.255C319.439 547.015 309.292 543.535 309.292 543.535C230.825 546.509 201.919 517.189 201.919 517.189C201.919 517.189 197.945 475.95 213.345 420.295C228.745 364.629 257.665 315.909 257.665 315.909C270.479 307.389 299.065 300.735 307.132 298.977C308.505 298.682 309.292 298.522 309.292 298.522" stroke="#1A2E35" stroke-width="1.33333" stroke-miterlimit="10" stroke-linecap="round" stroke-linejoin="round"/>
<path d="M309.297 543.533C309.297 543.533 305.141 542.847 306.204 515.361" stroke="#1A2E35" stroke-width="1.33333" stroke-miterlimit="10" stroke-linecap="round" stroke-linejoin="round"/>
<path d="M259.787 487.861C259.787 487.861 240.182 480.954 215.904 497.763" stroke="#1A2E35" stroke-width="1.33333" stroke-miterlimit="10" stroke-linecap="round" stroke-linejoin="round"/>
<path d="M220.31 481.859C220.31 481.859 245.989 474.215 257.661 486.455" stroke="#1A2E35" stroke-width="1.33333" stroke-miterlimit="10" stroke-linecap="round" stroke-linejoin="round"/>
<path d="M254.871 485.754L258.198 487.423L270.888 455.719C270.888 455.719 257.748 453.569 236.914 479.502C236.914 479.502 245.807 479.005 254.871 485.754Z" fill="#9A9A9A"/>
<path d="M254.871 485.754L258.198 487.423L270.888 455.719C270.888 455.719 257.748 453.569 236.914 479.502C236.914 479.502 245.807 479.005 254.871 485.754Z" stroke="#1A2E35" stroke-width="1.33333" stroke-miterlimit="10"/>
<path d="M306.204 515.361L306.144 529.446C306.144 529.446 324.111 534.784 337.403 527.121L306.204 515.361Z" fill="#9A9A9A"/>
<path d="M306.204 515.361L306.144 529.446C306.144 529.446 324.111 534.784 337.403 527.121L306.204 515.361Z" stroke="#1A2E35" stroke-width="1.33333" stroke-miterlimit="10"/>
<path d="M403.546 320.602C403.559 320.856 403.532 321.122 403.464 321.376C402.906 323.576 389.212 375.269 345.386 398.269C344.986 398.482 344.572 398.576 344.146 398.576C343.184 398.576 342.266 398.056 341.786 397.149C341.106 395.842 341.599 394.229 342.906 393.549C382.866 372.576 396.999 324.776 398.226 320.376L403.546 320.602Z" fill="#1A2E35"/>
<path d="M309.239 306.895C304.759 316.802 298.906 333.962 298.239 357.028C298.212 358.428 298.186 359.855 298.186 361.308C298.186 361.67 298.186 362.028 298.199 362.39C297.799 362.402 297.412 362.443 297.012 362.508C295.572 362.723 294.172 363.163 292.866 363.802C292.826 361.842 292.826 359.935 292.866 358.056C293.439 328.135 302.372 307.775 307.132 298.975C308.506 298.682 309.292 298.522 309.292 298.522C308.186 299.775 307.132 301.256 307.119 302.935C307.106 304.522 308.012 305.842 309.239 306.895Z" fill="#1A2E35"/>
<path d="M361.741 386.244C364.873 390.58 362.31 397.776 356.02 402.321C349.728 406.864 342.09 407.032 338.958 402.696C335.828 398.361 338.389 391.162 344.681 386.62C350.973 382.077 358.61 381.908 361.741 386.244Z" fill="white"/>
<path d="M361.741 386.244C364.873 390.58 362.31 397.776 356.02 402.321C349.728 406.864 342.09 407.032 338.958 402.696C335.828 398.361 338.389 391.162 344.681 386.62C350.973 382.077 358.61 381.908 361.741 386.244Z" stroke="#1A2E35" stroke-width="1.33333" stroke-miterlimit="10" stroke-linecap="round" stroke-linejoin="round"/>
<path d="M353.987 383.673C356.2 386.738 354.39 391.826 349.942 395.038C345.494 398.252 340.092 398.37 337.879 395.305C335.666 392.24 337.476 387.15 341.924 383.938C346.372 380.726 351.774 380.606 353.987 383.673Z" fill="white"/>
<path d="M353.987 383.673C356.2 386.738 354.39 391.826 349.942 395.038C345.494 398.252 340.092 398.37 337.879 395.305C335.666 392.24 337.476 387.15 341.924 383.938C346.372 380.726 351.774 380.606 353.987 383.673Z" stroke="#1A2E35" stroke-width="1.33333" stroke-miterlimit="10" stroke-linecap="round" stroke-linejoin="round"/>
<path d="M318.745 437.789C317.559 438.669 315.892 438.402 315.025 437.229C314.159 436.041 314.399 434.402 315.559 433.522C315.785 433.336 324.732 425.722 320.812 400.082C320.479 397.909 320.052 395.589 319.519 393.149C317.825 385.374 315.212 375.536 309.865 368.309C306.812 364.176 302.705 362.109 298.199 362.389C297.799 362.402 297.412 362.442 297.012 362.509C295.572 362.722 294.172 363.162 292.865 363.802C289.079 365.669 286.012 369.176 284.439 373.642L283.959 375.029C281.945 380.736 278.612 390.176 276.559 400.082C274.425 410.548 273.705 421.522 277.492 429.189C279.639 433.522 283.025 436.389 287.839 437.949C289.239 438.402 289.999 439.909 289.545 441.309C289.185 442.428 288.132 443.149 287.012 443.149C286.745 443.149 286.465 443.109 286.185 443.016C280.025 441.016 275.492 437.162 272.719 431.548C268.452 422.922 269.012 411.176 271.172 400.082C273.225 389.402 276.785 379.322 278.932 373.256L279.412 371.881C281.772 365.176 286.759 360.122 292.865 358.056C293.945 357.682 295.065 357.402 296.212 357.229C296.892 357.136 297.572 357.069 298.239 357.029C304.399 356.789 310.119 359.669 314.159 365.149C320.105 373.189 322.932 383.722 324.732 392.016C325.359 394.869 325.839 397.548 326.199 400.082C330.372 428.856 319.265 437.416 318.745 437.789Z" fill="#1A2E35"/>
<path d="M318.745 437.789C317.559 438.669 315.892 438.402 315.025 437.229C314.159 436.041 314.399 434.402 315.559 433.522C315.785 433.336 324.732 425.722 320.812 400.082C320.479 397.909 320.052 395.589 319.519 393.149C317.825 385.374 315.212 375.536 309.865 368.309C306.812 364.176 302.705 362.109 298.199 362.389C297.799 362.402 297.412 362.442 297.012 362.509C295.572 362.722 294.172 363.162 292.865 363.802C289.079 365.669 286.012 369.176 284.439 373.642L283.959 375.029C281.945 380.736 278.612 390.176 276.559 400.082C274.425 410.548 273.705 421.522 277.492 429.189C279.639 433.522 283.025 436.389 287.839 437.949C289.239 438.402 289.999 439.909 289.545 441.309C289.185 442.428 288.132 443.149 287.012 443.149C286.745 443.149 286.465 443.109 286.185 443.016C280.025 441.016 275.492 437.162 272.719 431.548C268.452 422.922 269.012 411.176 271.172 400.082C273.225 389.402 276.785 379.322 278.932 373.256L279.412 371.881C281.772 365.176 286.759 360.122 292.865 358.056C293.945 357.682 295.065 357.402 296.212 357.229C296.892 357.136 297.572 357.069 298.239 357.029C304.399 356.789 310.119 359.669 314.159 365.149C320.105 373.189 322.932 383.722 324.732 392.016C325.359 394.869 325.839 397.548 326.199 400.082C330.372 428.856 319.265 437.416 318.745 437.789Z" stroke="#1A2E35" stroke-width="1.33333" stroke-miterlimit="10"/>
<path d="M285.108 442.64C285.108 442.64 294.775 446.619 297.22 442.64C299.665 438.662 297.699 436.756 294.351 436.438C291.001 436.118 284.328 436.438 284.328 436.438L285.108 442.64Z" fill="#1A2E35"/>
<path d="M285.108 442.64C285.108 442.64 294.775 446.619 297.22 442.64C299.665 438.662 297.699 436.756 294.351 436.438C291.001 436.118 284.328 436.438 284.328 436.438L285.108 442.64Z" stroke="#1A2E35" stroke-width="1.33333" stroke-miterlimit="10"/>
<path d="M289.543 441.308C289.183 442.428 288.13 443.148 287.01 443.148C286.743 443.148 286.463 443.108 286.183 443.015C280.023 441.015 275.49 437.162 272.716 431.548C268.45 422.922 269.01 411.175 271.17 400.082H276.556C274.423 410.548 273.703 421.522 277.49 429.188C279.636 433.522 283.023 436.388 287.836 437.948C289.236 438.402 289.996 439.908 289.543 441.308Z" fill="white"/>
<path d="M289.543 441.308C289.183 442.428 288.13 443.148 287.01 443.148C286.743 443.148 286.463 443.108 286.183 443.015C280.023 441.015 275.49 437.162 272.716 431.548C268.45 422.922 269.01 411.175 271.17 400.082H276.556C274.423 410.548 273.703 421.522 277.49 429.188C279.636 433.522 283.023 436.388 287.836 437.948C289.236 438.402 289.996 439.908 289.543 441.308Z" stroke="#1A2E35" stroke-width="1.33333" stroke-miterlimit="10" stroke-linecap="round" stroke-linejoin="round"/>
<path d="M309.844 434.889C309.088 435.88 308.59 437.15 308.835 438.373C309.208 440.234 311.267 441.413 313.159 441.276C315.051 441.138 316.73 439.97 318.008 438.569C319.372 437.074 323.967 427.31 319.7 428.98C316.592 430.194 311.914 432.182 309.844 434.889Z" fill="#1A2E35"/>
<path d="M309.844 434.889C309.088 435.88 308.59 437.15 308.835 438.373C309.208 440.234 311.267 441.413 313.159 441.276C315.051 441.138 316.73 439.97 318.008 438.569C319.372 437.074 323.967 427.31 319.7 428.98C316.592 430.194 311.914 432.182 309.844 434.889Z" stroke="#1A2E35" stroke-width="1.33333" stroke-miterlimit="10"/>
<path d="M318.743 437.789C317.556 438.669 315.889 438.402 315.023 437.229C314.156 436.041 314.396 434.402 315.556 433.522C315.783 433.336 324.729 425.721 320.809 400.082H326.196C330.369 428.856 319.263 437.416 318.743 437.789Z" fill="white"/>
<path d="M318.743 437.789C317.556 438.669 315.889 438.402 315.023 437.229C314.156 436.041 314.396 434.402 315.556 433.522C315.783 433.336 324.729 425.721 320.809 400.082H326.196C330.369 428.856 319.263 437.416 318.743 437.789Z" stroke="#1A2E35" stroke-width="1.33333" stroke-miterlimit="10" stroke-linecap="round" stroke-linejoin="round"/>
<mask id="mask8_252_2" style="mask-type:luminance" maskUnits="userSpaceOnUse" x="342" y="198" width="33" height="25">
<path d="M342.405 198.243H374.876V222.27H342.405V198.243Z" fill="white"/>
</mask>
<g mask="url(#mask8_252_2)">
<g opacity="0.199997">
<path d="M342.669 202.116C342.669 202.116 359.457 193.4 374.873 202.116C374.873 202.116 375.133 214.984 369.311 220.282C367.247 222.159 357.771 222.484 354.191 222.159C339.629 220.838 342.669 202.116 342.669 202.116Z" fill="white"/>
</g>
</g>
<mask id="mask9_252_2" style="mask-type:luminance" maskUnits="userSpaceOnUse" x="299" y="198" width="34" height="25">
<path d="M299.932 198.243H332.403V222.27H299.932V198.243Z" fill="white"/>
</mask>
<g mask="url(#mask9_252_2)">
<g opacity="0.199997">
<path d="M332.138 202.116C332.138 202.116 315.35 193.4 299.934 202.116C299.934 202.116 299.674 214.984 305.497 220.282C307.561 222.159 317.037 222.484 320.617 222.159C335.179 220.838 332.138 202.116 332.138 202.116Z" fill="white"/>
</g>
</g>
<path d="M342.669 202.116C342.669 202.116 359.457 193.4 374.873 202.116C374.873 202.116 375.133 214.984 369.311 220.281C367.247 222.158 357.771 222.484 354.191 222.158C339.629 220.837 342.669 202.116 342.669 202.116Z" stroke="#1A2E35" stroke-width="1.33333" stroke-miterlimit="10"/>
<path d="M332.138 202.116C332.138 202.116 315.35 193.4 299.934 202.116C299.934 202.116 299.674 214.984 305.497 220.281C307.561 222.158 317.037 222.484 320.617 222.158C335.179 220.837 332.138 202.116 332.138 202.116Z" stroke="#1A2E35" stroke-width="1.33333" stroke-miterlimit="10"/>
<path d="M332.138 202.116C332.138 202.116 335.898 199.356 342.669 202.116" stroke="#1A2E35" stroke-width="1.33333" stroke-miterlimit="10"/>
<path d="M374.874 202.116L381.89 205.377" stroke="#1A2E35" stroke-width="1.33333" stroke-miterlimit="10"/>
</g>
<path d="M106.429 611.625L155.776 565.017H547.425L577.085 611.625H106.429Z" fill="white"/>
<path d="M106.429 611.625L155.776 565.017H547.425L577.085 611.625H106.429Z" stroke="#1A2E35" stroke-width="1.33333" stroke-miterlimit="10" stroke-linecap="round" stroke-linejoin="round"/>
<path d="M577.084 624.17H106.428V611.625H577.084V624.17Z" fill="#1A2E35" stroke="#1A2E35" stroke-width="1.33333" stroke-miterlimit="10" stroke-linecap="round" stroke-linejoin="round"/>
<path d="M155.776 600.11V590.44H233.103V600.11H218.188H155.776Z" fill="white"/>
<path d="M155.776 600.11V590.44H233.103V600.11H218.188H155.776Z" stroke="#1A2E35" stroke-width="1.33333" stroke-miterlimit="10"/>
<path d="M155.776 590.44L201.459 559.804L262.412 561.235L233.103 590.44H155.776Z" fill="white"/>
<path d="M155.776 590.44L201.459 559.804L262.412 561.235L233.103 590.44H155.776Z" stroke="#1A2E35" stroke-width="1.33333" stroke-miterlimit="10" stroke-linecap="round" stroke-linejoin="round"/>
<path d="M233.103 600.11L262.412 570.744V561.234L233.103 590.44V600.11Z" fill="white"/>
<path d="M233.103 600.11L262.412 570.744V561.234L233.103 590.44V600.11Z" stroke="#1A2E35" stroke-width="1.33333" stroke-miterlimit="10" stroke-linecap="round" stroke-linejoin="round"/>
<mask id="mask10_252_2" style="mask-type:luminance" maskUnits="userSpaceOnUse" x="0" y="0" width="667" height="667">
<path d="M0 -0.00012207H666.667V666.667H0V-0.00012207Z" fill="white"/>
</mask>
<g mask="url(#mask10_252_2)">
<path d="M231.016 588.014C231.016 588.014 224.843 589.241 224.843 594.593C224.843 599.938 230.136 601.506 230.136 601.506" stroke="#1A2E35" stroke-width="2.66667" stroke-miterlimit="10" stroke-linecap="round" stroke-linejoin="round"/>
<path d="M224.843 588.014C224.843 588.014 218.671 589.241 218.671 594.593C218.671 599.938 223.963 601.506 223.963 601.506" stroke="#1A2E35" stroke-width="2.66667" stroke-miterlimit="10" stroke-linecap="round" stroke-linejoin="round"/>
<path d="M218.671 588.014C218.671 588.014 212.497 589.241 212.497 594.593C212.497 599.938 217.791 601.506 217.791 601.506" stroke="#1A2E35" stroke-width="2.66667" stroke-miterlimit="10" stroke-linecap="round" stroke-linejoin="round"/>
<path d="M212.497 588.014C212.497 588.014 206.325 589.241 206.325 594.593C206.325 599.938 211.617 601.506 211.617 601.506" stroke="#1A2E35" stroke-width="2.66667" stroke-miterlimit="10" stroke-linecap="round" stroke-linejoin="round"/>
<path d="M206.325 588.014C206.325 588.014 200.152 589.241 200.152 594.593C200.152 599.938 205.445 601.506 205.445 601.506" stroke="#1A2E35" stroke-width="2.66667" stroke-miterlimit="10" stroke-linecap="round" stroke-linejoin="round"/>
<path d="M200.152 588.014C200.152 588.014 193.978 589.241 193.978 594.593C193.978 599.938 199.272 601.506 199.272 601.506" stroke="#1A2E35" stroke-width="2.66667" stroke-miterlimit="10" stroke-linecap="round" stroke-linejoin="round"/>
<path d="M193.979 588.014C193.979 588.014 187.807 589.241 187.807 594.593C187.807 599.938 193.099 601.506 193.099 601.506" stroke="#1A2E35" stroke-width="2.66667" stroke-miterlimit="10" stroke-linecap="round" stroke-linejoin="round"/>
<path d="M187.806 588.014C187.806 588.014 181.633 589.241 181.633 594.593C181.633 599.938 186.926 601.506 186.926 601.506" stroke="#1A2E35" stroke-width="2.66667" stroke-miterlimit="10" stroke-linecap="round" stroke-linejoin="round"/>
<path d="M180.861 588.014C180.861 588.014 174.689 589.241 174.689 594.593C174.689 599.938 179.981 601.506 179.981 601.506" stroke="#1A2E35" stroke-width="2.66667" stroke-miterlimit="10" stroke-linecap="round" stroke-linejoin="round"/>
<path d="M173.917 588.014C173.917 588.014 167.745 589.241 167.745 594.593C167.745 599.938 173.037 601.506 173.037 601.506" stroke="#1A2E35" stroke-width="2.66667" stroke-miterlimit="10" stroke-linecap="round" stroke-linejoin="round"/>
<path d="M166.201 588.014C166.201 588.014 160.029 589.241 160.029 594.593C160.029 599.938 165.321 601.506 165.321 601.506" stroke="#1A2E35" stroke-width="2.66667" stroke-miterlimit="10" stroke-linecap="round" stroke-linejoin="round"/>
<path d="M205.342 567.307C201.117 569.627 197.685 573.364 195.732 577.771C201.312 576.051 205.774 571.932 210.032 567.937C208.49 571.751 206.95 575.563 205.409 579.377C209.648 579.067 213.672 576.596 215.866 572.956C214.349 573.497 213.628 575.571 214.482 576.937C218.348 576.38 220.809 572.635 222.761 569.253C223.114 571.136 223.254 573.059 223.178 574.973C226.39 575.44 229.728 575.013 232.718 573.757" stroke="#1A2E35" stroke-miterlimit="10" stroke-linecap="round" stroke-linejoin="round"/>
</g>
<path d="M544.816 592.113H410.405V518.319H544.816V592.113Z" fill="white" stroke="#1A2E35" stroke-width="1.33333" stroke-miterlimit="10" stroke-linecap="round" stroke-linejoin="round"/>
<path d="M409.879 592.113L388.268 571.556V497.763L409.879 518.319V592.113Z" fill="white"/>
<path d="M409.879 592.113L388.268 571.556V497.763L409.879 518.319V592.113Z" stroke="#1A2E35" stroke-width="1.33333" stroke-miterlimit="10" stroke-linecap="round" stroke-linejoin="round"/>
<path d="M544.816 518.319L523.204 497.763H388.795L410.406 518.319H544.816Z" fill="white"/>
<path d="M544.816 518.319L523.204 497.763H388.795L410.406 518.319H544.816Z" stroke="#1A2E35" stroke-width="1.33333" stroke-miterlimit="10" stroke-linecap="round" stroke-linejoin="round"/>
<path d="M495.384 545.997H483.504V533.577H466.763V545.997H453.801V562.74H466.763V575.16H483.504V562.74H495.384V545.997Z" fill="#5AE4A7"/>
<path d="M495.384 545.997H483.504V533.577H466.763V545.997H453.801V562.74H466.763V575.16H483.504V562.74H495.384V545.997Z" stroke="#1A2E35" stroke-width="1.33333" stroke-miterlimit="10"/>
<path d="M476.437 518.319L454.827 497.763L476.437 518.319Z" fill="white"/>
<path d="M476.437 518.319L454.827 497.763" stroke="#1A2E35" stroke-width="1.33333" stroke-miterlimit="10" stroke-linecap="round" stroke-linejoin="round"/>
<mask id="mask11_252_2" style="mask-type:luminance" maskUnits="userSpaceOnUse" x="0" y="0" width="667" height="667">
<path d="M0 -0.00012207H666.667V666.667H0V-0.00012207Z" fill="white"/>
</mask>
<g mask="url(#mask11_252_2)">
<path d="M204.098 176.267C204.098 198.443 186.122 216.419 163.946 216.419C141.77 216.419 123.793 198.443 123.793 176.267C123.793 154.091 141.77 136.115 163.946 136.115C186.122 136.115 204.098 154.091 204.098 176.267Z" fill="white"/>
<path d="M204.098 176.267C204.098 198.443 186.122 216.419 163.946 216.419C141.77 216.419 123.793 198.443 123.793 176.267C123.793 154.091 141.77 136.115 163.946 136.115C186.122 136.115 204.098 154.091 204.098 176.267Z" stroke="#1A2E35" stroke-width="1.33333" stroke-miterlimit="10" stroke-linecap="round" stroke-linejoin="round"/>
<path d="M197.289 170.119C197.289 175.479 193.902 180.492 188.556 182.292L170.636 188.332L148.809 195.706C142.129 197.959 134.809 194.346 132.556 187.652C132.102 186.306 131.889 184.932 131.889 183.586C131.889 178.239 135.276 173.212 140.609 171.399L160.436 164.719L180.356 157.999C187.049 155.732 194.356 159.359 196.609 166.039C197.062 167.386 197.289 168.772 197.289 170.119Z" fill="white"/>
<path d="M197.289 170.119C197.289 175.479 193.902 180.493 188.556 182.293L170.636 188.333C169.862 175.893 163.596 167.946 160.436 164.719L180.356 157.999C187.049 155.733 194.356 159.359 196.609 166.039C197.062 167.386 197.289 168.773 197.289 170.119Z" fill="#5AE4A7"/>
<path d="M197.289 170.119C197.289 175.479 193.902 180.492 188.556 182.292L170.636 188.332L148.809 195.706C142.129 197.959 134.809 194.346 132.556 187.652C132.102 186.306 131.889 184.932 131.889 183.586C131.889 178.239 135.276 173.212 140.609 171.399L160.436 164.719L180.356 157.999C187.049 155.732 194.356 159.359 196.609 166.039C197.062 167.386 197.289 168.772 197.289 170.119Z" stroke="#1A2E35" stroke-width="1.33333" stroke-miterlimit="10" stroke-linecap="round" stroke-linejoin="round"/>
<path d="M170.636 188.333C170.636 188.333 170.828 175.527 160.436 164.719" stroke="#1A2E35" stroke-width="1.33333" stroke-miterlimit="10" stroke-linecap="round" stroke-linejoin="round"/>
<path d="M193.045 165.267C193.793 166.506 194.276 168.044 194.273 169.955" stroke="white" stroke-width="1.33333" stroke-miterlimit="10" stroke-linecap="round" stroke-linejoin="round"/>
<path d="M165.536 166.68L181.492 161.412C184.417 160.446 187.657 160.758 190.206 162.389" stroke="white" stroke-width="1.33333" stroke-miterlimit="10" stroke-linecap="round" stroke-linejoin="round"/>
<path d="M461.233 84.8177C461.233 106.994 443.257 124.97 421.081 124.97C398.905 124.97 380.928 106.994 380.928 84.8177C380.928 62.6431 398.905 44.6657 421.081 44.6657C443.257 44.6657 461.233 62.6431 461.233 84.8177Z" fill="white"/>
<path d="M461.233 84.8177C461.233 106.994 443.257 124.97 421.081 124.97C398.905 124.97 380.928 106.994 380.928 84.8177C380.928 62.6431 398.905 44.6657 421.081 44.6657C443.257 44.6657 461.233 62.6431 461.233 84.8177Z" stroke="#1A2E35" stroke-width="1.33333" stroke-miterlimit="10" stroke-linecap="round" stroke-linejoin="round"/>
<path d="M434.917 101.64L399.906 89.924C393.877 87.9067 390.594 81.3214 392.611 75.292C394.629 69.2627 401.214 65.9774 407.243 67.9961L442.255 79.712C448.285 81.7294 451.567 88.3147 449.551 94.344C447.533 100.375 440.947 103.657 434.917 101.64Z" fill="#5AE4A7"/>
<path d="M409.268 88.9824L415.128 74.9731" stroke="#1A2E35" stroke-width="1.33333" stroke-miterlimit="10" stroke-linecap="round" stroke-linejoin="round"/>
<path d="M428.564 95.4004L434.407 81.4284" stroke="#1A2E35" stroke-width="1.33333" stroke-miterlimit="10" stroke-linecap="round" stroke-linejoin="round"/>
<path d="M415.297 88.63C415.297 89.2873 414.765 89.8193 414.108 89.8193C413.45 89.8193 412.918 89.2873 412.918 88.63C412.918 87.9727 413.45 87.4407 414.108 87.4407C414.765 87.4407 415.297 87.9727 415.297 88.63Z" fill="#1A2E35"/>
<path d="M425.779 92.1241C425.779 92.7815 425.247 93.3135 424.589 93.3135C423.932 93.3135 423.4 92.7815 423.4 92.1241C423.4 91.4681 423.932 90.9348 424.589 90.9348C425.247 90.9348 425.779 91.4681 425.779 92.1241Z" fill="#1A2E35"/>
<path d="M419.892 78.0675C419.892 78.7248 419.36 79.2568 418.701 79.2568C418.045 79.2568 417.513 78.7248 417.513 78.0675C417.513 77.4102 418.045 76.8782 418.701 76.8782C419.36 76.8782 419.892 77.4102 419.892 78.0675Z" fill="#1A2E35"/>
<path d="M430.204 81.4596C430.204 82.1169 429.672 82.6489 429.014 82.6489C428.358 82.6489 427.826 82.1169 427.826 81.4596C427.826 80.8023 428.358 80.2703 429.014 80.2703C429.672 80.2703 430.204 80.8023 430.204 81.4596Z" fill="#1A2E35"/>
<path d="M434.917 101.64L399.906 89.924C393.877 87.9067 390.594 81.3214 392.611 75.292C394.629 69.2627 401.214 65.9774 407.243 67.9961L442.255 79.7121C448.285 81.7294 451.567 88.3147 449.551 94.344C447.533 100.375 440.947 103.657 434.917 101.64Z" stroke="#1A2E35" stroke-width="1.33333" stroke-miterlimit="10" stroke-linecap="round" stroke-linejoin="round"/>
<path d="M309.67 82.6493C309.67 104.824 291.694 122.801 269.518 122.801C247.342 122.801 229.366 104.824 229.366 82.6493C229.366 60.4733 247.342 42.4973 269.518 42.4973C291.694 42.4973 309.67 60.4733 309.67 82.6493Z" fill="white"/>
<path d="M309.67 82.6493C309.67 104.824 291.694 122.801 269.518 122.801C247.342 122.801 229.366 104.824 229.366 82.6493C229.366 60.4733 247.342 42.4973 269.518 42.4973C291.694 42.4973 309.67 60.4733 309.67 82.6493Z" stroke="#1A2E35" stroke-width="1.33333" stroke-miterlimit="10" stroke-linecap="round" stroke-linejoin="round"/>
<path d="M292.514 83.6804V100.136C292.514 104.314 289.859 107.698 286.584 107.698H252.454C249.178 107.698 246.523 104.314 246.523 100.136V83.6804C246.523 79.5044 249.178 76.1191 252.454 76.1191H258.067V66.5711H280.775V76.1191H286.584C289.859 76.1191 292.514 79.5044 292.514 83.6804Z" fill="white"/>
<path d="M292.514 83.6804V100.136C292.514 104.314 289.859 107.698 286.584 107.698H252.454C249.178 107.698 246.523 104.314 246.523 100.136V83.6804C246.523 79.5044 249.178 76.1191 252.454 76.1191H258.067V66.5711H280.775V76.1191H286.584C289.859 76.1191 292.514 79.5044 292.514 83.6804Z" stroke="#1A2E35" stroke-width="1.33333" stroke-miterlimit="10" stroke-linecap="round" stroke-linejoin="round"/>
<path d="M292.513 95.7827H246.523V85.5787H292.513V95.7827Z" fill="#5AE4A7" stroke="#1A2E35" stroke-width="1.33333" stroke-miterlimit="10"/>
<path d="M285.229 70.0244H254.017V62.5764C254.017 58.6124 257.23 55.3991 261.194 55.3991H278.052C282.016 55.3991 285.229 58.6124 285.229 62.5764V70.0244Z" fill="#5AE4A7"/>
<path d="M285.229 70.0244H254.017V62.5764C254.017 58.6124 257.23 55.3991 261.194 55.3991H278.052C282.016 55.3991 285.229 58.6124 285.229 62.5764V70.0244Z" stroke="#1A2E35" stroke-width="1.33333" stroke-miterlimit="10"/>
<path d="M259.469 55.8466V70.0239" stroke="#1A2E35" stroke-width="1.33333" stroke-miterlimit="10" stroke-linecap="round" stroke-linejoin="round"/>
<path d="M266.841 55.3991V70.0244" stroke="#1A2E35" stroke-width="1.33333" stroke-miterlimit="10" stroke-linecap="round" stroke-linejoin="round"/>
<path d="M274.213 55.3991V70.0244" stroke="#1A2E35" stroke-width="1.33333" stroke-miterlimit="10" stroke-linecap="round" stroke-linejoin="round"/>
<path d="M281.585 56.2239V70.0239" stroke="#1A2E35" stroke-width="1.33333" stroke-miterlimit="10" stroke-linecap="round" stroke-linejoin="round"/>
<path d="M167.199 295.628C167.199 317.803 149.223 335.78 127.047 335.78C104.871 335.78 86.8938 317.803 86.8938 295.628C86.8938 273.452 104.871 255.476 127.047 255.476C149.223 255.476 167.199 273.452 167.199 295.628Z" fill="white"/>
<path d="M167.199 295.628C167.199 317.803 149.223 335.78 127.047 335.78C104.871 335.78 86.8938 317.803 86.8938 295.628C86.8938 273.452 104.871 255.476 127.047 255.476C149.223 255.476 167.199 273.452 167.199 295.628Z" stroke="#1A2E35" stroke-width="1.33333" stroke-miterlimit="10" stroke-linecap="round" stroke-linejoin="round"/>
<path d="M147.412 305.988C143.039 315.237 129.937 318.214 118.148 312.64C106.359 307.065 100.348 295.048 104.721 285.8C109.095 276.552 122.196 273.573 133.985 279.148C145.773 284.722 151.785 296.738 147.412 305.988Z" fill="#5AE4A7"/>
<path d="M147.412 305.988C143.039 315.237 129.937 318.214 118.148 312.64C106.359 307.065 100.348 295.048 104.721 285.8C109.095 276.552 122.196 273.573 133.985 279.148C145.773 284.722 151.785 296.738 147.412 305.988Z" stroke="#1A2E35" stroke-width="1.33333" stroke-miterlimit="10" stroke-linecap="round" stroke-linejoin="round"/>
<path d="M148.87 302.828C144.767 311.504 131.884 314.018 120.095 308.444C108.307 302.869 102.076 291.317 106.179 282.64C110.282 273.964 123.164 271.45 134.954 277.024C146.742 282.6 152.972 294.152 148.87 302.828Z" fill="#5AE4A7"/>
<path d="M148.87 302.828C144.767 311.504 131.884 314.018 120.095 308.444C108.307 302.869 102.076 291.317 106.179 282.64C110.282 273.964 123.164 271.45 134.954 277.024C146.742 282.6 152.972 294.152 148.87 302.828Z" stroke="#1A2E35" stroke-width="1.33333" stroke-miterlimit="10" stroke-linecap="round" stroke-linejoin="round"/>
<path d="M134.333 280.874L119.761 301.379L134.333 280.874Z" fill="white"/>
<path d="M134.333 280.874L119.761 301.379" stroke="#1A2E35" stroke-width="1.33333" stroke-miterlimit="10" stroke-linecap="round" stroke-linejoin="round"/>
<path d="M125.565 277.562C128.844 277.985 131.308 278.853 131.308 278.853" stroke="white" stroke-width="1.33333" stroke-miterlimit="10" stroke-linecap="round" stroke-linejoin="round"/>
<path d="M112.617 296.859C112.617 296.859 105.167 288.712 112.445 280.874C114.129 279.062 116.331 278.099 118.635 277.656" stroke="white" stroke-width="1.33333" stroke-miterlimit="10" stroke-linecap="round" stroke-linejoin="round"/>
<path d="M590.04 295.628C590.04 317.804 572.064 335.78 549.888 335.78C527.714 335.78 509.736 317.804 509.736 295.628C509.736 273.454 527.714 255.476 549.888 255.476C572.064 255.476 590.04 273.454 590.04 295.628Z" fill="white"/>
<path d="M590.04 295.628C590.04 317.804 572.064 335.78 549.888 335.78C527.714 335.78 509.736 317.804 509.736 295.628C509.736 273.454 527.714 255.476 549.888 255.476C572.064 255.476 590.04 273.454 590.04 295.628Z" stroke="#1A2E35" stroke-width="1.33333" stroke-miterlimit="10" stroke-linecap="round" stroke-linejoin="round"/>
<path d="M572.971 299.682C572.665 300.122 572.358 300.576 572.038 301.016C566.025 309.349 556.758 317.122 549.891 318.656V318.549C543.211 317.056 534.251 309.656 528.238 301.576C527.905 301.136 527.585 300.682 527.277 300.242C521.491 291.949 519.051 283.242 525.491 279.642C538.585 272.336 549.891 288.002 549.891 288.002C549.891 288.002 561.225 272.456 574.291 279.749C580.558 283.242 578.411 291.589 572.971 299.682Z" fill="#5AE4A7"/>
<path d="M572.971 299.682C572.665 300.122 572.358 300.576 572.038 301.016C566.025 309.349 556.758 317.122 549.891 318.656V318.549C543.211 317.056 534.251 309.656 528.238 301.576C527.905 301.136 527.585 300.682 527.277 300.242C521.491 291.949 519.051 283.242 525.491 279.642C538.585 272.336 549.891 288.002 549.891 288.002C549.891 288.002 561.225 272.456 574.291 279.749C580.558 283.242 578.411 291.589 572.971 299.682Z" stroke="#1A2E35" stroke-width="1.33333" stroke-miterlimit="10"/>
<path d="M572.971 299.682C572.665 300.122 572.358 300.575 572.038 301.015H568.731L564.943 306.015L562.371 291.189L558.398 301.269H548.943L544.078 309.389L540.345 293.055L535.531 301.575H528.238C527.905 301.135 527.585 300.682 527.277 300.242H534.758L540.878 289.402L544.638 305.869L548.198 299.935H557.491L562.878 286.282L565.731 302.762L568.065 299.682H572.971Z" fill="white"/>
<path d="M551.437 176.726C551.437 198.901 533.461 216.878 511.285 216.878C489.109 216.878 471.132 198.901 471.132 176.726C471.132 154.55 489.109 136.574 511.285 136.574C533.461 136.574 551.437 154.55 551.437 176.726Z" fill="white"/>
<path d="M551.437 176.726C551.437 198.901 533.461 216.878 511.285 216.878C489.109 216.878 471.132 198.901 471.132 176.726C471.132 154.55 489.109 136.574 511.285 136.574C533.461 136.574 551.437 154.55 551.437 176.726Z" stroke="#1A2E35" stroke-width="1.33333" stroke-miterlimit="10" stroke-linecap="round" stroke-linejoin="round"/>
<path d="M508.26 158.157C508.65 159.026 506.24 160.95 502.88 162.456C499.518 163.96 496.479 164.474 496.09 163.605C495.7 162.737 498.11 160.812 501.47 159.308C504.831 157.802 507.871 157.288 508.26 158.157Z" fill="white"/>
<path d="M508.26 158.157C508.65 159.026 506.24 160.95 502.88 162.456C499.518 163.96 496.479 164.474 496.09 163.605C495.7 162.737 498.11 160.812 501.47 159.308C504.831 157.802 507.871 157.288 508.26 158.157Z" stroke="#1A2E35" stroke-width="1.33333" stroke-miterlimit="10" stroke-linecap="round" stroke-linejoin="round"/>
<path d="M526.335 195.395L514.315 201.218L503.552 179.027L496.111 163.686L508.119 157.864L515.377 172.831L526.335 195.395Z" fill="white"/>
<path d="M526.335 195.395L514.315 201.218L503.552 179.027L496.111 163.686L508.119 157.864L515.377 172.831L526.335 195.395Z" stroke="#1A2E35" stroke-width="1.33333" stroke-miterlimit="10" stroke-linecap="round" stroke-linejoin="round"/>
<path d="M498.332 168.267C498.304 168.208 503.552 165.848 503.552 165.848L498.332 168.267Z" fill="#5AE4A7"/>
<path d="M498.332 168.267C498.304 168.208 503.552 165.848 503.552 165.848" stroke="#1A2E35" stroke-width="1.33333" stroke-miterlimit="10" stroke-linecap="round" stroke-linejoin="round"/>
<path d="M500.6 173.095C500.572 173.037 505.819 170.677 505.819 170.677L500.6 173.095Z" fill="#5AE4A7"/>
<path d="M500.6 173.095C500.572 173.037 505.819 170.677 505.819 170.677" stroke="#1A2E35" stroke-width="1.33333" stroke-miterlimit="10" stroke-linecap="round" stroke-linejoin="round"/>
<path d="M518.927 198.983L525.119 207.123L522.022 197.483L518.927 198.983Z" fill="white"/>
<path d="M518.927 198.983L525.119 207.123L522.022 197.483L518.927 198.983Z" stroke="#1A2E35" stroke-width="1.33333" stroke-miterlimit="10" stroke-linecap="round" stroke-linejoin="round"/>
<path d="M526.335 195.395C523.525 198.219 519.931 200.132 516.021 200.888L514.315 201.218L503.552 179.027L515.377 172.831L526.335 195.395Z" fill="#5AE4A7"/>
<path d="M526.335 195.395C523.525 198.219 519.931 200.132 516.021 200.888L514.315 201.218L503.552 179.027L515.377 172.831L526.335 195.395Z" stroke="#1A2E35" stroke-width="1.33333" stroke-miterlimit="10"/>
<path d="M505.819 183.246L510.716 180.976L505.819 183.246Z" fill="#5AE4A7"/>
<path d="M505.819 183.246L510.716 180.976" stroke="#1A2E35" stroke-width="1.33333" stroke-miterlimit="10" stroke-linecap="round" stroke-linejoin="round"/>
<path d="M508.507 188.406C508.479 188.348 513.325 186.198 513.325 186.198L508.507 188.406Z" fill="#5AE4A7"/>
<path d="M508.507 188.406C508.479 188.348 513.325 186.198 513.325 186.198" stroke="#1A2E35" stroke-width="1.33333" stroke-miterlimit="10" stroke-linecap="round" stroke-linejoin="round"/>
<path d="M500.273 161.668L496.472 153.123L499.451 151.431L503.552 160.079L500.273 161.668Z" fill="white"/>
<path d="M500.273 161.668L496.472 153.123L499.451 151.431L503.552 160.079L500.273 161.668Z" stroke="#1A2E35" stroke-width="1.33333" stroke-miterlimit="10" stroke-linecap="round" stroke-linejoin="round"/>
<path d="M506.783 150.391L505.883 148.381L489.883 155.544L490.783 157.553C491.159 158.393 495.045 157.471 499.464 155.493C503.881 153.515 507.157 151.231 506.783 150.391Z" fill="white"/>
<path d="M506.783 150.391L505.883 148.381L489.883 155.544L490.783 157.553C491.159 158.393 495.045 157.471 499.464 155.493C503.881 153.515 507.157 151.231 506.783 150.391Z" stroke="#1A2E35" stroke-width="1.33333" stroke-miterlimit="10" stroke-linecap="round" stroke-linejoin="round"/>
<path d="M505.883 148.381C505.507 147.541 501.62 148.463 497.201 150.441C492.784 152.418 489.507 154.703 489.883 155.543C490.259 156.383 494.145 155.461 498.564 153.483C502.981 151.505 506.257 149.221 505.883 148.381Z" fill="white"/>
<path d="M505.883 148.381C505.507 147.541 501.62 148.463 497.201 150.441C492.784 152.418 489.507 154.703 489.883 155.543C490.259 156.383 494.145 155.461 498.564 153.483C502.981 151.505 506.257 149.221 505.883 148.381Z" stroke="#1A2E35" stroke-width="1.33333" stroke-miterlimit="10" stroke-linecap="round" stroke-linejoin="round"/>
</g>
</svg>
