<svg width="668" height="667" viewBox="0 0 668 667" fill="none" xmlns="http://www.w3.org/2000/svg">
<mask id="mask0_277_1856" style="mask-type:luminance" maskUnits="userSpaceOnUse" x="0" y="0" width="668" height="667">
<path d="M0.5 0.000365257H667.167V666.667H0.5V0.000365257Z" fill="white"/>
</mask>
<g mask="url(#mask0_277_1856)">
<path d="M29.4674 326.478C29.4674 326.478 21.1074 384.554 55.8501 449.355C86.1141 505.806 140.89 545.159 205.989 561.829C248.958 572.831 293.235 572.314 336.823 569.594C392.895 566.097 455.231 569.374 506.997 548.245C587.582 515.355 636.819 429.242 640.557 349.307C642.971 297.663 623.111 238.354 570.299 211.138C550.745 201.061 529.03 193.573 511.903 179.795C491.383 163.289 482.429 139.326 467.107 119.333C448.181 94.6313 421.067 80.558 391.646 69.1753C296.021 32.1873 204.77 48.786 130.263 97.654C55.7567 146.522 25.0154 298.007 29.4674 326.478Z" fill="#5AE4A7"/>
<mask id="mask1_277_1856" style="mask-type:luminance" maskUnits="userSpaceOnUse" x="28" y="49" width="613" height="523">
<path d="M28.585 49.0453H640.752V571.241H28.585V49.0453Z" fill="white"/>
</mask>
<g mask="url(#mask1_277_1856)">
<g opacity="0.699997">
<path d="M29.4674 326.478C29.4674 326.478 21.1074 384.554 55.8501 449.355C86.1141 505.806 140.89 545.159 205.989 561.829C248.958 572.831 293.235 572.314 336.823 569.594C392.895 566.097 455.231 569.374 506.997 548.245C587.582 515.355 636.819 429.242 640.557 349.307C642.971 297.663 623.111 238.354 570.299 211.138C550.745 201.061 529.03 193.573 511.903 179.795C491.383 163.289 482.429 139.326 467.107 119.333C448.181 94.6313 421.067 80.558 391.646 69.1753C296.021 32.1873 204.77 48.786 130.263 97.654C55.7567 146.522 25.0154 298.007 29.4674 326.478Z" fill="white"/>
</g>
</g>
</g>
<path d="M312.015 164.395H107.617V398.695H312.015V164.395Z" fill="#BEBEBE"/>
<path d="M302.795 176.791H116.837V398.695H302.795V176.791Z" fill="#DCDCDC"/>
<path d="M302.795 214.879H116.837V227.273H302.795V214.879Z" fill="#BEBEBE"/>
<path d="M268.759 55.9136H255.375V51.7309H268.759V55.9136Z" fill="#BEBEBE"/>
<path d="M268.759 61.7695H255.375V57.5869H268.759V61.7695Z" fill="#BEBEBE"/>
<path d="M268.759 67.6245H255.375V63.4419H268.759V67.6245Z" fill="#BEBEBE"/>
<path d="M268.759 73.4805H255.375V69.2978H268.759V73.4805Z" fill="#BEBEBE"/>
<path d="M268.759 79.3364H255.375V75.1537H268.759V79.3364Z" fill="#BEBEBE"/>
<path d="M268.759 85.1924H255.375V81.0097H268.759V85.1924Z" fill="#BEBEBE"/>
<path d="M268.759 91.0483H255.375V86.8656H268.759V91.0483Z" fill="#BEBEBE"/>
<path d="M268.759 96.9028H255.375V92.7202H268.759V96.9028Z" fill="#BEBEBE"/>
<path d="M268.759 102.759H255.375V98.5761H268.759V102.759Z" fill="#BEBEBE"/>
<path d="M268.759 108.614H255.375V104.431H268.759V108.614Z" fill="#BEBEBE"/>
<path d="M268.759 114.471H255.375V110.289H268.759V114.471Z" fill="#BEBEBE"/>
<path d="M268.759 120.326H255.375V116.143H268.759V120.326Z" fill="#BEBEBE"/>
<path d="M268.759 126.182H255.375V121.999H268.759V126.182Z" fill="#BEBEBE"/>
<path d="M268.759 132.038H255.375V127.855H268.759V132.038Z" fill="#BEBEBE"/>
<path d="M268.759 137.893H255.375V133.71H268.759V137.893Z" fill="#BEBEBE"/>
<path d="M268.759 143.749H255.375V139.566H268.759V143.749Z" fill="#BEBEBE"/>
<path d="M268.759 149.604H255.375V145.422H268.759V149.604Z" fill="#BEBEBE"/>
<path d="M268.759 155.46H255.375V151.278H268.759V155.46Z" fill="#BEBEBE"/>
<path d="M268.759 161.315H255.375V157.132H268.759V161.315Z" fill="#BEBEBE"/>
<path d="M268.759 167.171H255.375V162.988H268.759V167.171Z" fill="#BEBEBE"/>
<path d="M443.728 164.395H339.292V398.695H443.728V164.395Z" fill="#BEBEBE"/>
<path d="M435.583 176.791H347.436V398.695H435.583V176.791Z" fill="#DCDCDC"/>
<path d="M435.583 214.879H347.436V227.273H435.583V214.879Z" fill="#BEBEBE"/>
<path d="M400.472 55.9136H387.088V51.7309H400.472V55.9136Z" fill="#BEBEBE"/>
<path d="M400.472 61.7695H387.088V57.5869H400.472V61.7695Z" fill="#BEBEBE"/>
<path d="M400.472 67.6245H387.088V63.4419H400.472V67.6245Z" fill="#BEBEBE"/>
<path d="M400.472 73.4805H387.088V69.2978H400.472V73.4805Z" fill="#BEBEBE"/>
<path d="M400.472 79.3364H387.088V75.1537H400.472V79.3364Z" fill="#BEBEBE"/>
<path d="M400.472 85.1924H387.088V81.0097H400.472V85.1924Z" fill="#BEBEBE"/>
<path d="M400.472 91.0483H387.088V86.8656H400.472V91.0483Z" fill="#BEBEBE"/>
<path d="M400.472 96.9028H387.088V92.7202H400.472V96.9028Z" fill="#BEBEBE"/>
<path d="M400.472 102.759H387.088V98.5761H400.472V102.759Z" fill="#BEBEBE"/>
<path d="M400.472 108.614H387.088V104.431H400.472V108.614Z" fill="#BEBEBE"/>
<path d="M400.472 114.471H387.088V110.289H400.472V114.471Z" fill="#BEBEBE"/>
<path d="M400.472 120.326H387.088V116.143H400.472V120.326Z" fill="#BEBEBE"/>
<path d="M400.472 126.182H387.088V121.999H400.472V126.182Z" fill="#BEBEBE"/>
<path d="M400.472 132.038H387.088V127.855H400.472V132.038Z" fill="#BEBEBE"/>
<path d="M400.472 137.893H387.088V133.71H400.472V137.893Z" fill="#BEBEBE"/>
<path d="M400.472 143.749H387.088V139.566H400.472V143.749Z" fill="#BEBEBE"/>
<path d="M400.472 149.604H387.088V145.422H400.472V149.604Z" fill="#BEBEBE"/>
<path d="M400.472 155.46H387.088V151.278H400.472V155.46Z" fill="#BEBEBE"/>
<path d="M400.472 161.315H387.088V157.132H400.472V161.315Z" fill="#BEBEBE"/>
<path d="M400.472 167.171H387.088V162.988H400.472V167.171Z" fill="#BEBEBE"/>
<path d="M357.307 417.92H63.1667V366.398H357.307V417.92Z" fill="#BEBEBE"/>
<mask id="mask2_277_1856" style="mask-type:luminance" maskUnits="userSpaceOnUse" x="0" y="0" width="668" height="667">
<path d="M0.5 0.000365257H667.167V666.667H0.5V0.000365257Z" fill="white"/>
</mask>
<g mask="url(#mask2_277_1856)">
<path d="M85.6264 377.614C85.6264 381.057 82.8358 383.847 79.3931 383.847C75.9504 383.847 73.1584 381.057 73.1584 377.614C73.1584 374.17 75.9504 371.379 79.3931 371.379C82.8358 371.379 85.6264 374.17 85.6264 377.614Z" fill="#5AE4A7"/>
<path d="M113.679 383.847H97.3147V371.379H113.679V383.847Z" fill="#5AE4A7"/>
<path d="M133.937 383.847H117.575V371.379H133.937V383.847Z" fill="#818181"/>
<path d="M357.307 366.551H63.1667V248H357.307V366.551Z" fill="#DCDCDC"/>
<path d="M357.307 576.811H63.1667V417.998H357.307V576.811Z" fill="#DCDCDC"/>
<path d="M284.611 362.079H135.863V252.474H284.611V362.079Z" fill="#BEBEBE"/>
<path d="M141.115 344.128C140.766 345.31 140.571 346.556 140.571 347.851C140.571 355.1 146.449 360.978 153.698 360.978C160.947 360.978 166.825 355.1 166.825 347.851C166.825 346.556 166.63 345.31 166.281 344.128H141.115Z" fill="#5AE4A7"/>
<path d="M158.792 334.083V316.7H148.604V334.083C143.004 336.157 139.005 341.529 139.005 347.851C139.005 355.965 145.584 362.544 153.698 362.544C161.813 362.544 168.392 355.965 168.392 347.851C168.392 341.529 164.392 336.157 158.792 334.083Z" stroke="white" stroke-width="1.33333" stroke-miterlimit="10"/>
<path d="M200.542 344.128C200.193 345.31 199.998 346.556 199.998 347.851C199.998 355.1 205.876 360.978 213.125 360.978C220.374 360.978 226.25 355.1 226.25 347.851C226.25 346.556 226.056 345.31 225.708 344.128H200.542Z" fill="#5AE4A7"/>
<path d="M218.218 334.083V316.7H208.03V334.083C202.43 336.157 198.432 341.529 198.432 347.851C198.432 355.965 205.01 362.544 213.125 362.544C221.24 362.544 227.818 355.965 227.818 347.851C227.818 341.529 223.818 336.157 218.218 334.083Z" stroke="white" stroke-width="1.33333" stroke-miterlimit="10"/>
<path d="M172.828 348.903C172.57 349.777 172.426 350.701 172.426 351.659C172.426 357.029 176.779 361.383 182.148 361.383C187.519 361.383 191.872 357.029 191.872 351.659C191.872 350.701 191.727 349.777 191.468 348.903H172.828Z" fill="#5AE4A7"/>
<path d="M185.922 341.461V328.585H178.375V341.461C174.227 342.997 171.265 346.977 171.265 351.659C171.265 357.671 176.138 362.544 182.149 362.544C188.159 362.544 193.033 357.671 193.033 351.659C193.033 346.977 190.07 342.997 185.922 341.461Z" stroke="white" stroke-width="1.33333" stroke-miterlimit="10"/>
<path d="M159.888 268.39H153.263V276.89H159.888V268.39Z" fill="#868686"/>
<path d="M161.444 276.908H151.707C148.908 276.908 146.639 279.177 146.639 281.977V301.831H166.513V281.977C166.513 279.177 164.244 276.908 161.444 276.908Z" fill="#DCDCDC"/>
<path d="M201.771 268.39H195.146V276.89H201.771V268.39Z" fill="#868686"/>
<path d="M203.328 276.908H193.59C190.79 276.908 188.521 279.177 188.521 281.977V301.831H208.396V281.977C208.396 279.177 206.126 276.908 203.328 276.908Z" fill="#DCDCDC"/>
<path d="M238.061 268.39H231.436V276.89H238.061V268.39Z" fill="#868686"/>
<path d="M239.619 276.908H229.881C227.081 276.908 224.812 279.177 224.812 281.977V301.831H244.687V281.977C244.687 279.177 242.417 276.908 239.619 276.908Z" fill="#DCDCDC"/>
<path d="M264.287 268.39H257.661V276.89H264.287V268.39Z" fill="#868686"/>
<path d="M265.844 276.908H256.106C253.306 276.908 251.037 279.177 251.037 281.977V301.831H270.912V281.977C270.912 279.177 268.644 276.908 265.844 276.908Z" fill="#DCDCDC"/>
<path d="M284.611 312.868H135.863V301.684H284.611V312.868Z" fill="#DCDCDC"/>
<path d="M83.1987 425.349L86.1747 430.837H103.091L106.079 425.349H83.1987Z" fill="#818181"/>
<path d="M161.064 425.349L164.04 430.837H180.956L183.944 425.349H161.064Z" fill="#818181"/>
<path d="M238.928 425.349L241.904 430.837H258.82L261.808 425.349H238.928Z" fill="#818181"/>
<path d="M316.794 425.349L319.77 430.837H336.686L339.674 425.349H316.794Z" fill="#818181"/>
<path d="M83.1987 461.397L86.1747 466.887H103.091L106.079 461.397H83.1987Z" fill="#818181"/>
<path d="M161.064 461.397L164.04 466.887H180.956L183.944 461.397H161.064Z" fill="#818181"/>
<path d="M238.928 461.397L241.904 466.887H258.82L261.808 461.397H238.928Z" fill="#818181"/>
<path d="M316.794 461.397L319.77 466.887H336.686L339.674 461.397H316.794Z" fill="#818181"/>
<path d="M66.4695 425.352H352.569" stroke="#818181" stroke-width="1.33333" stroke-miterlimit="10"/>
<path d="M66.4695 461.236H352.569" stroke="#818181" stroke-width="1.33333" stroke-miterlimit="10"/>
<path d="M571.775 351.747L565.906 328.947V322.716H557.595V328.947L551.726 351.747C551.331 353.276 552.487 354.768 554.067 354.768H569.434C571.014 354.768 572.17 353.276 571.775 351.747Z" fill="#BEBEBE"/>
<path d="M566.97 340.225H556.53L553.449 352.19C553.382 352.454 553.493 352.647 553.563 352.739C553.635 352.831 553.795 352.986 554.066 352.986H569.434C569.706 352.986 569.866 352.831 569.938 352.739C570.009 352.647 570.118 352.454 570.051 352.19L566.97 340.225Z" fill="#818181"/>
<path d="M607.253 351.747L601.383 328.947V322.716H593.073V328.947L587.203 351.747C586.809 353.276 587.963 354.768 589.545 354.768H604.911C606.491 354.768 607.646 353.276 607.253 351.747Z" fill="#BEBEBE"/>
<path d="M602.448 340.225H592.008L588.926 352.19C588.86 352.454 588.969 352.647 589.04 352.739C589.112 352.831 589.272 352.986 589.544 352.986H604.912C605.182 352.986 605.342 352.831 605.414 352.739C605.485 352.647 605.596 352.454 605.528 352.19L602.448 340.225Z" fill="#818181"/>
<path d="M561.167 328V260" stroke="#BEBEBE" stroke-width="1.33333" stroke-miterlimit="10"/>
<path d="M643.864 354.664H418.781V487.22H643.864V354.664Z" fill="#DCDCDC"/>
<path d="M637.644 359.927H425.004V487.22H637.644V359.927Z" fill="#BEBEBE"/>
<path d="M538.586 411.235L546.242 421.763H605.582L613.73 411.235H538.586Z" fill="#818181"/>
<path d="M553.829 421.762H599.887V417.235H553.829V421.762Z" fill="#5C5C5C"/>
<path d="M531.734 393.75H493.928V405.198H531.734V393.75Z" fill="#818181"/>
<path d="M554.096 378.248H548.505V391.934H554.096V378.248Z" fill="#1A2E35" stroke="#1A2E35" stroke-width="1.33333" stroke-miterlimit="10"/>
<path d="M554.619 385.437H547.983C545.184 385.437 542.915 387.706 542.915 390.506V406.467H559.687V390.506C559.687 387.706 557.419 385.437 554.619 385.437Z" fill="#DCDCDC"/>
<path d="M577.125 378.248H571.535V391.934H577.125V378.248Z" fill="#1A2E35" stroke="#1A2E35" stroke-width="1.33333" stroke-miterlimit="10"/>
<path d="M577.647 385.437H571.011C568.213 385.437 565.943 387.706 565.943 390.506V406.467H582.715V390.506C582.715 387.706 580.447 385.437 577.647 385.437Z" fill="#DCDCDC"/>
<path d="M600.153 378.248H594.563V391.934H600.153V378.248Z" fill="#1A2E35" stroke="#1A2E35" stroke-width="1.33333" stroke-miterlimit="10"/>
<path d="M600.676 385.437H594.04C591.241 385.437 588.972 387.706 588.972 390.506V406.467H605.744V390.506C605.744 387.706 603.476 385.437 600.676 385.437Z" fill="#DCDCDC"/>
<path d="M531.734 393.75H493.928V383.899H531.734V393.75Z" fill="#A5A4A5"/>
<path d="M637.644 404.433H425.004V413.046H637.644V404.433Z" fill="#DCDCDC"/>
<path d="M503.054 489.015H488.339V444.152H503.054V489.015Z" fill="#1A2E35" stroke="#1A2E35" stroke-width="1.33333" stroke-miterlimit="10" stroke-linecap="round" stroke-linejoin="round"/>
<path d="M529.972 478.966H461.421V422.259H529.972V478.966Z" fill="#535353"/>
<path d="M525.199 475.018H466.192V426.207H525.199V475.018Z" fill="white"/>
<path d="M478.849 437.867L497.09 451.017L484.788 457.805" stroke="#838383" stroke-width="1.33333" stroke-miterlimit="10"/>
<path d="M505.999 438.715L497.089 451.018L501.332 467.138" stroke="#838383" stroke-width="1.33333" stroke-miterlimit="10"/>
<path d="M497.09 451.018L516.179 462.047" stroke="#838383" stroke-width="1.33333" stroke-miterlimit="10"/>
<path d="M480.546 436.807C480.546 439.268 478.552 441.261 476.092 441.261C473.631 441.261 471.638 439.268 471.638 436.807C471.638 434.347 473.631 432.352 476.092 432.352C478.552 432.352 480.546 434.347 480.546 436.807Z" fill="#5AE4A7"/>
<path d="M489.242 457.805C489.242 460.265 487.249 462.26 484.788 462.26C482.328 462.26 480.333 460.265 480.333 457.805C480.333 455.345 482.328 453.35 484.788 453.35C487.249 453.35 489.242 455.345 489.242 457.805Z" fill="#5AE4A7"/>
<path d="M510.453 438.715C510.453 441.177 508.459 443.17 505.999 443.17C503.539 443.17 501.544 441.177 501.544 438.715C501.544 436.255 503.539 434.261 505.999 434.261C508.459 434.261 510.453 436.255 510.453 438.715Z" fill="#5AE4A7"/>
<path d="M520.634 462.047C520.634 464.507 518.641 466.502 516.18 466.502C513.72 466.502 511.725 464.507 511.725 462.047C511.725 459.587 513.72 457.593 516.18 457.593C518.641 457.593 520.634 459.587 520.634 462.047Z" fill="#5AE4A7"/>
<path d="M505.786 467.139C505.786 469.599 503.793 471.593 501.332 471.593C498.872 471.593 496.878 469.599 496.878 467.139C496.878 464.677 498.872 462.684 501.332 462.684C503.793 462.684 505.786 464.677 505.786 467.139Z" fill="#5AE4A7"/>
<path d="M595.652 459.943H577.707V463.891H595.652V459.943Z" fill="#1A2E35" stroke="#1A2E35" stroke-width="1.33333" stroke-miterlimit="10" stroke-linecap="round" stroke-linejoin="round"/>
<path d="M553.481 488.655V479.811C553.481 477.222 554.602 474.758 556.554 473.057L567.478 463.531H607.317L617.698 473.071C619.545 474.769 620.597 477.163 620.597 479.671V490.091L553.481 488.655Z" fill="#C5C5C5"/>
<path d="M606.24 474.837C606.24 478.504 597.644 481.476 587.038 481.476C576.434 481.476 567.837 478.504 567.837 474.837C567.837 471.171 576.434 468.199 587.038 468.199C597.644 468.199 606.24 471.171 606.24 474.837Z" fill="#DCDCDC"/>
<path d="M644.75 576.811H418.781V487.22H644.75V576.811Z" fill="#DCDCDC"/>
<path d="M418.711 533.878H643.744" stroke="#818181" stroke-width="1.33333" stroke-miterlimit="10"/>
<path d="M644.749 576.811H574.476V487.22H644.749V576.811Z" fill="#BEBEBE"/>
<path d="M649.129 495.833H414.404V487.22H649.129V495.833Z" fill="#818181"/>
<path d="M529.254 495.913L532.802 502.457H552.969L556.531 495.913H529.254Z" fill="#818181"/>
<path d="M529.254 533.598L532.802 540.142H552.969L556.531 533.598H529.254Z" fill="#818181"/>
<path d="M453.525 495.913L457.073 502.457H477.24L480.802 495.913H453.525Z" fill="#818181"/>
<path d="M453.525 533.598L457.073 540.142H477.24L480.802 533.598H453.525Z" fill="#818181"/>
<path d="M556.699 283.333H619.167" stroke="#BEBEBE" stroke-width="1.33333" stroke-miterlimit="10"/>
<path d="M551.167 283.333H556.699" stroke="#BEBEBE" stroke-width="4" stroke-miterlimit="10"/>
<path d="M597.167 284V326" stroke="#BEBEBE" stroke-width="1.33333" stroke-miterlimit="10"/>
</g>
<path d="M115.755 422.139H104.748V409.696H115.755V422.139Z" fill="#1A2E35" stroke="#1A2E35" stroke-width="1.33333" stroke-miterlimit="10"/>
<path d="M120.061 412.568H99.0054V404.911H120.061V412.568Z" fill="#1A2E35" stroke="#1A2E35" stroke-width="1.33333" stroke-miterlimit="10"/>
<path d="M133.461 544.645H86.0854V418.31H133.461V544.645Z" fill="white" stroke="#1A2E35" stroke-width="1.33333" stroke-miterlimit="10"/>
<mask id="mask3_277_1856" style="mask-type:luminance" maskUnits="userSpaceOnUse" x="0" y="0" width="668" height="667">
<path d="M0.5 0.000365257H667.167V666.667H0.5V0.000365257Z" fill="white"/>
</mask>
<g mask="url(#mask3_277_1856)">
<path d="M116.712 455.875C116.712 462.615 111.248 468.078 104.51 468.078C97.7696 468.078 92.3069 462.615 92.3069 455.875C92.3069 449.135 97.7696 443.673 104.51 443.673C111.248 443.673 116.712 449.135 116.712 455.875Z" fill="#1A2E35"/>
<path d="M116.712 455.875C116.712 462.615 111.248 468.078 104.51 468.078C97.7696 468.078 92.3069 462.615 92.3069 455.875C92.3069 449.135 97.7696 443.673 104.51 443.673C111.248 443.673 116.712 449.135 116.712 455.875Z" stroke="#1A2E35" stroke-width="1.33333" stroke-miterlimit="10"/>
<path d="M204.002 576.812L182.273 549.536H119.583L98.0259 576.812H204.002Z" fill="white"/>
<path d="M204.002 576.812L182.273 549.536H119.583L98.0259 576.812H204.002Z" stroke="#1A2E35" stroke-width="1.33333" stroke-miterlimit="10"/>
<path d="M203.43 549.909H117.568C113.395 549.909 110.012 546.527 110.012 542.353V541.773H210.986V542.353C210.986 546.527 207.602 549.909 203.43 549.909Z" fill="white"/>
<path d="M203.43 549.909H117.568C113.395 549.909 110.012 546.527 110.012 542.353V541.773H210.986V542.353C210.986 546.527 207.602 549.909 203.43 549.909Z" stroke="#1A2E35" stroke-width="1.33333" stroke-miterlimit="10"/>
<path d="M172.698 379.118L153.674 391.514L151.196 387.708L170.22 375.312L172.698 379.118Z" fill="white"/>
<path d="M172.698 379.118L153.674 391.514L151.196 387.708L170.22 375.312L172.698 379.118Z" stroke="#1A2E35" stroke-width="1.33333" stroke-miterlimit="10"/>
<path d="M188.43 373.684L170.676 385.254L163.237 373.84L180.992 362.269L188.43 373.684Z" fill="#1A2E35"/>
<path d="M188.43 373.684L170.676 385.254L163.237 373.84L180.992 362.269L188.43 373.684Z" stroke="#1A2E35" stroke-width="1.33333" stroke-miterlimit="10"/>
<path d="M111.927 345.092H107.62V358.97H111.927V345.092Z" fill="#1A2E35" stroke="#1A2E35" stroke-width="1.33333" stroke-miterlimit="10"/>
<path d="M113.841 385.291H105.228V358.014H113.841V385.291Z" fill="white" stroke="#1A2E35" stroke-width="1.33333" stroke-miterlimit="10"/>
<path d="M119.584 382.419H99.4854V398.211H119.584V382.419Z" fill="white" stroke="#1A2E35" stroke-width="1.33333" stroke-miterlimit="10"/>
<path d="M152.058 374.864L129.166 394.201L78.3486 398.681L79.5006 411.75L140.821 406.342L161.539 390.884L152.058 374.864Z" fill="white"/>
<path d="M152.058 374.864L129.166 394.201L78.3486 398.681L79.5006 411.75L140.821 406.342L161.539 390.884L152.058 374.864Z" stroke="#1A2E35" stroke-width="1.33333" stroke-miterlimit="10"/>
</g>
<mask id="mask4_277_1856" style="mask-type:luminance" maskUnits="userSpaceOnUse" x="0" y="0" width="668" height="667">
<path d="M0.5 0.000365257H667.167V666.667H0.5V0.000365257Z" fill="white"/>
</mask>
<g mask="url(#mask4_277_1856)">
<path d="M527.411 223.384L525.129 247.356C525.129 247.356 511.886 246.443 508.005 238.682C504.125 230.919 505.859 220.771 505.859 220.771L507.55 211.512C507.55 211.512 514.398 207.859 521.475 212.198C528.553 216.535 527.411 223.384 527.411 223.384Z" fill="#B6B6B6"/>
<path d="M527.411 223.384L525.129 247.356C525.129 247.356 511.886 246.443 508.005 238.682C504.125 230.919 505.859 220.771 505.859 220.771L507.55 211.512C507.55 211.512 514.398 207.859 521.475 212.198C528.553 216.535 527.411 223.384 527.411 223.384Z" stroke="#1A2E35" stroke-width="1.33333" stroke-miterlimit="10"/>
<path d="M433.264 300.299L481.796 288.472L505.859 220.771C505.859 220.771 511.57 231.375 515.647 236.269C519.727 241.163 527.475 245.649 527.475 245.649C527.475 245.649 519.318 290.103 516.463 304.377C513.608 318.652 513.2 321.099 509.53 324.361C505.859 327.624 461.814 355.357 461.814 355.357C461.814 355.357 476.495 382.681 478.126 401.851C479.758 421.019 480.982 443.449 480.982 443.449C480.982 443.449 445.092 386.352 432.042 369.631C418.991 352.909 413.688 327.624 416.543 314.573C419.399 301.523 433.264 300.299 433.264 300.299Z" fill="white"/>
<path d="M433.264 300.299L481.796 288.472L505.859 220.771C505.859 220.771 511.57 231.375 515.647 236.269C519.727 241.163 527.475 245.649 527.475 245.649C527.475 245.649 519.318 290.103 516.463 304.377C513.608 318.652 513.2 321.099 509.53 324.361C505.859 327.624 461.814 355.357 461.814 355.357C461.814 355.357 476.495 382.681 478.126 401.851C479.758 421.019 480.982 443.449 480.982 443.449C480.982 443.449 445.092 386.352 432.042 369.631C418.991 352.909 413.688 327.624 416.543 314.573C419.399 301.523 433.264 300.299 433.264 300.299Z" stroke="#1A2E35" stroke-width="1.33333" stroke-miterlimit="10"/>
<path d="M450.512 313.304L461.814 355.357L470.089 305.554" stroke="#1A2E35" stroke-width="1.33333" stroke-miterlimit="10"/>
<path d="M483.139 289.649C483.139 289.649 495.78 294.136 497.822 308.817" stroke="#1A2E35" stroke-width="1.33333" stroke-miterlimit="10"/>
<path d="M492.111 289.649C492.111 289.649 507.609 292.912 508.424 309.225" stroke="#1A2E35" stroke-width="1.33333" stroke-miterlimit="10"/>
<path d="M434.607 316.158L454.999 358.573L450.512 366.322L460.708 374.48L463.563 390.384" stroke="#1A2E35" stroke-width="1.33333" stroke-miterlimit="10"/>
<path d="M361.697 263.713C361.697 263.713 337.634 271.463 329.885 286.552C322.137 301.641 340.897 328.967 343.751 339.163C346.607 349.359 342.529 353.029 338.858 350.175C335.187 347.32 331.109 353.029 335.187 359.555C339.266 366.08 361.697 361.187 369.038 357.516C376.379 353.845 374.747 329.375 370.669 313.469C366.59 297.564 361.697 279.619 364.143 271.871C366.59 264.121 361.697 263.713 361.697 263.713Z" fill="#1A2E35"/>
<path d="M361.697 263.713C361.697 263.713 337.634 271.463 329.885 286.552C322.137 301.641 340.897 328.967 343.751 339.163C346.607 349.359 342.529 353.029 338.858 350.175C335.187 347.32 331.109 353.029 335.187 359.555C339.266 366.08 361.697 361.187 369.038 357.516C376.379 353.845 374.747 329.375 370.669 313.469C366.59 297.564 361.697 279.619 364.143 271.871C366.59 264.121 361.697 263.713 361.697 263.713Z" stroke="#1A2E35" stroke-width="1.33333" stroke-miterlimit="10"/>
<path d="M437.751 230.559C437.751 230.559 449.578 244.833 450.393 250.543C451.21 256.252 450.802 259.515 450.802 259.515C450.802 259.515 456.511 266.04 457.734 266.856C458.958 267.671 463.037 270.119 460.59 273.381C458.143 276.644 454.063 276.644 454.063 276.644C454.063 276.644 454.473 289.287 453.249 294.997C452.025 300.707 449.578 302.745 445.093 303.153C440.606 303.561 434.895 303.561 434.895 303.561L430.41 326.4L436.119 356.172L393.705 310.087C393.705 310.087 397.782 293.365 397.782 290.103C397.782 286.84 391.666 280.723 396.967 263.593C402.27 246.464 437.751 230.559 437.751 230.559Z" fill="#B6B6B6"/>
<path d="M437.751 230.559C437.751 230.559 449.578 244.833 450.393 250.543C451.21 256.252 450.802 259.515 450.802 259.515C450.802 259.515 456.511 266.04 457.734 266.856C458.958 267.671 463.037 270.119 460.59 273.381C458.143 276.644 454.063 276.644 454.063 276.644C454.063 276.644 454.473 289.287 453.249 294.997C452.025 300.707 449.578 302.745 445.093 303.153C440.606 303.561 434.895 303.561 434.895 303.561L430.41 326.4L436.119 356.172L393.705 310.087C393.705 310.087 397.782 293.365 397.782 290.103C397.782 286.84 391.666 280.723 396.967 263.593C402.27 246.464 437.751 230.559 437.751 230.559Z" stroke="#1A2E35" stroke-width="1.33333" stroke-miterlimit="10"/>
<path d="M396.56 274.197C396.56 274.197 403.9 276.644 405.94 271.342C407.979 266.041 404.716 259.516 414.912 253.805C425.108 248.096 443.052 244.017 446.723 234.637C450.393 225.257 446.315 215.469 440.605 214.245C434.896 213.022 427.963 216.284 416.951 216.693C405.94 217.1 373.657 216.933 363.463 232.43C353.265 247.928 363.117 275.829 365.972 281.946C368.827 288.064 368.827 303.969 380.653 304.785C392.48 305.601 400.639 296.628 401.453 290.102C402.269 283.577 396.56 274.197 396.56 274.197Z" fill="#1A2E35"/>
<path d="M396.56 274.197C396.56 274.197 403.9 276.644 405.94 271.342C407.979 266.041 404.716 259.516 414.912 253.805C425.108 248.096 443.052 244.017 446.723 234.637C450.393 225.257 446.315 215.469 440.605 214.245C434.896 213.022 427.963 216.284 416.951 216.693C405.94 217.1 373.657 216.933 363.463 232.43C353.265 247.928 363.117 275.829 365.972 281.946C368.827 288.064 368.827 303.969 380.653 304.785C392.48 305.601 400.639 296.628 401.453 290.102C402.269 283.577 396.56 274.197 396.56 274.197Z" stroke="#1A2E35" stroke-width="1.33333" stroke-miterlimit="10"/>
<mask id="mask5_277_1856" style="mask-type:luminance" maskUnits="userSpaceOnUse" x="393" y="249" width="66" height="26">
<path d="M393.704 249.319H458.284V274.198H393.704V249.319Z" fill="white"/>
</mask>
<g mask="url(#mask5_277_1856)">
<g opacity="0.5">
<path d="M393.705 269.303L452.433 249.319C452.433 249.319 463.037 255.845 455.695 264.41L425.515 274.197L394.113 273.382L393.705 269.303Z" fill="white"/>
<path d="M393.705 269.303L452.433 249.319Z" fill="white"/>
<path d="M419.399 261.962L425.516 274.197Z" fill="white"/>
</g>
</g>
<path d="M393.704 269.303L452.432 249.319C452.432 249.319 463.036 255.844 455.695 264.41L425.515 274.196L394.112 273.382L393.704 269.303Z" stroke="#1A2E35" stroke-width="1.33333" stroke-miterlimit="10"/>
<path d="M393.704 269.303L452.432 249.319" stroke="#1A2E35" stroke-width="2.66667" stroke-miterlimit="10" stroke-linecap="round"/>
<path d="M419.398 261.962L425.516 274.196" stroke="#1A2E35" stroke-width="1.33333" stroke-miterlimit="10"/>
<path d="M404.309 277.052C403.085 277.052 392.481 262.777 387.178 266.856C381.878 270.934 386.771 285.617 393.297 288.472C399.822 291.326 405.123 284.393 405.123 284.393" fill="#B6B6B6"/>
<path d="M404.309 277.052C403.085 277.052 392.481 262.777 387.178 266.856C381.878 270.934 386.771 285.617 393.297 288.472C399.822 291.326 405.123 284.393 405.123 284.393" stroke="#1A2E35" stroke-width="1.33333" stroke-miterlimit="10"/>
<path d="M443.869 260.739C443.869 262.767 443.138 264.409 442.237 264.409C441.337 264.409 440.606 262.767 440.606 260.739C440.606 258.711 441.337 257.068 442.237 257.068C443.138 257.068 443.869 258.711 443.869 260.739Z" fill="#1A2E35"/>
<path d="M392.481 305.193C392.481 305.193 413.689 322.729 425.515 341.897C437.342 361.066 467.523 395.325 472.417 406.744C477.311 418.164 481.39 429.992 481.39 439.778C481.39 449.566 482.205 523.793 482.205 525.425V576.812H356.999C356.999 576.812 364.747 469.552 364.747 446.713C364.747 423.873 354.959 403.073 362.301 370.446C369.642 337.82 381.878 319.058 392.481 305.193Z" fill="white"/>
<path d="M392.481 305.193C392.481 305.193 413.689 322.729 425.515 341.897C437.342 361.066 467.523 395.325 472.417 406.744C477.311 418.164 481.39 429.992 481.39 439.778C481.39 449.566 482.205 523.793 482.205 525.425V576.812H356.999C356.999 576.812 364.747 469.552 364.747 446.713C364.747 423.873 354.959 403.073 362.301 370.446C369.642 337.82 381.878 319.058 392.481 305.193Z" stroke="#1A2E35" stroke-width="1.33333" stroke-miterlimit="10"/>
<path d="M384.324 317.02L429.594 379.42L441.014 375.749L440.198 389.614L468.746 404.705" stroke="#1A2E35" stroke-width="1.33333" stroke-miterlimit="10"/>
<path d="M469.828 523.331H403.971V533.867H464.56" stroke="#1A2E35" stroke-width="1.33333" stroke-miterlimit="10"/>
<path d="M540.022 270.028H539.582C538.001 270.028 536.718 268.747 536.718 267.166V249.29H542.885V267.166C542.885 268.747 541.603 270.028 540.022 270.028Z" fill="white"/>
<path d="M540.022 270.028H539.582C538.001 270.028 536.718 268.747 536.718 267.166V249.29H542.885V267.166C542.885 268.747 541.603 270.028 540.022 270.028Z" stroke="#1A2E35" stroke-width="1.33333" stroke-miterlimit="10"/>
<path d="M544.36 251.703H535.245V245.536H544.36V251.703Z" fill="white" stroke="#1A2E35" stroke-width="1.33333" stroke-miterlimit="10"/>
<path d="M571.018 212.654C571.018 212.654 574.213 217.677 573.758 220.645C573.301 223.613 568.963 236.626 567.594 236.854C566.223 237.082 565.994 235.485 566.451 230.918C566.909 226.352 567.594 223.384 567.594 222.014C567.594 220.645 568.506 209.914 571.018 212.654Z" fill="#5AE4A7"/>
<path d="M571.018 212.654C571.018 212.654 574.213 217.677 573.758 220.645C573.301 223.613 568.963 236.626 567.594 236.854C566.223 237.082 565.994 235.485 566.451 230.918C566.909 226.352 567.594 223.384 567.594 222.014C567.594 220.645 568.506 209.914 571.018 212.654Z" stroke="#1A2E35" stroke-width="1.33333" stroke-miterlimit="10" stroke-linecap="round" stroke-linejoin="round"/>
<path d="M509.604 206.49C509.604 206.49 504.353 215.622 508.235 220.874C512.115 226.125 520.563 226.581 520.563 226.581C520.563 226.581 521.932 236.854 523.987 238.453C526.041 240.051 531.065 247.129 531.749 249.639C532.435 252.151 537.229 248.955 537.229 246.901C537.229 244.846 533.804 236.627 532.891 234.343C531.977 232.061 534.032 225.897 534.717 223.842C535.403 221.787 536.087 220.874 536.087 220.874C536.087 220.874 542.708 227.266 543.393 230.919C544.077 234.573 542.251 248.042 544.077 249.639C545.905 251.238 550.699 250.782 551.612 248.042C552.524 245.302 554.124 229.321 554.124 226.581C554.124 223.842 549.785 214.481 549.785 214.481C549.785 214.481 556.863 221.558 557.091 224.07C557.319 226.581 555.264 242.562 556.407 243.019C557.548 243.475 559.373 244.161 560.972 242.791C562.571 241.421 563.94 237.767 563.94 237.767C563.94 237.767 568.507 227.038 570.333 222.015C572.159 216.991 573.757 211.285 569.648 209.23C565.539 207.175 562.343 205.349 550.699 200.782C539.055 196.217 522.617 192.793 516.681 197.13C510.744 201.467 509.604 206.49 509.604 206.49Z" fill="#5AE4A7"/>
<path d="M509.604 206.49C509.604 206.49 504.353 215.622 508.235 220.874C512.115 226.125 520.563 226.581 520.563 226.581C520.563 226.581 521.932 236.854 523.987 238.453C526.041 240.051 531.065 247.129 531.749 249.639C532.435 252.151 537.229 248.955 537.229 246.901C537.229 244.846 533.804 236.627 532.891 234.343C531.977 232.061 534.032 225.897 534.717 223.842C535.403 221.787 536.087 220.874 536.087 220.874C536.087 220.874 542.708 227.266 543.393 230.919C544.077 234.573 542.251 248.042 544.077 249.639C545.905 251.238 550.699 250.782 551.612 248.042C552.524 245.302 554.124 229.321 554.124 226.581C554.124 223.842 549.785 214.481 549.785 214.481C549.785 214.481 556.863 221.558 557.091 224.07C557.319 226.581 555.264 242.562 556.407 243.019C557.548 243.475 559.373 244.161 560.972 242.791C562.571 241.421 563.94 237.767 563.94 237.767C563.94 237.767 568.507 227.038 570.333 222.015C572.159 216.991 573.757 211.285 569.648 209.23C565.539 207.175 562.343 205.349 550.699 200.782C539.055 196.217 522.617 192.793 516.681 197.13C510.744 201.467 509.604 206.49 509.604 206.49Z" stroke="#1A2E35" stroke-width="1.33333" stroke-miterlimit="10" stroke-linecap="round" stroke-linejoin="round"/>
<path d="M520.563 226.581L519.649 210.142" stroke="#1A2E35" stroke-width="1.33333" stroke-miterlimit="10"/>
<path d="M520.335 220.645C520.335 220.645 511.201 220.417 510.289 208.773" stroke="#1A2E35" stroke-width="1.33333" stroke-miterlimit="10"/>
<path d="M566.452 230.919C566.452 230.919 569.42 222.243 566.909 218.134C564.397 214.024 554.809 207.632 554.809 207.632" stroke="#1A2E35" stroke-width="1.33333" stroke-miterlimit="10"/>
<path d="M502.336 366.982C503.141 366.446 517.349 351.433 517.617 350.359C517.885 349.287 518.153 334.811 519.761 331.594C521.371 328.377 526.732 318.994 527 316.045C527.268 313.095 527.268 303.177 527 299.691C526.732 296.206 530.217 295.938 532.631 299.154C535.043 302.371 535.58 306.929 535.58 310.951C535.58 314.973 535.848 318.189 536.384 318.994C536.919 319.798 541.477 323.819 543.623 324.355C545.767 324.891 558.636 318.457 562.388 317.117C566.141 315.777 568.555 304.785 569.091 303.713C569.627 302.641 569.895 294.597 570.163 292.721C570.431 290.843 573.917 288.431 575.256 292.989C576.597 297.546 576.061 308.27 575.793 311.219C575.525 314.167 575.793 320.334 574.453 321.942C573.112 323.551 564.533 331.058 563.729 332.13C562.924 333.202 559.707 343.658 558.636 345.266C557.563 346.875 548.448 350.359 542.281 354.114C536.116 357.866 529.681 363.765 529.681 363.765C529.681 363.765 531.559 365.909 529.681 367.786C527.805 369.663 524.319 371.003 524.319 371.003L518.691 384.407L502.336 366.982Z" fill="#B6B6B6"/>
<path d="M502.336 366.982C503.141 366.446 517.349 351.433 517.617 350.359C517.885 349.287 518.153 334.811 519.761 331.594C521.371 328.377 526.732 318.994 527 316.045C527.268 313.095 527.268 303.177 527 299.691C526.732 296.206 530.217 295.938 532.631 299.154C535.043 302.371 535.58 306.929 535.58 310.951C535.58 314.973 535.848 318.189 536.384 318.994C536.919 319.798 541.477 323.819 543.623 324.355C545.767 324.891 558.636 318.457 562.388 317.117C566.141 315.777 568.555 304.785 569.091 303.713C569.627 302.641 569.895 294.597 570.163 292.721C570.431 290.843 573.917 288.431 575.256 292.989C576.597 297.546 576.061 308.27 575.793 311.219C575.525 314.167 575.793 320.334 574.453 321.942C573.112 323.551 564.533 331.058 563.729 332.13C562.924 333.202 559.707 343.658 558.636 345.266C557.563 346.875 548.448 350.359 542.281 354.114C536.116 357.866 529.681 363.765 529.681 363.765C529.681 363.765 531.559 365.909 529.681 367.786C527.805 369.663 524.319 371.003 524.319 371.003L518.691 384.407L502.336 366.982Z" stroke="#1A2E35" stroke-width="1.33333" stroke-miterlimit="10"/>
<path d="M558.635 345.266C559.707 343.658 562.925 333.202 563.729 332.13C564.534 331.058 573.111 323.551 574.453 321.942C575.793 320.334 575.525 314.169 575.793 311.219C576.061 308.27 576.598 297.546 575.257 292.989C573.917 288.431 570.431 290.845 570.163 292.721C569.894 294.598 569.626 302.641 569.091 303.713C568.554 304.785 566.142 315.777 562.387 317.117C558.635 318.458 545.767 324.891 543.622 324.355C541.478 323.819 536.919 319.798 536.385 318.994C535.847 318.189 535.579 314.973 535.579 310.951C535.579 306.93 535.043 302.373 532.63 299.155C530.218 295.938 526.731 296.206 526.999 299.691C527.269 303.177 527.269 313.095 526.999 316.045C526.731 318.994 521.371 328.377 519.762 331.594C518.154 334.811 517.886 349.289 517.617 350.359C517.478 350.915 513.597 355.214 509.775 359.302L524.083 371.567L524.319 371.003C524.319 371.003 527.805 369.663 529.681 367.786C531.558 365.909 529.681 363.765 529.681 363.765C529.681 363.765 536.115 357.866 542.281 354.114C548.447 350.359 557.562 346.875 558.635 345.266Z" fill="#5AE4A7"/>
<path d="M558.635 345.266C559.707 343.658 562.925 333.202 563.729 332.13C564.534 331.058 573.111 323.551 574.453 321.942C575.793 320.334 575.525 314.169 575.793 311.219C576.061 308.27 576.598 297.546 575.257 292.989C573.917 288.431 570.431 290.845 570.163 292.721C569.894 294.598 569.626 302.641 569.091 303.713C568.554 304.785 566.142 315.777 562.387 317.117C558.635 318.458 545.767 324.891 543.622 324.355C541.478 323.819 536.919 319.798 536.385 318.994C535.847 318.189 535.579 314.973 535.579 310.951C535.579 306.93 535.043 302.373 532.63 299.155C530.218 295.938 526.731 296.206 526.999 299.691C527.269 303.177 527.269 313.095 526.999 316.045C526.731 318.994 521.371 328.377 519.762 331.594C518.154 334.811 517.886 349.289 517.617 350.359C517.478 350.915 513.597 355.214 509.775 359.302L524.083 371.567L524.319 371.003C524.319 371.003 527.805 369.663 529.681 367.786C531.558 365.909 529.681 363.765 529.681 363.765C529.681 363.765 536.115 357.866 542.281 354.114C548.447 350.359 557.562 346.875 558.635 345.266Z" stroke="#1A2E35" stroke-width="1.33333" stroke-miterlimit="10" stroke-linecap="round" stroke-linejoin="round"/>
<path d="M563.729 332.13L554.613 338.833" stroke="#1A2E35" stroke-width="1.33333" stroke-miterlimit="10"/>
<path d="M383.1 347.608C383.1 347.608 396.967 345.16 405.124 351.687C413.28 358.211 416.135 370.447 416.543 371.67C416.951 372.894 455.288 407.968 455.288 407.968L503.412 363.514L527.067 386.76C527.067 386.76 496.887 425.096 481.39 439.779C465.892 454.462 454.472 461.395 451.618 462.618C448.763 463.842 445.907 462.618 442.644 460.579C439.382 458.539 371.682 390.43 371.682 390.43" fill="white"/>
<path d="M383.1 347.608C383.1 347.608 396.967 345.16 405.124 351.687C413.28 358.211 416.135 370.447 416.543 371.67C416.951 372.894 455.288 407.968 455.288 407.968L503.412 363.514L527.067 386.76C527.067 386.76 496.887 425.096 481.39 439.779C465.892 454.462 454.472 461.395 451.618 462.618C448.763 463.842 445.907 462.618 442.644 460.579C439.382 458.539 371.682 390.43 371.682 390.43" stroke="#1A2E35" stroke-width="1.33333" stroke-miterlimit="10"/>
<path d="M382.285 376.156C382.285 376.156 394.928 364.328 401.453 363.92C407.98 363.514 412.465 368.815 412.465 368.815" stroke="#1A2E35" stroke-width="1.33333" stroke-miterlimit="10"/>
<path d="M375.759 366.369C375.759 366.369 391.258 356.173 400.23 361.066" stroke="#1A2E35" stroke-width="1.33333" stroke-miterlimit="10"/>
<path d="M455.288 407.968C455.288 407.968 444.684 430.398 446.316 441.002" stroke="#1A2E35" stroke-width="1.33333" stroke-miterlimit="10"/>
<path d="M453.249 409.192C453.249 409.192 442.237 416.124 438.159 429.174" stroke="#1A2E35" stroke-width="1.33333" stroke-miterlimit="10"/>
<path d="M554.767 298.714H554.327C552.746 298.714 551.463 297.433 551.463 295.851V277.975H557.63V295.851C557.63 297.433 556.348 298.714 554.767 298.714Z" fill="white"/>
<path d="M554.767 298.714H554.327C552.746 298.714 551.463 297.433 551.463 295.851V277.975H557.63V295.851C557.63 297.433 556.348 298.714 554.767 298.714Z" stroke="#1A2E35" stroke-width="1.33333" stroke-miterlimit="10"/>
<path d="M559.104 280.388H549.989V274.222H559.104V280.388Z" fill="white" stroke="#1A2E35" stroke-width="1.33333" stroke-miterlimit="10"/>
<path d="M566.294 298.714H565.855C564.273 298.714 562.991 297.433 562.991 295.851V277.975H569.157V295.851C569.157 297.433 567.877 298.714 566.294 298.714Z" fill="white"/>
<path d="M566.294 298.714H565.855C564.273 298.714 562.991 297.433 562.991 295.851V277.975H569.157V295.851C569.157 297.433 567.877 298.714 566.294 298.714Z" stroke="#1A2E35" stroke-width="1.33333" stroke-miterlimit="10"/>
<path d="M570.633 280.388H561.517V274.222H570.633V280.388Z" fill="white" stroke="#1A2E35" stroke-width="1.33333" stroke-miterlimit="10"/>
<path d="M573.112 307.465H533.972V287.359H573.112V307.465Z" fill="#1A2E35" stroke="#1A2E35" stroke-width="1.33333" stroke-miterlimit="10"/>
</g>
<mask id="mask6_277_1856" style="mask-type:luminance" maskUnits="userSpaceOnUse" x="0" y="0" width="668" height="667">
<path d="M0.5 0.000365257H667.167V666.667H0.5V0.000365257Z" fill="white"/>
</mask>
<g mask="url(#mask6_277_1856)">
<path d="M177.235 334.038C177.235 334.038 176.766 349.497 180.046 355.586C183.324 361.677 188.946 364.018 189.414 369.172C189.883 374.325 187.54 381.35 190.819 383.225C194.099 385.098 217.52 408.52 225.015 408.052C232.511 407.584 240.474 396.809 240.474 396.809L257.338 407.584L279.823 361.208L264.832 347.622C264.832 347.622 258.743 311.085 250.311 300.78C241.879 290.474 210.494 287.662 194.567 295.158C178.64 302.653 173.019 319.517 169.271 322.796C165.524 326.074 157.56 329.354 161.776 335.444C165.992 341.533 177.235 334.038 177.235 334.038Z" fill="white"/>
<path d="M177.235 334.038C177.235 334.038 176.766 349.497 180.046 355.586C183.324 361.677 188.946 364.018 189.414 369.172C189.883 374.325 187.54 381.35 190.819 383.225C194.099 385.098 217.52 408.52 225.015 408.052C232.511 407.584 240.474 396.809 240.474 396.809L257.338 407.584L279.823 361.208L264.832 347.622C264.832 347.622 258.743 311.085 250.311 300.78C241.879 290.474 210.494 287.662 194.567 295.158C178.64 302.653 173.019 319.517 169.271 322.796C165.524 326.074 157.56 329.354 161.776 335.444C165.992 341.533 177.235 334.038 177.235 334.038Z" stroke="#1A2E35" stroke-width="1.33333" stroke-miterlimit="10"/>
<path d="M260.617 356.991C262.402 355.602 264.188 352.026 265.653 348.366L264.833 347.623C264.833 347.623 258.744 311.085 250.312 300.779C241.88 290.474 210.494 287.662 194.566 295.158C178.64 302.653 173.018 319.517 169.272 322.797C165.524 326.075 157.561 329.354 161.776 335.443C165.708 341.123 175.744 334.991 177.078 334.139L177.234 334.038C177.234 334.038 184.729 331.697 189.882 328.885C195.034 326.075 200.657 321.39 200.657 321.39C200.657 321.39 190.82 337.786 194.566 342.939C198.314 348.091 209.557 345.749 209.557 345.749C209.557 345.749 217.052 355.586 221.736 353.243C226.421 350.903 219.862 342.002 226.889 338.723C233.916 335.443 239.537 349.497 239.537 351.839C239.537 354.182 256.401 360.271 260.617 356.991Z" fill="#1A2E35"/>
<path d="M260.617 356.991C262.402 355.602 264.188 352.026 265.653 348.366L264.833 347.623C264.833 347.623 258.744 311.085 250.312 300.779C241.88 290.474 210.494 287.662 194.566 295.158C178.64 302.653 173.018 319.517 169.272 322.797C165.524 326.075 157.561 329.354 161.776 335.443C165.708 341.123 175.744 334.991 177.078 334.139L177.234 334.038C177.234 334.038 184.729 331.697 189.882 328.885C195.034 326.075 200.657 321.39 200.657 321.39C200.657 321.39 190.82 337.786 194.566 342.939C198.314 348.091 209.557 345.749 209.557 345.749C209.557 345.749 217.052 355.586 221.736 353.243C226.421 350.903 219.862 342.002 226.889 338.723C233.916 335.443 239.537 349.497 239.537 351.839C239.537 354.182 256.401 360.271 260.617 356.991Z" stroke="#1A2E35" stroke-width="1.33333" stroke-miterlimit="10"/>
<path d="M265.732 348.438L232.979 386.503C232.979 386.503 225.015 385.567 219.395 381.351C213.772 377.134 209.088 366.828 209.088 366.828C209.088 366.828 232.979 340.596 245.158 333.102C255.79 326.559 259.282 325.371 259.998 325.175C259.583 323.584 259.147 321.984 258.687 320.396C256.142 321.52 248.675 325.267 236.727 334.975C223.67 345.583 196.05 373.243 189.14 380.203C189.328 381.566 189.803 382.643 190.819 383.224C194.098 385.098 217.52 408.52 225.015 408.051C226.49 407.96 227.98 407.46 229.427 406.731C230.856 400.898 233.323 392.04 235.322 388.376C237.748 383.928 261.804 357.852 268.34 350.8L265.732 348.438Z" fill="#5AE4A7"/>
<path d="M265.732 348.438L232.979 386.503C232.979 386.503 225.015 385.567 219.395 381.351C213.772 377.134 209.088 366.828 209.088 366.828C209.088 366.828 232.979 340.596 245.158 333.102C255.79 326.559 259.282 325.371 259.998 325.175C259.583 323.584 259.147 321.984 258.687 320.396C256.142 321.52 248.675 325.267 236.727 334.975C223.67 345.583 196.05 373.243 189.14 380.203C189.328 381.566 189.803 382.643 190.819 383.224C194.098 385.098 217.52 408.52 225.015 408.051C226.49 407.96 227.98 407.46 229.427 406.731C230.856 400.898 233.323 392.04 235.322 388.376C237.748 383.928 261.804 357.852 268.34 350.8L265.732 348.438Z" stroke="#1A2E35" stroke-width="1.33333" stroke-miterlimit="10" stroke-linecap="round" stroke-linejoin="round"/>
<path d="M224.079 354.65C224.079 354.65 219.863 339.66 225.484 336.849C231.105 334.038 238.132 340.128 239.069 346.686C240.005 353.244 236.727 361.208 236.727 361.208C236.727 361.208 240.005 367.766 238.6 374.792" fill="white"/>
<path d="M224.079 354.65C224.079 354.65 219.863 339.66 225.484 336.849C231.105 334.038 238.132 340.128 239.069 346.686C240.005 353.244 236.727 361.208 236.727 361.208C236.727 361.208 240.005 367.766 238.6 374.792" stroke="#1A2E35" stroke-width="1.33333" stroke-miterlimit="10"/>
<path d="M199.979 366.253C200.909 368.061 200.904 369.92 199.967 370.401C199.029 370.885 197.515 369.81 196.584 368.002C195.652 366.193 195.657 364.337 196.595 363.853C197.533 363.37 199.048 364.446 199.979 366.253Z" fill="#1A2E35"/>
<path d="M187.87 357.545C187.87 357.545 188.416 350.998 196.326 352.361" stroke="#1A2E35" stroke-width="1.33333" stroke-miterlimit="10"/>
<path d="M278.938 355.726L243.526 412.194L257.403 422.243L289.945 360.99L278.938 355.726Z" fill="white"/>
<path d="M278.938 355.726L243.526 412.194L257.403 422.243L289.945 360.99L278.938 355.726Z" stroke="#1A2E35" stroke-width="1.33333" stroke-miterlimit="10"/>
<path d="M287.552 361.947C287.552 361.947 260.275 409.322 255.011 419.851C249.747 430.378 234.433 456.219 233.476 471.532C232.52 486.847 227.735 576.811 227.735 576.811H337.799C337.799 576.811 345.933 508.38 345.456 482.06C344.976 455.742 338.277 416.979 318.179 390.659C298.08 364.339 287.552 361.947 287.552 361.947Z" fill="white"/>
<path d="M287.552 361.947C287.552 361.947 260.275 409.322 255.011 419.851C249.747 430.378 234.433 456.219 233.476 471.532C232.52 486.847 227.735 576.811 227.735 576.811H337.799C337.799 576.811 345.933 508.38 345.456 482.06C344.976 455.742 338.277 416.979 318.179 390.659C298.08 364.339 287.552 361.947 287.552 361.947Z" stroke="#1A2E35" stroke-width="1.33333" stroke-miterlimit="10"/>
<path d="M297.123 369.126C297.123 369.126 280.852 399.752 269.846 417.458C258.839 435.163 244.483 454.306 240.655 465.312C236.826 476.319 236.826 481.103 236.826 481.103" stroke="#1A2E35" stroke-width="1.33333" stroke-miterlimit="10"/>
<path d="M155.953 489.718L143.032 480.146C143.032 480.146 136.812 464.355 132.982 460.047C129.154 455.742 123.89 456.698 120.541 452.87C117.19 449.041 113.362 440.427 111.449 439.47C109.534 438.514 105.228 440.907 105.228 444.735C105.228 448.563 109.534 454.785 109.534 456.219V457.655C109.534 457.655 93.2636 452.87 91.349 454.305C89.4356 455.742 87.521 460.526 88.957 462.919C90.393 465.311 93.2636 466.269 93.2636 468.183C93.2636 470.097 89.9143 476.318 91.8276 478.711C93.7423 481.103 96.613 482.539 96.613 482.539C96.613 482.539 96.613 491.633 99.485 495.461C102.356 499.289 124.369 502.159 131.068 503.117C137.768 504.074 157.389 513.645 157.389 513.645L155.953 489.718Z" fill="#5AE4A7"/>
<path d="M155.953 489.718L143.032 480.146C143.032 480.146 136.812 464.355 132.982 460.047C129.154 455.742 123.89 456.698 120.541 452.87C117.19 449.041 113.362 440.427 111.449 439.47C109.534 438.514 105.228 440.907 105.228 444.735C105.228 448.563 109.534 454.785 109.534 456.219V457.655C109.534 457.655 93.2636 452.87 91.349 454.305C89.4356 455.742 87.521 460.526 88.957 462.919C90.393 465.311 93.2636 466.269 93.2636 468.183C93.2636 470.097 89.9143 476.318 91.8276 478.711C93.7423 481.103 96.613 482.539 96.613 482.539C96.613 482.539 96.613 491.633 99.485 495.461C102.356 499.289 124.369 502.159 131.068 503.117C137.768 504.074 157.389 513.645 157.389 513.645L155.953 489.718Z" stroke="#1A2E35" stroke-width="1.33333" stroke-miterlimit="10" stroke-linecap="round" stroke-linejoin="round"/>
<path d="M282.766 407.408C282.766 407.408 262.189 417.457 254.533 443.777C246.876 470.097 242.09 497.375 242.09 497.375C242.09 497.375 237.305 496.417 237.305 499.288C237.305 502.159 236.826 503.596 236.826 503.596L153.56 487.804L151.646 527.044C151.646 527.044 259.796 547.143 265.54 547.143C271.281 547.143 277.502 545.228 279.417 540.443C281.33 535.659 312.436 465.791 312.436 465.791" fill="white"/>
<path d="M282.766 407.408C282.766 407.408 262.189 417.457 254.533 443.777C246.876 470.097 242.09 497.375 242.09 497.375C242.09 497.375 237.305 496.417 237.305 499.288C237.305 502.159 236.826 503.596 236.826 503.596L153.56 487.804L151.646 527.044C151.646 527.044 259.796 547.143 265.54 547.143C271.281 547.143 277.502 545.228 279.417 540.443C281.33 535.659 312.436 465.791 312.436 465.791" stroke="#1A2E35" stroke-width="1.33333" stroke-miterlimit="10"/>
<path d="M292.337 429.421C292.337 429.421 308.608 438.513 311.478 450.956" stroke="#1A2E35" stroke-width="1.33333" stroke-miterlimit="10"/>
<path d="M280.852 443.298C282.288 443.298 306.693 445.213 311.957 459.09" stroke="#1A2E35" stroke-width="1.33333" stroke-miterlimit="10"/>
<path d="M303.344 485.89C303.344 485.89 322.008 477.275 327.749 458.612" stroke="#1A2E35" stroke-width="1.33333" stroke-miterlimit="10"/>
<path d="M241.133 504.073C241.133 504.073 250.704 521.78 250.225 534.221" stroke="#1A2E35" stroke-width="1.33333" stroke-miterlimit="10"/>
<path d="M246.875 501.202C246.875 501.202 256.446 503.117 263.146 516.037" stroke="#1A2E35" stroke-width="1.33333" stroke-miterlimit="10"/>
<path d="M375.547 483.017H358.32C355.148 483.017 352.064 485.589 351.428 488.761L333.627 576.812H362.34L380.141 488.761C380.776 485.589 378.719 483.017 375.547 483.017Z" fill="#1A2E35"/>
<path d="M375.547 483.017H358.32C355.148 483.017 352.064 485.589 351.428 488.761L333.627 576.812H362.34L380.141 488.761C380.776 485.589 378.719 483.017 375.547 483.017Z" stroke="#1A2E35" stroke-width="1.33333" stroke-miterlimit="10"/>
</g>
<path d="M11.5657 576.812H660.859" stroke="#1A2E35" stroke-width="1.33333" stroke-miterlimit="10"/>
<mask id="mask7_277_1856" style="mask-type:luminance" maskUnits="userSpaceOnUse" x="0" y="0" width="668" height="667">
<path d="M0.5 0.000365257H667.167V666.667H0.5V0.000365257Z" fill="white"/>
</mask>
<g mask="url(#mask7_277_1856)">
<path d="M51.5097 573.833H50.6843C47.715 573.833 45.3083 571.425 45.3083 568.457V514.262H56.8857V568.457C56.8857 571.425 54.479 573.833 51.5097 573.833Z" fill="white"/>
<path d="M51.5097 573.833H50.6843C47.715 573.833 45.3083 571.425 45.3083 568.457V514.262H56.8857V568.457C56.8857 571.425 54.479 573.833 51.5097 573.833Z" stroke="#1A2E35" stroke-width="1.33333" stroke-miterlimit="10" stroke-linecap="round" stroke-linejoin="round"/>
<path d="M45.3079 536.232V568.043C45.3079 571.241 47.8999 573.832 51.0972 573.832C54.2945 573.832 56.8865 571.241 56.8865 568.043V536.232H45.3079Z" fill="#5AE4A7"/>
<path d="M45.3079 536.232V568.043C45.3079 571.241 47.8999 573.832 51.0972 573.832C54.2945 573.832 56.8865 571.241 56.8865 568.043V536.232H45.3079Z" stroke="#1A2E35" stroke-width="1.33333" stroke-miterlimit="10" stroke-linecap="round" stroke-linejoin="round"/>
<path d="M58.9291 523.457H43.2651V512.559H58.9291V523.457Z" fill="white" stroke="#1A2E35" stroke-width="1.33333" stroke-miterlimit="10" stroke-linecap="round" stroke-linejoin="round"/>
<path d="M73.6137 573.833C70.4177 573.833 67.8257 571.242 67.8257 568.043V514.262H79.403V568.043C79.403 571.242 76.811 573.833 73.6137 573.833Z" fill="white"/>
<path d="M73.6137 573.833C70.4177 573.833 67.8257 571.242 67.8257 568.043V514.262H79.403V568.043C79.403 571.242 76.811 573.833 73.6137 573.833Z" stroke="#1A2E35" stroke-width="1.33333" stroke-miterlimit="10" stroke-linecap="round" stroke-linejoin="round"/>
<path d="M67.8254 536.232V568.043C67.8254 571.241 70.4174 573.832 73.6134 573.832C76.8108 573.832 79.4028 571.241 79.4028 568.043V536.232H67.8254Z" fill="#5AE4A7"/>
<path d="M67.8254 536.232V568.043C67.8254 571.241 70.4174 573.832 73.6134 573.832C76.8108 573.832 79.4028 571.241 79.4028 568.043V536.232H67.8254Z" stroke="#1A2E35" stroke-width="1.33333" stroke-miterlimit="10" stroke-linecap="round" stroke-linejoin="round"/>
<path d="M81.4466 523.457H65.7812V512.559H81.4466V523.457Z" fill="white" stroke="#1A2E35" stroke-width="1.33333" stroke-miterlimit="10" stroke-linecap="round" stroke-linejoin="round"/>
<path d="M96.1314 573.833C92.934 573.833 90.342 571.242 90.342 568.043V514.262H101.921V568.043C101.921 571.242 99.3287 573.833 96.1314 573.833Z" fill="white"/>
<path d="M96.1314 573.833C92.934 573.833 90.342 571.242 90.342 568.043V514.262H101.921V568.043C101.921 571.242 99.3287 573.833 96.1314 573.833Z" stroke="#1A2E35" stroke-width="1.33333" stroke-miterlimit="10" stroke-linecap="round" stroke-linejoin="round"/>
<path d="M90.3423 536.232V568.043C90.3423 571.241 92.9343 573.832 96.1316 573.832C99.329 573.832 101.921 571.241 101.921 568.043V536.232H90.3423Z" fill="#5AE4A7"/>
<path d="M90.3423 536.232V568.043C90.3423 571.241 92.9343 573.832 96.1316 573.832C99.329 573.832 101.921 571.241 101.921 568.043V536.232H90.3423Z" stroke="#1A2E35" stroke-width="1.33333" stroke-miterlimit="10" stroke-linecap="round" stroke-linejoin="round"/>
<path d="M103.964 523.457H88.2998V512.559H103.964V523.457Z" fill="white" stroke="#1A2E35" stroke-width="1.33333" stroke-miterlimit="10" stroke-linecap="round" stroke-linejoin="round"/>
<path d="M118.648 573.833C115.452 573.833 112.86 571.242 112.86 568.043V514.262H124.438V568.043C124.438 571.242 121.846 573.833 118.648 573.833Z" fill="white"/>
<path d="M118.648 573.833C115.452 573.833 112.86 571.242 112.86 568.043V514.262H124.438V568.043C124.438 571.242 121.846 573.833 118.648 573.833Z" stroke="#1A2E35" stroke-width="1.33333" stroke-miterlimit="10" stroke-linecap="round" stroke-linejoin="round"/>
<path d="M112.86 536.232V568.043C112.86 571.241 115.452 573.832 118.648 573.832C121.845 573.832 124.437 571.241 124.437 568.043V536.232H112.86Z" fill="#5AE4A7"/>
<path d="M112.86 536.232V568.043C112.86 571.241 115.452 573.832 118.648 573.832C121.845 573.832 124.437 571.241 124.437 568.043V536.232H112.86Z" stroke="#1A2E35" stroke-width="1.33333" stroke-miterlimit="10" stroke-linecap="round" stroke-linejoin="round"/>
<path d="M126.481 523.457H110.816V512.559H126.481V523.457Z" fill="white" stroke="#1A2E35" stroke-width="1.33333" stroke-miterlimit="10" stroke-linecap="round" stroke-linejoin="round"/>
<path d="M136.271 529.33H35.4334V532.756H136.271V568.49H30.5374V576.811H143.124V574.855V568.49V532.756V529.33H136.271Z" fill="white"/>
<path d="M136.271 529.33H35.4334V532.756H136.271V568.49H30.5374V576.811H143.124V574.855V568.49V532.756V529.33H136.271Z" stroke="#1A2E35" stroke-width="1.33333" stroke-miterlimit="10" stroke-linecap="round" stroke-linejoin="round"/>
<path d="M514.299 570.026L501.113 518.812V504.812H482.446V518.812L469.261 570.026C468.375 573.464 470.971 576.812 474.519 576.812H509.039C512.589 576.812 515.183 573.464 514.299 570.026Z" fill="white"/>
<path d="M514.299 570.026L501.113 518.812V504.812H482.446V518.812L469.261 570.026C468.375 573.464 470.971 576.812 474.519 576.812H509.039C512.589 576.812 515.183 573.464 514.299 570.026Z" stroke="#1A2E35" stroke-width="1.33333" stroke-miterlimit="10"/>
<path d="M503.505 544.145H480.054L473.134 571.022C472.981 571.614 473.228 572.05 473.389 572.257C473.549 572.464 473.91 572.812 474.52 572.812H509.038C509.649 572.812 510.009 572.464 510.17 572.257C510.33 572.05 510.578 571.614 510.425 571.022L503.505 544.145Z" fill="#5AE4A7"/>
<path d="M552.28 528.387V498.811H534.947V528.387C525.419 531.915 518.613 541.056 518.613 551.811C518.613 565.619 529.807 576.811 543.613 576.811C557.42 576.811 568.613 565.619 568.613 551.811C568.613 541.056 561.808 531.915 552.28 528.387Z" fill="white"/>
<path d="M552.28 528.387V498.811H534.947V528.387C525.419 531.915 518.613 541.056 518.613 551.811C518.613 565.619 529.807 576.811 543.613 576.811C557.42 576.811 568.613 565.619 568.613 551.811C568.613 541.056 561.808 531.915 552.28 528.387Z" stroke="#1A2E35" stroke-width="1.33333" stroke-miterlimit="10"/>
<path d="M522.204 545.478C521.611 547.489 521.28 549.61 521.28 551.812C521.28 564.146 531.279 574.145 543.614 574.145C555.948 574.145 565.947 564.146 565.947 551.812C565.947 549.61 565.615 547.489 565.02 545.478H522.204Z" fill="#5AE4A7"/>
<path d="M603.667 544.852V490.665H592.227V544.852C585.937 547.18 581.447 553.213 581.447 560.312C581.447 569.425 588.833 576.812 597.947 576.812C607.059 576.812 614.447 569.425 614.447 560.312C614.447 553.213 609.956 547.18 603.667 544.852Z" fill="white"/>
<path d="M603.667 544.852V490.665H592.227V544.852C585.937 547.18 581.447 553.213 581.447 560.312C581.447 569.425 588.833 576.812 597.947 576.812C607.059 576.812 614.447 569.425 614.447 560.312C614.447 553.213 609.956 547.18 603.667 544.852Z" stroke="#1A2E35" stroke-width="1.33333" stroke-miterlimit="10"/>
<path d="M583.816 556.132C583.424 557.458 583.206 558.858 583.206 560.312C583.206 568.452 589.806 575.052 597.947 575.052C606.087 575.052 612.686 568.452 612.686 560.312C612.686 558.858 612.467 557.458 612.075 556.132H583.816Z" fill="#5AE4A7"/>
</g>
</svg>
