<svg width="1000" height="667" viewBox="0 0 1000 667" fill="none" xmlns="http://www.w3.org/2000/svg">
<mask id="mask0_277_517" style="mask-type:luminance" maskUnits="userSpaceOnUse" x="0" y="0" width="1000" height="667">
<path d="M0 -0.000123024H1000V666.667H0V-0.000123024Z" fill="white"/>
</mask>
<g mask="url(#mask0_277_517)">
<path d="M957.535 393.406C938.426 336.875 903.674 286.517 857.719 247.142C792.85 191.566 674.05 100.385 564.616 72.8473C403.623 32.3366 262.906 148.082 205.664 214.058C148.423 280.033 43.4791 352.953 32.7471 416.614C22.0151 480.274 33.9405 571.713 85.2191 594.863H892.562C892.562 594.863 1010.44 549.914 957.535 393.406Z" fill="#5AE4A7"/>
<mask id="mask1_277_517" style="mask-type:luminance" maskUnits="userSpaceOnUse" x="29" y="64" width="943" height="531">
<path d="M29.1313 64.4517H971.192V594.863H29.1313V64.4517Z" fill="white"/>
</mask>
<g mask="url(#mask1_277_517)">
<g opacity="0.699997">
<path d="M957.535 393.406C938.426 336.875 903.674 286.517 857.719 247.142C792.85 191.566 674.05 100.385 564.616 72.8473C403.623 32.3366 262.906 148.082 205.664 214.058C148.423 280.033 43.4791 352.953 32.7471 416.614C22.0151 480.274 33.9405 571.713 85.2191 594.863H892.562C892.562 594.863 1010.44 549.914 957.535 393.406Z" fill="white"/>
</g>
</g>
</g>
<path d="M898.004 532.09H630.467V99.8277H898.004V532.09Z" stroke="#1A2E35" stroke-width="1.33333" stroke-miterlimit="10"/>
<path d="M883.633 297.719H645.943V114.2H883.633V297.719Z" stroke="#1A2E35" stroke-width="1.33333" stroke-miterlimit="10"/>
<path d="M761.154 114.201V297.719" stroke="#1A2E35" stroke-width="1.33333" stroke-miterlimit="10"/>
<path d="M647.085 209.368H883.633" stroke="#1A2E35" stroke-width="1.33333" stroke-miterlimit="10"/>
<path d="M883.633 513.297H645.943V329.78H883.633V513.297Z" stroke="#1A2E35" stroke-width="1.33333" stroke-miterlimit="10"/>
<path d="M761.154 329.779V513.296" stroke="#1A2E35" stroke-width="1.33333" stroke-miterlimit="10"/>
<path d="M647.085 424.946H883.633" stroke="#1A2E35" stroke-width="1.33333" stroke-miterlimit="10"/>
<path d="M83.228 256.814H528.756V99.8292H83.228V256.814Z" stroke="#1A2E35" stroke-width="1.33333" stroke-miterlimit="10"/>
<path d="M91.6226 247.714H520.364V108.929H91.6226V247.714Z" stroke="#1A2E35" stroke-width="1.33333" stroke-miterlimit="10"/>
<path d="M305.993 108.929V247.714" stroke="#1A2E35" stroke-width="1.33333" stroke-miterlimit="10"/>
<path d="M314.972 108.929V247.714" stroke="#1A2E35" stroke-width="1.33333" stroke-miterlimit="10"/>
<path d="M296.605 108.929V247.714" stroke="#1A2E35" stroke-width="1.33333" stroke-miterlimit="10"/>
<mask id="mask2_277_517" style="mask-type:luminance" maskUnits="userSpaceOnUse" x="0" y="0" width="1000" height="667">
<path d="M0 -0.000123024H1000V666.667H0V-0.000123024Z" fill="white"/>
</mask>
<g mask="url(#mask2_277_517)">
<path d="M285.54 179.98C285.54 183.338 282.818 186.061 279.459 186.061C276.102 186.061 273.379 183.338 273.379 179.98C273.379 176.621 276.102 173.9 279.459 173.9C282.818 173.9 285.54 176.621 285.54 179.98Z" stroke="#1A2E35" stroke-width="1.33333" stroke-miterlimit="10"/>
<path d="M334.736 179.98C334.736 183.338 332.014 186.061 328.655 186.061C325.298 186.061 322.575 183.338 322.575 179.98C322.575 176.621 325.298 173.9 328.655 173.9C332.014 173.9 334.736 176.621 334.736 179.98Z" stroke="#1A2E35" stroke-width="1.33333" stroke-miterlimit="10"/>
</g>
<path d="M239.467 594.701H200.863V308.008H239.467V594.701Z" fill="#AAAAAA" stroke="#1A2E35" stroke-width="1.33333" stroke-miterlimit="10"/>
<path d="M243.447 594.701H204.843V308.008H243.447V594.701Z" fill="#AAAAAA" stroke="#1A2E35" stroke-width="1.33333" stroke-miterlimit="10"/>
<path d="M339.476 498.153H91.2959V308.008H339.476V498.153Z" fill="#1A2E35" stroke="#1A2E35" stroke-width="1.33333" stroke-miterlimit="10"/>
<path d="M344.253 498.153H96.0732V308.008H344.253V498.153Z" fill="#1A2E35" stroke="white" stroke-width="1.33333" stroke-miterlimit="10"/>
<path d="M329.763 487.05H110.567V319.11H329.763V487.05Z" fill="white" stroke="#1A2E35" stroke-width="1.33333" stroke-miterlimit="10"/>
<path d="M329.763 327.957H110.567V319.11H329.763V327.957Z" fill="#D7D7D7" stroke="#1A2E35" stroke-width="1.33333" stroke-miterlimit="10"/>
<mask id="mask3_277_517" style="mask-type:luminance" maskUnits="userSpaceOnUse" x="0" y="0" width="1000" height="667">
<path d="M0 -0.000123024H1000V666.667H0V-0.000123024Z" fill="white"/>
</mask>
<g mask="url(#mask3_277_517)">
<path d="M171.686 356.02C171.686 356.02 148.93 364.986 144.793 368.778C140.656 372.571 138.932 379.467 138.241 384.294C137.552 389.12 136.517 403.258 137.206 413.258C137.897 423.256 135.482 427.048 145.137 434.979C154.792 442.91 166.514 455.323 173.41 453.254C180.306 451.184 200.65 437.738 203.408 432.911C206.166 428.083 210.304 398.086 209.614 383.948C208.925 369.812 199.616 365.33 192.029 360.503C184.444 355.675 178.582 355.675 171.686 356.02Z" stroke="#1A2E35" stroke-width="1.33333" stroke-miterlimit="10"/>
<path d="M169.962 342.574L169.273 348.78C169.273 348.78 148.585 357.745 144.102 360.504C139.621 363.262 141 364.296 137.206 364.986C133.414 365.676 127.552 366.02 127.552 366.02" stroke="#1A2E35" stroke-width="1.33333" stroke-miterlimit="10"/>
<path d="M123.76 369.467L134.449 372.226C134.449 372.226 129.621 392.914 130.31 404.638C131 416.36 132.724 429.807 132.724 429.807L126.173 435.668" stroke="#1A2E35" stroke-width="1.33333" stroke-miterlimit="10"/>
<path d="M129.621 441.186L137.552 436.359C137.552 436.359 142.034 442.91 151.688 449.461C161.342 456.013 169.618 459.461 169.618 459.461L169.273 467.046" stroke="#1A2E35" stroke-width="1.33333" stroke-miterlimit="10"/>
<path d="M179.272 467.045L179.962 459.116C179.962 459.116 187.547 455.323 195.134 450.496C202.718 445.668 212.028 437.393 212.028 437.393L218.235 437.739" stroke="#1A2E35" stroke-width="1.33333" stroke-miterlimit="10"/>
<path d="M219.613 431.187L212.028 426.704C212.028 426.704 215.476 416.706 215.476 401.19C215.476 385.672 214.787 373.604 214.787 373.604L220.304 369.123" stroke="#1A2E35" stroke-width="1.33333" stroke-miterlimit="10"/>
<path d="M216.51 363.951L210.993 366.365C210.993 366.365 206.856 360.847 194.098 354.297C181.341 347.746 178.582 347.401 178.582 347.401L178.237 341.883" stroke="#1A2E35" stroke-width="1.33333" stroke-miterlimit="10"/>
<path d="M174.494 416.224C173.582 411.786 171.138 407.873 167.761 404.857C166.595 403.816 165.135 401.977 163.411 398.776C158.583 389.81 156.17 382.916 149.274 385.673C142.379 388.432 144.103 391.88 144.103 400.5C144.103 409.12 149.274 420.842 158.929 424.636C168.583 428.428 176.514 427.049 174.79 417.74C174.691 417.212 174.593 416.708 174.494 416.224Z" stroke="#1A2E35" stroke-width="1.33333" stroke-miterlimit="10"/>
<path d="M163.066 434.979C163.066 434.979 164.79 430.842 156.17 427.739C147.55 424.635 144.102 427.739 146.516 432.566C148.929 437.394 163.756 439.462 163.066 434.979Z" stroke="#1A2E35" stroke-width="1.33333" stroke-miterlimit="10"/>
<path d="M183.409 440.496C183.409 440.496 184.789 434.635 178.237 433.6C171.687 432.567 167.548 437.393 169.617 440.152C171.687 442.911 180.996 449.461 183.409 440.496Z" stroke="#1A2E35" stroke-width="1.33333" stroke-miterlimit="10"/>
<path d="M194.443 419.463C194.443 419.463 186.858 424.29 188.237 428.083C189.615 431.877 194.443 433.601 198.235 430.497C202.029 427.394 199.615 415.67 194.443 419.463Z" stroke="#1A2E35" stroke-width="1.33333" stroke-miterlimit="10"/>
<path d="M199.96 384.639C199.96 384.639 199.96 388.087 197.892 391.88C195.822 395.672 193.064 401.19 195.133 402.568C197.202 403.947 203.753 401.19 205.132 395.328C206.512 389.466 204.788 380.156 199.96 384.639Z" stroke="#1A2E35" stroke-width="1.33333" stroke-miterlimit="10"/>
<path d="M176.859 365.331C176.859 365.331 168.583 366.02 165.136 372.227C161.688 378.432 160.997 389.121 169.273 393.604C177.548 398.085 188.581 396.361 193.064 390.156C197.547 383.949 196.857 376.708 194.788 372.227C192.72 367.744 184.789 363.261 176.859 365.331Z" stroke="#1A2E35" stroke-width="1.33333" stroke-miterlimit="10"/>
<path d="M188.237 375.502C188.237 379.406 184.994 382.57 180.996 382.57C176.997 382.57 173.756 379.406 173.756 375.502C173.756 371.597 176.997 368.433 180.996 368.433C184.994 368.433 188.237 371.597 188.237 375.502Z" stroke="#1A2E35" stroke-width="1.33333" stroke-miterlimit="10"/>
<path d="M273.327 447.943C273.327 447.943 259.906 451.687 249.319 445.716C238.732 439.747 234.99 426.323 234.99 426.323C234.99 426.323 248.412 422.58 258.999 428.549C269.584 434.52 273.327 447.943 273.327 447.943Z" stroke="#1A2E35" stroke-width="1.33333" stroke-miterlimit="10"/>
<path d="M274.615 447.943C274.615 447.943 288.036 451.687 298.623 445.716C309.209 439.747 312.951 426.323 312.951 426.323C312.951 426.323 299.529 422.58 288.943 428.549C278.356 434.52 274.615 447.943 274.615 447.943Z" stroke="#1A2E35" stroke-width="1.33333" stroke-miterlimit="10"/>
<path d="M273.511 417.913C273.511 417.913 263.934 420.583 256.38 416.325C248.826 412.063 246.156 402.487 246.156 402.487C246.156 402.487 255.734 399.815 263.288 404.075C270.842 408.335 273.511 417.913 273.511 417.913Z" stroke="#1A2E35" stroke-width="1.33333" stroke-miterlimit="10"/>
<path d="M274.43 417.913C274.43 417.913 284.007 420.583 291.562 416.325C299.115 412.063 301.784 402.487 301.784 402.487C301.784 402.487 292.207 399.815 284.654 404.075C277.1 408.335 274.43 417.913 274.43 417.913Z" stroke="#1A2E35" stroke-width="1.33333" stroke-miterlimit="10"/>
<path d="M273.556 396.971C273.556 396.971 264.905 399.384 258.084 395.536C251.261 391.69 248.849 383.039 248.849 383.039C248.849 383.039 257.5 380.626 264.321 384.474C271.144 388.322 273.556 396.971 273.556 396.971Z" stroke="#1A2E35" stroke-width="1.33333" stroke-miterlimit="10"/>
<path d="M274.385 396.971C274.385 396.971 283.035 399.384 289.857 395.536C296.68 391.69 299.092 383.039 299.092 383.039C299.092 383.039 290.441 380.626 283.62 384.474C276.797 388.322 274.385 396.971 274.385 396.971Z" stroke="#1A2E35" stroke-width="1.33333" stroke-miterlimit="10"/>
<path d="M273.643 377.105C273.643 377.105 266.823 379.008 261.443 375.973C256.063 372.94 254.162 366.119 254.162 366.119C254.162 366.119 260.982 364.217 266.362 367.251C271.742 370.284 273.643 377.105 273.643 377.105Z" stroke="#1A2E35" stroke-width="1.33333" stroke-miterlimit="10"/>
<path d="M274.297 377.105C274.297 377.105 281.119 379.008 286.499 375.973C291.879 372.94 293.78 366.119 293.78 366.119C293.78 366.119 286.959 364.217 281.579 367.251C276.199 370.284 274.297 377.105 274.297 377.105Z" stroke="#1A2E35" stroke-width="1.33333" stroke-miterlimit="10"/>
<path d="M273.904 370.781C273.904 370.781 278.944 365.806 278.982 359.63C279.022 353.454 274.046 348.415 274.046 348.415C274.046 348.415 269.008 353.39 268.968 359.566C268.929 365.742 273.904 370.781 273.904 370.781Z" stroke="#1A2E35" stroke-width="1.33333" stroke-miterlimit="10"/>
<path d="M273.904 370.781V464.857" stroke="#1A2E35" stroke-width="1.33333" stroke-miterlimit="10"/>
</g>
<mask id="mask4_277_517" style="mask-type:luminance" maskUnits="userSpaceOnUse" x="0" y="0" width="1000" height="667">
<path d="M0 -0.000123024H1000V666.667H0V-0.000123024Z" fill="white"/>
</mask>
<g mask="url(#mask4_277_517)">
<path d="M712.1 539.407C705.672 523.978 674.382 466.542 659.38 435.681C644.379 404.821 627.234 375.246 622.947 364.958C618.662 354.671 611.375 352.101 611.375 352.101L527.794 342.67C527.794 342.67 465.643 337.956 452.784 340.1C452.784 340.1 355.487 361.958 347.343 363.244C339.199 364.53 331.055 371.388 330.198 379.532C329.804 383.268 327.878 395.57 325.908 407.794C324.608 413.046 322.124 422.496 319.195 430.629C307.562 462.945 298.894 476.797 285.962 508.485C284.571 511.889 271.795 545.323 271.868 549.001C272.246 568.181 337.732 532.029 348.498 541.074C346.674 551.406 344.534 561.861 344.975 562.213C347.118 563.927 342.332 594.271 342.332 594.271H706.958C706.958 594.271 718.53 554.838 712.1 539.407Z" fill="white"/>
<path d="M712.1 539.407C705.672 523.978 674.382 466.542 659.38 435.681C644.379 404.821 627.234 375.246 622.947 364.958C618.662 354.671 611.375 352.101 611.375 352.101L527.794 342.67C527.794 342.67 465.643 337.956 452.784 340.1C452.784 340.1 355.487 361.958 347.343 363.244C339.199 364.53 331.055 371.388 330.198 379.532C329.804 383.268 327.878 395.57 325.908 407.794C324.608 413.046 322.124 422.496 319.195 430.629C307.562 462.945 298.894 476.797 285.962 508.485C284.571 511.889 271.795 545.323 271.868 549.001C272.246 568.181 337.732 532.029 348.498 541.074C346.674 551.406 344.534 561.861 344.975 562.213C347.118 563.927 342.332 594.271 342.332 594.271H706.958C706.958 594.271 718.53 554.838 712.1 539.407Z" stroke="#1A2E35" stroke-width="1.33333" stroke-miterlimit="10"/>
<path d="M615.898 441.759L599.79 592.722Z" fill="white"/>
<path d="M615.898 441.759L599.79 592.722" stroke="#1A2E35" stroke-width="1.33333" stroke-miterlimit="10"/>
<path d="M618.207 420.127L616.976 431.657Z" fill="white"/>
<path d="M618.207 420.127L616.976 431.657" stroke="#1A2E35" stroke-width="1.33333" stroke-miterlimit="10"/>
<path d="M633.609 446.898C635.032 444.457 636.471 442.217 637.908 440.257" stroke="#1A2E35" stroke-width="1.33333" stroke-miterlimit="10"/>
<path d="M609.641 505.782C609.641 505.782 618.445 476.973 629.103 455.354" stroke="#1A2E35" stroke-width="1.33333" stroke-miterlimit="10"/>
<path d="M656.68 487.638C661.378 486.048 666.036 485.39 670.456 486.082" stroke="#1A2E35" stroke-width="1.33333" stroke-miterlimit="10"/>
<path d="M606.643 529.337C606.643 529.337 626.247 503.736 647.515 491.801" stroke="#1A2E35" stroke-width="1.33333" stroke-miterlimit="10"/>
<path d="M681.478 516.658C690.115 522.186 696.839 529.682 697.866 531.479" stroke="#1A2E35" stroke-width="1.33333" stroke-miterlimit="10"/>
<path d="M625.487 522.484C625.487 522.484 646.901 511.35 662.747 510.494C665.919 510.322 669.16 510.94 672.329 512.063" stroke="#1A2E35" stroke-width="1.33333" stroke-miterlimit="10"/>
<path d="M444.766 359.637C444.766 359.637 441.933 374.509 441.933 385.135C441.934 396.137 441.984 408.657 444.374 419.235C450.953 418.526 457.686 418.715 464.302 418.553C459.016 423.475 453.728 428.398 448.441 433.321C447.965 433.763 447.46 434.263 447.389 434.909C447.316 435.593 447.75 436.217 448.164 436.765C466.244 460.765 481.805 487.261 505.649 506.186C497.297 499.503 544.53 441.609 549.532 434.913C550.037 434.237 530.924 416.077 529.733 414.887C539.416 414.407 549.1 413.931 558.782 413.458C558.782 413.458 563.74 397.879 554.534 366.719C545.328 335.558 511.09 315.719 492.214 321.395C473.338 327.071 449.016 344.057 444.766 359.637Z" fill="white"/>
<path d="M444.766 359.637C444.766 359.637 441.933 374.509 441.933 385.135C441.934 396.137 441.984 408.657 444.374 419.235C450.953 418.526 457.686 418.715 464.302 418.553C459.016 423.475 453.728 428.398 448.441 433.321C447.965 433.763 447.46 434.263 447.389 434.909C447.316 435.593 447.75 436.217 448.164 436.765C466.244 460.765 481.805 487.261 505.649 506.186C497.297 499.503 544.53 441.609 549.532 434.913C550.037 434.237 530.924 416.077 529.733 414.887C539.416 414.407 549.1 413.931 558.782 413.458C558.782 413.458 563.74 397.879 554.534 366.719C545.328 335.558 511.09 315.719 492.214 321.395C473.338 327.071 449.016 344.057 444.766 359.637Z" stroke="#1A2E35" stroke-width="1.33333" stroke-miterlimit="10"/>
<path d="M442.926 230.8C442.926 230.8 417.638 262.089 413.779 285.664C409.922 309.238 416.351 330.669 415.064 350.385C413.779 370.102 411.207 380.818 408.207 398.821C405.207 416.822 410.35 433.538 410.35 433.538L439.068 433.968L443.783 409.106L446.783 434.825C446.783 434.825 453.212 435.253 456.642 434.825C460.071 434.396 472.928 433.538 472.928 433.538C472.928 433.538 469.928 423.68 466.928 410.822C461.212 386.322 460.927 388.961 460.927 370.96C460.927 352.957 467.786 286.949 473.787 270.233C479.787 253.517 486.216 231.229 486.216 231.229C486.216 231.229 461.786 214.941 442.926 230.8Z" fill="#1A2E35"/>
<path d="M442.926 230.8C442.926 230.8 417.638 262.089 413.779 285.664C409.922 309.238 416.351 330.669 415.064 350.385C413.779 370.102 411.207 380.818 408.207 398.821C405.207 416.822 410.35 433.538 410.35 433.538L439.068 433.968L443.783 409.106L446.783 434.825C446.783 434.825 453.212 435.253 456.642 434.825C460.071 434.396 472.928 433.538 472.928 433.538C472.928 433.538 469.928 423.68 466.928 410.822C461.212 386.322 460.927 388.961 460.927 370.96C460.927 352.957 467.786 286.949 473.787 270.233C479.787 253.517 486.216 231.229 486.216 231.229C486.216 231.229 461.786 214.941 442.926 230.8Z" stroke="#1A2E35" stroke-width="1.33333" stroke-miterlimit="10"/>
<path d="M563.286 216.784C563.286 216.784 588.576 250.221 592.432 275.413C596.29 300.605 589.861 323.507 591.148 344.577C592.432 365.647 595.004 377.097 598.005 396.336C601.005 415.573 595.862 433.436 595.862 433.436L567.144 433.895L562.428 407.328L559.428 434.812C559.428 434.812 552.998 435.269 549.57 434.812C546.142 434.353 533.282 433.436 533.282 433.436C533.282 433.436 536.282 422.903 539.284 409.16C545 382.979 545.284 385.801 545.284 366.563C545.284 347.325 538.425 276.787 532.425 258.923C526.425 241.06 519.994 217.243 519.994 217.243C519.994 217.243 544.426 199.837 563.286 216.784Z" fill="#1A2E35"/>
<path d="M563.286 216.784C563.286 216.784 588.576 250.221 592.432 275.413C596.29 300.605 589.861 323.507 591.148 344.577C592.432 365.647 595.004 377.097 598.005 396.336C601.005 415.573 595.862 433.436 595.862 433.436L567.144 433.895L562.428 407.328L559.428 434.812C559.428 434.812 552.998 435.269 549.57 434.812C546.142 434.353 533.282 433.436 533.282 433.436C533.282 433.436 536.282 422.903 539.284 409.16C545 382.979 545.284 385.801 545.284 366.563C545.284 347.325 538.425 276.787 532.425 258.923C526.425 241.06 519.994 217.243 519.994 217.243C519.994 217.243 544.426 199.837 563.286 216.784Z" stroke="#1A2E35" stroke-width="1.33333" stroke-miterlimit="10"/>
<path d="M436.741 308.549C436.741 308.549 430.495 281.377 432.638 259.946C434.782 238.515 448.069 215.798 467.786 206.367C487.502 196.938 521.791 196.938 547.938 206.367C574.085 215.798 579.657 253.517 576.657 273.233C573.655 292.95 569.798 309.666 569.37 311.381C568.941 313.095 562.511 325.097 558.225 326.811C553.938 328.525 550.081 299.379 530.793 292.093C511.505 284.806 485.787 301.951 471.643 306.666C457.498 311.381 448.926 320.81 448.926 320.81C448.926 320.81 438.271 318.577 436.741 308.549Z" fill="#1A2E35"/>
<path d="M436.741 308.549C436.741 308.549 430.495 281.377 432.638 259.946C434.782 238.515 448.069 215.798 467.786 206.367C487.502 196.938 521.791 196.938 547.938 206.367C574.085 215.798 579.657 253.517 576.657 273.233C573.655 292.95 569.798 309.666 569.37 311.381C568.941 313.095 562.511 325.097 558.225 326.811C553.938 328.525 550.081 299.379 530.793 292.093C511.505 284.806 485.787 301.951 471.643 306.666C457.498 311.381 448.926 320.81 448.926 320.81C448.926 320.81 438.271 318.577 436.741 308.549Z" stroke="#1A2E35" stroke-width="1.33333" stroke-miterlimit="10"/>
<path d="M477.215 392.391C477.215 392.391 480.215 418.965 487.074 427.967C493.931 436.968 499.503 446.825 499.503 446.825C499.503 446.825 504.218 438.681 510.219 427.967C516.219 417.251 520.078 396.248 520.078 396.248C520.078 396.248 487.074 397.105 477.215 392.391Z" fill="#DADADA"/>
<path d="M477.215 392.391C477.215 392.391 480.215 418.965 487.074 427.967C493.931 436.968 499.503 446.825 499.503 446.825C499.503 446.825 504.218 438.681 510.219 427.967C516.219 417.251 520.078 396.248 520.078 396.248C520.078 396.248 487.074 397.105 477.215 392.391Z" stroke="#1A2E35" stroke-width="1.33333" stroke-miterlimit="10"/>
<path d="M558.633 316.018C558.633 316.018 563.711 304.367 569.089 307.354C574.466 310.342 568.493 329.462 564.309 336.631C560.126 343.802 553.255 344.998 553.255 344.998L558.633 316.018Z" fill="#DADADA"/>
<path d="M558.633 316.018C558.633 316.018 563.711 304.367 569.089 307.354C574.466 310.342 568.493 329.462 564.309 336.631C560.126 343.802 553.255 344.998 553.255 344.998L558.633 316.018Z" stroke="#1A2E35" stroke-width="1.33333" stroke-miterlimit="10"/>
<path d="M448.094 310.64C448.094 310.64 439.423 298.181 436.74 308.549C432.26 325.877 448.691 342.308 448.691 342.308L448.094 310.64Z" fill="#DADADA"/>
<path d="M448.094 310.64C448.094 310.64 439.423 298.181 436.74 308.549C432.26 325.877 448.691 342.308 448.691 342.308L448.094 310.64Z" stroke="#1A2E35" stroke-width="1.33333" stroke-miterlimit="10"/>
<path d="M446.814 293.204C446.814 293.204 481.148 294.635 500.221 284.144C519.296 273.653 527.401 255.533 527.401 255.533C527.401 255.533 541.23 284.621 546.952 290.343C552.674 296.065 560.781 304.172 560.781 304.172C560.781 304.172 554.801 338.521 551.462 354.257C548.125 369.995 532.17 392.388 523.109 398.587C514.049 404.787 504.037 410.985 496.884 409.555C489.73 408.124 475.314 398.857 464.824 385.029C454.333 371.201 451.076 366.627 448.692 342.308C446.308 317.988 446.814 293.204 446.814 293.204Z" fill="#DADADA"/>
<path d="M446.814 293.204C446.814 293.204 481.148 294.635 500.221 284.144C519.296 273.653 527.401 255.533 527.401 255.533C527.401 255.533 541.23 284.621 546.952 290.343C552.674 296.065 560.781 304.172 560.781 304.172C560.781 304.172 554.801 338.521 551.462 354.257C548.125 369.995 532.17 392.388 523.109 398.587C514.049 404.787 504.037 410.985 496.884 409.555C489.73 408.124 475.314 398.857 464.824 385.029C454.333 371.201 451.076 366.627 448.692 342.308C446.308 317.988 446.814 293.204 446.814 293.204Z" stroke="#1A2E35" stroke-width="1.33333" stroke-miterlimit="10"/>
<path d="M486.633 361.726C486.633 361.726 495.595 372.481 509.937 363.221" stroke="#1A2E35" stroke-width="1.33333" stroke-miterlimit="10"/>
<path d="M480.359 373.379C480.359 373.379 486.931 380.25 498.882 379.951C510.831 379.652 518.301 371.884 518.301 371.884" stroke="#1A2E35" stroke-width="1.33333" stroke-miterlimit="10"/>
<path d="M458.263 308.139C470.312 302.494 484.84 310.225 484.84 310.225C484.84 310.225 488.1 313.781 487.424 308.905C486.747 304.029 480.296 302.306 469.97 302.567C459.643 302.827 458.263 308.139 458.263 308.139Z" fill="#1A2E35"/>
<path d="M458.263 308.139C470.312 302.494 484.84 310.225 484.84 310.225C484.84 310.225 488.1 313.781 487.424 308.905C486.747 304.029 480.296 302.306 469.97 302.567C459.643 302.827 458.263 308.139 458.263 308.139Z" stroke="#1A2E35" stroke-width="1.33333" stroke-miterlimit="10"/>
<path d="M543.686 314.266C531.819 308.248 517.058 315.524 517.058 315.524C517.058 315.524 513.689 318.976 514.517 314.124C515.343 309.271 521.845 307.751 532.158 308.332C542.474 308.912 543.686 314.266 543.686 314.266Z" fill="#1A2E35"/>
<path d="M543.686 314.266C531.819 308.248 517.058 315.524 517.058 315.524C517.058 315.524 513.689 318.976 514.517 314.124C515.343 309.271 521.845 307.751 532.158 308.332C542.474 308.912 543.686 314.266 543.686 314.266Z" stroke="#1A2E35" stroke-width="1.33333" stroke-miterlimit="10"/>
<path d="M477.239 331.403C477.239 334.646 475.516 337.275 473.391 337.275C471.267 337.275 469.544 334.646 469.544 331.403C469.544 328.161 471.267 325.531 473.391 325.531C475.516 325.531 477.239 328.161 477.239 331.403Z" fill="#1A2E35"/>
<path d="M465.495 325.937C465.495 325.937 476.833 324.722 480.884 328.771" stroke="#1A2E35" stroke-width="1.33333" stroke-miterlimit="10"/>
<path d="M529.346 336.267C529.346 339.511 527.624 342.139 525.498 342.139C523.374 342.139 521.652 339.511 521.652 336.267C521.652 333.024 523.374 330.395 525.498 330.395C527.624 330.395 529.346 333.024 529.346 336.267Z" fill="#1A2E35"/>
<path d="M517.602 330.8C517.602 330.8 528.942 329.585 532.991 333.635" stroke="#1A2E35" stroke-width="1.33333" stroke-miterlimit="10"/>
<path d="M443.911 305.561C443.911 305.561 469.903 315.421 497.387 317.811C524.874 320.2 559.23 311.536 561.919 311.237C564.607 310.939 560.426 325.579 557.737 335.736C555.049 345.893 552.658 351.271 541.605 353.96C530.55 356.648 518.601 357.247 513.819 352.764C509.039 348.283 502.167 329.461 497.986 329.76C493.803 330.06 486.633 346.192 481.554 350.076C476.475 353.96 460.045 349.479 450.782 344.1C441.522 338.723 440.027 302.573 443.911 305.561Z" stroke="white" stroke-width="1.33333" stroke-miterlimit="10"/>
<path d="M443.911 310.176C443.911 310.176 469.903 320.034 497.387 322.425C524.874 324.814 559.23 316.15 561.919 315.852C562.166 315.824 562.355 315.925 562.493 316.136C562.969 313.096 562.922 311.126 561.919 311.237C559.23 311.537 524.874 320.201 497.387 317.81C469.903 315.421 443.911 305.561 443.911 305.561C442.414 304.41 441.721 309.08 441.958 315.552C442.135 311.66 442.803 309.324 443.911 310.176Z" fill="#5AE4A7"/>
<path d="M443.911 310.176C443.911 310.176 469.903 320.034 497.387 322.425C524.874 324.814 559.23 316.15 561.919 315.852C562.166 315.824 562.355 315.925 562.493 316.136C562.969 313.096 562.922 311.126 561.919 311.237C559.23 311.537 524.874 320.201 497.387 317.81C469.903 315.421 443.911 305.561 443.911 305.561C442.414 304.41 441.721 309.08 441.958 315.552C442.135 311.66 442.803 309.324 443.911 310.176Z" stroke="#1A2E35" stroke-width="1.33333" stroke-miterlimit="10"/>
<path d="M327.838 467.597C327.838 467.597 308.152 489.204 293.268 504.088C278.384 518.971 264.46 556.421 269.262 567.945C274.063 579.468 285.587 588.591 301.911 592.432C318.235 596.273 329.279 589.069 340.802 578.508C352.324 567.945 374.891 491.125 374.891 491.125L327.838 467.597Z" fill="#DADADA"/>
<path d="M327.838 467.597C327.838 467.597 308.152 489.204 293.268 504.088C278.384 518.971 264.46 556.421 269.262 567.945C274.063 579.468 285.587 588.591 301.911 592.432C318.235 596.273 329.279 589.069 340.802 578.508C352.324 567.945 374.891 491.125 374.891 491.125L327.838 467.597Z" stroke="#1A2E35" stroke-width="1.33333" stroke-miterlimit="10"/>
<path d="M269.262 567.945C274.064 579.469 285.586 588.591 301.912 592.432C318.236 596.273 329.278 589.071 340.801 578.508C344.548 575.075 349.46 564.637 354.385 552.116C347.513 554.32 328.844 558.795 311.993 549.22C290.868 537.217 293.269 504.088 293.269 504.088C278.385 518.972 264.461 556.421 269.262 567.945Z" fill="white"/>
<path d="M269.262 567.945C274.064 579.469 285.586 588.591 301.912 592.432C318.236 596.273 329.278 589.071 340.801 578.508C344.548 575.075 349.46 564.637 354.385 552.116C347.513 554.32 328.844 558.795 311.993 549.22C290.868 537.217 293.269 504.088 293.269 504.088C278.385 518.972 264.461 556.421 269.262 567.945Z" stroke="#1A2E35" stroke-width="1.33333" stroke-miterlimit="10"/>
<path d="M337.484 401.392C337.484 401.392 342.628 431.824 342.628 433.968C342.628 436.109 320.34 471.256 320.34 471.256C320.34 471.256 322.483 473.4 335.342 486.688C348.2 499.976 361.916 503.404 367.916 503.404H376.06C376.06 503.404 380.347 473.4 385.49 461.826C390.634 450.253 391.92 446.397 394.063 443.396C396.206 440.396 400.063 437.396 403.064 428.822C406.064 420.252 408.636 394.104 411.636 387.676C414.636 381.246 425.78 370.96 426.21 364.958C426.638 358.958 427.067 355.957 417.638 358.529C408.207 361.101 400.92 370.53 398.778 375.246C396.635 379.96 398.778 380.817 394.92 376.53C391.063 372.245 385.919 364.958 385.919 364.958L340.056 389.39C340.056 389.39 335.342 396.248 337.484 401.392Z" fill="#AAAAAA"/>
<path d="M337.484 401.392C337.484 401.392 342.628 431.824 342.628 433.968C342.628 436.109 320.34 471.256 320.34 471.256C320.34 471.256 322.483 473.4 335.342 486.688C348.2 499.976 361.916 503.404 367.916 503.404H376.06C376.06 503.404 380.347 473.4 385.49 461.826C390.634 450.253 391.92 446.397 394.063 443.396C396.206 440.396 400.063 437.396 403.064 428.822C406.064 420.252 408.636 394.104 411.636 387.676C414.636 381.246 425.78 370.96 426.21 364.958C426.638 358.958 427.067 355.957 417.638 358.529C408.207 361.101 400.92 370.53 398.778 375.246C396.635 379.96 398.778 380.817 394.92 376.53C391.063 372.245 385.919 364.958 385.919 364.958L340.056 389.39C340.056 389.39 335.342 396.248 337.484 401.392Z" stroke="#1A2E35" stroke-width="1.33333" stroke-miterlimit="10"/>
<path d="M376.061 415.106C376.061 415.106 381.205 421.536 379.49 432.681" stroke="#1A2E35" stroke-width="1.33333" stroke-miterlimit="10"/>
<path d="M440.525 452.615C440.015 452.849 439.411 452.629 439.171 452.121L383.215 333.272L386.899 331.572L441.027 451.264C441.259 451.776 441.034 452.379 440.525 452.615Z" fill="#1A2E35"/>
<path d="M440.525 452.615C440.015 452.849 439.411 452.629 439.171 452.121L383.215 333.272L386.899 331.572L441.027 451.264C441.259 451.776 441.034 452.379 440.525 452.615Z" stroke="#1A2E35" stroke-width="1.33333" stroke-miterlimit="10"/>
<path d="M435.467 433.471L429.241 436.345L372.486 313.365C371.693 311.645 372.443 309.609 374.162 308.814C375.882 308.022 377.919 308.773 378.713 310.491L435.467 433.471Z" fill="white"/>
<path d="M435.467 433.471L429.241 436.345L372.486 313.365C371.693 311.645 372.443 309.609 374.162 308.814C375.882 308.022 377.919 308.773 378.713 310.491L435.467 433.471Z" stroke="#1A2E35" stroke-width="1.33333" stroke-miterlimit="10"/>
<path d="M431.577 432.889L412.167 392.14" stroke="#5AE4A7" stroke-width="1.33333" stroke-miterlimit="10"/>
<path d="M382.919 364.53C382.919 364.53 394.492 379.103 399.635 383.39C404.779 387.675 411.208 389.819 412.065 382.533C412.921 375.246 403.493 362.815 398.349 355.101C393.205 347.386 389.348 343.527 383.347 348.242C377.347 352.957 371.775 368.389 371.775 368.389L382.919 364.53Z" fill="#AAAAAA"/>
<path d="M382.919 364.53C382.919 364.53 394.492 379.103 399.635 383.39C404.779 387.675 411.208 389.819 412.065 382.533C412.921 375.246 403.493 362.815 398.349 355.101C393.205 347.386 389.348 343.527 383.347 348.242C377.347 352.957 371.775 368.389 371.775 368.389L382.919 364.53Z" stroke="#1A2E35" stroke-width="1.33333" stroke-miterlimit="10"/>
<path d="M351.629 406.963C351.629 406.963 355.058 418.965 360.202 419.393C365.345 419.823 365.345 417.679 371.774 414.678C378.204 411.678 382.918 409.963 387.633 407.821C392.349 405.677 397.064 399.677 397.064 394.103C397.064 388.533 382.918 364.53 382.918 364.53C382.918 364.53 381.633 361.53 376.061 362.815C370.489 364.102 340.057 378.246 336.628 382.961C333.198 387.675 333.198 391.103 335.341 398.39C337.485 405.677 341.77 419.393 341.77 419.393" fill="#AAAAAA"/>
<path d="M351.629 406.963C351.629 406.963 355.058 418.965 360.202 419.393C365.345 419.823 365.345 417.679 371.774 414.678C378.204 411.678 382.918 409.963 387.633 407.821C392.349 405.677 397.064 399.677 397.064 394.103C397.064 388.533 382.918 364.53 382.918 364.53C382.918 364.53 381.633 361.53 376.061 362.815C370.489 364.102 340.057 378.246 336.628 382.961C333.198 387.675 333.198 391.103 335.341 398.39C337.485 405.677 341.77 419.393 341.77 419.393" stroke="#1A2E35" stroke-width="1.33333" stroke-miterlimit="10"/>
<path d="M367.488 368.388C367.488 368.388 382.062 390.248 382.919 395.391C383.776 400.533 384.204 407.82 381.632 410.392" stroke="#1A2E35" stroke-width="1.33333" stroke-miterlimit="10"/>
<path d="M354.201 373.102C354.201 373.102 366.203 392.818 370.06 399.248C373.917 405.677 374.775 412.106 371.775 414.678C371.775 414.678 374.775 422.822 367.917 433.537" stroke="#1A2E35" stroke-width="1.33333" stroke-miterlimit="10"/>
<path d="M346.486 404.82L358.487 409.963" stroke="#1A2E35" stroke-width="1.33333" stroke-miterlimit="10"/>
<path d="M701.291 594.006C701.291 594.006 708.571 573.877 693.154 551.608C677.737 529.337 632.767 527.624 619.063 529.765C605.358 531.908 581.374 541.329 568.098 547.324C554.821 553.32 527.841 552.464 525.27 552.034C522.702 551.608 483.301 546.896 473.878 548.609C464.457 550.322 464.457 558.46 463.599 561.03C462.743 563.598 454.178 579.873 453.321 585.441C452.465 591.009 456.319 593.149 458.461 593.578C460.602 594.006 462.743 594.864 462.743 594.864L701.291 594.006Z" fill="#DADADA"/>
<path d="M701.291 594.006C701.291 594.006 708.571 573.877 693.154 551.608C677.737 529.337 632.767 527.624 619.063 529.765C605.358 531.908 581.374 541.329 568.098 547.324C554.821 553.32 527.841 552.464 525.27 552.034C522.702 551.608 483.301 546.896 473.878 548.609C464.457 550.322 464.457 558.46 463.599 561.03C462.743 563.598 454.178 579.873 453.321 585.441C452.465 591.009 456.319 593.149 458.461 593.578C460.602 594.006 462.743 594.864 462.743 594.864L701.291 594.006Z" stroke="#1A2E35" stroke-width="1.33333" stroke-miterlimit="10"/>
<path d="M525.271 552.035C522.701 551.609 483.3 546.897 473.879 548.61C464.457 550.323 464.457 558.459 463.6 561.03C462.743 563.599 454.179 579.874 453.321 585.442C452.465 591.009 456.32 593.15 458.461 593.578C460.603 594.007 462.743 594.863 462.743 594.863L581.283 594.438C581.683 591.785 581.92 588.545 581.803 584.585C581.375 570.023 568.099 547.325 568.099 547.325C554.823 553.321 527.841 552.463 525.271 552.035Z" fill="#AAAAAA"/>
<path d="M525.271 552.035C522.701 551.609 483.3 546.897 473.879 548.61C464.457 550.323 464.457 558.459 463.6 561.03C462.743 563.599 454.179 579.874 453.321 585.442C452.465 591.009 456.32 593.15 458.461 593.578C460.603 594.007 462.743 594.863 462.743 594.863L581.283 594.438C581.683 591.785 581.92 588.545 581.803 584.585C581.375 570.023 568.099 547.325 568.099 547.325C554.823 553.321 527.841 552.463 525.271 552.035Z" stroke="#1A2E35" stroke-width="1.33333" stroke-miterlimit="10"/>
<path d="M487.583 551.18C487.583 551.18 482.873 551.608 480.731 555.034C478.59 558.46 479.446 558.888 475.591 568.31C471.738 577.732 465.313 586.298 468.311 590.152C471.309 594.006 470.881 594.434 477.305 594.864" stroke="#1A2E35" stroke-width="1.33333" stroke-miterlimit="10"/>
<path d="M504.286 554.605C504.286 554.605 499.877 555 497.873 558.157C495.869 561.315 496.67 561.709 493.064 570.393C489.456 579.076 483.444 586.968 486.249 590.521C489.054 594.075 488.654 594.468 494.666 594.863" stroke="#1A2E35" stroke-width="1.33333" stroke-miterlimit="10"/>
<path d="M515.421 561.03C515.421 561.03 512.119 561.361 510.618 564.014C509.117 566.669 509.718 567.001 507.017 574.297C504.315 581.595 499.813 588.229 501.914 591.215C504.014 594.199 503.715 594.531 508.218 594.863C508.218 594.863 512.423 594.435 516.278 593.15C520.133 591.865 522.274 588.867 521.417 586.298C521.417 586.298 524.415 588.439 530.41 590.581" stroke="#1A2E35" stroke-width="1.33333" stroke-miterlimit="10"/>
<path d="M516.706 586.725C516.706 586.725 523.987 581.586 527.412 578.16" stroke="#1A2E35" stroke-width="1.33333" stroke-miterlimit="10"/>
</g>
<mask id="mask5_277_517" style="mask-type:luminance" maskUnits="userSpaceOnUse" x="0" y="0" width="1000" height="667">
<path d="M0 -0.000123024H1000V666.667H0V-0.000123024Z" fill="white"/>
</mask>
<g mask="url(#mask5_277_517)">
<path d="M413.505 519.618C413.505 519.618 409.952 502.629 408.281 484.933C406.609 467.239 416.009 451.342 416.009 451.342" stroke="#1A2E35" stroke-width="2.66667" stroke-miterlimit="10"/>
<path d="M410.541 501.334C410.541 501.334 403.729 474.093 391.155 460.562" stroke="#1A2E35" stroke-width="2.66667" stroke-miterlimit="10"/>
<path d="M407.745 474.241C407.745 474.241 402.057 471.17 394.54 471.591" stroke="#1A2E35" stroke-width="2.66667" stroke-miterlimit="10"/>
<path d="M407.461 479.876C407.461 479.876 413.002 472.191 419.93 473.064C426.858 473.936 428.468 476.469 428.468 476.469" stroke="#1A2E35" stroke-width="2.66667" stroke-miterlimit="10"/>
<path d="M399.723 471.549C399.723 471.549 399.955 463.128 396.369 453.329C392.784 443.529 385.529 443.109 377.235 443.656C368.94 444.202 349.427 446.966 349.427 446.966C349.427 446.966 360.791 455.505 367.825 461.949C374.859 468.394 383.017 469.466 388.779 470.529C394.54 471.59 399.723 471.549 399.723 471.549Z" fill="#5AE4A7"/>
<path d="M399.723 471.549C399.723 471.549 399.955 463.128 396.369 453.329C392.784 443.529 385.529 443.109 377.235 443.656C368.94 444.202 349.427 446.966 349.427 446.966C349.427 446.966 360.791 455.505 367.825 461.949C374.859 468.394 383.017 469.466 388.779 470.529C394.54 471.59 399.723 471.549 399.723 471.549Z" stroke="#1A2E35" stroke-width="1.33333" stroke-miterlimit="10"/>
<path d="M408.418 468.542C408.418 468.542 405.306 454.276 408.586 444.96C411.867 435.645 420.773 429.012 429.067 428.464C437.362 427.918 448.634 428.486 448.634 428.486C448.634 428.486 442.419 441.87 432.399 451.478C422.381 461.088 408.418 468.542 408.418 468.542Z" fill="#5AE4A7"/>
<path d="M408.418 468.542C408.418 468.542 405.306 454.276 408.586 444.96C411.867 435.645 420.773 429.012 429.067 428.464C437.362 427.918 448.634 428.486 448.634 428.486C448.634 428.486 442.419 441.87 432.399 451.478C422.381 461.088 408.418 468.542 408.418 468.542Z" stroke="#1A2E35" stroke-width="1.33333" stroke-miterlimit="10"/>
<path d="M399.723 471.549C399.723 471.549 395.276 466.283 384.773 467.985C374.269 469.688 372.472 480.759 373.417 486.593C374.363 492.429 372.387 499.936 372.387 499.936C372.387 499.936 377.455 496.719 386.759 487.625C396.064 478.529 395.307 473.861 399.723 471.549Z" fill="#5AE4A7"/>
<path d="M399.723 471.549C399.723 471.549 395.276 466.283 384.773 467.985C374.269 469.688 372.472 480.759 373.417 486.593C374.363 492.429 372.387 499.936 372.387 499.936C372.387 499.936 377.455 496.719 386.759 487.625C396.064 478.529 395.307 473.861 399.723 471.549Z" stroke="#1A2E35" stroke-width="1.33333" stroke-miterlimit="10"/>
<path d="M414.936 474.273C414.936 474.273 420.678 465.357 427.732 467.008C434.786 468.658 440.358 468.554 445.058 475.377C449.758 482.201 446.371 500.716 446.371 500.716C446.371 500.716 442.387 493.377 436.447 488.75C430.507 484.125 422.128 474.304 414.936 474.273Z" fill="#5AE4A7"/>
<path d="M414.936 474.273C414.936 474.273 420.678 465.357 427.732 467.008C434.786 468.658 440.358 468.554 445.058 475.377C449.758 482.201 446.371 500.716 446.371 500.716C446.371 500.716 442.387 493.377 436.447 488.75C430.507 484.125 422.128 474.304 414.936 474.273Z" stroke="#1A2E35" stroke-width="1.33333" stroke-miterlimit="10"/>
<path d="M499.912 521.554C499.912 521.554 500.7 504.214 499.518 486.48C498.335 468.746 486.514 454.56 486.514 454.56" stroke="#1A2E35" stroke-width="2.66667" stroke-miterlimit="10"/>
<path d="M499.912 503.032C499.912 503.032 502.276 475.052 512.523 459.682" stroke="#1A2E35" stroke-width="2.66667" stroke-miterlimit="10"/>
<path d="M498.335 475.84C498.335 475.84 503.458 471.9 510.946 471.111" stroke="#1A2E35" stroke-width="2.66667" stroke-miterlimit="10"/>
<path d="M499.518 481.356C499.518 481.356 492.819 474.658 486.119 476.628C479.419 478.599 478.238 481.356 478.238 481.356" stroke="#1A2E35" stroke-width="2.66667" stroke-miterlimit="10"/>
<path d="M505.823 471.899C505.823 471.899 504.247 463.623 506.218 453.377C508.187 443.13 515.282 441.554 523.558 440.765C531.834 439.978 551.538 439.585 551.538 439.585C551.538 439.585 541.684 449.83 535.774 457.317C529.862 464.806 521.98 467.17 516.463 469.141C510.947 471.11 505.823 471.899 505.823 471.899Z" fill="#5AE4A7"/>
<path d="M505.823 471.899C505.823 471.899 504.247 463.623 506.218 453.377C508.187 443.13 515.282 441.554 523.558 440.765C531.834 439.978 551.538 439.585 551.538 439.585C551.538 439.585 541.684 449.83 535.774 457.317C529.862 464.806 521.98 467.17 516.463 469.141C510.947 471.11 505.823 471.899 505.823 471.899Z" stroke="#1A2E35" stroke-width="1.33333" stroke-miterlimit="10"/>
<path d="M496.759 470.323C496.759 470.323 497.547 455.741 492.818 447.072C488.09 438.403 478.236 433.279 469.96 434.067C461.686 434.855 450.651 437.22 450.651 437.22C450.651 437.22 458.926 449.436 470.355 457.317C481.784 465.199 496.759 470.323 496.759 470.323Z" fill="#5AE4A7"/>
<path d="M496.759 470.323C496.759 470.323 497.547 455.741 492.818 447.072C488.09 438.403 478.236 433.279 469.96 434.067C461.686 434.855 450.651 437.22 450.651 437.22C450.651 437.22 458.926 449.436 470.355 457.317C481.784 465.199 496.759 470.323 496.759 470.323Z" stroke="#1A2E35" stroke-width="1.33333" stroke-miterlimit="10"/>
<path d="M505.823 471.899C505.823 471.899 509.37 465.987 520.011 465.987C530.651 465.987 534.198 476.629 534.198 482.538C534.198 488.45 537.351 495.543 537.351 495.543C537.351 495.543 531.834 493.179 521.192 485.693C510.552 478.205 510.552 473.475 505.823 471.899Z" fill="#5AE4A7"/>
<path d="M505.823 471.899C505.823 471.899 509.37 465.987 520.011 465.987C530.651 465.987 534.198 476.629 534.198 482.538C534.198 488.45 537.351 495.543 537.351 495.543C537.351 495.543 531.834 493.179 521.192 485.693C510.552 478.205 510.552 473.475 505.823 471.899Z" stroke="#1A2E35" stroke-width="1.33333" stroke-miterlimit="10"/>
<path d="M491.242 477.022C491.242 477.022 484.148 469.141 477.448 471.899C470.75 474.658 465.232 475.446 461.686 482.934C458.139 490.422 464.444 508.155 464.444 508.155C464.444 508.155 467.203 500.273 472.326 494.757C477.448 489.239 484.148 478.205 491.242 477.022Z" fill="#5AE4A7"/>
<path d="M491.242 477.022C491.242 477.022 484.148 469.141 477.448 471.899C470.75 474.658 465.232 475.446 461.686 482.934C458.139 490.422 464.444 508.155 464.444 508.155C464.444 508.155 467.203 500.273 472.326 494.757C477.448 489.239 484.148 478.205 491.242 477.022Z" stroke="#1A2E35" stroke-width="1.33333" stroke-miterlimit="10"/>
<path d="M455.38 521.948C455.38 521.948 455.38 483.721 454.198 465.988C453.016 448.253 441.193 434.066 441.193 434.066" stroke="#1A2E35" stroke-width="2.66667" stroke-miterlimit="10"/>
<path d="M454.592 482.539C454.592 482.539 456.956 454.56 467.202 439.19" stroke="#1A2E35" stroke-width="2.66667" stroke-miterlimit="10"/>
<path d="M453.016 455.347C453.016 455.347 458.138 451.406 465.626 450.618" stroke="#1A2E35" stroke-width="2.66667" stroke-miterlimit="10"/>
<path d="M454.198 460.864C454.198 460.864 447.498 454.166 440.799 456.135C434.099 458.107 432.917 460.864 432.917 460.864" stroke="#1A2E35" stroke-width="2.66667" stroke-miterlimit="10"/>
<path d="M460.503 451.406C460.503 451.406 458.926 443.13 460.897 432.884C462.867 422.638 469.961 421.062 478.237 420.273C486.513 419.486 506.218 419.092 506.218 419.092C506.218 419.092 496.365 429.337 490.454 436.825C484.542 444.313 476.661 446.677 471.143 448.649C465.626 450.618 460.503 451.406 460.503 451.406Z" fill="#5AE4A7"/>
<path d="M460.503 451.406C460.503 451.406 458.926 443.13 460.897 432.884C462.867 422.638 469.961 421.062 478.237 420.273C486.513 419.486 506.218 419.092 506.218 419.092C506.218 419.092 496.365 429.337 490.454 436.825C484.542 444.313 476.661 446.677 471.143 448.649C465.626 450.618 460.503 451.406 460.503 451.406Z" stroke="#1A2E35" stroke-width="1.33333" stroke-miterlimit="10"/>
<path d="M451.439 449.831C451.439 449.831 452.227 435.248 447.497 426.58C442.769 417.909 432.916 412.787 424.641 413.575C416.365 414.361 405.331 416.727 405.331 416.727C405.331 416.727 413.607 428.944 425.035 436.825C436.464 444.707 451.439 449.831 451.439 449.831Z" fill="#5AE4A7"/>
<path d="M451.439 449.831C451.439 449.831 452.227 435.248 447.497 426.58C442.769 417.909 432.916 412.787 424.641 413.575C416.365 414.361 405.331 416.727 405.331 416.727C405.331 416.727 413.607 428.944 425.035 436.825C436.464 444.707 451.439 449.831 451.439 449.831Z" stroke="#1A2E35" stroke-width="1.33333" stroke-miterlimit="10"/>
<path d="M460.503 451.406C460.503 451.406 464.05 445.494 474.69 445.494C485.331 445.494 488.878 456.135 488.878 462.046C488.878 467.958 492.03 475.051 492.03 475.051C492.03 475.051 486.513 472.687 475.873 465.199C465.233 457.711 465.233 452.983 460.503 451.406Z" fill="#5AE4A7"/>
<path d="M460.503 451.406C460.503 451.406 464.05 445.494 474.69 445.494C485.331 445.494 488.878 456.135 488.878 462.046C488.878 467.958 492.03 475.051 492.03 475.051C492.03 475.051 486.513 472.687 475.873 465.199C465.233 457.711 465.233 452.983 460.503 451.406Z" stroke="#1A2E35" stroke-width="1.33333" stroke-miterlimit="10"/>
<path d="M445.922 456.53C445.922 456.53 438.829 448.648 432.129 451.406C425.429 454.166 419.913 454.952 416.366 462.442C412.818 469.928 419.123 487.663 419.123 487.663C419.123 487.663 421.882 479.78 427.006 474.264C432.129 468.746 438.829 457.712 445.922 456.53Z" fill="#5AE4A7"/>
<path d="M445.922 456.53C445.922 456.53 438.829 448.648 432.129 451.406C425.429 454.166 419.913 454.952 416.366 462.442C412.818 469.928 419.123 487.663 419.123 487.663C419.123 487.663 421.882 479.78 427.006 474.264C432.129 468.746 438.829 457.712 445.922 456.53Z" stroke="#1A2E35" stroke-width="1.33333" stroke-miterlimit="10"/>
<path d="M472.165 559.745C472.165 559.745 454.179 560.602 451.609 562.314C449.039 564.027 440.045 571.735 432.764 574.306C425.484 576.875 427.196 583.299 434.477 585.441C441.759 587.582 446.041 583.299 449.895 582.442C453.749 581.586 465.741 581.159 465.741 581.159L472.165 559.745Z" fill="#AAAAAA"/>
<path d="M472.165 559.745C472.165 559.745 454.179 560.602 451.609 562.314C449.039 564.027 440.045 571.735 432.764 574.306C425.484 576.875 427.196 583.299 434.477 585.441C441.759 587.582 446.041 583.299 449.895 582.442C453.749 581.586 465.741 581.159 465.741 581.159L472.165 559.745Z" stroke="#1A2E35" stroke-width="1.33333" stroke-miterlimit="10"/>
<path d="M415.26 586.298H407.87C404.352 586.298 401.5 583.446 401.5 579.929V482.655H421.63V579.929C421.63 583.446 418.778 586.298 415.26 586.298Z" stroke="#1A2E35" stroke-width="1.33333" stroke-miterlimit="10"/>
<path d="M413.732 581.159H409.399C407.336 581.159 405.663 579.485 405.663 577.423V506.211H417.467V577.423C417.467 579.485 415.795 581.159 413.732 581.159Z" fill="#5AE4A7"/>
<path d="M413.732 581.159H409.399C407.336 581.159 405.663 579.485 405.663 577.423V506.211H417.467V577.423C417.467 579.485 415.795 581.159 413.732 581.159Z" stroke="#1A2E35" stroke-width="1.33333" stroke-miterlimit="10"/>
<path d="M459.373 586.298H451.982C448.465 586.298 445.613 583.446 445.613 579.929V482.655H465.742V579.929C465.742 583.446 462.89 586.298 459.373 586.298Z" stroke="#1A2E35" stroke-width="1.33333" stroke-miterlimit="10"/>
<path d="M457.844 581.159H453.51C451.448 581.159 449.774 579.485 449.774 577.423V506.211H461.58V577.423C461.58 579.485 459.906 581.159 457.844 581.159Z" fill="#5AE4A7"/>
<path d="M457.844 581.159H453.51C451.448 581.159 449.774 579.485 449.774 577.423V506.211H461.58V577.423C461.58 579.485 459.906 581.159 457.844 581.159Z" stroke="#1A2E35" stroke-width="1.33333" stroke-miterlimit="10"/>
<path d="M503.485 586.298H496.095C492.577 586.298 489.725 583.446 489.725 579.929V482.655H509.854V579.929C509.854 583.446 507.003 586.298 503.485 586.298Z" stroke="#1A2E35" stroke-width="1.33333" stroke-miterlimit="10"/>
<path d="M501.956 581.159H497.622C495.56 581.159 493.888 579.485 493.888 577.423V506.211H505.692V577.423C505.692 579.485 504.02 581.159 501.956 581.159Z" fill="#5AE4A7"/>
<path d="M501.956 581.159H497.622C495.56 581.159 493.888 579.485 493.888 577.423V506.211H505.692V577.423C505.692 579.485 504.02 581.159 501.956 581.159Z" stroke="#1A2E35" stroke-width="1.33333" stroke-miterlimit="10"/>
<path d="M522.702 522.057H396.79V516.489H522.702V522.057Z" fill="white" stroke="#1A2E35" stroke-width="1.33333" stroke-miterlimit="10"/>
<path d="M518.848 594.862H525.271V504.497H518.848V594.862Z" fill="white" stroke="#1A2E35" stroke-width="1.33333" stroke-miterlimit="10"/>
<path d="M394.22 582.014H525.271V594.864H394.22V582.014Z" fill="white" stroke="#1A2E35" stroke-width="1.33333" stroke-miterlimit="10"/>
</g>
<mask id="mask6_277_517" style="mask-type:luminance" maskUnits="userSpaceOnUse" x="0" y="0" width="1000" height="667">
<path d="M0 -0.000123024H1000V666.667H0V-0.000123024Z" fill="white"/>
</mask>
<g mask="url(#mask6_277_517)">
<path d="M739.311 393.463C739.311 393.463 735.252 389.858 729.551 417.795C723.85 445.733 726.7 489.065 738.674 507.881C750.647 526.695 776.303 540.379 776.303 540.379L793.979 517.573C793.979 517.573 759.199 506.169 750.647 472.53C742.095 438.89 747.227 417.795 753.498 416.655C759.77 415.514 768.948 431.379 768.948 431.379L742.968 381.354L739.311 393.463Z" fill="white"/>
<path d="M739.311 393.463C739.311 393.463 735.252 389.858 729.551 417.795C723.85 445.733 726.7 489.065 738.674 507.881C750.647 526.695 776.303 540.379 776.303 540.379L793.979 517.573C793.979 517.573 759.199 506.169 750.647 472.53C742.095 438.89 747.227 417.795 753.498 416.655C759.77 415.514 768.948 431.379 768.948 431.379L742.968 381.354L739.311 393.463Z" stroke="#1A2E35" stroke-width="1.33333" stroke-miterlimit="10"/>
<path d="M744.375 417.225C744.375 414.392 742.077 412.093 739.243 412.093C736.409 412.093 734.112 414.392 734.112 417.225C734.112 420.058 736.409 422.357 739.243 422.357C742.077 422.357 744.375 420.058 744.375 417.225Z" fill="#1A2E35"/>
<path d="M744.375 417.225C744.375 414.392 742.077 412.093 739.243 412.093C736.409 412.093 734.112 414.392 734.112 417.225C734.112 420.058 736.409 422.357 739.243 422.357C742.077 422.357 744.375 420.058 744.375 417.225Z" stroke="#1A2E35" stroke-width="1.33333" stroke-miterlimit="10"/>
<path d="M742.466 417.225C742.466 415.445 741.023 414.004 739.243 414.004C737.465 414.004 736.022 415.445 736.022 417.225C736.022 419.005 737.465 420.446 739.243 420.446C741.023 420.446 742.466 419.005 742.466 417.225Z" fill="white"/>
<path d="M742.466 417.225C742.466 415.445 741.023 414.004 739.243 414.004C737.465 414.004 736.022 415.445 736.022 417.225C736.022 419.005 737.465 420.446 739.243 420.446C741.023 420.446 742.466 419.005 742.466 417.225Z" stroke="#1A2E35" stroke-width="1.33333" stroke-miterlimit="10"/>
<path d="M756.301 350.715L734.693 362.299L736.866 371.54L762.794 357.637L756.301 350.715Z" fill="white"/>
<path d="M756.301 350.715L734.693 362.299L736.866 371.54L762.794 357.637L756.301 350.715Z" stroke="#1A2E35" stroke-width="1.33333" stroke-miterlimit="10"/>
<path d="M756.301 350.715L734.693 362.299L700.749 298.985L722.355 287.401L756.301 350.715Z" fill="#1A2E35"/>
<path d="M756.301 350.715L734.693 362.299L700.749 298.985L722.355 287.401L756.301 350.715Z" stroke="#1A2E35" stroke-width="1.33333" stroke-miterlimit="10"/>
<path d="M724.495 291.391L702.888 302.975L700.748 298.986L722.356 287.4L724.495 291.391Z" fill="white"/>
<path d="M724.495 291.391L702.888 302.975L700.748 298.986L722.356 287.4L724.495 291.391Z" stroke="#1A2E35" stroke-width="1.33333" stroke-miterlimit="10"/>
<path d="M801.415 430.036L775.638 443.856L736.866 371.54L762.643 357.719L801.415 430.036Z" fill="white"/>
<path d="M801.415 430.036L775.638 443.856L736.866 371.54L762.643 357.719L801.415 430.036Z" stroke="#1A2E35" stroke-width="1.33333" stroke-miterlimit="10"/>
<path d="M801.415 430.036L775.638 443.856L768.947 431.38L794.726 417.56L801.415 430.036Z" fill="#1A2E35"/>
<path d="M801.415 430.036L775.638 443.856L768.947 431.38L794.726 417.56L801.415 430.036Z" stroke="#1A2E35" stroke-width="1.33333" stroke-miterlimit="10"/>
<path d="M824.003 452.861L815.964 457.17L804.109 435.061L812.149 430.75L824.003 452.861Z" fill="white"/>
<path d="M824.003 452.861L815.964 457.17L804.109 435.061L812.149 430.75L824.003 452.861Z" stroke="#1A2E35" stroke-width="1.33333" stroke-miterlimit="10"/>
<path d="M807.725 459.464L799.005 462.144L791.637 438.162L800.357 435.484L807.725 459.464Z" fill="white"/>
<path d="M807.725 459.464L799.005 462.144L791.637 438.162L800.357 435.484L807.725 459.464Z" stroke="#1A2E35" stroke-width="1.33333" stroke-miterlimit="10"/>
<path d="M832.33 446.271L839.389 440.491L823.494 421.081L816.436 426.861L832.33 446.271Z" fill="white"/>
<path d="M832.33 446.271L839.389 440.491L823.494 421.081L816.436 426.861L832.33 446.271Z" stroke="#1A2E35" stroke-width="1.33333" stroke-miterlimit="10"/>
<path d="M829.808 423.87L789.61 445.423L785.838 438.388L826.038 416.835L829.808 423.87Z" fill="white"/>
<path d="M829.808 423.87L789.61 445.423L785.838 438.388L826.038 416.835L829.808 423.87Z" stroke="#1A2E35" stroke-width="1.33333" stroke-miterlimit="10"/>
<path d="M853.732 469.534L789.67 503.88L786.957 498.819L851.018 464.474L853.732 469.534Z" fill="#1A2E35"/>
<path d="M853.732 469.534L789.67 503.88L786.957 498.819L851.018 464.474L853.732 469.534Z" stroke="#1A2E35" stroke-width="1.33333" stroke-miterlimit="10"/>
<path d="M869.072 514.625L822.906 534.658L818.154 522.164L864.32 502.13L869.072 514.625Z" fill="#1A2E35"/>
<path d="M869.072 514.625L822.906 534.658L818.154 522.164L864.32 502.13L869.072 514.625Z" stroke="#1A2E35" stroke-width="1.33333" stroke-miterlimit="10"/>
<path d="M797.59 510.983L811.659 503.44L807.348 495.399L793.279 502.943L797.59 510.983Z" fill="white"/>
<path d="M797.59 510.983L811.659 503.44L807.348 495.399L793.279 502.943L797.59 510.983Z" stroke="#1A2E35" stroke-width="1.33333" stroke-miterlimit="10"/>
<path d="M760.762 381.964C756.744 374.47 747.414 371.653 739.92 375.67C732.428 379.688 729.611 389.018 733.627 396.512C737.644 404.004 746.975 406.822 754.468 402.805C761.962 398.788 764.78 389.457 760.762 381.964Z" fill="#1A2E35"/>
<path d="M760.762 381.964C756.744 374.47 747.414 371.653 739.92 375.67C732.428 379.688 729.611 389.018 733.627 396.512C737.644 404.004 746.975 406.822 754.468 402.805C761.962 398.788 764.78 389.457 760.762 381.964Z" stroke="#1A2E35" stroke-width="1.33333" stroke-miterlimit="10"/>
<path d="M755.078 385.01C752.743 380.656 747.322 379.02 742.969 381.354C738.614 383.688 736.977 389.109 739.311 393.464C741.646 397.817 747.067 399.454 751.422 397.121C755.775 394.786 757.413 389.365 755.078 385.01Z" fill="white"/>
<path d="M755.078 385.01C752.743 380.656 747.322 379.02 742.969 381.354C738.614 383.688 736.977 389.109 739.311 393.464C741.646 397.817 747.067 399.454 751.422 397.121C755.775 394.786 757.413 389.365 755.078 385.01Z" stroke="#1A2E35" stroke-width="1.33333" stroke-miterlimit="10"/>
<path d="M807.286 528.574L832.004 517.847C834.358 516.825 837.09 517.95 838.042 520.331C838.918 522.519 837.981 525.011 835.881 526.081L809.476 539.523L807.286 528.574Z" fill="white"/>
<path d="M807.286 528.574L832.004 517.847C834.358 516.825 837.09 517.95 838.042 520.331C838.918 522.519 837.981 525.011 835.881 526.081L809.476 539.523L807.286 528.574Z" stroke="#1A2E35" stroke-width="1.33333" stroke-miterlimit="10"/>
<path d="M797.97 514.151H799.155C803.301 514.151 807.069 516.557 808.814 520.316L817.418 538.845C818.895 542.031 816.337 545.613 812.843 545.244L809.942 544.94L797.97 514.151Z" fill="white"/>
<path d="M797.97 514.151H799.155C803.301 514.151 807.069 516.557 808.814 520.316L817.418 538.845C818.895 542.031 816.337 545.613 812.843 545.244L809.942 544.94L797.97 514.151Z" stroke="#1A2E35" stroke-width="1.33333" stroke-miterlimit="10"/>
<path d="M791.151 508.599L750.647 568.316H830.468L809.943 544.94L797.462 509.417C796.492 506.657 792.792 506.177 791.151 508.599Z" fill="white"/>
<path d="M791.151 508.599L750.647 568.316H830.468L809.943 544.94L797.462 509.417C796.492 506.657 792.792 506.177 791.151 508.599Z" stroke="#1A2E35" stroke-width="1.33333" stroke-miterlimit="10"/>
<path d="M797.4 522.134C797.4 519.299 795.102 517.002 792.268 517.002C789.434 517.002 787.137 519.299 787.137 522.134C787.137 524.967 789.434 527.266 792.268 527.266C795.102 527.266 797.4 524.967 797.4 522.134Z" fill="white"/>
<path d="M797.4 522.134C797.4 519.299 795.102 517.002 792.268 517.002C789.434 517.002 787.137 519.299 787.137 522.134C787.137 524.967 789.434 527.266 792.268 527.266C795.102 527.266 797.4 524.967 797.4 522.134Z" stroke="#1A2E35" stroke-width="1.33333" stroke-miterlimit="10"/>
<path d="M903.095 594.272H739.399V571.989C739.399 568.875 741.923 566.351 745.038 566.351H897.456C900.57 566.351 903.095 568.875 903.095 571.989V594.272Z" fill="white"/>
<path d="M903.095 594.272H739.399V571.989C739.399 568.875 741.923 566.351 745.038 566.351H897.456C900.57 566.351 903.095 568.875 903.095 571.989V594.272Z" stroke="#1A2E35" stroke-width="1.33333" stroke-miterlimit="10"/>
</g>
<mask id="mask7_277_517" style="mask-type:luminance" maskUnits="userSpaceOnUse" x="0" y="0" width="1000" height="667">
<path d="M0 -0.000123024H1000V666.667H0V-0.000123024Z" fill="white"/>
</mask>
<g mask="url(#mask7_277_517)">
<path d="M127.165 508.255V451.115H94.9052V508.255C78.1319 514.731 66.2292 530.999 66.2292 550.058C66.2292 574.802 86.2892 594.863 111.035 594.863C135.781 594.863 155.841 574.802 155.841 550.058C155.841 530.999 143.939 514.731 127.165 508.255Z" fill="white"/>
<path d="M127.165 508.255V451.115H94.9052V508.255C78.1319 514.731 66.2292 530.999 66.2292 550.058C66.2292 574.802 86.2892 594.863 111.035 594.863C135.781 594.863 155.841 574.802 155.841 550.058C155.841 530.999 143.939 514.731 127.165 508.255Z" stroke="#1A2E35" stroke-width="1.33333" stroke-miterlimit="10"/>
<path d="M80.4459 532.238C77.1086 537.682 75.1672 544.074 75.1672 550.93C75.1672 570.74 91.2259 586.798 111.035 586.798C130.845 586.798 146.903 570.74 146.903 550.93C146.903 544.074 144.962 537.682 141.625 532.238H80.4459Z" fill="#5AE4A7"/>
<path d="M80.4459 532.238C77.1086 537.682 75.1672 544.074 75.1672 550.93C75.1672 570.74 91.2259 586.798 111.035 586.798C130.845 586.798 146.903 570.74 146.903 550.93C146.903 544.074 144.962 537.682 141.625 532.238H80.4459Z" stroke="#1A2E35" stroke-width="1.33333" stroke-miterlimit="10"/>
<path d="M107.535 541.643C107.535 544.331 105.357 546.507 102.671 546.507C99.9825 546.507 97.8052 544.331 97.8052 541.643C97.8052 538.957 99.9825 536.779 102.671 536.779C105.357 536.779 107.535 538.957 107.535 541.643Z" fill="#5AE4A7"/>
<path d="M107.535 541.643C107.535 544.331 105.357 546.507 102.671 546.507C99.9825 546.507 97.8052 544.331 97.8052 541.643C97.8052 538.957 99.9825 536.779 102.671 536.779C105.357 536.779 107.535 538.957 107.535 541.643Z" stroke="#1A2E35" stroke-width="1.33333" stroke-miterlimit="10"/>
<path d="M133.156 548.779C133.156 550.571 131.704 552.023 129.912 552.023C128.121 552.023 126.669 550.571 126.669 548.779C126.669 546.987 128.121 545.535 129.912 545.535C131.704 545.535 133.156 546.987 133.156 548.779Z" fill="#5AE4A7"/>
<path d="M133.156 548.779C133.156 550.571 131.704 552.023 129.912 552.023C128.121 552.023 126.669 550.571 126.669 548.779C126.669 546.987 128.121 545.535 129.912 545.535C131.704 545.535 133.156 546.987 133.156 548.779Z" stroke="#1A2E35" stroke-width="1.33333" stroke-miterlimit="10"/>
<path d="M106.886 563.535C106.886 564.699 105.942 565.643 104.778 565.643C103.613 565.643 102.67 564.699 102.67 563.535C102.67 562.371 103.613 561.427 104.778 561.427C105.942 561.427 106.886 562.371 106.886 563.535Z" fill="#5AE4A7"/>
<path d="M106.886 563.535C106.886 564.699 105.942 565.643 104.778 565.643C103.613 565.643 102.67 564.699 102.67 563.535C102.67 562.371 103.613 561.427 104.778 561.427C105.942 561.427 106.886 562.371 106.886 563.535Z" stroke="#1A2E35" stroke-width="1.33333" stroke-miterlimit="10"/>
<path d="M116.616 554.13C116.616 555.653 115.381 556.886 113.859 556.886C112.337 556.886 111.103 555.653 111.103 554.13C111.103 552.606 112.337 551.374 113.859 551.374C115.381 551.374 116.616 552.606 116.616 554.13Z" fill="#5AE4A7"/>
<path d="M116.616 554.13C116.616 555.653 115.381 556.886 113.859 556.886C112.337 556.886 111.103 555.653 111.103 554.13C111.103 552.606 112.337 551.374 113.859 551.374C115.381 551.374 116.616 552.606 116.616 554.13Z" stroke="#1A2E35" stroke-width="1.33333" stroke-miterlimit="10"/>
<path d="M100.724 475.806V508.562" stroke="#1A2E35" stroke-width="1.33333" stroke-miterlimit="10"/>
<path d="M100.724 459.59V468.997" stroke="#1A2E35" stroke-width="1.33333" stroke-miterlimit="10"/>
<path d="M79.6536 525.867C74.1643 532.783 70.887 541.534 70.887 551.049C70.887 565.042 77.9763 577.381 88.7603 584.666" stroke="#1A2E35" stroke-width="1.33333" stroke-miterlimit="10"/>
<path d="M95.97 513.56C92.29 515.078 88.882 517.124 85.8394 519.601" stroke="#1A2E35" stroke-width="1.33333" stroke-miterlimit="10"/>
<path d="M128.453 453.753H93.4264C92.2624 453.753 91.3184 452.809 91.3184 451.645C91.3184 450.481 92.2624 449.537 93.4264 449.537H128.453C129.618 449.537 130.561 450.481 130.561 451.645C130.561 452.809 129.618 453.753 128.453 453.753Z" fill="white"/>
<path d="M128.453 453.753H93.4264C92.2624 453.753 91.3184 452.809 91.3184 451.645C91.3184 450.481 92.2624 449.537 93.4264 449.537H128.453C129.618 449.537 130.561 450.481 130.561 451.645C130.561 452.809 129.618 453.753 128.453 453.753Z" stroke="#1A2E35" stroke-width="1.33333" stroke-miterlimit="10"/>
</g>
<path d="M165.096 594.863H935.86" stroke="#1A2E35" stroke-width="1.33333" stroke-miterlimit="10"/>
<path d="M34.5847 594.863H154.359" stroke="#1A2E35" stroke-width="1.33333" stroke-miterlimit="10"/>
</svg>
