<svg width="1000" height="667" viewBox="0 0 1000 667" fill="none" xmlns="http://www.w3.org/2000/svg">
<mask id="mask0_252_1498" style="mask-type:luminance" maskUnits="userSpaceOnUse" x="0" y="0" width="1000" height="667">
<path d="M0 -0.000123024H1000V666.667H0V-0.000123024Z" fill="white"/>
</mask>
<g mask="url(#mask0_252_1498)">
<path d="M951.426 261.816C951.426 261.816 930.071 152.907 777.385 85.639C624.697 18.371 553.998 85.3097 477.234 113.235C400.471 141.162 358.829 102.723 230.699 84.571C102.57 66.4204 -8.47396 246.868 27.8287 387.81C64.1314 528.752 144.213 578.936 319.322 610.968C494.431 643.002 598.003 537.294 721.861 556.514C845.721 575.732 993.067 467.891 951.426 261.816Z" fill="#5AE4A7"/>
<mask id="mask1_252_1498" style="mask-type:luminance" maskUnits="userSpaceOnUse" x="20" y="56" width="939" height="562">
<path d="M20.8544 56.6066H958.621V617.058H20.8544V56.6066Z" fill="white"/>
</mask>
<g mask="url(#mask1_252_1498)">
<g opacity="0.699997">
<path d="M951.426 261.816C951.426 261.816 930.071 152.907 777.385 85.639C624.697 18.371 553.998 85.3097 477.234 113.235C400.471 141.162 358.829 102.723 230.699 84.571C102.57 66.4204 -8.47396 246.868 27.8287 387.81C64.1314 528.752 144.213 578.936 319.322 610.968C494.431 643.002 598.003 537.294 721.861 556.514C845.721 575.732 993.067 467.891 951.426 261.816Z" fill="white"/>
</g>
</g>
</g>
<path d="M46.3043 584.259H34.0403" stroke="#1A2E35" stroke-width="1.33333" stroke-miterlimit="10" stroke-linecap="round" stroke-linejoin="round"/>
<path d="M983.74 584.259H66.2344" stroke="#1A2E35" stroke-width="1.33333" stroke-miterlimit="10" stroke-linecap="round" stroke-linejoin="round"/>
<mask id="mask2_252_1498" style="mask-type:luminance" maskUnits="userSpaceOnUse" x="0" y="0" width="1000" height="667">
<path d="M0 -0.000123024H1000V666.667H0V-0.000123024Z" fill="white"/>
</mask>
<g mask="url(#mask2_252_1498)">
<path d="M289.734 191.84C270.854 191.84 255.547 176.533 255.547 157.653C255.547 138.773 270.854 123.466 289.734 123.466C308.614 123.466 323.921 138.773 323.921 157.653C323.921 176.533 308.614 191.84 289.734 191.84ZM289.734 115.04C266.187 115.04 247.107 134.12 247.107 157.653C247.107 181.2 266.187 200.28 289.734 200.28C313.267 200.28 332.347 181.2 332.347 157.653C332.347 134.12 313.267 115.04 289.734 115.04Z" fill="#1A2E35"/>
<path d="M289.734 191.84C270.854 191.84 255.547 176.533 255.547 157.653C255.547 138.773 270.854 123.466 289.734 123.466C308.614 123.466 323.921 138.773 323.921 157.653C323.921 176.533 308.614 191.84 289.734 191.84ZM289.734 115.04C266.187 115.04 247.107 134.12 247.107 157.653C247.107 181.2 266.187 200.28 289.734 200.28C313.267 200.28 332.347 181.2 332.347 157.653C332.347 134.12 313.267 115.04 289.734 115.04Z" stroke="#1A2E35" stroke-width="1.33333" stroke-miterlimit="10" stroke-linecap="round" stroke-linejoin="round"/>
<path d="M291.352 158.419L306.333 162.272" stroke="#1A2E35" stroke-width="1.33333" stroke-miterlimit="10" stroke-linecap="round" stroke-linejoin="round"/>
<path d="M289.728 157.659L272.091 131.881" stroke="#1A2E35" stroke-width="1.33333" stroke-miterlimit="10" stroke-linecap="round" stroke-linejoin="round"/>
<path d="M293.943 157.659C293.943 159.987 292.056 161.874 289.728 161.874C287.4 161.874 285.514 159.987 285.514 157.659C285.514 155.331 287.4 153.444 289.728 153.444C292.056 153.444 293.943 155.331 293.943 157.659Z" fill="white"/>
<path d="M293.943 157.659C293.943 159.987 292.056 161.874 289.728 161.874C287.4 161.874 285.514 159.987 285.514 157.659C285.514 155.331 287.4 153.444 289.728 153.444C292.056 153.444 293.943 155.331 293.943 157.659Z" stroke="#1A2E35" stroke-width="1.33333" stroke-miterlimit="10" stroke-linecap="round" stroke-linejoin="round"/>
</g>
<path d="M839.868 362.548H487.461V117.132H839.868V362.548Z" stroke="#1A2E35" stroke-width="1.33333" stroke-miterlimit="10" stroke-linecap="round" stroke-linejoin="round"/>
<path d="M830.733 356.188H496.595V123.493H830.733V356.188Z" stroke="#1A2E35" stroke-width="1.33333" stroke-miterlimit="10" stroke-linecap="round" stroke-linejoin="round"/>
<path d="M830.733 356.188H496.595V348.293H830.733V356.188Z" stroke="#1A2E35" stroke-width="1.33333" stroke-miterlimit="10" stroke-linecap="round" stroke-linejoin="round"/>
<path d="M819.031 356.188H496.595V348.293H819.031V356.188Z" stroke="#1A2E35" stroke-width="1.33333" stroke-miterlimit="10" stroke-linecap="round" stroke-linejoin="round"/>
<mask id="mask3_252_1498" style="mask-type:luminance" maskUnits="userSpaceOnUse" x="0" y="0" width="1000" height="667">
<path d="M0 -0.000123024H1000V666.667H0V-0.000123024Z" fill="white"/>
</mask>
<g mask="url(#mask3_252_1498)">
<path d="M627.444 203.616C627.048 203.259 626.851 202.836 626.851 202.347C626.851 202.007 626.925 201.594 627.077 201.106C627.191 200.579 627.247 200.183 627.247 199.92C627.247 196.571 627.059 190.138 626.683 180.618C626.305 172.491 626.119 166.076 626.119 161.372C626.119 161.034 626.249 160.762 626.513 160.555C626.776 160.348 627.096 160.244 627.472 160.244C627.923 160.244 628.319 160.404 628.657 160.724C628.996 161.044 629.165 161.428 629.165 161.88C629.165 164.138 629.279 167.524 629.504 172.039C629.692 177.044 629.787 180.43 629.787 182.199L629.843 182.875V183.554V183.948V184.23C629.955 187.504 630.012 192.395 630.012 198.904V200.371H634.359C635.148 200.936 635.543 201.5 635.543 202.064C635.543 202.479 635.403 202.846 635.12 203.166C634.837 203.484 634.508 203.644 634.132 203.644C634.02 203.644 633.811 203.607 633.511 203.532L633.285 203.476C633.059 203.512 632.701 203.532 632.212 203.532H631.253C630.989 203.495 630.689 203.476 630.351 203.476C629.973 203.927 629.448 204.152 628.769 204.152C628.281 204.152 627.839 203.974 627.444 203.616Z" fill="#1A2E35"/>
<path d="M641.638 203.588C640.998 203.4 640.678 202.874 640.678 202.007V169.218C640.678 168.578 640.565 167.618 640.339 166.339C640.077 165.172 639.945 164.214 639.945 163.46V163.291C640.583 162.239 641.054 161.562 641.355 161.259C641.883 161.259 642.578 161.186 643.443 161.034C644.234 160.884 644.93 160.808 645.533 160.808C646.133 160.808 646.718 160.987 647.282 161.344C647.846 161.703 648.129 162.126 648.129 162.615C648.129 163.743 647.262 164.307 645.533 164.307H644.742C644.517 164.271 644.253 164.251 643.951 164.251C643.613 164.251 643.405 164.271 643.331 164.307C643.331 165.587 643.405 167.13 643.557 168.935L643.669 170.515L643.782 173.62C643.782 174.335 643.725 175.426 643.613 176.894L643.499 180.054L644.29 179.884C645.043 179.659 645.663 179.546 646.154 179.546C646.567 179.546 646.943 179.706 647.282 180.026C647.619 180.346 647.79 180.712 647.79 181.126C647.79 181.578 647.649 181.982 647.366 182.339C647.085 182.698 646.735 182.875 646.322 182.875L645.645 182.819H644.911C644.346 182.819 643.951 182.951 643.725 183.214V200.654L646.887 200.484C649.031 200.484 650.105 200.974 650.105 201.951V202.178C649.878 202.628 649.463 202.995 648.862 203.279C648.261 203.56 647.677 203.738 647.111 203.814L645.25 203.871H643.499C642.785 203.871 642.165 203.776 641.638 203.588Z" fill="#1A2E35"/>
<path d="M655.692 204.04C655.089 203.701 654.788 203.307 654.788 202.855C654.788 202.403 654.901 202.036 655.128 201.755C655.352 201.472 655.67 201.331 656.086 201.331C656.462 201.331 657.008 201.481 657.722 201.783C658.513 202.084 659.001 202.233 659.19 202.233C659.904 202.233 660.553 201.924 661.137 201.303C661.72 200.681 662.182 199.863 662.52 198.847C663.197 196.967 663.536 195.273 663.536 193.768C663.536 192.151 663.282 190.448 662.774 188.66C662.266 186.873 661.58 185.133 660.714 183.44L659.81 181.633C658.87 179.753 658.146 178.267 657.637 177.176C657.13 176.084 656.688 174.9 656.313 173.62C655.748 171.815 655.465 170.064 655.465 168.371C655.465 167.016 655.7 165.737 656.17 164.533C656.641 163.329 657.346 162.313 658.288 161.485C659.228 160.583 660.394 160.131 661.786 160.131C662.462 160.131 663.122 160.328 663.762 160.724C664.401 161.119 664.852 161.617 665.116 162.219L664.158 163.404C663.178 163.404 662.444 163.216 661.956 162.84C661.277 162.916 660.685 163.244 660.177 163.828C659.67 164.411 659.284 165.079 659.02 165.831C658.796 166.547 658.682 167.261 658.682 167.976C658.682 169.405 658.881 170.864 659.276 172.349C659.67 173.837 660.186 175.237 660.828 176.555L664.777 184.456C665.417 185.811 665.925 187.335 666.301 189.028C666.677 190.72 666.866 192.413 666.866 194.107C666.866 196.589 666.264 198.923 665.06 201.105C664.42 202.233 663.593 203.128 662.577 203.785C661.56 204.444 660.432 204.773 659.19 204.773C657.834 204.773 656.668 204.528 655.692 204.04Z" fill="#1A2E35"/>
<path d="M671.663 204.04C671.06 203.701 670.76 203.307 670.76 202.855C670.76 202.403 670.872 202.036 671.099 201.755C671.324 201.472 671.643 201.331 672.059 201.331C672.435 201.331 672.979 201.481 673.694 201.783C674.484 202.084 674.972 202.233 675.163 202.233C675.876 202.233 676.524 201.924 677.108 201.303C677.692 200.681 678.154 199.863 678.491 198.847C679.17 196.967 679.508 195.273 679.508 193.768C679.508 192.151 679.254 190.448 678.746 188.66C678.238 186.873 677.551 185.133 676.687 183.44L675.783 181.633C674.843 179.753 674.119 178.267 673.61 177.176C673.102 176.084 672.659 174.9 672.284 173.62C671.719 171.815 671.436 170.064 671.436 168.371C671.436 167.016 671.672 165.737 672.143 164.533C672.614 163.329 673.318 162.313 674.259 161.485C675.199 160.583 676.366 160.131 677.759 160.131C678.435 160.131 679.094 160.328 679.735 160.724C680.372 161.119 680.824 161.617 681.088 162.219L680.13 163.404C679.15 163.404 678.416 163.216 677.927 162.84C677.25 162.916 676.658 163.244 676.15 163.828C675.642 164.411 675.256 165.079 674.992 165.831C674.767 166.547 674.655 167.261 674.655 167.976C674.655 169.405 674.852 170.864 675.247 172.349C675.642 173.837 676.159 175.237 676.799 176.555L680.748 184.456C681.39 185.811 681.898 187.335 682.274 189.028C682.65 190.72 682.839 192.413 682.839 194.107C682.839 196.589 682.236 198.923 681.031 201.105C680.392 202.233 679.564 203.128 678.55 203.785C677.532 204.444 676.404 204.773 675.163 204.773C673.807 204.773 672.64 204.528 671.663 204.04Z" fill="#1A2E35"/>
<path d="M698.697 199.92C699.149 198.678 699.477 197.164 699.683 195.376C699.891 193.59 700.069 191.567 700.221 189.31C700.295 188.332 700.334 187.072 700.334 185.528L700.277 180.336C700.201 178.304 699.975 175.764 699.599 172.716C699.298 170.12 698.733 167.826 697.906 165.831C697.53 164.891 697.059 164.158 696.495 163.631C695.931 163.103 695.329 162.84 694.69 162.84C693.749 162.84 693.053 163.574 692.601 165.042C692.037 166.584 691.661 168.278 691.471 170.12C691.246 172.115 691.114 174.015 691.077 175.82L691.021 177.683C690.983 178.211 690.965 178.924 690.965 179.828V180.054C690.965 182.575 691.226 185.679 691.754 189.366C692.355 194.37 693.241 197.926 694.407 200.032C695.161 201.351 695.949 202.007 696.778 202.007C697.53 202.007 698.169 201.312 698.697 199.92ZM693.899 204.096C693.07 203.419 692.355 202.498 691.754 201.331C690.663 199.299 689.854 196.515 689.329 192.978C688.951 190.532 688.669 187.711 688.482 184.512L688.426 181.52V178.474C688.387 177.495 688.367 176.31 688.367 174.918C688.367 172.66 688.461 170.667 688.65 168.935C688.799 167.13 689.175 165.343 689.779 163.574C690.381 162.031 691.246 160.94 692.377 160.3C693.053 159.999 693.729 159.848 694.407 159.848C696.401 159.848 697.982 160.639 699.149 162.219C700.427 163.988 701.274 165.963 701.686 168.146C702.289 170.78 702.626 173.3 702.703 175.707C702.853 178.38 702.93 180.9 702.93 183.271V186.488C702.93 187.128 702.835 188.332 702.647 190.099C702.497 191.492 702.421 192.678 702.421 193.655V193.882C702.195 194.935 702.082 196.176 702.082 197.606C702.082 198.659 701.857 199.751 701.405 200.879C700.954 202.007 700.314 202.967 699.487 203.758C698.659 204.66 697.718 205.112 696.666 205.112C695.649 205.112 694.725 204.774 693.899 204.096Z" fill="#1A2E35"/>
<path d="M718.621 192.753C715.986 183.685 713.709 175.351 711.79 167.751V186.262C711.79 187.842 711.94 190.533 712.242 194.333C712.504 198.473 712.637 201.143 712.637 202.347C712.637 202.686 712.429 202.978 712.017 203.222C711.601 203.467 711.132 203.589 710.605 203.589C709.816 203.589 709.421 203.287 709.421 202.686L709.533 201.049C709.608 199.846 709.648 199.055 709.648 198.678C709.648 196.685 709.533 193.525 709.309 189.197C709.082 184.795 708.969 182.123 708.969 181.183V173.959C708.969 172.793 709.026 171.062 709.138 168.766C709.288 166.773 709.365 165.042 709.365 163.574V163.235C709.365 161.354 709.778 160.414 710.605 160.414C711.093 160.414 711.714 161.242 712.469 162.897C713.709 165.606 715.29 170.459 717.209 177.457C718.3 181.521 719.58 186.751 721.046 193.147C721.008 192.998 721.31 194.297 721.949 197.042L722.005 197.323C722.005 193.674 722.042 190.402 722.118 187.503L722.232 177.683V160.978C722.381 160.038 722.982 159.567 724.037 159.567C725.053 159.567 725.561 160.301 725.561 161.767V162.107C725.336 162.558 725.222 163.103 725.222 163.743C725.222 166.038 725.166 169.501 725.053 174.127C724.941 178.794 724.885 182.293 724.885 184.625V201.838C724.885 202.442 724.724 203.015 724.405 203.561C724.085 204.106 723.701 204.378 723.248 204.378C722.494 204.378 720.952 200.503 718.621 192.753Z" fill="#1A2E35"/>
<path d="M670.957 237.475C671.484 234.239 671.784 231.831 671.86 230.251C671.032 230.101 670.148 230.024 669.208 230.024C668.229 230.024 667.439 230.081 666.836 230.193C666.348 232.113 666.045 234.577 665.933 237.587C666.045 237.625 666.291 237.643 666.667 237.643C668.587 237.643 670.016 237.587 670.957 237.475ZM669.264 257.509C669.264 255.14 669.545 252.243 670.111 248.819C670.637 245.207 670.937 242.421 671.013 240.465C669.884 240.391 668.587 240.352 667.119 240.352L665.764 240.465C665.652 241.105 665.576 242.045 665.539 243.287C665.237 247.615 664.955 250.832 664.692 252.939C664.503 254.669 664.22 256.061 663.845 257.115C663.507 258.168 663.112 258.695 662.66 258.695C662.245 258.695 661.879 258.583 661.559 258.357C661.239 258.131 661.081 257.848 661.081 257.509C661.081 253.071 661.739 247.445 663.056 240.635L661.363 240.748C659.819 240.748 659.048 240.147 659.048 238.941C659.048 238.115 659.931 237.7 661.701 237.7H662.66H663.395C663.732 235.745 664.015 233.297 664.241 230.364L662.829 230.476C661.06 230.476 660.176 229.931 660.176 228.839V228.557L661.024 227.653H661.871H662.716C663.507 227.653 664.091 227.636 664.467 227.597L664.975 224.099C665.464 220.939 665.708 218.361 665.708 216.365V215.859V215.351C665.708 214.673 665.801 214.165 665.989 213.827C666.179 213.488 666.555 213.319 667.119 213.319H667.571L668.192 214.617C668.192 216.084 668.021 218.229 667.684 221.051C667.345 223.873 667.175 225.961 667.175 227.316C667.401 227.392 667.909 227.428 668.7 227.428H669.659C670.788 227.428 671.596 227.353 672.087 227.203C672.461 225.585 672.951 222.613 673.553 218.285C673.704 217.12 673.909 215.745 674.173 214.165C674.588 213.601 675.057 213.319 675.585 213.319C675.884 213.319 676.187 213.441 676.487 213.685C676.789 213.931 676.939 214.185 676.939 214.448C676.939 215.84 676.619 217.967 675.98 220.825C675.34 223.497 674.983 225.585 674.908 227.089H676.713L677.899 228.388C677.823 228.764 677.748 229.056 677.672 229.263C677.597 229.471 677.448 229.648 677.221 229.799C676.957 229.988 676.695 230.081 676.431 230.081L674.568 229.968C674.192 231.925 673.968 234.352 673.892 237.248H674.173H674.456C676.037 237.248 676.825 237.812 676.825 238.941C676.825 239.883 676.111 240.352 674.683 240.352H674.512L673.721 240.296C673.647 241.087 673.439 242.912 673.1 245.771C672.461 251.001 672.143 254.933 672.143 257.565L671.183 258.752C669.903 258.752 669.264 258.337 669.264 257.509Z" fill="#1A2E35"/>
<path d="M684.84 256.437C684.576 256.249 684.444 255.836 684.444 255.195C684.444 254.783 684.537 254.5 684.725 254.349C684.915 254.199 685.311 254.124 685.911 254.124C686.739 254.124 687.153 253.804 687.153 253.164C687.153 249.439 686.871 243.945 686.307 236.684C685.743 229.385 685.46 223.967 685.46 220.429C685.46 220.092 685.479 219.772 685.516 219.469V218.399C685.516 216.631 684.875 215.745 683.597 215.745H682.977L682.3 215.801C681.207 215.801 680.663 215.388 680.663 214.56C680.663 213.583 682.187 213.093 685.235 213.093C686.851 213.093 687.812 213.413 688.112 214.052C687.888 215.068 687.773 215.859 687.773 216.423C687.773 217.439 687.924 219.152 688.225 221.559C688.488 223.704 688.62 225.435 688.62 226.751C688.62 229.423 688.827 233.861 689.241 240.071C689.655 245.564 689.863 250.041 689.863 253.503V253.841C690.013 253.841 690.219 253.823 690.483 253.784C690.745 253.748 691.009 253.728 691.272 253.728C691.423 253.691 691.648 253.672 691.951 253.672C693.532 253.672 694.32 254.143 694.32 255.083C694.32 256.175 692.176 256.719 687.888 256.719H686.983H686.193C685.553 256.719 685.101 256.625 684.84 256.437Z" fill="#1A2E35"/>
</g>
<mask id="mask4_252_1498" style="mask-type:luminance" maskUnits="userSpaceOnUse" x="0" y="0" width="1000" height="667">
<path d="M0 -0.000123024H1000V666.667H0V-0.000123024Z" fill="white"/>
</mask>
<g mask="url(#mask4_252_1498)">
<path d="M925.232 576.553C925.232 572.298 928.683 568.848 932.937 568.848C937.193 568.848 940.644 572.298 940.644 576.553C940.644 580.808 937.193 584.258 932.937 584.258C928.683 584.258 925.232 580.808 925.232 576.553Z" fill="#1A2E35"/>
<path d="M925.232 576.553C925.232 572.298 928.683 568.848 932.937 568.848C937.193 568.848 940.644 572.298 940.644 576.553C940.644 580.808 937.193 584.258 932.937 584.258C928.683 584.258 925.232 580.808 925.232 576.553Z" stroke="#1A2E35" stroke-width="1.33333" stroke-miterlimit="10" stroke-linecap="round" stroke-linejoin="round"/>
<path d="M929.085 576.553C929.085 574.425 930.81 572.7 932.938 572.7C935.065 572.7 936.79 574.425 936.79 576.553C936.79 578.681 935.065 580.406 932.938 580.406C930.81 580.406 929.085 578.681 929.085 576.553Z" fill="white"/>
<path d="M929.085 576.553C929.085 574.425 930.81 572.7 932.938 572.7C935.065 572.7 936.79 574.425 936.79 576.553C936.79 578.681 935.065 580.406 932.938 580.406C930.81 580.406 929.085 578.681 929.085 576.553Z" stroke="#1A2E35" stroke-width="1.33333" stroke-miterlimit="10" stroke-linecap="round" stroke-linejoin="round"/>
<path d="M842.698 576.553C842.698 572.298 846.149 568.848 850.403 568.848C854.659 568.848 858.11 572.298 858.11 576.553C858.11 580.808 854.659 584.258 850.403 584.258C846.149 584.258 842.698 580.808 842.698 576.553Z" fill="#1A2E35"/>
<path d="M842.698 576.553C842.698 572.298 846.149 568.848 850.403 568.848C854.659 568.848 858.11 572.298 858.11 576.553C858.11 580.808 854.659 584.258 850.403 584.258C846.149 584.258 842.698 580.808 842.698 576.553Z" stroke="#1A2E35" stroke-width="1.33333" stroke-miterlimit="10" stroke-linecap="round" stroke-linejoin="round"/>
<path d="M846.551 576.553C846.551 574.425 848.276 572.7 850.404 572.7C852.531 572.7 854.256 574.425 854.256 576.553C854.256 578.681 852.531 580.406 850.404 580.406C848.276 580.406 846.551 578.681 846.551 576.553Z" fill="white"/>
<path d="M846.551 576.553C846.551 574.425 848.276 572.7 850.404 572.7C852.531 572.7 854.256 574.425 854.256 576.553C854.256 578.681 852.531 580.406 850.404 580.406C848.276 580.406 846.551 578.681 846.551 576.553Z" stroke="#1A2E35" stroke-width="1.33333" stroke-miterlimit="10" stroke-linecap="round" stroke-linejoin="round"/>
<path d="M815.728 576.553C815.728 572.298 819.179 568.848 823.433 568.848C827.691 568.848 831.14 572.298 831.14 576.553C831.14 580.808 827.691 584.258 823.433 584.258C819.179 584.258 815.728 580.808 815.728 576.553Z" fill="#1A2E35"/>
<path d="M815.728 576.553C815.728 572.298 819.179 568.848 823.433 568.848C827.691 568.848 831.14 572.298 831.14 576.553C831.14 580.808 827.691 584.258 823.433 584.258C819.179 584.258 815.728 580.808 815.728 576.553Z" stroke="#1A2E35" stroke-width="1.33333" stroke-miterlimit="10" stroke-linecap="round" stroke-linejoin="round"/>
<path d="M819.581 576.553C819.581 574.425 821.306 572.7 823.434 572.7C825.561 572.7 827.286 574.425 827.286 576.553C827.286 578.681 825.561 580.406 823.434 580.406C821.306 580.406 819.581 578.681 819.581 576.553Z" fill="white"/>
<path d="M819.581 576.553C819.581 574.425 821.306 572.7 823.434 572.7C825.561 572.7 827.286 574.425 827.286 576.553C827.286 578.681 825.561 580.406 823.434 580.406C821.306 580.406 819.581 578.681 819.581 576.553Z" stroke="#1A2E35" stroke-width="1.33333" stroke-miterlimit="10" stroke-linecap="round" stroke-linejoin="round"/>
<path d="M862.349 567.742H878.648V484.354C878.648 484.327 878.626 484.307 878.6 484.307H862.397C862.37 484.307 862.349 484.327 862.349 484.354V567.742Z" fill="#1A2E35"/>
<path d="M862.349 567.742H878.648V484.354C878.648 484.327 878.626 484.307 878.6 484.307H862.397C862.37 484.307 862.349 484.327 862.349 484.354V567.742Z" stroke="#1A2E35" stroke-width="1.33333" stroke-miterlimit="10" stroke-linecap="round" stroke-linejoin="round"/>
<path d="M858.009 567.742H882.987V508.82H858.009V567.742Z" fill="#1A2E35" stroke="#1A2E35" stroke-width="1.33333" stroke-miterlimit="10" stroke-linecap="round" stroke-linejoin="round"/>
<path d="M887.185 470.335H908.045C908.072 470.335 908.093 470.314 908.093 470.287V425.442H887.138V470.287C887.138 470.314 887.158 470.335 887.185 470.335Z" fill="#1A2E35"/>
<path d="M887.185 470.335H908.045C908.072 470.335 908.093 470.314 908.093 470.287V425.442H887.138V470.287C887.138 470.314 887.158 470.335 887.185 470.335Z" stroke="#1A2E35" stroke-width="1.33333" stroke-miterlimit="10" stroke-linecap="round" stroke-linejoin="round"/>
<path d="M856.353 425.463H937.944C945.982 425.463 952.442 418.841 952.245 410.805L950.274 331.145C950.082 323.383 943.736 317.193 935.973 317.193H868.602C861.541 317.193 855.536 322.345 854.462 329.325L842.214 408.985C840.881 417.65 847.586 425.463 856.353 425.463Z" fill="#1A2E35"/>
<path d="M856.353 425.463H937.944C945.982 425.463 952.442 418.841 952.245 410.805L950.274 331.145C950.082 323.383 943.736 317.193 935.973 317.193H868.602C861.541 317.193 855.536 322.345 854.462 329.325L842.214 408.985C840.881 417.65 847.586 425.463 856.353 425.463Z" stroke="#1A2E35" stroke-width="1.33333" stroke-miterlimit="10" stroke-linecap="round" stroke-linejoin="round"/>
<path d="M883.013 487.217L918.813 510.792" stroke="#1A2E35" stroke-width="1.33333" stroke-miterlimit="10" stroke-linecap="round" stroke-linejoin="round"/>
<path d="M920.167 507.224L926.263 511.334C928.361 512.748 928.633 515.73 926.825 517.5L926.403 517.914C924.944 519.342 922.643 519.44 921.068 518.141L915.465 513.521C913.693 512.06 913.544 509.398 915.141 507.749C916.469 506.38 918.585 506.158 920.167 507.224Z" fill="#1A2E35"/>
<path d="M920.167 507.224L926.263 511.334C928.361 512.748 928.633 515.73 926.825 517.5L926.403 517.914C924.944 519.342 922.643 519.44 921.068 518.141L915.465 513.521C913.693 512.06 913.544 509.398 915.141 507.749C916.469 506.38 918.585 506.158 920.167 507.224Z" stroke="#1A2E35" stroke-width="1.33333" stroke-miterlimit="10" stroke-linecap="round" stroke-linejoin="round"/>
<path d="M804.139 491.292H936.857C943.93 491.292 949.663 485.558 949.663 478.486C949.663 471.413 943.93 465.68 936.857 465.68H804.139C797.066 465.68 791.334 471.413 791.334 478.486C791.334 485.558 797.066 491.292 804.139 491.292Z" fill="#1A2E35"/>
<path d="M804.139 491.292H936.857C943.93 491.292 949.663 485.558 949.663 478.486C949.663 471.413 943.93 465.68 936.857 465.68H804.139C797.066 465.68 791.334 471.413 791.334 478.486C791.334 485.558 797.066 491.292 804.139 491.292Z" stroke="#1A2E35" stroke-width="1.33333" stroke-miterlimit="10" stroke-linecap="round" stroke-linejoin="round"/>
<path d="M791.425 476.932C792.193 470.4 798.099 465.68 804.675 465.68H873.453C880.03 465.68 885.937 470.4 886.705 476.932C887.619 484.699 881.574 491.292 873.991 491.292H804.139C796.555 491.292 790.51 484.699 791.425 476.932Z" fill="#1A2E35"/>
<path d="M791.425 476.932C792.193 470.4 798.099 465.68 804.675 465.68H873.453C880.03 465.68 885.937 470.4 886.705 476.932C887.619 484.699 881.574 491.292 873.991 491.292H804.139C796.555 491.292 790.51 484.699 791.425 476.932Z" stroke="#1A2E35" stroke-width="1.33333" stroke-miterlimit="10" stroke-linecap="round" stroke-linejoin="round"/>
<path d="M813.254 572.399H940.685C940.685 568.546 937.561 565.423 933.709 565.423H820.23C816.378 565.423 813.254 568.546 813.254 572.399Z" fill="#1A2E35"/>
<path d="M813.254 572.399H940.685C940.685 568.546 937.561 565.423 933.709 565.423H820.23C816.378 565.423 813.254 568.546 813.254 572.399Z" stroke="#1A2E35" stroke-width="1.33333" stroke-miterlimit="10" stroke-linecap="round" stroke-linejoin="round"/>
<path d="M835.944 572.399H877.416V565.423H842.92C839.067 565.423 835.944 568.546 835.944 572.399Z" fill="#1A2E35"/>
<path d="M835.944 572.399H877.416V565.423H842.92C839.067 565.423 835.944 568.546 835.944 572.399Z" stroke="#1A2E35" stroke-width="1.33333" stroke-miterlimit="10" stroke-linecap="round" stroke-linejoin="round"/>
</g>
<mask id="mask5_252_1498" style="mask-type:luminance" maskUnits="userSpaceOnUse" x="0" y="0" width="1000" height="667">
<path d="M0 -0.000123024H1000V666.667H0V-0.000123024Z" fill="white"/>
</mask>
<g mask="url(#mask5_252_1498)">
<path d="M856.438 378.25V371.919C856.438 369.87 858.098 368.21 860.146 368.21H810.856C808.808 368.21 807.148 369.87 807.148 371.919V378.25C807.148 380.298 808.808 381.959 810.856 381.959H860.146C858.098 381.959 856.438 380.298 856.438 378.25Z" fill="#8D8D8D"/>
<path d="M856.438 378.25V371.919C856.438 369.87 858.098 368.21 860.146 368.21H810.856C808.808 368.21 807.148 369.87 807.148 371.919V378.25C807.148 380.298 808.808 381.959 810.856 381.959H860.146C858.098 381.959 856.438 380.298 856.438 378.25Z" stroke="#1A2E35" stroke-width="1.33333" stroke-miterlimit="10" stroke-linecap="round" stroke-linejoin="round"/>
<path d="M891.289 368.711L891.707 368.437C891.811 368.369 891.761 368.209 891.639 368.209H860.147C858.097 368.209 856.437 369.869 856.437 371.919V378.249C856.437 380.297 858.097 381.96 860.147 381.96H891.639C891.761 381.96 891.811 381.797 891.707 381.731L891.289 381.457V368.711Z" fill="white"/>
<path d="M891.289 368.711L891.707 368.437C891.811 368.369 891.761 368.209 891.639 368.209H860.147C858.097 368.209 856.437 369.869 856.437 371.919V378.249C856.437 380.297 858.097 381.96 860.147 381.96H891.639C891.761 381.96 891.811 381.797 891.707 381.731L891.289 381.457V368.711Z" stroke="#1A2E35" stroke-width="0.666667" stroke-miterlimit="10" stroke-linecap="round" stroke-linejoin="round"/>
<path d="M862.906 368.711H891.289V381.458H862.906C859.712 381.458 857.124 378.868 857.124 375.675V374.494C857.124 371.3 859.712 368.711 862.906 368.711Z" fill="white"/>
<path d="M862.906 368.711H891.289V381.458H862.906C859.712 381.458 857.124 378.868 857.124 375.675V374.494C857.124 371.3 859.712 368.711 862.906 368.711Z" stroke="#1A2E35" stroke-width="0.666667" stroke-miterlimit="10" stroke-linecap="round" stroke-linejoin="round"/>
<path d="M858.193 371.057H870.481Z" fill="white"/>
<path d="M858.193 371.057H870.481" stroke="#1A2E35" stroke-width="0.666667" stroke-miterlimit="10" stroke-linecap="round" stroke-linejoin="round"/>
<path d="M867.254 372.224H878.719Z" fill="white"/>
<path d="M867.254 372.224H878.719" stroke="#1A2E35" stroke-width="0.666667" stroke-miterlimit="10" stroke-linecap="round" stroke-linejoin="round"/>
<path d="M874.188 373.665H863.205Z" fill="white"/>
<path d="M874.188 373.665H863.205" stroke="#1A2E35" stroke-width="0.666667" stroke-miterlimit="10" stroke-linecap="round" stroke-linejoin="round"/>
<path d="M858.468 378.06H865.676Z" fill="white"/>
<path d="M858.468 378.06H865.676" stroke="#1A2E35" stroke-width="0.666667" stroke-miterlimit="10" stroke-linecap="round" stroke-linejoin="round"/>
<path d="M863.822 379.088H874.599Z" fill="white"/>
<path d="M863.822 379.088H874.599" stroke="#1A2E35" stroke-width="0.666667" stroke-miterlimit="10" stroke-linecap="round" stroke-linejoin="round"/>
<path d="M862.518 380.049H865.401Z" fill="white"/>
<path d="M862.518 380.049H865.401" stroke="#1A2E35" stroke-width="0.666667" stroke-miterlimit="10" stroke-linecap="round" stroke-linejoin="round"/>
<path d="M870.619 377.097H888.947Z" fill="white"/>
<path d="M870.619 377.097H888.947" stroke="#1A2E35" stroke-width="0.666667" stroke-miterlimit="10" stroke-linecap="round" stroke-linejoin="round"/>
<path d="M891.074 374.146H887.3Z" fill="white"/>
<path d="M891.074 374.146H887.3" stroke="#1A2E35" stroke-width="0.666667" stroke-miterlimit="10" stroke-linecap="round" stroke-linejoin="round"/>
<path d="M890.457 373.185H886.612Z" fill="white"/>
<path d="M890.457 373.185H886.612" stroke="#1A2E35" stroke-width="0.666667" stroke-miterlimit="10" stroke-linecap="round" stroke-linejoin="round"/>
<path d="M890.457 379.363H880.846Z" fill="white"/>
<path d="M890.457 379.363H880.846" stroke="#1A2E35" stroke-width="0.666667" stroke-miterlimit="10" stroke-linecap="round" stroke-linejoin="round"/>
<path d="M859.095 364.165V357.833C859.095 355.785 860.755 354.125 862.803 354.125H813.514C811.466 354.125 809.806 355.785 809.806 357.833V364.165C809.806 366.213 811.466 367.873 813.514 367.873H862.803C860.755 367.873 859.095 366.213 859.095 364.165Z" fill="#5AE4A7"/>
<path d="M859.095 364.165V357.833C859.095 355.785 860.755 354.125 862.803 354.125H813.514C811.466 354.125 809.806 355.785 809.806 357.833V364.165C809.806 366.213 811.466 367.873 813.514 367.873H862.803C860.755 367.873 859.095 366.213 859.095 364.165Z" stroke="#1A2E35" stroke-width="1.33333" stroke-miterlimit="10" stroke-linecap="round" stroke-linejoin="round"/>
<path d="M893.947 354.626L894.364 354.353C894.468 354.285 894.419 354.125 894.296 354.125H862.804C860.755 354.125 859.095 355.785 859.095 357.833V364.165C859.095 366.213 860.755 367.874 862.804 367.874H894.296C894.419 367.874 894.468 367.713 894.364 367.646L893.947 367.373V354.626Z" fill="#8D8D8D"/>
<path d="M893.947 354.626L894.364 354.353C894.468 354.285 894.419 354.125 894.296 354.125H862.804C860.755 354.125 859.095 355.785 859.095 357.833V364.165C859.095 366.213 860.755 367.874 862.804 367.874H894.296C894.419 367.874 894.468 367.713 894.364 367.646L893.947 367.373V354.626Z" stroke="#1A2E35" stroke-width="1.33333" stroke-miterlimit="10" stroke-linecap="round" stroke-linejoin="round"/>
<path d="M865.564 354.626H893.947V367.373H865.564C862.369 367.373 859.781 364.783 859.781 361.59V360.409C859.781 357.214 862.369 354.626 865.564 354.626Z" fill="white"/>
<path d="M865.564 354.626H893.947V367.373H865.564C862.369 367.373 859.781 364.783 859.781 361.59V360.409C859.781 357.214 862.369 354.626 865.564 354.626Z" stroke="#1A2E35" stroke-width="0.666667" stroke-miterlimit="10" stroke-linecap="round" stroke-linejoin="round"/>
<path d="M860.85 356.972H873.138" stroke="#1A2E35" stroke-width="0.666667" stroke-miterlimit="10" stroke-linecap="round" stroke-linejoin="round"/>
<path d="M869.912 358.139H881.377" stroke="#1A2E35" stroke-width="0.666667" stroke-miterlimit="10" stroke-linecap="round" stroke-linejoin="round"/>
<path d="M876.845 359.581H865.863" stroke="#1A2E35" stroke-width="0.666667" stroke-miterlimit="10" stroke-linecap="round" stroke-linejoin="round"/>
<path d="M861.125 363.974H868.333" stroke="#1A2E35" stroke-width="0.666667" stroke-miterlimit="10" stroke-linecap="round" stroke-linejoin="round"/>
<path d="M866.479 365.003H877.257" stroke="#1A2E35" stroke-width="0.666667" stroke-miterlimit="10" stroke-linecap="round" stroke-linejoin="round"/>
<path d="M865.176 365.964H868.059" stroke="#1A2E35" stroke-width="0.666667" stroke-miterlimit="10" stroke-linecap="round" stroke-linejoin="round"/>
<path d="M873.276 363.013H891.604" stroke="#1A2E35" stroke-width="0.666667" stroke-miterlimit="10" stroke-linecap="round" stroke-linejoin="round"/>
<path d="M893.732 360.061H889.957" stroke="#1A2E35" stroke-width="0.666667" stroke-miterlimit="10" stroke-linecap="round" stroke-linejoin="round"/>
<path d="M893.115 359.1H889.271" stroke="#1A2E35" stroke-width="0.666667" stroke-miterlimit="10" stroke-linecap="round" stroke-linejoin="round"/>
<path d="M893.115 365.278H883.504" stroke="#1A2E35" stroke-width="0.666667" stroke-miterlimit="10" stroke-linecap="round" stroke-linejoin="round"/>
<path d="M818.315 364.261V357.401H820.974V358.115H819.273V360.384H820.653V361.061H819.273V363.576H820.993V364.261H818.315Z" fill="#1A2E35"/>
<path d="M821.762 364.261V357.401H822.414L824.36 361.957V357.401H825.158V364.261H824.548L822.574 359.579V364.261H821.762Z" fill="#1A2E35"/>
<path d="M827.867 364.346C827.438 364.346 827.095 364.256 826.839 364.072C826.582 363.888 826.395 363.621 826.281 363.27C826.165 362.922 826.106 362.501 826.106 362.01V359.714C826.106 359.212 826.158 358.785 826.262 358.432C826.367 358.08 826.554 357.81 826.822 357.624C827.09 357.437 827.463 357.344 827.943 357.344C828.373 357.344 828.718 357.416 828.981 357.56C829.243 357.704 829.434 357.925 829.553 358.22C829.671 358.516 829.729 358.89 829.729 359.342V359.596H828.833V359.384C828.833 359.086 828.813 358.841 828.774 358.652C828.733 358.464 828.654 358.321 828.531 358.229C828.41 358.136 828.221 358.09 827.959 358.09C827.678 358.09 827.474 358.153 827.346 358.284C827.219 358.414 827.141 358.59 827.11 358.813C827.078 359.036 827.062 359.289 827.062 359.572V362.11C827.062 362.438 827.087 362.712 827.134 362.932C827.182 363.152 827.274 363.317 827.41 363.424C827.546 363.532 827.737 363.585 827.986 363.585C828.234 363.585 828.426 363.525 828.562 363.406C828.697 363.289 828.79 363.113 828.841 362.881C828.893 362.652 828.917 362.362 828.917 362.018V361.544H828.045V360.866H829.782V364.262H829.179L829.086 363.474C828.997 363.728 828.854 363.937 828.663 364.101C828.471 364.265 828.206 364.346 827.867 364.346Z" fill="#1A2E35"/>
<path d="M830.763 364.261V357.401H831.721V363.576H833.473V364.261H830.763Z" fill="#1A2E35"/>
<path d="M834.176 357.402H835.116V364.262H834.176V357.402Z" fill="#1A2E35"/>
<path d="M837.843 364.337C837.447 364.337 837.117 364.253 836.856 364.085C836.593 363.916 836.395 363.681 836.259 363.381C836.123 363.082 836.043 362.736 836.021 362.34L836.869 362.11C836.885 362.354 836.924 362.588 836.981 362.813C837.041 363.04 837.14 363.224 837.275 363.368C837.411 363.513 837.599 363.585 837.843 363.585C838.091 363.585 838.277 363.516 838.405 363.377C838.532 363.238 838.595 363.04 838.595 362.78C838.595 362.47 838.525 362.22 838.383 362.03C838.243 361.841 838.065 361.65 837.851 361.46L836.7 360.442C836.473 360.246 836.307 360.03 836.2 359.796C836.093 359.561 836.037 359.27 836.037 358.926C836.037 358.425 836.183 358.034 836.471 357.758C836.759 357.481 837.149 357.344 837.648 357.344C837.919 357.344 838.156 357.378 838.363 357.449C838.569 357.521 838.741 357.629 838.879 357.776C839.017 357.921 839.128 358.108 839.209 358.33C839.291 358.553 839.347 358.813 839.373 359.113L838.561 359.334C838.544 359.108 838.511 358.901 838.46 358.712C838.409 358.522 838.32 358.369 838.193 358.254C838.067 358.138 837.884 358.081 837.648 358.081C837.411 358.081 837.225 358.142 837.093 358.27C836.96 358.398 836.893 358.586 836.893 358.834C836.893 359.042 836.928 359.214 836.999 359.35C837.069 359.486 837.184 359.625 837.343 359.765L838.503 360.781C838.761 361.008 838.991 361.277 839.188 361.59C839.385 361.904 839.484 362.274 839.484 362.704C839.484 363.042 839.415 363.334 839.272 363.581C839.132 363.826 838.939 364.013 838.693 364.142C838.447 364.273 838.164 364.337 837.843 364.337Z" fill="#1A2E35"/>
<path d="M840.229 364.261V357.401H841.187V360.367H842.948V357.401H843.905V364.261H842.948V361.053H841.187V364.261H840.229Z" fill="#1A2E35"/>
</g>
<path d="M712.084 378.972H817.695V383.233H712.084V378.972Z" fill="white" stroke="#1A2E35" stroke-width="1.33333" stroke-miterlimit="10" stroke-linecap="round" stroke-linejoin="round"/>
<path d="M682.305 378.972H787.916V383.233H682.305V378.972Z" fill="white" stroke="#1A2E35" stroke-width="1.33333" stroke-miterlimit="10" stroke-linecap="round" stroke-linejoin="round"/>
<path d="M694.078 371.396H782.145L772.65 304.164H684.585L694.078 371.396Z" fill="white"/>
<path d="M694.078 371.396H782.145L772.65 304.164H684.585L694.078 371.396Z" stroke="#1A2E35" stroke-width="1.33333" stroke-miterlimit="10" stroke-linecap="round" stroke-linejoin="round"/>
<path d="M690.435 371.396H778.502L769.007 304.164H680.94L690.435 371.396Z" fill="#1A2E35"/>
<path d="M690.435 371.396H778.502L769.007 304.164H680.94L690.435 371.396Z" stroke="#1A2E35" stroke-width="1.33333" stroke-miterlimit="10" stroke-linecap="round" stroke-linejoin="round"/>
<mask id="mask6_252_1498" style="mask-type:luminance" maskUnits="userSpaceOnUse" x="0" y="0" width="1000" height="667">
<path d="M0 -0.000123024H1000V666.667H0V-0.000123024Z" fill="white"/>
</mask>
<g mask="url(#mask6_252_1498)">
<path d="M732.837 352.932C732.751 353.295 732.424 353.549 732.051 353.545L719.177 353.421C718.663 353.416 718.285 352.935 718.407 352.433L719.567 347.597C719.653 347.235 719.98 346.979 720.353 346.983L733.227 347.107C733.743 347.112 734.119 347.595 733.999 348.095L732.837 352.932ZM717.417 340.147L708.583 383.233H731.309L740.144 340.147H717.417Z" fill="white"/>
<path d="M732.837 352.932C732.751 353.295 732.424 353.549 732.051 353.545L719.177 353.421C718.663 353.416 718.285 352.935 718.407 352.433L719.567 347.597C719.653 347.235 719.98 346.979 720.353 346.983L733.227 347.107C733.743 347.112 734.119 347.595 733.999 348.095L732.837 352.932ZM717.417 340.147L708.583 383.233H731.309L740.144 340.147H717.417Z" stroke="#1A2E35" stroke-width="1.33333" stroke-miterlimit="10" stroke-linecap="round" stroke-linejoin="round"/>
</g>
<mask id="mask7_252_1498" style="mask-type:luminance" maskUnits="userSpaceOnUse" x="0" y="0" width="1000" height="667">
<path d="M0 -0.000123024H1000V666.667H0V-0.000123024Z" fill="white"/>
</mask>
<g mask="url(#mask7_252_1498)">
<path d="M902.149 407.746L897.581 580.157C897.521 582.441 895.653 584.259 893.369 584.259C891.063 584.259 889.185 582.406 889.155 580.101L886.901 407.746H902.149Z" fill="white"/>
<path d="M902.149 407.746L897.581 580.157C897.521 582.441 895.653 584.259 893.369 584.259C891.063 584.259 889.185 582.406 889.155 580.101L886.901 407.746H902.149Z" stroke="#1A2E35" stroke-width="1.33333" stroke-miterlimit="10" stroke-linecap="round" stroke-linejoin="round"/>
<path d="M846.447 407.746L841.88 580.157C841.819 582.441 839.951 584.259 837.667 584.259C835.362 584.259 833.483 582.406 833.454 580.101L831.2 407.746H846.447Z" fill="white"/>
<path d="M846.447 407.746L841.88 580.157C841.819 582.441 839.951 584.259 837.667 584.259C835.362 584.259 833.483 582.406 833.454 580.101L831.2 407.746H846.447Z" stroke="#1A2E35" stroke-width="1.33333" stroke-miterlimit="10" stroke-linecap="round" stroke-linejoin="round"/>
<path d="M708.732 407.746L704.164 580.157C704.104 582.441 702.236 584.259 699.952 584.259C697.647 584.259 695.768 582.406 695.739 580.101L693.484 407.746H708.732Z" fill="white"/>
<path d="M708.732 407.746L704.164 580.157C704.104 582.441 702.236 584.259 699.952 584.259C697.647 584.259 695.768 582.406 695.739 580.101L693.484 407.746H708.732Z" stroke="#1A2E35" stroke-width="1.33333" stroke-miterlimit="10" stroke-linecap="round" stroke-linejoin="round"/>
<path d="M653.03 407.746L648.463 580.157C648.402 582.441 646.534 584.259 644.25 584.259C641.945 584.259 640.066 582.406 640.037 580.101L637.783 407.746H653.03Z" fill="white"/>
<path d="M653.03 407.746L648.463 580.157C648.402 582.441 646.534 584.259 644.25 584.259C641.945 584.259 640.066 582.406 640.037 580.101L637.783 407.746H653.03Z" stroke="#1A2E35" stroke-width="1.33333" stroke-miterlimit="10" stroke-linecap="round" stroke-linejoin="round"/>
<path d="M632.697 564.848H907.568V388.916H632.697V564.848Z" fill="#5AE4A7" stroke="#1A2E35" stroke-width="1.33333" stroke-miterlimit="10" stroke-linecap="round" stroke-linejoin="round"/>
<path d="M830.789 564.848H907.568V388.916H830.789V564.848Z" fill="#5AE4A7" stroke="#1A2E35" stroke-width="1.33333" stroke-miterlimit="10" stroke-linecap="round" stroke-linejoin="round"/>
<path d="M632.697 399.23H907.568V388.916H632.697V399.23Z" fill="#1A2E35" stroke="#1A2E35" stroke-width="1.33333" stroke-miterlimit="10" stroke-linecap="round" stroke-linejoin="round"/>
<path d="M628.436 393.176H911.829V381.813H628.436V393.176Z" fill="#5AE4A7" stroke="#1A2E35" stroke-width="1.33333" stroke-miterlimit="10" stroke-linecap="round" stroke-linejoin="round"/>
<path d="M628.436 393.176H825.688V381.813H628.436V393.176Z" fill="#5AE4A7" stroke="#1A2E35" stroke-width="1.33333" stroke-miterlimit="10" stroke-linecap="round" stroke-linejoin="round"/>
</g>
<mask id="mask8_252_1498" style="mask-type:luminance" maskUnits="userSpaceOnUse" x="0" y="0" width="1000" height="667">
<path d="M0 -0.000123024H1000V666.667H0V-0.000123024Z" fill="white"/>
</mask>
<g mask="url(#mask8_252_1498)">
<path d="M438.224 319.821C438.224 319.821 438.224 313.522 429.407 304.705C420.588 295.888 414.92 290.849 414.92 290.849C414.92 290.849 410.511 305.334 418.699 314.153C426.887 322.97 438.224 331.158 438.224 331.158V319.821Z" fill="#5AE4A7"/>
<path d="M425.426 359.156C425.426 359.156 425.426 352.857 416.609 344.04C407.79 335.222 402.122 330.184 402.122 330.184C402.122 330.184 397.713 344.67 405.901 353.488C414.089 362.305 425.426 370.493 425.426 370.493V359.156Z" fill="#5AE4A7"/>
<path d="M437.669 330.549C437.669 330.549 438.335 324.286 448.035 316.449C457.735 308.613 463.904 304.201 463.904 304.201C463.904 304.201 466.757 319.073 457.684 326.975C448.611 334.879 436.472 341.823 436.472 341.823L437.669 330.549Z" fill="#5AE4A7"/>
<path d="M422.21 377.003C422.21 377.003 423.53 370.844 433.999 364.071C444.468 357.296 451.067 353.556 451.067 353.556C451.067 353.556 452.343 368.644 442.49 375.552C432.635 382.459 419.835 388.088 419.835 388.088L422.21 377.003Z" fill="#5AE4A7"/>
<path d="M425.116 427.652C425.116 427.652 425.116 421.354 433.933 412.535C442.752 403.718 448.421 398.68 448.421 398.68C448.421 398.68 452.829 413.166 444.641 421.983C436.453 430.8 425.116 438.99 425.116 438.99V427.652Z" fill="#5AE4A7"/>
<path d="M424.969 440.014C424.969 440.014 425.864 433.779 418.389 423.798C410.913 413.818 406.018 408.023 406.018 408.023C406.018 408.023 399.596 421.737 406.448 431.629C413.3 441.521 423.358 451.237 423.358 451.237L424.969 440.014Z" fill="#5AE4A7"/>
<path d="M416.274 476.652C416.274 476.652 416.274 470.353 425.092 461.536C433.91 452.719 439.578 447.68 439.578 447.68C439.578 447.68 443.988 462.167 435.8 470.984C427.612 479.801 416.274 487.991 416.274 487.991V476.652Z" fill="#5AE4A7"/>
<path d="M422.162 509.871C422.162 509.871 420.568 503.778 426.864 493.014C433.162 482.25 437.369 475.94 437.369 475.94C437.369 475.94 445.302 488.839 439.616 499.442C433.928 510.046 425.034 520.839 425.034 520.839L422.162 509.871Z" fill="#5AE4A7"/>
<path d="M439.023 318.207C438.507 324.939 437.742 331.904 436.607 337.763C433.122 355.773 424.408 367.392 420.922 383.657C417.436 399.924 427.443 420.88 424.763 441.773C422.084 462.667 413.951 474.285 416.275 488.228C418.599 502.171 430.799 539.932 430.799 539.932" stroke="#1A2E35" stroke-width="1.33333" stroke-miterlimit="10" stroke-linecap="round" stroke-linejoin="round"/>
<path d="M437.582 334.734L447.085 327.442" stroke="#1A2E35" stroke-width="1.33333" stroke-miterlimit="10" stroke-linecap="round" stroke-linejoin="round"/>
<path d="M438.025 326.337L434.048 319.265" stroke="#1A2E35" stroke-width="1.33333" stroke-miterlimit="10" stroke-linecap="round" stroke-linejoin="round"/>
<path d="M421.45 382.911C421.45 382.911 429.406 376.943 437.582 370.978" stroke="#1A2E35" stroke-width="1.33333" stroke-miterlimit="10" stroke-linecap="round" stroke-linejoin="round"/>
<path d="M425.426 370.493C425.426 370.493 418.798 357.497 411.285 348.878" stroke="#1A2E35" stroke-width="1.33333" stroke-miterlimit="10" stroke-linecap="round" stroke-linejoin="round"/>
<path d="M425.428 436.612C425.428 436.612 431.616 424.457 442.444 413.85" stroke="#1A2E35" stroke-width="1.33333" stroke-miterlimit="10" stroke-linecap="round" stroke-linejoin="round"/>
<path d="M423.881 445.452C423.881 445.452 419.904 435.949 415.262 429.098C410.622 422.248 409.958 421.364 409.958 421.364" stroke="#1A2E35" stroke-width="1.33333" stroke-miterlimit="10" stroke-linecap="round" stroke-linejoin="round"/>
<path d="M416.275 488.228C416.275 488.228 419.462 480.146 423.44 473.738C427.418 467.329 432.72 461.585 432.72 461.585" stroke="#1A2E35" stroke-width="1.33333" stroke-miterlimit="10" stroke-linecap="round" stroke-linejoin="round"/>
<path d="M425.034 520.838C425.034 520.838 424.102 513.297 427.418 506.886C430.731 500.478 434.489 492.081 436.035 488.765" stroke="#1A2E35" stroke-width="1.33333" stroke-miterlimit="10" stroke-linecap="round" stroke-linejoin="round"/>
<path d="M380.481 403.964C380.481 403.964 379.797 400.015 384.371 393.528C388.943 387.042 391.951 383.267 391.951 383.267C391.951 383.267 396.287 391.872 392.111 398.29C387.933 404.708 381.712 411.074 381.712 411.074L380.481 403.964Z" fill="#5AE4A7"/>
<path d="M392.777 427.242C392.777 427.242 392.093 423.291 396.666 416.804C401.238 410.319 404.245 406.543 404.245 406.543C404.245 406.543 408.582 415.148 404.406 421.567C400.227 427.986 394.007 434.351 394.007 434.351L392.777 427.242Z" fill="#5AE4A7"/>
<path d="M381.994 410.631C381.994 410.631 380.897 406.775 373.964 402.915C367.029 399.053 362.682 396.957 362.682 396.957C362.682 396.957 362.508 406.593 369.054 410.563C375.604 414.534 383.969 417.571 383.969 417.571L381.994 410.631Z" fill="#5AE4A7"/>
<path d="M396.731 438.083C396.731 438.083 395.235 434.364 387.934 431.254C380.634 428.142 376.09 426.512 376.09 426.512C376.09 426.512 376.929 436.112 383.857 439.375C390.786 442.636 399.425 444.778 399.425 444.778L396.731 438.083Z" fill="#5AE4A7"/>
<path d="M400.407 470.16C400.407 470.16 399.723 466.21 393.238 461.637C386.75 457.066 382.648 454.521 382.648 454.521C382.648 454.521 381.456 464.084 387.548 468.725C393.64 473.365 401.639 477.269 401.639 477.269L400.407 470.16Z" fill="#5AE4A7"/>
<path d="M401.842 477.897C401.842 477.897 400.603 474.084 404.207 467.013C407.811 459.942 410.253 455.778 410.253 455.778C410.253 455.778 415.769 463.681 412.546 470.628C409.323 477.574 404.07 484.758 404.07 484.758L401.842 477.897Z" fill="#5AE4A7"/>
<path d="M412.91 509.755C412.91 509.755 413.367 505.774 419.582 500.839C425.798 495.903 429.747 493.128 429.747 493.128C429.747 493.128 431.483 502.608 425.666 507.588C419.85 512.568 412.086 516.923 412.086 516.923L412.91 509.755Z" fill="#5AE4A7"/>
<path d="M411.272 499.928C411.272 499.928 410.588 495.978 404.101 491.406C397.614 486.834 393.513 484.29 393.513 484.29C393.513 484.29 392.321 493.852 398.412 498.494C404.504 503.134 412.502 507.038 412.502 507.038L411.272 499.928Z" fill="#5AE4A7"/>
<path d="M411.185 521.397C411.185 521.397 411.524 517.403 406.408 511.337C401.29 505.27 397.966 501.77 397.966 501.77C397.966 501.77 394.39 510.719 399.109 516.753C403.826 522.785 410.574 528.587 410.574 528.587L411.185 521.397Z" fill="#5AE4A7"/>
<path d="M379.805 403.039C380.86 407.204 382.096 411.49 383.443 415.04C387.584 425.955 394.309 432.295 398.261 442.118C402.213 451.939 398.213 466.167 402.161 478.978C406.109 491.788 412.472 498.191 412.528 507.186C412.584 516.182 409.033 541.186 409.033 541.186" stroke="#1A2E35" stroke-width="1.33333" stroke-miterlimit="10" stroke-linecap="round" stroke-linejoin="round"/>
<path d="M382.503 413.247L375.752 409.706" stroke="#1A2E35" stroke-width="1.33333" stroke-miterlimit="10" stroke-linecap="round" stroke-linejoin="round"/>
<path d="M381.314 408.028L383.041 403.163" stroke="#1A2E35" stroke-width="1.33333" stroke-miterlimit="10" stroke-linecap="round" stroke-linejoin="round"/>
<path d="M397.849 441.706C397.849 441.706 392.212 438.828 386.437 435.974" stroke="#1A2E35" stroke-width="1.33333" stroke-miterlimit="10" stroke-linecap="round" stroke-linejoin="round"/>
<path d="M394.007 434.352C394.007 434.352 396.753 425.482 400.53 419.262" stroke="#1A2E35" stroke-width="1.33333" stroke-miterlimit="10" stroke-linecap="round" stroke-linejoin="round"/>
<path d="M401.184 475.812C401.184 475.812 395.984 468.862 388.043 463.387" stroke="#1A2E35" stroke-width="1.33333" stroke-miterlimit="10" stroke-linecap="round" stroke-linejoin="round"/>
<path d="M403.114 481.187C403.114 481.187 404.577 474.796 406.743 469.996C408.91 465.198 409.23 464.571 409.23 464.571" stroke="#1A2E35" stroke-width="1.33333" stroke-miterlimit="10" stroke-linecap="round" stroke-linejoin="round"/>
<path d="M412.222 514.009C412.222 514.009 416.695 508.525 419.481 506.473C422.266 504.421 424.195 502.373 424.195 502.373" stroke="#1A2E35" stroke-width="1.33333" stroke-miterlimit="10" stroke-linecap="round" stroke-linejoin="round"/>
<path d="M412.528 507.186C412.528 507.186 409.652 502.465 406.461 498.879C403.272 495.291 399.323 492.265 399.323 492.265" stroke="#1A2E35" stroke-width="1.33333" stroke-miterlimit="10" stroke-linecap="round" stroke-linejoin="round"/>
<path d="M410.575 528.587C410.575 528.587 410.34 523.756 407.567 520.098C404.792 516.438 401.524 511.579 400.194 509.67" stroke="#1A2E35" stroke-width="1.33333" stroke-miterlimit="10" stroke-linecap="round" stroke-linejoin="round"/>
<path d="M439.941 584.259H399.778C398.126 584.259 396.788 582.919 396.788 581.267L391.02 536.825H448.701L442.933 581.268C442.933 582.919 441.593 584.259 439.941 584.259Z" fill="#1A2E35"/>
</g>
<mask id="mask9_252_1498" style="mask-type:luminance" maskUnits="userSpaceOnUse" x="0" y="0" width="1000" height="667">
<path d="M0 -0.000123024H1000V666.667H0V-0.000123024Z" fill="white"/>
</mask>
<g mask="url(#mask9_252_1498)">
<path d="M469.957 178.424L462.207 162.922C465.028 161.636 466.993 158.797 466.993 155.493V121.372C466.993 116.861 463.337 113.204 458.825 113.204H398.795C394.284 113.204 390.627 116.861 390.627 121.372V155.493C390.627 160.005 394.284 163.661 398.795 163.661H444.297L469.957 178.424Z" fill="#1A2E35"/>
<path d="M469.957 178.424L462.207 162.922C465.028 161.636 466.993 158.797 466.993 155.493V121.372C466.993 116.861 463.337 113.204 458.825 113.204H398.795C394.284 113.204 390.627 116.861 390.627 121.372V155.493C390.627 160.005 394.284 163.661 398.795 163.661H444.297L469.957 178.424Z" stroke="#1A2E35" stroke-width="1.33333" stroke-miterlimit="10" stroke-linecap="round" stroke-linejoin="round"/>
<path d="M473.608 175.503L465.857 160.002C468.678 158.715 470.644 155.876 470.644 152.572V118.451C470.644 113.94 466.988 110.283 462.476 110.283H402.445C397.934 110.283 394.277 113.94 394.277 118.451V152.572C394.277 157.084 397.934 160.74 402.445 160.74H447.949L473.608 175.503Z" fill="white"/>
<path d="M473.608 175.503L465.857 160.002C468.678 158.715 470.644 155.876 470.644 152.572V118.451C470.644 113.94 466.988 110.283 462.476 110.283H402.445C397.934 110.283 394.277 113.94 394.277 118.451V152.572C394.277 157.084 397.934 160.74 402.445 160.74H447.949L473.608 175.503Z" stroke="#1A2E35" stroke-width="1.33333" stroke-miterlimit="10" stroke-linecap="round" stroke-linejoin="round"/>
<path d="M420.164 135.635C420.164 133.871 418.735 132.441 416.971 132.441C415.208 132.441 413.779 133.871 413.779 135.635C413.779 137.397 415.208 138.827 416.971 138.827C418.735 138.827 420.164 137.397 420.164 135.635Z" fill="#1A2E35"/>
<path d="M436.025 135.635C436.025 133.871 434.596 132.441 432.832 132.441C431.069 132.441 429.64 133.871 429.64 135.635C429.64 137.397 431.069 138.827 432.832 138.827C434.596 138.827 436.025 137.397 436.025 135.635Z" fill="#1A2E35"/>
<path d="M451.886 135.635C451.886 133.871 450.457 132.441 448.693 132.441C446.93 132.441 445.501 133.871 445.501 135.635C445.501 137.397 446.93 138.827 448.693 138.827C450.457 138.827 451.886 137.397 451.886 135.635Z" fill="#1A2E35"/>
</g>
<mask id="mask10_252_1498" style="mask-type:luminance" maskUnits="userSpaceOnUse" x="0" y="0" width="1000" height="667">
<path d="M0 -0.000123024H1000V666.667H0V-0.000123024Z" fill="white"/>
</mask>
<g mask="url(#mask10_252_1498)">
<path d="M512.972 326.872C512.972 326.872 509.54 353.754 509.54 382.352C509.54 410.949 508.617 454.788 510.18 467.9C518.191 535.112 519.503 544.956 522.184 563.369C522.536 565.781 524.253 567.762 526.589 568.464C530.472 569.629 534.424 566.862 534.657 562.816L543.961 460.238L549.577 378.348C549.577 378.348 554.907 458.128 557.195 472.428C559.143 484.605 574.243 544.802 578.224 560.945C579.072 564.381 581.649 567.221 585.083 568.081C585.483 568.181 585.857 568.238 586.184 568.238C587.731 568.238 589.279 564.836 590.117 562.634C590.543 561.521 590.761 560.345 590.767 559.153L591.672 469.641L592.475 368.053C592.475 368.053 595.791 345.414 594.133 335.285C592.475 325.156 512.972 326.872 512.972 326.872Z" fill="#1A2E35"/>
<path d="M512.972 326.872C512.972 326.872 509.54 353.754 509.54 382.352C509.54 410.949 508.617 454.788 510.18 467.9C518.191 535.112 519.503 544.956 522.184 563.369C522.536 565.781 524.253 567.762 526.589 568.464C530.472 569.629 534.424 566.862 534.657 562.816L543.961 460.238L549.577 378.348C549.577 378.348 554.907 458.128 557.195 472.428C559.143 484.605 574.243 544.802 578.224 560.945C579.072 564.381 581.649 567.221 585.083 568.081C585.483 568.181 585.857 568.238 586.184 568.238C587.731 568.238 589.279 564.836 590.117 562.634C590.543 561.521 590.761 560.345 590.767 559.153L591.672 469.641L592.475 368.053C592.475 368.053 595.791 345.414 594.133 335.285C592.475 325.156 512.972 326.872 512.972 326.872Z" stroke="#1A2E35" stroke-width="1.33333" stroke-miterlimit="10" stroke-linecap="round" stroke-linejoin="round"/>
<path d="M547.862 376.06L530.131 368.053" stroke="white" stroke-width="1.33333" stroke-miterlimit="10" stroke-linecap="round" stroke-linejoin="round"/>
<path d="M590.794 340.107C592.649 338.993 594.133 337.139 594.133 335.285V327.127L608.968 232.185C608.968 232.185 581.894 218.092 572.622 216.608C563.35 215.125 555.562 214.755 555.562 214.755L553.337 215.125C553.337 215.125 523.669 217.721 521.072 220.688C518.856 223.221 497.974 267.953 491.928 280.955L504.902 306.904C509.164 303.171 514.026 297.828 514.026 297.828C514.026 297.828 510.317 328.609 510.688 330.835C511.06 333.06 515.509 333.431 515.509 333.431C515.509 333.431 588.94 341.219 590.794 340.107Z" fill="white"/>
<path d="M590.794 340.107C592.649 338.993 594.133 337.139 594.133 335.285V327.127L608.968 232.185C608.968 232.185 581.894 218.092 572.622 216.608C563.35 215.125 555.562 214.755 555.562 214.755L553.337 215.125C553.337 215.125 523.669 217.721 521.072 220.688C518.856 223.221 497.974 267.953 491.928 280.955L504.902 306.904C509.164 303.171 514.026 297.828 514.026 297.828C514.026 297.828 510.317 328.609 510.688 330.835C511.06 333.06 515.509 333.431 515.509 333.431C515.509 333.431 588.94 341.219 590.794 340.107Z" stroke="#1A2E35" stroke-width="1.33333" stroke-miterlimit="10" stroke-linecap="round" stroke-linejoin="round"/>
<path d="M514.026 297.828L522.832 242.503" stroke="#1A2E35" stroke-width="1.33333" stroke-miterlimit="10" stroke-linecap="round" stroke-linejoin="round"/>
<path d="M490.291 284.477L465.509 250.738C465.509 250.738 465.509 242.953 464.645 239.205C463.779 235.457 459.454 233.726 457.435 230.556C455.417 227.384 451.381 223.922 450.515 226.806C449.65 229.69 455.129 236.321 455.129 236.321L440.423 232.285C440.423 232.285 433.791 228.249 433.791 230.556C433.791 232.862 439.558 246.413 443.018 248.432C446.479 250.45 456.859 256.794 456.859 256.794C456.859 256.794 479.561 300.072 481.002 302.954C482.443 305.838 490.229 312.181 494.265 311.893C498.302 311.605 504.902 306.904 504.902 306.904L490.291 284.477Z" fill="white"/>
<path d="M490.291 284.477L465.509 250.738C465.509 250.738 465.509 242.953 464.645 239.205C463.779 235.457 459.454 233.726 457.435 230.556C455.417 227.384 451.381 223.922 450.515 226.806C449.65 229.69 455.129 236.321 455.129 236.321L440.423 232.285C440.423 232.285 433.791 228.249 433.791 230.556C433.791 232.862 439.558 246.413 443.018 248.432C446.479 250.45 456.859 256.794 456.859 256.794C456.859 256.794 479.561 300.072 481.002 302.954C482.443 305.838 490.229 312.181 494.265 311.893C498.302 311.605 504.902 306.904 504.902 306.904L490.291 284.477Z" stroke="#1A2E35" stroke-width="1.33333" stroke-miterlimit="10" stroke-linecap="round" stroke-linejoin="round"/>
<path d="M443.884 246.414C443.884 246.414 433.504 234.015 436.964 233.151C440.424 232.286 443.018 237.475 443.306 238.916C443.596 240.359 448.209 244.107 448.209 244.107C448.209 244.107 456.57 244.395 458.301 246.126C460.03 247.856 460.318 251.027 460.318 251.027" fill="white"/>
<path d="M443.884 246.414C443.884 246.414 433.504 234.015 436.964 233.151C440.424 232.286 443.018 237.475 443.306 238.916C443.596 240.359 448.209 244.107 448.209 244.107C448.209 244.107 456.57 244.395 458.301 246.126C460.03 247.856 460.318 251.027 460.318 251.027" stroke="#1A2E35" stroke-width="1.33333" stroke-miterlimit="10" stroke-linecap="round" stroke-linejoin="round"/>
<path d="M490.291 284.477C490.291 284.477 501.122 307.017 501.122 309.062C501.122 311.11 505.726 310.598 505.726 310.598C505.726 310.598 512.889 305.481 512.378 299.853C511.866 294.225 497.027 270.689 497.027 270.689C497.027 270.689 488.159 274.728 490.291 284.477Z" fill="white"/>
<path d="M490.291 284.477C490.291 284.477 501.122 307.017 501.122 309.062C501.122 311.11 505.726 310.598 505.726 310.598C505.726 310.598 512.889 305.481 512.378 299.853C511.866 294.225 497.027 270.689 497.027 270.689C497.027 270.689 488.159 274.728 490.291 284.477Z" stroke="#1A2E35" stroke-width="1.33333" stroke-miterlimit="10" stroke-linecap="round" stroke-linejoin="round"/>
<path d="M557.046 208.82C557.046 208.82 551.854 211.045 551.113 214.383C550.37 217.721 548.888 231.815 545.549 236.264C542.212 240.715 541.47 243.311 541.47 243.311L554.821 238.86L569.656 255.92C569.656 255.92 572.252 244.424 577.073 235.893C581.894 227.364 585.232 225.139 585.232 218.092C585.232 211.045 576.33 207.708 573.736 207.337C571.14 206.965 557.046 208.82 557.046 208.82Z" fill="white"/>
<path d="M557.046 208.82C557.046 208.82 551.854 211.045 551.113 214.383C550.37 217.721 548.888 231.815 545.549 236.264C542.212 240.715 541.47 243.311 541.47 243.311L554.821 238.86L569.656 255.92C569.656 255.92 572.252 244.424 577.073 235.893C581.894 227.364 585.232 225.139 585.232 218.092C585.232 211.045 576.33 207.708 573.736 207.337C571.14 206.965 557.046 208.82 557.046 208.82Z" stroke="#1A2E35" stroke-width="1.33333" stroke-miterlimit="10" stroke-linecap="round" stroke-linejoin="round"/>
<path d="M538.503 153.933C538.503 153.933 536.278 162.462 537.761 164.317C539.245 166.172 540.358 170.25 538.874 172.476C537.391 174.701 533.682 178.781 534.053 179.893C534.423 181.006 540.358 183.973 540.358 183.973C540.358 183.973 540.727 201.033 543.695 202.145C546.662 203.258 554.45 202.886 554.45 202.886L554.821 238.861L578.927 214.754L578.186 190.649C578.186 190.649 585.603 186.94 587.457 183.601C589.311 180.265 586.343 172.848 586.343 172.848C586.343 172.848 585.603 155.788 585.603 153.933C585.603 152.078 583.749 142.436 572.994 142.065C562.238 141.694 538.503 153.933 538.503 153.933Z" fill="white"/>
<path d="M538.503 153.933C538.503 153.933 536.278 162.462 537.761 164.317C539.245 166.172 540.358 170.25 538.874 172.476C537.391 174.701 533.682 178.781 534.053 179.893C534.423 181.006 540.358 183.973 540.358 183.973C540.358 183.973 540.727 201.033 543.695 202.145C546.662 203.258 554.45 202.886 554.45 202.886L554.821 238.861L578.927 214.754L578.186 190.649C578.186 190.649 585.603 186.94 587.457 183.601C589.311 180.265 586.343 172.848 586.343 172.848C586.343 172.848 585.603 155.788 585.603 153.933C585.603 152.078 583.749 142.436 572.994 142.065C562.238 141.694 538.503 153.933 538.503 153.933Z" stroke="#1A2E35" stroke-width="1.33333" stroke-miterlimit="10" stroke-linecap="round" stroke-linejoin="round"/>
<path d="M548.145 170.065C548.145 171.396 547.481 172.476 546.663 172.476C545.843 172.476 545.179 171.396 545.179 170.065C545.179 168.733 545.843 167.655 546.663 167.655C547.481 167.655 548.145 168.733 548.145 170.065Z" fill="#1A2E35"/>
<path d="M543.324 166.171C543.324 166.171 547.034 162.834 551.112 167.283" stroke="#1A2E35" stroke-width="1.33333" stroke-miterlimit="10" stroke-linecap="round" stroke-linejoin="round"/>
<path d="M554.45 202.887C554.45 202.887 562.158 199.86 567.478 196.471L554.595 210.985L554.45 202.887Z" fill="#1A2E35"/>
<path d="M554.45 202.887C554.45 202.887 562.158 199.86 567.478 196.471L554.595 210.985L554.45 202.887Z" stroke="#1A2E35" stroke-width="1.33333" stroke-miterlimit="10" stroke-linecap="round" stroke-linejoin="round"/>
<path d="M571.139 150.224C571.139 150.224 540.727 157.27 534.423 156.529C528.118 155.786 523.298 143.177 528.49 136.873C533.682 130.568 557.787 127.23 569.285 130.568C580.781 133.906 596.358 142.065 595.245 147.257C594.133 152.449 586.343 172.846 586.343 172.846C586.343 172.846 580.039 169.509 578.186 173.217C576.331 176.926 575.961 178.78 575.961 178.78C575.961 178.78 574.847 181.377 573.363 178.78C571.881 176.184 571.881 173.588 568.914 169.138C565.946 164.688 560.754 159.866 562.979 157.641C565.205 155.416 571.139 150.224 571.139 150.224Z" fill="#1A2E35"/>
<path d="M571.139 150.224C571.139 150.224 540.727 157.27 534.423 156.529C528.118 155.786 523.298 143.177 528.49 136.873C533.682 130.568 557.787 127.23 569.285 130.568C580.781 133.906 596.358 142.065 595.245 147.257C594.133 152.449 586.343 172.846 586.343 172.846C586.343 172.846 580.039 169.509 578.186 173.217C576.331 176.926 575.961 178.78 575.961 178.78C575.961 178.78 574.847 181.377 573.363 178.78C571.881 176.184 571.881 173.588 568.914 169.138C565.946 164.688 560.754 159.866 562.979 157.641C565.205 155.416 571.139 150.224 571.139 150.224Z" stroke="#1A2E35" stroke-width="1.33333" stroke-miterlimit="10" stroke-linecap="round" stroke-linejoin="round"/>
<path d="M540.358 183.972C540.358 183.972 548.971 181.955 552.419 183.95C555.866 185.946 562.035 190.664 562.035 190.664C562.035 190.664 567.66 189.575 569.474 187.398C571.288 185.22 571.288 175.242 571.288 175.242H576.006C576.006 175.242 575.824 179.778 575.643 184.314C575.462 188.85 574.01 191.752 572.195 193.748C570.382 195.744 562.58 199.01 562.58 199.01L552.963 203.183L543.695 202.144C543.695 202.144 539.727 193.248 540.358 183.972Z" fill="#1A2E35"/>
<path d="M540.358 183.972C540.358 183.972 548.971 181.955 552.419 183.95C555.866 185.946 562.035 190.664 562.035 190.664C562.035 190.664 567.66 189.575 569.474 187.398C571.288 185.22 571.288 175.242 571.288 175.242H576.006C576.006 175.242 575.824 179.778 575.643 184.314C575.462 188.85 574.01 191.752 572.195 193.748C570.382 195.744 562.58 199.01 562.58 199.01L552.963 203.183L543.695 202.144C543.695 202.144 539.727 193.248 540.358 183.972Z" stroke="#1A2E35" stroke-width="1.33333" stroke-miterlimit="10" stroke-linecap="round" stroke-linejoin="round"/>
<path d="M541.895 188.124C541.895 188.124 544.979 189.576 549.697 186.309" stroke="white" stroke-width="1.33333" stroke-miterlimit="10" stroke-linecap="round" stroke-linejoin="round"/>
<path d="M491.927 280.954L537.118 278.268L558.961 323.838L519.174 320.885L491.927 280.954Z" fill="#5AE4A7"/>
<path d="M491.927 280.954L537.118 278.268L558.961 323.838L519.174 320.885L491.927 280.954Z" stroke="#1A2E35" stroke-width="1.33333" stroke-miterlimit="10" stroke-linecap="round" stroke-linejoin="round"/>
<path d="M493.6 282.584L535.324 280.053L557.167 325.623L520.847 322.516L493.6 282.584Z" fill="white"/>
<path d="M493.6 282.584L535.324 280.053L557.167 325.623L520.847 322.516L493.6 282.584Z" stroke="#1A2E35" stroke-width="1.33333" stroke-miterlimit="10" stroke-linecap="round" stroke-linejoin="round"/>
<path d="M491.927 280.954L515.959 323.901L556.379 326.972L534.378 281.945L491.927 280.954Z" fill="#5AE4A7"/>
<path d="M491.927 280.954L515.959 323.901L556.379 326.972L534.378 281.945L491.927 280.954Z" stroke="#1A2E35" stroke-width="1.33333" stroke-miterlimit="10" stroke-linecap="round" stroke-linejoin="round"/>
<path d="M588.615 257.386L597.824 309.063L627.5 315.203C627.5 315.203 619.825 241.524 617.779 236.919C615.732 232.315 602.428 228.732 600.893 228.732" fill="white"/>
<path d="M588.615 257.386L597.824 309.063L627.5 315.203C627.5 315.203 619.825 241.524 617.779 236.919C615.732 232.315 602.428 228.732 600.893 228.732" stroke="#1A2E35" stroke-width="1.33333" stroke-miterlimit="10" stroke-linecap="round" stroke-linejoin="round"/>
<path d="M590.66 308.039C590.66 308.039 593.219 295.249 599.359 294.225C605.499 293.202 623.407 292.178 627.5 301.899C631.594 311.622 632.104 317.249 629.035 320.831C625.966 324.413 618.291 321.854 606.522 318.273C594.754 314.691 590.66 308.039 590.66 308.039Z" fill="white"/>
<path d="M590.66 308.039C590.66 308.039 593.219 295.249 599.359 294.225C605.499 293.202 623.407 292.178 627.5 301.899C631.594 311.622 632.104 317.249 629.035 320.831C625.966 324.413 618.291 321.854 606.522 318.273C594.754 314.691 590.66 308.039 590.66 308.039Z" stroke="#1A2E35" stroke-width="1.33333" stroke-miterlimit="10" stroke-linecap="round" stroke-linejoin="round"/>
<path d="M563.722 303.762L543.695 298.199L523.669 308.212C523.669 308.212 521.073 309.695 522.555 311.179C524.039 312.663 526.635 311.55 526.635 311.55C526.635 311.55 525.151 313.775 526.635 314.887C528.118 316 536.649 313.404 536.649 313.404C536.649 313.404 528.49 318.967 531.086 320.08C533.682 321.192 545.55 315.259 545.55 315.259L538.89 320.966C538.282 321.487 538.425 322.492 539.174 322.775C539.846 323.03 540.086 323.162 541.182 323.004C543.778 322.634 553.014 315.684 553.014 315.684L567.059 315.63C567.059 315.63 616.385 326.014 623.059 325.643C629.735 325.272 630.847 313.034 626.397 307.471C621.947 301.907 611.562 302.65 608.967 302.65C606.371 302.65 563.722 303.762 563.722 303.762Z" fill="white"/>
<path d="M563.722 303.762L543.695 298.199L523.669 308.212C523.669 308.212 521.073 309.695 522.555 311.179C524.039 312.663 526.635 311.55 526.635 311.55C526.635 311.55 525.151 313.775 526.635 314.887C528.118 316 536.649 313.404 536.649 313.404C536.649 313.404 528.49 318.967 531.086 320.08C533.682 321.192 545.55 315.259 545.55 315.259L538.89 320.966C538.282 321.487 538.425 322.492 539.174 322.775C539.846 323.03 540.086 323.162 541.182 323.004C543.778 322.634 553.014 315.684 553.014 315.684L567.059 315.63C567.059 315.63 616.385 326.014 623.059 325.643C629.735 325.272 630.847 313.034 626.397 307.471C621.947 301.907 611.562 302.65 608.967 302.65C606.371 302.65 563.722 303.762 563.722 303.762Z" stroke="#1A2E35" stroke-width="1.33333" stroke-miterlimit="10" stroke-linecap="round" stroke-linejoin="round"/>
<path d="M526.636 311.55L536.649 307.84" stroke="#1A2E35" stroke-width="1.33333" stroke-miterlimit="10" stroke-linecap="round" stroke-linejoin="round"/>
<path d="M536.649 313.404L541.47 311.55Z" fill="white"/>
<path d="M536.649 313.404L541.47 311.55" stroke="#1A2E35" stroke-width="1.33333" stroke-miterlimit="10" stroke-linecap="round" stroke-linejoin="round"/>
<path d="M522.184 563.369L517.936 570.525C517.936 570.525 499.68 581.267 499.13 582.094C498.579 582.919 500.782 584.847 504.363 584.573C507.943 584.297 525.57 583.195 525.57 583.195C525.57 583.195 530.802 583.195 533.004 582.645C535.208 582.094 536.31 582.094 536.31 578.238C536.31 574.383 534.656 562.815 534.656 562.815L522.184 563.369Z" fill="white"/>
<path d="M522.184 563.369L517.936 570.525C517.936 570.525 499.68 581.267 499.13 582.094C498.579 582.919 500.782 584.847 504.363 584.573C507.943 584.297 525.57 583.195 525.57 583.195C525.57 583.195 530.802 583.195 533.004 582.645C535.208 582.094 536.31 582.094 536.31 578.238C536.31 574.383 534.656 562.815 534.656 562.815L522.184 563.369Z" stroke="#1A2E35" stroke-width="1.33333" stroke-miterlimit="10" stroke-linecap="round" stroke-linejoin="round"/>
<path d="M578.224 560.945L577.428 572.568C577.428 572.568 573.489 584.204 573.668 585.637C573.848 587.069 578.503 589.039 581.367 589.039C584.232 589.039 588.707 587.607 590.677 586.353C592.645 585.1 593.541 582.772 593.184 580.265C592.825 577.759 591.393 567.019 591.393 566.48C591.393 565.944 591.213 560.751 591.213 560.751L588.529 562.005C588.529 562.005 587.275 560.573 585.307 560.393C583.336 560.215 578.224 560.945 578.224 560.945Z" fill="white"/>
<path d="M578.224 560.945L577.428 572.568C577.428 572.568 573.489 584.204 573.668 585.637C573.848 587.069 578.503 589.039 581.367 589.039C584.232 589.039 588.707 587.607 590.677 586.353C592.645 585.1 593.541 582.772 593.184 580.265C592.825 577.759 591.393 567.019 591.393 566.48C591.393 565.944 591.213 560.751 591.213 560.751L588.529 562.005C588.529 562.005 587.275 560.573 585.307 560.393C583.336 560.215 578.224 560.945 578.224 560.945Z" stroke="#1A2E35" stroke-width="1.33333" stroke-miterlimit="10" stroke-linecap="round" stroke-linejoin="round"/>
</g>
<mask id="mask11_252_1498" style="mask-type:luminance" maskUnits="userSpaceOnUse" x="0" y="0" width="1000" height="667">
<path d="M0 -0.000123024H1000V666.667H0V-0.000123024Z" fill="white"/>
</mask>
<g mask="url(#mask11_252_1498)">
<path d="M109.309 576.553C109.309 572.298 105.86 568.848 101.604 568.848C97.3481 568.848 93.8975 572.298 93.8975 576.553C93.8975 580.808 97.3481 584.258 101.604 584.258C105.86 584.258 109.309 580.808 109.309 576.553Z" fill="#1A2E35"/>
<path d="M109.309 576.553C109.309 572.298 105.86 568.848 101.604 568.848C97.3481 568.848 93.8975 572.298 93.8975 576.553C93.8975 580.808 97.3481 584.258 101.604 584.258C105.86 584.258 109.309 580.808 109.309 576.553Z" stroke="#1A2E35" stroke-width="1.33333" stroke-miterlimit="10" stroke-linecap="round" stroke-linejoin="round"/>
<path d="M105.457 576.553C105.457 574.425 103.731 572.7 101.603 572.7C99.4752 572.7 97.7512 574.425 97.7512 576.553C97.7512 578.681 99.4752 580.406 101.603 580.406C103.731 580.406 105.457 578.681 105.457 576.553Z" fill="white"/>
<path d="M105.457 576.553C105.457 574.425 103.731 572.7 101.603 572.7C99.4752 572.7 97.7512 574.425 97.7512 576.553C97.7512 578.681 99.4752 580.406 101.603 580.406C103.731 580.406 105.457 578.681 105.457 576.553Z" stroke="#1A2E35" stroke-width="1.33333" stroke-miterlimit="10" stroke-linecap="round" stroke-linejoin="round"/>
<path d="M191.843 576.553C191.843 572.298 188.393 568.848 184.137 568.848C179.881 568.848 176.432 572.298 176.432 576.553C176.432 580.808 179.881 584.258 184.137 584.258C188.393 584.258 191.843 580.808 191.843 576.553Z" fill="#1A2E35"/>
<path d="M191.843 576.553C191.843 572.298 188.393 568.848 184.137 568.848C179.881 568.848 176.432 572.298 176.432 576.553C176.432 580.808 179.881 584.258 184.137 584.258C188.393 584.258 191.843 580.808 191.843 576.553Z" stroke="#1A2E35" stroke-width="1.33333" stroke-miterlimit="10" stroke-linecap="round" stroke-linejoin="round"/>
<path d="M187.99 576.553C187.99 574.425 186.265 572.7 184.137 572.7C182.009 572.7 180.285 574.425 180.285 576.553C180.285 578.681 182.009 580.406 184.137 580.406C186.265 580.406 187.99 578.681 187.99 576.553Z" fill="white"/>
<path d="M187.99 576.553C187.99 574.425 186.265 572.7 184.137 572.7C182.009 572.7 180.285 574.425 180.285 576.553C180.285 578.681 182.009 580.406 184.137 580.406C186.265 580.406 187.99 578.681 187.99 576.553Z" stroke="#1A2E35" stroke-width="1.33333" stroke-miterlimit="10" stroke-linecap="round" stroke-linejoin="round"/>
<path d="M218.813 576.553C218.813 572.298 215.364 568.848 211.108 568.848C206.852 568.848 203.401 572.298 203.401 576.553C203.401 580.808 206.852 584.258 211.108 584.258C215.364 584.258 218.813 580.808 218.813 576.553Z" fill="#1A2E35"/>
<path d="M218.813 576.553C218.813 572.298 215.364 568.848 211.108 568.848C206.852 568.848 203.401 572.298 203.401 576.553C203.401 580.808 206.852 584.258 211.108 584.258C215.364 584.258 218.813 580.808 218.813 576.553Z" stroke="#1A2E35" stroke-width="1.33333" stroke-miterlimit="10" stroke-linecap="round" stroke-linejoin="round"/>
<path d="M214.961 576.553C214.961 574.425 213.235 572.7 211.107 572.7C208.979 572.7 207.254 574.425 207.254 576.553C207.254 578.681 208.979 580.406 211.107 580.406C213.235 580.406 214.961 578.681 214.961 576.553Z" fill="white"/>
<path d="M214.961 576.553C214.961 574.425 213.235 572.7 211.107 572.7C208.979 572.7 207.254 574.425 207.254 576.553C207.254 578.681 208.979 580.406 211.107 580.406C213.235 580.406 214.961 578.681 214.961 576.553Z" stroke="#1A2E35" stroke-width="1.33333" stroke-miterlimit="10" stroke-linecap="round" stroke-linejoin="round"/>
<path d="M172.193 567.742H155.894V484.354C155.894 484.327 155.916 484.307 155.942 484.307H172.145C172.172 484.307 172.193 484.327 172.193 484.354V567.742Z" fill="#1A2E35"/>
<path d="M172.193 567.742H155.894V484.354C155.894 484.327 155.916 484.307 155.942 484.307H172.145C172.172 484.307 172.193 484.327 172.193 484.354V567.742Z" stroke="#1A2E35" stroke-width="1.33333" stroke-miterlimit="10" stroke-linecap="round" stroke-linejoin="round"/>
<path d="M176.533 567.742H151.555V508.82H176.533V567.742Z" fill="#1A2E35" stroke="#1A2E35" stroke-width="1.33333" stroke-miterlimit="10" stroke-linecap="round" stroke-linejoin="round"/>
<path d="M147.356 470.335H126.496C126.469 470.335 126.448 470.314 126.448 470.287V425.442H147.404V470.287C147.404 470.314 147.382 470.335 147.356 470.335Z" fill="#1A2E35"/>
<path d="M147.356 470.335H126.496C126.469 470.335 126.448 470.314 126.448 470.287V425.442H147.404V470.287C147.404 470.314 147.382 470.335 147.356 470.335Z" stroke="#1A2E35" stroke-width="1.33333" stroke-miterlimit="10" stroke-linecap="round" stroke-linejoin="round"/>
<path d="M178.188 425.463H96.5977C88.5591 425.463 82.0991 418.841 82.2977 410.805L84.2671 331.145C84.4591 323.383 90.8044 317.193 98.5684 317.193H165.939C173 317.193 179.006 322.345 180.079 329.325L192.327 408.985C193.66 417.65 186.955 425.463 178.188 425.463Z" fill="#5AE4A7"/>
<path d="M178.188 425.463H96.5977C88.5591 425.463 82.0991 418.841 82.2977 410.805L84.2671 331.145C84.4591 323.383 90.8044 317.193 98.5684 317.193H165.939C173 317.193 179.006 322.345 180.079 329.325L192.327 408.985C193.66 417.65 186.955 425.463 178.188 425.463Z" stroke="#1A2E35" stroke-width="1.33333" stroke-miterlimit="10" stroke-linecap="round" stroke-linejoin="round"/>
<path d="M151.528 487.217L115.729 510.792" stroke="#1A2E35" stroke-width="1.33333" stroke-miterlimit="10" stroke-linecap="round" stroke-linejoin="round"/>
<path d="M114.375 507.224L108.277 511.334C106.18 512.748 105.908 515.73 107.716 517.5L108.139 517.914C109.597 519.342 111.899 519.44 113.473 518.141L119.076 513.521C120.848 512.06 120.997 509.398 119.4 507.749C118.073 506.38 115.956 506.158 114.375 507.224Z" fill="#1A2E35"/>
<path d="M114.375 507.224L108.277 511.334C106.18 512.748 105.908 515.73 107.716 517.5L108.139 517.914C109.597 519.342 111.899 519.44 113.473 518.141L119.076 513.521C120.848 512.06 120.997 509.398 119.4 507.749C118.073 506.38 115.956 506.158 114.375 507.224Z" stroke="#1A2E35" stroke-width="1.33333" stroke-miterlimit="10" stroke-linecap="round" stroke-linejoin="round"/>
<path d="M230.403 491.292H97.6839C90.6119 491.292 84.8785 485.558 84.8785 478.486C84.8785 471.413 90.6119 465.68 97.6839 465.68H230.403C237.475 465.68 243.208 471.413 243.208 478.486C243.208 485.558 237.475 491.292 230.403 491.292Z" fill="#5AE4A7"/>
<path d="M230.403 491.292H97.6839C90.6119 491.292 84.8785 485.558 84.8785 478.486C84.8785 471.413 90.6119 465.68 97.6839 465.68H230.403C237.475 465.68 243.208 471.413 243.208 478.486C243.208 485.558 237.475 491.292 230.403 491.292Z" stroke="#1A2E35" stroke-width="1.33333" stroke-miterlimit="10" stroke-linecap="round" stroke-linejoin="round"/>
<path d="M243.117 476.932C242.349 470.4 236.442 465.68 229.866 465.68H161.087C154.511 465.68 148.605 470.4 147.837 476.932C146.922 484.699 152.966 491.292 160.551 491.292H230.402C237.986 491.292 244.031 484.699 243.117 476.932Z" fill="#5AE4A7"/>
<path d="M243.117 476.932C242.349 470.4 236.442 465.68 229.866 465.68H161.087C154.511 465.68 148.605 470.4 147.837 476.932C146.922 484.699 152.966 491.292 160.551 491.292H230.402C237.986 491.292 244.031 484.699 243.117 476.932Z" stroke="#1A2E35" stroke-width="1.33333" stroke-miterlimit="10" stroke-linecap="round" stroke-linejoin="round"/>
<path d="M221.287 572.399H93.856C93.856 568.546 96.98 565.423 100.833 565.423H214.311C218.164 565.423 221.287 568.546 221.287 572.399Z" fill="#1A2E35"/>
<path d="M221.287 572.399H93.856C93.856 568.546 96.98 565.423 100.833 565.423H214.311C218.164 565.423 221.287 568.546 221.287 572.399Z" stroke="#1A2E35" stroke-width="1.33333" stroke-miterlimit="10" stroke-linecap="round" stroke-linejoin="round"/>
<path d="M198.598 572.399H157.126V565.423H191.622C195.474 565.423 198.598 568.546 198.598 572.399Z" fill="#1A2E35"/>
<path d="M198.598 572.399H157.126V565.423H191.622C195.474 565.423 198.598 568.546 198.598 572.399Z" stroke="#1A2E35" stroke-width="1.33333" stroke-miterlimit="10" stroke-linecap="round" stroke-linejoin="round"/>
<path d="M207.505 412.132L216.687 427.282C216.687 427.282 248.821 430.495 267.184 434.627C285.547 438.759 289.219 458.956 290.137 463.088C291.163 467.703 296.859 564.04 295.023 564.499C293.187 564.958 279.415 566.335 279.415 566.335C279.415 566.335 256.167 472.728 249.28 471.351C242.395 469.975 140.483 472.271 125.335 464.007C110.185 455.743 106.512 431.872 115.235 415.346C123.956 398.82 207.505 412.132 207.505 412.132Z" fill="#1A2E35"/>
<path d="M207.505 412.132L216.687 427.282C216.687 427.282 248.821 430.495 267.184 434.627C285.547 438.759 289.219 458.956 290.137 463.088C291.163 467.703 296.859 564.04 295.023 564.499C293.187 564.958 279.415 566.335 279.415 566.335C279.415 566.335 256.167 472.728 249.28 471.351C242.395 469.975 140.483 472.271 125.335 464.007C110.185 455.743 106.512 431.872 115.235 415.346C123.956 398.82 207.505 412.132 207.505 412.132Z" stroke="#1A2E35" stroke-width="1.33333" stroke-miterlimit="10" stroke-linecap="round" stroke-linejoin="round"/>
<path d="M145.074 430.496C145.074 430.496 187.767 430.496 208.424 432.332C229.082 434.168 241.935 449.776 241.018 463.548C240.099 477.32 223.408 567.713 223.408 567.713L207.342 566.336L198.742 469.494C198.742 469.494 184.403 478.814 128.48 464.476" fill="#1A2E35"/>
<path d="M145.074 430.496C145.074 430.496 187.767 430.496 208.424 432.332C229.082 434.168 241.935 449.776 241.018 463.548C240.099 477.32 223.408 567.713 223.408 567.713L207.342 566.336L198.742 469.494C198.742 469.494 184.403 478.814 128.48 464.476" stroke="#1A2E35" stroke-width="1.33333" stroke-miterlimit="10" stroke-linecap="round" stroke-linejoin="round"/>
<path d="M295.022 564.5C295.022 564.5 322.604 569.905 322.604 572.716C322.604 575.528 287.464 583.492 283.716 583.96C279.966 584.428 279.414 566.336 279.414 566.336L295.022 564.5Z" fill="white"/>
<path d="M295.022 564.5C295.022 564.5 322.604 569.905 322.604 572.716C322.604 575.528 287.464 583.492 283.716 583.96C279.966 584.428 279.414 566.336 279.414 566.336L295.022 564.5Z" stroke="#1A2E35" stroke-width="1.33333" stroke-miterlimit="10" stroke-linecap="round" stroke-linejoin="round"/>
<path d="M281.415 581.261L320.762 571.224C321.915 571.765 322.603 572.272 322.603 572.716C322.603 575.527 287.464 583.492 283.715 583.959C282.752 584.08 282.002 582.971 281.415 581.261Z" fill="#5AE4A7"/>
<path d="M281.415 581.261L320.762 571.224C321.915 571.765 322.603 572.272 322.603 572.716C322.603 575.527 287.464 583.492 283.715 583.959C282.752 584.08 282.002 582.971 281.415 581.261Z" stroke="#1A2E35" stroke-width="1.33333" stroke-miterlimit="10" stroke-linecap="round" stroke-linejoin="round"/>
<path d="M223.409 567.713C223.409 567.713 251.386 579.743 249.513 582.555C247.638 585.365 211.094 583.96 207.346 583.492C203.597 583.023 207.342 566.336 207.342 566.336L223.409 567.713Z" fill="white"/>
<path d="M223.409 567.713C223.409 567.713 251.386 579.743 249.513 582.555C247.638 585.365 211.094 583.96 207.346 583.492C203.597 583.023 207.342 566.336 207.342 566.336L223.409 567.713Z" stroke="#1A2E35" stroke-width="1.33333" stroke-miterlimit="10" stroke-linecap="round" stroke-linejoin="round"/>
<path d="M248.586 580.791C249.409 581.531 249.787 582.143 249.513 582.554C247.639 585.366 211.094 583.959 207.346 583.491C206.445 583.378 205.979 582.322 205.787 580.791H248.586Z" fill="#5AE4A7"/>
<path d="M248.586 580.791C249.409 581.531 249.787 582.143 249.513 582.554C247.639 585.366 211.094 583.959 207.346 583.491C206.445 583.378 205.979 582.322 205.787 580.791H248.586Z" stroke="#1A2E35" stroke-width="1.33333" stroke-miterlimit="10" stroke-linecap="round" stroke-linejoin="round"/>
<path d="M260.373 370.423L277.157 366.551L294.801 378.17L280.6 377.739L255.64 380.751L260.373 370.423Z" fill="white"/>
<path d="M260.373 370.423L277.157 366.551L294.801 378.17L280.6 377.739L255.64 380.751L260.373 370.423Z" stroke="#1A2E35" stroke-width="1.33333" stroke-miterlimit="10" stroke-linecap="round" stroke-linejoin="round"/>
<path d="M199.264 352.778L260.373 370.422L255.64 380.75L204.428 381.612L199.264 352.778Z" fill="white"/>
<path d="M199.264 352.778L260.373 370.422L255.64 380.75L204.428 381.612L199.264 352.778Z" stroke="#1A2E35" stroke-width="1.33333" stroke-miterlimit="10" stroke-linecap="round" stroke-linejoin="round"/>
<path d="M194.344 350.071L195.245 353.856" stroke="#1A2E35" stroke-width="1.33333" stroke-miterlimit="10" stroke-linecap="round" stroke-linejoin="round"/>
<path d="M133.339 274.975L104.296 324.693L110.203 426.098L212.592 417.73L204.224 363.582L186.503 304.51L179.611 295.158L187.487 297.619L175.673 286.789L166.32 277.929L133.339 274.975Z" fill="white"/>
<path d="M133.339 274.975L104.296 324.693L110.203 426.098L212.592 417.73L204.224 363.582L186.503 304.51L179.611 295.158L187.487 297.619L175.673 286.789L166.32 277.929L133.339 274.975Z" stroke="#1A2E35" stroke-width="1.33333" stroke-miterlimit="10" stroke-linecap="round" stroke-linejoin="round"/>
<path d="M179.889 301.519L185.843 314.368L193.375 346.004" stroke="#1A2E35" stroke-width="1.33333" stroke-miterlimit="10" stroke-linecap="round" stroke-linejoin="round"/>
<path d="M177.895 218.078C177.895 218.078 171.973 207.815 165.659 200.711C159.343 193.606 139.607 194 130.923 203.474C122.239 212.946 125.003 229.524 128.16 234.262C131.317 238.998 138.028 261.102 138.028 261.102L139.607 276.891L170.948 290.103L168.816 264.26C168.816 264.26 183.025 261.496 184.209 257.155C185.395 252.812 181.841 237.814 181.841 237.814C181.841 237.814 186.579 234.656 186.183 231.892C185.788 229.13 177.895 218.078 177.895 218.078Z" fill="white"/>
<path d="M177.895 218.078C177.895 218.078 171.973 207.815 165.659 200.711C159.343 193.606 139.607 194 130.923 203.474C122.239 212.946 125.003 229.524 128.16 234.262C131.317 238.998 138.028 261.102 138.028 261.102L139.607 276.891L170.948 290.103L168.816 264.26C168.816 264.26 183.025 261.496 184.209 257.155C185.395 252.812 181.841 237.814 181.841 237.814C181.841 237.814 186.579 234.656 186.183 231.892C185.788 229.13 177.895 218.078 177.895 218.078Z" stroke="#1A2E35" stroke-width="1.33333" stroke-miterlimit="10" stroke-linecap="round" stroke-linejoin="round"/>
<path d="M135.66 235.05C135.66 235.05 141.94 240.288 145.377 234.273C148.816 228.256 151.393 222.24 151.393 217.084C151.393 211.926 138.501 207.63 147.096 204.192C155.69 200.754 161.874 208.402 165.658 200.71C169.441 193.02 166.004 192.16 145.377 192.16C124.75 192.16 114.437 202.473 118.734 215.364C123.032 228.256 131.626 242.866 131.626 242.866L135.66 235.05Z" fill="#1A2E35"/>
<path d="M135.66 235.05C135.66 235.05 141.94 240.288 145.377 234.273C148.816 228.256 151.393 222.24 151.393 217.084C151.393 211.926 138.501 207.63 147.096 204.192C155.69 200.754 161.874 208.402 165.658 200.71C169.441 193.02 166.004 192.16 145.377 192.16C124.75 192.16 114.437 202.473 118.734 215.364C123.032 228.256 131.626 242.866 131.626 242.866L135.66 235.05Z" stroke="#1A2E35" stroke-width="1.33333" stroke-miterlimit="10" stroke-linecap="round" stroke-linejoin="round"/>
<path d="M179.078 227.156C179.078 232.606 174.661 237.024 169.21 237.024C163.761 237.024 159.342 232.606 159.342 227.156C159.342 221.707 163.761 217.288 169.21 217.288C174.661 217.288 179.078 221.707 179.078 227.156Z" stroke="#1A2E35" stroke-width="1.33333" stroke-miterlimit="10" stroke-linecap="round" stroke-linejoin="round"/>
<path d="M177.639 218.412C178.748 217.943 179.969 217.683 181.249 217.683C186.372 217.683 190.525 221.836 190.525 226.959C190.525 230.447 188.6 233.486 185.753 235.07" stroke="#1A2E35" stroke-width="1.33333" stroke-miterlimit="10" stroke-linecap="round" stroke-linejoin="round"/>
<path d="M159.343 227.156L135.66 235.05Z" fill="white"/>
<path d="M159.343 227.156L135.66 235.05" stroke="#1A2E35" stroke-width="1.33333" stroke-miterlimit="10" stroke-linecap="round" stroke-linejoin="round"/>
<path d="M142.37 240.182C142.37 240.182 137.633 230.314 132.897 232.289C128.159 234.262 130.529 249.655 135.265 251.234C140.002 252.813 144.343 248.866 144.343 248.866C144.343 248.866 148.29 257.155 153.027 259.523" fill="white"/>
<path d="M142.37 240.182C142.37 240.182 137.633 230.314 132.897 232.289C128.159 234.262 130.529 249.655 135.265 251.234C140.002 252.813 144.343 248.866 144.343 248.866C144.343 248.866 148.29 257.155 153.027 259.523" stroke="#1A2E35" stroke-width="1.33333" stroke-miterlimit="10" stroke-linecap="round" stroke-linejoin="round"/>
<path d="M172.99 224.921C172.99 226.437 172.529 227.666 171.961 227.666C171.392 227.666 170.932 226.437 170.932 224.921C170.932 223.403 171.392 222.174 171.961 222.174C172.529 222.174 172.99 223.403 172.99 224.921Z" fill="#1A2E35"/>
<path d="M164.066 215.996C164.066 215.996 166.126 213.937 170.474 214.165" stroke="#1A2E35" stroke-width="1.33333" stroke-miterlimit="10" stroke-linecap="round" stroke-linejoin="round"/>
<path d="M181.916 241.854C181.916 241.854 178.482 243.913 175.508 241.625" stroke="#1A2E35" stroke-width="1.33333" stroke-miterlimit="10" stroke-linecap="round" stroke-linejoin="round"/>
<path d="M133.83 266.631L176.407 288.465L173.678 304.841L129.463 275.364L133.83 266.631Z" fill="white"/>
<path d="M133.83 266.631L176.407 288.465L173.678 304.841L129.463 275.364L133.83 266.631Z" stroke="#1A2E35" stroke-width="1.33333" stroke-miterlimit="10" stroke-linecap="round" stroke-linejoin="round"/>
<path d="M124.899 303.001C124.899 303.001 112.216 327.944 113.484 330.057C114.753 332.172 134.2 397.7 135.891 398.123C137.581 398.545 217.061 376.14 217.061 376.14L214.524 365.147L161.257 361.765L156.607 319.912" fill="white"/>
<path d="M124.899 303.001C124.899 303.001 112.216 327.944 113.484 330.057C114.753 332.172 134.2 397.7 135.891 398.123C137.581 398.545 217.061 376.14 217.061 376.14L214.524 365.147L161.257 361.765L156.607 319.912" stroke="#1A2E35" stroke-width="1.33333" stroke-miterlimit="10" stroke-linecap="round" stroke-linejoin="round"/>
<path d="M152.623 366.705L161.257 361.765L149.177 376.421" stroke="#1A2E35" stroke-width="1.33333" stroke-miterlimit="10" stroke-linecap="round" stroke-linejoin="round"/>
<path d="M214.524 365.147L234.394 363.455L249.614 372.335L255.532 377.407L243.272 378.252L232.703 374.871C232.703 374.871 231.012 377.831 222.98 376.984C214.947 376.139 217.062 376.139 217.062 376.139L214.524 365.147Z" fill="white"/>
<path d="M214.524 365.147L234.394 363.455L249.614 372.335L255.532 377.407L243.272 378.252L232.703 374.871C232.703 374.871 231.012 377.831 222.98 376.984C214.947 376.139 217.062 376.139 217.062 376.139L214.524 365.147Z" stroke="#1A2E35" stroke-width="1.33333" stroke-miterlimit="10" stroke-linecap="round" stroke-linejoin="round"/>
</g>
<path d="M337.837 378.972H232.227V383.233H337.837V378.972Z" fill="white" stroke="#1A2E35" stroke-width="1.33333" stroke-miterlimit="10" stroke-linecap="round" stroke-linejoin="round"/>
<path d="M367.616 378.972H262.005V383.233H367.616V378.972Z" fill="white" stroke="#1A2E35" stroke-width="1.33333" stroke-miterlimit="10" stroke-linecap="round" stroke-linejoin="round"/>
<path d="M355.842 371.396H267.775L277.27 304.164H365.337L355.842 371.396Z" fill="white"/>
<path d="M355.842 371.396H267.775L277.27 304.164H365.337L355.842 371.396Z" stroke="#1A2E35" stroke-width="1.33333" stroke-miterlimit="10" stroke-linecap="round" stroke-linejoin="round"/>
<path d="M359.485 371.396H271.419L280.913 304.164H368.98L359.485 371.396Z" fill="#1A2E35"/>
<path d="M359.485 371.396H271.419L280.913 304.164H368.98L359.485 371.396Z" stroke="#1A2E35" stroke-width="1.33333" stroke-miterlimit="10" stroke-linecap="round" stroke-linejoin="round"/>
<mask id="mask12_252_1498" style="mask-type:luminance" maskUnits="userSpaceOnUse" x="0" y="0" width="1000" height="667">
<path d="M0 -0.000123024H1000V666.667H0V-0.000123024Z" fill="white"/>
</mask>
<g mask="url(#mask12_252_1498)">
<path d="M317.083 352.932C317.169 353.295 317.496 353.549 317.869 353.545L330.744 353.421C331.257 353.416 331.635 352.935 331.515 352.433L330.353 347.597C330.267 347.235 329.94 346.979 329.567 346.983L316.693 347.107C316.179 347.112 315.803 347.595 315.921 348.095L317.083 352.932ZM332.503 340.147L341.337 383.233H318.611L309.776 340.147H332.503Z" fill="white"/>
<path d="M317.083 352.932C317.169 353.295 317.496 353.549 317.869 353.545L330.744 353.421C331.257 353.416 331.635 352.935 331.515 352.433L330.353 347.597C330.267 347.235 329.94 346.979 329.567 346.983L316.693 347.107C316.179 347.112 315.803 347.595 315.921 348.095L317.083 352.932ZM332.503 340.147L341.337 383.233H318.611L309.776 340.147H332.503Z" stroke="#1A2E35" stroke-width="1.33333" stroke-miterlimit="10" stroke-linecap="round" stroke-linejoin="round"/>
</g>
<mask id="mask13_252_1498" style="mask-type:luminance" maskUnits="userSpaceOnUse" x="0" y="0" width="1000" height="667">
<path d="M0 -0.00012207H1000V666.667H0V-0.00012207Z" fill="white"/>
</mask>
<g mask="url(#mask13_252_1498)">
<path d="M159.333 407.746L163.9 580.157C163.961 582.441 165.829 584.259 168.113 584.259C170.419 584.259 172.297 582.406 172.328 580.101L174.58 407.746H159.333Z" fill="white"/>
<path d="M159.333 407.746L163.9 580.157C163.961 582.441 165.829 584.259 168.113 584.259C170.419 584.259 172.297 582.406 172.328 580.101L174.58 407.746H159.333Z" stroke="#1A2E35" stroke-width="1.33333" stroke-miterlimit="10" stroke-linecap="round" stroke-linejoin="round"/>
<path d="M215.035 407.746L219.603 580.157C219.663 582.441 221.531 584.259 223.815 584.259C226.12 584.259 227.999 582.406 228.029 580.101L230.281 407.746H215.035Z" fill="white"/>
<path d="M215.035 407.746L219.603 580.157C219.663 582.441 221.531 584.259 223.815 584.259C226.12 584.259 227.999 582.406 228.029 580.101L230.281 407.746H215.035Z" stroke="#1A2E35" stroke-width="1.33333" stroke-miterlimit="10" stroke-linecap="round" stroke-linejoin="round"/>
<path d="M352.751 407.746L357.317 580.157C357.377 582.441 359.247 584.259 361.529 584.259C363.836 584.259 365.713 582.406 365.744 580.101L367.997 407.746H352.751Z" fill="white"/>
<path d="M352.751 407.746L357.317 580.157C357.377 582.441 359.247 584.259 361.529 584.259C363.836 584.259 365.713 582.406 365.744 580.101L367.997 407.746H352.751Z" stroke="#1A2E35" stroke-width="1.33333" stroke-miterlimit="10" stroke-linecap="round" stroke-linejoin="round"/>
<path d="M408.451 407.746L413.018 580.157C413.079 582.441 414.947 584.259 417.231 584.259C419.537 584.259 421.415 582.406 421.446 580.101L423.698 407.746H408.451Z" fill="white"/>
<path d="M408.451 407.746L413.018 580.157C413.079 582.441 414.947 584.259 417.231 584.259C419.537 584.259 421.415 582.406 421.446 580.101L423.698 407.746H408.451Z" stroke="#1A2E35" stroke-width="1.33333" stroke-miterlimit="10" stroke-linecap="round" stroke-linejoin="round"/>
<path d="M428.785 409.546H153.915V388.914H428.785V409.546Z" fill="#5AE4A7" stroke="#1A2E35" stroke-width="1.33333" stroke-miterlimit="10" stroke-linecap="round" stroke-linejoin="round"/>
<path d="M230.692 409.546H153.915V388.914H230.692V409.546Z" fill="#5AE4A7" stroke="#1A2E35" stroke-width="1.33333" stroke-miterlimit="10" stroke-linecap="round" stroke-linejoin="round"/>
<path d="M428.785 399.23H153.915V388.916H428.785V399.23Z" fill="#1A2E35" stroke="#1A2E35" stroke-width="1.33333" stroke-miterlimit="10" stroke-linecap="round" stroke-linejoin="round"/>
<path d="M433.047 393.176H149.653V381.813H433.047V393.176Z" fill="#5AE4A7" stroke="#1A2E35" stroke-width="1.33333" stroke-miterlimit="10" stroke-linecap="round" stroke-linejoin="round"/>
<path d="M433.047 393.176H235.793V381.813H433.047V393.176Z" fill="#5AE4A7" stroke="#1A2E35" stroke-width="1.33333" stroke-miterlimit="10" stroke-linecap="round" stroke-linejoin="round"/>
</g>
</svg>
