<svg width="668" height="668" viewBox="0 0 668 668" fill="none" xmlns="http://www.w3.org/2000/svg">
<mask id="mask0_281_2751" style="mask-type:luminance" maskUnits="userSpaceOnUse" x="0" y="0" width="668" height="668">
<path d="M0.5 0.499877H667.167V667.167H0.5V0.499877Z" fill="white"/>
</mask>
<g mask="url(#mask0_281_2751)">
<path d="M502.787 120.775C495.411 115.475 487.854 110.312 480.164 105.175C442.886 80.2749 399.992 54.8443 355.046 49.0669C347.483 48.0949 339.816 47.7643 332.226 48.6123C302.495 51.9323 273.044 73.8949 249.284 90.6922C212.58 116.642 178.251 146.471 146.955 178.94C119.783 207.131 91.8829 238.683 76.0549 275.238C55.5162 322.671 86.8003 378.66 114.322 417.108C167.74 491.735 241.92 550.034 334.96 558.35C447.326 568.394 548.999 480.207 587.162 377.288C609.859 316.082 611.467 242.06 572.268 187.274C552.81 160.078 528.936 139.564 502.787 120.775Z" fill="#5AE4A7"/>
<mask id="mask1_281_2751" style="mask-type:luminance" maskUnits="userSpaceOnUse" x="69" y="48" width="535" height="512">
<path d="M69.4288 48.1267H603.197V559.132H69.4288V48.1267Z" fill="white"/>
</mask>
<g mask="url(#mask1_281_2751)">
<g opacity="0.699997">
<path d="M502.787 120.775C495.411 115.475 487.854 110.312 480.164 105.175C442.886 80.2749 399.992 54.8443 355.046 49.0669C347.483 48.0949 339.816 47.7643 332.226 48.6123C302.495 51.9323 273.044 73.8949 249.284 90.6922C212.58 116.642 178.251 146.471 146.955 178.94C119.783 207.131 91.8829 238.683 76.0549 275.238C55.5162 322.671 86.8003 378.66 114.322 417.108C167.74 491.735 241.92 550.034 334.96 558.35C447.326 568.394 548.999 480.207 587.162 377.288C609.859 316.082 611.467 242.06 572.268 187.274C552.81 160.078 528.936 139.564 502.787 120.775Z" fill="white"/>
</g>
</g>
</g>
<mask id="mask2_281_2751" style="mask-type:luminance" maskUnits="userSpaceOnUse" x="0" y="0" width="668" height="668">
<path d="M0.5 0.499877H667.167V667.167H0.5V0.499877Z" fill="white"/>
</mask>
<g mask="url(#mask2_281_2751)">
<path d="M143.638 457.76H88.0996C66.7303 457.76 49.4076 475.084 49.4076 496.453V534.912H182.332V496.453C182.332 475.084 165.008 457.76 143.638 457.76Z" fill="#D0D0D0"/>
<path d="M143.638 457.76H88.0996C66.7303 457.76 49.4076 475.084 49.4076 496.453V534.912H182.332V496.453C182.332 475.084 165.008 457.76 143.638 457.76Z" stroke="#1A2E35" stroke-width="1.33333" stroke-miterlimit="10" stroke-linecap="round" stroke-linejoin="round"/>
<path d="M287.717 457.76H232.179C210.809 457.76 193.486 475.084 193.486 496.453V534.912H326.41V496.453C326.41 475.084 309.086 457.76 287.717 457.76Z" fill="#D0D0D0"/>
<path d="M287.717 457.76H232.179C210.809 457.76 193.486 475.084 193.486 496.453V534.912H326.41V496.453C326.41 475.084 309.086 457.76 287.717 457.76Z" stroke="#1A2E35" stroke-width="1.33333" stroke-miterlimit="10" stroke-linecap="round" stroke-linejoin="round"/>
<path d="M431.795 457.76H376.257C354.887 457.76 337.565 475.084 337.565 496.453V534.912H470.488V496.453C470.488 475.084 453.165 457.76 431.795 457.76Z" fill="#D0D0D0"/>
<path d="M431.795 457.76H376.257C354.887 457.76 337.565 475.084 337.565 496.453V534.912H470.488V496.453C470.488 475.084 453.165 457.76 431.795 457.76Z" stroke="#1A2E35" stroke-width="1.33333" stroke-miterlimit="10" stroke-linecap="round" stroke-linejoin="round"/>
<path d="M575.874 457.76H520.335C498.966 457.76 481.643 475.084 481.643 496.453V534.912H614.567V496.453C614.567 475.084 597.243 457.76 575.874 457.76Z" fill="#D0D0D0"/>
<path d="M575.874 457.76H520.335C498.966 457.76 481.643 475.084 481.643 496.453V534.912H614.567V496.453C614.567 475.084 597.243 457.76 575.874 457.76Z" stroke="#1A2E35" stroke-width="1.33333" stroke-miterlimit="10" stroke-linecap="round" stroke-linejoin="round"/>
</g>
<mask id="mask3_281_2751" style="mask-type:luminance" maskUnits="userSpaceOnUse" x="0" y="0" width="668" height="668">
<path d="M0.5 0.499877H667.167V667.167H0.5V0.499877Z" fill="white"/>
</mask>
<g mask="url(#mask3_281_2751)">
<path d="M323.656 312.854L321.813 334.76C321.813 334.76 332.46 344.178 337.577 344.178C342.696 344.178 353.342 334.964 354.161 334.351C354.98 333.736 352.114 313.468 352.114 313.468C352.114 313.468 336.349 319.61 323.656 312.854Z" fill="white"/>
<path d="M323.656 312.854L321.813 334.76C321.813 334.76 332.46 344.178 337.577 344.178C342.696 344.178 353.342 334.964 354.161 334.351C354.98 333.736 352.114 313.468 352.114 313.468C352.114 313.468 336.349 319.61 323.656 312.854Z" stroke="#1A2E35" stroke-width="1.33333" stroke-miterlimit="10" stroke-linecap="round" stroke-linejoin="round"/>
<path d="M315.466 289.105C315.466 289.105 312.19 284.601 310.144 289.923C308.096 295.247 312.19 300.161 314.033 301.594C315.876 303.026 317.309 303.641 317.309 303.641L315.466 289.105Z" stroke="#1A2E35" stroke-width="1.33333" stroke-miterlimit="10" stroke-linecap="round" stroke-linejoin="round"/>
<path d="M360.767 289.105C360.767 289.105 364.043 284.601 366.09 289.923C368.138 295.247 364.043 300.161 362.2 301.594C360.358 303.026 358.924 303.641 358.924 303.641L360.767 289.105Z" fill="white"/>
<path d="M360.767 289.105C360.767 289.105 364.043 284.601 366.09 289.923C368.138 295.247 364.043 300.161 362.2 301.594C360.358 303.026 358.924 303.641 358.924 303.641L360.767 289.105Z" stroke="#1A2E35" stroke-width="1.33333" stroke-miterlimit="10" stroke-linecap="round" stroke-linejoin="round"/>
<path d="M349.247 254.504C349.247 254.504 344.538 248.567 335.939 247.748C327.341 246.93 323.246 253.686 322.631 254.299C322.018 254.914 311.577 262.694 310.758 269.45C309.938 276.206 314.647 286.647 315.057 287.467C315.466 288.286 317.105 291.356 317.105 289.31C317.105 287.262 317.105 274.978 317.514 272.111C317.923 269.246 324.885 261.056 324.885 261.056C324.885 261.056 332.869 265.355 338.191 264.331C343.515 263.308 345.562 262.079 346.177 261.875C346.79 261.67 353.751 268.631 355.39 269.859C357.027 271.088 358.665 289.104 360.098 289.31C361.531 289.514 362.759 288.899 362.965 285.419C363.169 281.939 363.374 272.93 362.146 266.379C360.917 259.827 357.027 253.686 349.247 254.504Z" fill="#1A2E35"/>
<path d="M349.247 254.504C349.247 254.504 344.538 248.567 335.939 247.748C327.341 246.93 323.246 253.686 322.631 254.299C322.018 254.914 311.577 262.694 310.758 269.45C309.938 276.206 314.647 286.647 315.057 287.467C315.466 288.286 317.105 291.356 317.105 289.31C317.105 287.262 317.105 274.978 317.514 272.111C317.923 269.246 324.885 261.056 324.885 261.056C324.885 261.056 332.869 265.355 338.191 264.331C343.515 263.308 345.562 262.079 346.177 261.875C346.79 261.67 353.751 268.631 355.39 269.859C357.027 271.088 358.665 289.104 360.098 289.31C361.531 289.514 362.759 288.899 362.965 285.419C363.169 281.939 363.374 272.93 362.146 266.379C360.917 259.827 357.027 253.686 349.247 254.504Z" stroke="#1A2E35" stroke-width="1.33333" stroke-miterlimit="10" stroke-linecap="round" stroke-linejoin="round"/>
<path d="M323.86 257.985C323.86 257.985 315.876 266.38 315.262 271.703C314.647 277.025 315.056 296.475 317.514 305.073C319.971 313.673 329.798 325.752 336.963 326.571C344.128 327.391 351.09 319.2 356.618 311.831C362.146 304.46 360.918 282.144 360.098 275.797C359.279 269.451 351.908 263.104 350.066 261.261C348.224 259.419 346.791 258.395 344.128 259.419C341.467 260.443 337.783 262.899 334.098 261.875C330.412 260.852 323.86 257.985 323.86 257.985Z" fill="white"/>
<path d="M323.86 257.985C323.86 257.985 315.876 266.38 315.262 271.703C314.647 277.025 315.056 296.475 317.514 305.073C319.971 313.673 329.798 325.752 336.963 326.571C344.128 327.391 351.09 319.2 356.618 311.831C362.146 304.46 360.918 282.144 360.098 275.797C359.279 269.451 351.908 263.104 350.066 261.261C348.224 259.419 346.791 258.395 344.128 259.419C341.467 260.443 337.783 262.899 334.098 261.875C330.412 260.852 323.86 257.985 323.86 257.985Z" stroke="#1A2E35" stroke-width="1.33333" stroke-miterlimit="10" stroke-linecap="round" stroke-linejoin="round"/>
<path d="M341.16 270.064L344.436 282.554L338.703 286.648" stroke="#1A2E35" stroke-width="1.33333" stroke-miterlimit="10" stroke-linecap="round" stroke-linejoin="round"/>
<path d="M330.924 276.616C330.924 278.085 330.328 279.277 329.593 279.277C328.858 279.277 328.262 278.085 328.262 276.616C328.262 275.147 328.858 273.955 329.593 273.955C330.328 273.955 330.924 275.147 330.924 276.616Z" fill="#1A2E35"/>
<path d="M348.94 276.616C348.94 278.085 348.344 279.277 347.609 279.277C346.875 279.277 346.279 278.085 346.279 276.616C346.279 275.147 346.875 273.955 347.609 273.955C348.344 273.955 348.94 275.147 348.94 276.616Z" fill="#1A2E35"/>
<path d="M324.167 270.883C324.167 270.883 326.419 266.789 333.381 269.45" stroke="#1A2E35" stroke-width="1.33333" stroke-miterlimit="10" stroke-linecap="round" stroke-linejoin="round"/>
<path d="M343.822 269.041C343.822 269.041 348.326 266.174 352.83 269.655" stroke="#1A2E35" stroke-width="1.33333" stroke-miterlimit="10" stroke-linecap="round" stroke-linejoin="round"/>
<path d="M326.624 288.695C326.624 288.695 331.743 294.223 338.294 293.814C344.846 293.404 352.011 289.514 352.011 289.514" stroke="#1A2E35" stroke-width="1.33333" stroke-miterlimit="10" stroke-linecap="round" stroke-linejoin="round"/>
<path d="M329.491 291.562C329.491 291.562 331.948 301.184 337.271 302.618C342.593 304.051 346.893 291.767 346.893 291.767C346.893 291.767 342.184 294.019 338.295 293.814C334.404 293.608 329.491 291.562 329.491 291.562Z" fill="#1A2E35"/>
<path d="M329.491 291.562C329.491 291.562 331.948 301.184 337.271 302.618C342.593 304.051 346.893 291.767 346.893 291.767C346.893 291.767 342.184 294.019 338.295 293.814C334.404 293.608 329.491 291.562 329.491 291.562Z" stroke="#1A2E35" stroke-width="1.33333" stroke-miterlimit="10" stroke-linecap="round" stroke-linejoin="round"/>
<path d="M328.057 287.262L324.577 290.538" stroke="#1A2E35" stroke-width="1.33333" stroke-miterlimit="10" stroke-linecap="round" stroke-linejoin="round"/>
<path d="M350.783 287.262L353.24 291.562" stroke="#1A2E35" stroke-width="1.33333" stroke-miterlimit="10" stroke-linecap="round" stroke-linejoin="round"/>
<path d="M342.474 300.034C338.415 298.488 335.371 299.156 333.562 299.979C334.594 301.223 335.823 302.227 337.271 302.618C339.19 303.134 340.974 301.864 342.474 300.034Z" fill="white"/>
<path d="M342.474 300.034C338.415 298.488 335.371 299.156 333.562 299.979C334.594 301.223 335.823 302.227 337.271 302.618C339.19 303.134 340.974 301.864 342.474 300.034Z" stroke="#1A2E35" stroke-width="1.33333" stroke-miterlimit="10" stroke-linecap="round" stroke-linejoin="round"/>
<path d="M447.871 209.667C447.871 209.667 426.556 243.114 420.982 250.984C415.407 258.854 406.554 276.562 406.554 276.562L390.158 304.106L354.16 334.351C354.16 334.351 341.955 343.783 337.578 344.178C333.2 344.572 321.812 334.76 321.812 334.76C321.812 334.76 299.982 316.239 295.063 310.008C290.144 303.778 277.028 284.759 272.11 275.578C267.191 266.396 223.578 206.715 223.578 206.715L218.987 221.8C218.987 221.8 234.071 266.396 242.926 279.512C251.779 292.63 260.304 301.483 260.304 301.483C260.304 301.483 276.044 336.57 280.635 343.783C285.226 350.998 286.866 356.572 286.866 356.572C286.866 356.572 295.063 418.22 295.391 421.499C295.719 424.778 289.16 495.28 289.16 495.28L279.918 587.895L326.652 588.08L333.718 533.103H342.524L349.764 587.192L349.875 588.174L394.702 588.351L384.912 491.672L378.682 425.106L387.207 357.228C387.207 357.228 405.243 324.436 406.226 322.798C407.21 321.158 431.475 286.071 436.722 267.38C441.968 248.688 456.396 215.57 456.396 215.57L447.871 209.667Z" fill="white"/>
<path d="M447.871 209.667C447.871 209.667 426.556 243.114 420.982 250.984C415.407 258.854 406.554 276.562 406.554 276.562L390.158 304.106L354.16 334.351C354.16 334.351 341.955 343.783 337.578 344.178C333.2 344.572 321.812 334.76 321.812 334.76C321.812 334.76 299.982 316.239 295.063 310.008C290.144 303.778 277.028 284.759 272.11 275.578C267.191 266.396 223.578 206.715 223.578 206.715L218.987 221.8C218.987 221.8 234.071 266.396 242.926 279.512C251.779 292.63 260.304 301.483 260.304 301.483C260.304 301.483 276.044 336.57 280.635 343.783C285.226 350.998 286.866 356.572 286.866 356.572C286.866 356.572 295.063 418.22 295.391 421.499C295.719 424.778 289.16 495.28 289.16 495.28L279.918 587.895L326.652 588.08L333.718 533.103H342.524L349.764 587.192L349.875 588.174L394.702 588.351L384.912 491.672L378.682 425.106L387.207 357.228C387.207 357.228 405.243 324.436 406.226 322.798C407.21 321.158 431.475 286.071 436.722 267.38C441.968 248.688 456.396 215.57 456.396 215.57L447.871 209.667Z" stroke="#1A2E35" stroke-width="1.33333" stroke-miterlimit="10" stroke-linecap="round" stroke-linejoin="round"/>
<path d="M297.252 494.092L317.145 510.512" stroke="#1A2E35" stroke-width="1.33333" stroke-miterlimit="10" stroke-linecap="round" stroke-linejoin="round"/>
<path d="M300.409 501.671L318.408 515.25" stroke="#1A2E35" stroke-width="1.33333" stroke-miterlimit="10" stroke-linecap="round" stroke-linejoin="round"/>
<path d="M374.931 496.934L355.984 512.408" stroke="#1A2E35" stroke-width="1.33333" stroke-miterlimit="10" stroke-linecap="round" stroke-linejoin="round"/>
<path d="M364.195 509.249L348.407 520.617" stroke="#1A2E35" stroke-width="1.33333" stroke-miterlimit="10" stroke-linecap="round" stroke-linejoin="round"/>
<path d="M235.202 222.715L228.141 242.555L244.271 235.296C241.086 230.859 237.99 226.568 235.202 222.715Z" fill="#1A2E35"/>
<path d="M437.499 225.851L445.561 241.978C447.891 235.97 450.221 230.242 452.123 225.663L442.703 217.75C441.161 220.155 439.377 222.934 437.499 225.851Z" fill="#1A2E35"/>
<path d="M404.52 325.837C398.812 321.97 391.814 316.002 386.196 307.436L354.162 334.35C354.162 334.35 341.955 343.784 337.578 344.178C333.2 344.572 321.814 334.76 321.814 334.76C321.814 334.76 299.982 316.238 295.063 310.009C294.243 308.969 293.179 307.549 291.978 305.902L272.406 327.69C275.764 334.733 278.951 341.137 280.635 343.784C285.226 350.997 286.866 356.572 286.866 356.572C286.866 356.572 295.063 418.22 295.391 421.5C295.652 424.102 291.574 469.052 289.88 487.485C301.82 489.504 339.355 494.622 384.616 488.517L378.682 425.106L387.207 357.228C387.207 357.228 399.815 334.305 404.52 325.837Z" fill="#1A2E35"/>
<path d="M404.52 325.837C398.812 321.97 391.814 316.002 386.196 307.436L354.162 334.35C354.162 334.35 341.955 343.784 337.578 344.178C333.2 344.572 321.814 334.76 321.814 334.76C321.814 334.76 299.982 316.238 295.063 310.009C294.243 308.969 293.179 307.549 291.978 305.902L272.406 327.69C275.764 334.733 278.951 341.137 280.635 343.784C285.226 350.997 286.866 356.572 286.866 356.572C286.866 356.572 295.063 418.22 295.391 421.5C295.652 424.102 291.574 469.052 289.88 487.485C301.82 489.504 339.355 494.622 384.616 488.517L378.682 425.106L387.207 357.228C387.207 357.228 399.815 334.305 404.52 325.837Z" stroke="#1A2E35" stroke-width="1.33333" stroke-miterlimit="10" stroke-linecap="round" stroke-linejoin="round"/>
<path d="M319.534 332.134C319.534 332.134 328.532 369.998 338.654 394.741C348.776 419.484 349.733 420.402 349.733 420.402L354.774 419.109C354.774 419.109 359.273 364.374 359.648 353.878C360.022 343.381 358.522 331.76 358.522 331.76L354.161 334.35C354.161 334.35 355.149 386.868 350.65 407.488C350.65 407.488 348.026 409.737 339.404 385.369C330.781 361.001 324.782 337.758 324.782 337.758L319.534 332.134Z" fill="#9D9D9D"/>
<path d="M319.534 332.134C319.534 332.134 328.532 369.998 338.654 394.741C348.776 419.484 349.733 420.402 349.733 420.402L354.774 419.109C354.774 419.109 359.273 364.374 359.648 353.878C360.022 343.381 358.522 331.76 358.522 331.76L354.161 334.35C354.161 334.35 355.149 386.868 350.65 407.488C350.65 407.488 348.026 409.737 339.404 385.369C330.781 361.001 324.782 337.758 324.782 337.758L319.534 332.134Z" stroke="#1A2E35" stroke-width="1.33333" stroke-miterlimit="10" stroke-linecap="round" stroke-linejoin="round"/>
<path d="M372.198 455.147L349.878 460.123L341.475 422.435L363.795 417.459L372.198 455.147Z" fill="white"/>
<path d="M372.198 455.147L349.878 460.123L341.475 422.435L363.795 417.459L372.198 455.147Z" stroke="#1A2E35" stroke-width="1.33333" stroke-miterlimit="10" stroke-linecap="round" stroke-linejoin="round"/>
<path d="M468.265 224.12C466.516 211.879 467.39 195.703 467.39 195.703C466.516 188.27 464.33 188.707 447.28 189.144C433.566 189.496 375.742 192.11 353.626 193.12C349.76 193.296 345.902 193.307 342.034 193.151C321.26 192.318 251.04 189.516 236.55 189.144C219.5 188.707 217.313 188.27 216.44 195.703C216.44 195.703 217.313 211.879 215.565 224.12C213.816 236.362 193.705 287.076 193.705 287.076L219.5 305.439C219.5 305.439 229.556 293.635 232.616 269.588C235.676 245.543 232.178 228.93 237.425 224.558C241.717 220.98 308.925 224.135 333.229 225.4C339.018 225.702 344.812 225.702 350.6 225.4C374.905 224.135 442.113 220.98 446.405 224.558C451.652 228.93 448.154 245.543 451.214 269.588C454.274 293.635 464.33 305.439 464.33 305.439L490.125 287.076C490.125 287.076 470.014 236.362 468.265 224.12Z" fill="#5AE4A7"/>
<path d="M468.265 224.12C466.516 211.879 467.39 195.703 467.39 195.703C466.516 188.27 464.33 188.707 447.28 189.144C433.566 189.496 375.742 192.11 353.626 193.12C349.76 193.296 345.902 193.307 342.034 193.151C321.26 192.318 251.04 189.516 236.55 189.144C219.5 188.707 217.313 188.27 216.44 195.703C216.44 195.703 217.313 211.879 215.565 224.12C213.816 236.362 193.705 287.076 193.705 287.076L219.5 305.439C219.5 305.439 229.556 293.635 232.616 269.588C235.676 245.543 232.178 228.93 237.425 224.558C241.717 220.98 308.925 224.135 333.229 225.4C339.018 225.702 344.812 225.702 350.6 225.4C374.905 224.135 442.113 220.98 446.405 224.558C451.652 228.93 448.154 245.543 451.214 269.588C454.274 293.635 464.33 305.439 464.33 305.439L490.125 287.076C490.125 287.076 470.014 236.362 468.265 224.12Z" stroke="#1A2E35" stroke-width="1.33333" stroke-miterlimit="10" stroke-linecap="round" stroke-linejoin="round"/>
<path d="M477.282 253.145L451.613 272.26C452.01 274.828 452.479 277.245 453.01 279.512L479.837 260.152C478.983 257.84 478.126 255.489 477.282 253.145Z" fill="white"/>
<path d="M477.282 253.145L451.613 272.26C452.01 274.828 452.479 277.245 453.01 279.512L479.837 260.152C478.983 257.84 478.126 255.489 477.282 253.145Z" stroke="#1A2E35" stroke-width="1.33333" stroke-miterlimit="10" stroke-linecap="round" stroke-linejoin="round"/>
<path d="M483.24 269.25L455.423 287.979C456.431 290.922 457.491 293.478 458.522 295.671L486.786 278.521C485.752 275.847 484.542 272.69 483.24 269.25Z" fill="white"/>
<path d="M483.24 269.25L455.423 287.979C456.431 290.922 457.491 293.478 458.522 295.671L486.786 278.521C485.752 275.847 484.542 272.69 483.24 269.25Z" stroke="#1A2E35" stroke-width="1.33333" stroke-miterlimit="10" stroke-linecap="round" stroke-linejoin="round"/>
<path d="M229.573 284.282L201.968 265.592C200.655 269.097 199.399 272.398 198.277 275.321L226.264 293.55C227.401 290.908 228.54 287.817 229.573 284.282Z" fill="white"/>
<path d="M229.573 284.282L201.968 265.592C200.655 269.097 199.399 272.398 198.277 275.321L226.264 293.55C227.401 290.908 228.54 287.817 229.573 284.282Z" stroke="#1A2E35" stroke-width="1.33333" stroke-miterlimit="10" stroke-linecap="round" stroke-linejoin="round"/>
<path d="M233.199 264.223L209.812 243.874C209.081 246.009 208.309 248.209 207.519 250.434L232.451 270.691C232.503 270.318 232.567 269.969 232.616 269.589C232.849 267.751 233.035 265.973 233.199 264.223Z" fill="white"/>
<path d="M233.199 264.223L209.812 243.874C209.081 246.009 208.309 248.209 207.519 250.434L232.451 270.691C232.503 270.318 232.567 269.969 232.616 269.589C232.849 267.751 233.035 265.973 233.199 264.223Z" stroke="#1A2E35" stroke-width="1.33333" stroke-miterlimit="10" stroke-linecap="round" stroke-linejoin="round"/>
<path d="M217.187 192.243C217.187 192.243 210.863 190.135 209.96 193.147C209.056 196.158 216.284 203.686 218.993 201.578C221.704 199.471 217.187 192.243 217.187 192.243Z" fill="white"/>
<path d="M217.187 192.243C217.187 192.243 210.863 190.135 209.96 193.147C209.056 196.158 216.284 203.686 218.993 201.578C221.704 199.471 217.187 192.243 217.187 192.243Z" stroke="#1A2E35" stroke-width="1.33333" stroke-miterlimit="10" stroke-linecap="round" stroke-linejoin="round"/>
<path d="M210.85 196.746C210.85 196.746 208.09 198.857 208.902 200.969C209.714 203.079 215.559 206.49 217.021 205.353C218.483 204.217 217.183 201.942 217.183 201.942C217.183 201.942 210.687 198.533 210.85 196.746Z" fill="white"/>
<path d="M210.85 196.746C210.85 196.746 208.09 198.857 208.902 200.969C209.714 203.079 215.559 206.49 217.021 205.353C218.483 204.217 217.183 201.942 217.183 201.942C217.183 201.942 210.687 198.533 210.85 196.746Z" stroke="#1A2E35" stroke-width="1.33333" stroke-miterlimit="10" stroke-linecap="round" stroke-linejoin="round"/>
<path d="M208.901 200.968C208.901 200.968 208.089 205.84 209.388 206.978C210.688 208.114 216.047 210.387 217.345 209.412C218.645 208.439 217.021 205.354 217.021 205.354C217.021 205.354 210.849 204.054 208.901 200.968Z" fill="white"/>
<path d="M208.901 200.968C208.901 200.968 208.089 205.84 209.388 206.978C210.688 208.114 216.047 210.387 217.345 209.412C218.645 208.439 217.021 205.354 217.021 205.354C217.021 205.354 210.849 204.054 208.901 200.968Z" stroke="#1A2E35" stroke-width="1.33333" stroke-miterlimit="10" stroke-linecap="round" stroke-linejoin="round"/>
<path d="M209.388 206.977C209.388 206.977 209.875 209.9 211.662 211.362C213.448 212.824 217.02 214.122 217.183 212.661C217.346 211.2 215.559 209.738 215.559 209.738C215.559 209.738 210.526 207.626 209.388 206.977Z" fill="white"/>
<path d="M209.388 206.977C209.388 206.977 209.875 209.9 211.662 211.362C213.448 212.824 217.02 214.122 217.183 212.661C217.346 211.2 215.559 209.738 215.559 209.738C215.559 209.738 210.526 207.626 209.388 206.977Z" stroke="#1A2E35" stroke-width="1.33333" stroke-miterlimit="10" stroke-linecap="round" stroke-linejoin="round"/>
<path d="M465.528 192.243C465.528 192.243 471.852 190.135 472.755 193.147C473.659 196.158 466.432 203.686 463.721 201.578C461.011 199.471 465.528 192.243 465.528 192.243Z" fill="white"/>
<path d="M465.528 192.243C465.528 192.243 471.852 190.135 472.755 193.147C473.659 196.158 466.432 203.686 463.721 201.578C461.011 199.471 465.528 192.243 465.528 192.243Z" stroke="#1A2E35" stroke-width="1.33333" stroke-miterlimit="10" stroke-linecap="round" stroke-linejoin="round"/>
<path d="M471.864 196.746C471.864 196.746 474.624 198.857 473.814 200.969C473.002 203.079 467.155 206.49 465.694 205.353C464.232 204.217 465.531 201.942 465.531 201.942C465.531 201.942 472.027 198.533 471.864 196.746Z" fill="white"/>
<path d="M471.864 196.746C471.864 196.746 474.624 198.857 473.814 200.969C473.002 203.079 467.155 206.49 465.694 205.353C464.232 204.217 465.531 201.942 465.531 201.942C465.531 201.942 472.027 198.533 471.864 196.746Z" stroke="#1A2E35" stroke-width="1.33333" stroke-miterlimit="10" stroke-linecap="round" stroke-linejoin="round"/>
<path d="M473.813 200.968C473.813 200.968 474.625 205.84 473.326 206.978C472.026 208.114 466.668 210.387 465.369 209.412C464.069 208.439 465.693 205.354 465.693 205.354C465.693 205.354 471.864 204.054 473.813 200.968Z" fill="white"/>
<path d="M473.813 200.968C473.813 200.968 474.625 205.84 473.326 206.978C472.026 208.114 466.668 210.387 465.369 209.412C464.069 208.439 465.693 205.354 465.693 205.354C465.693 205.354 471.864 204.054 473.813 200.968Z" stroke="#1A2E35" stroke-width="1.33333" stroke-miterlimit="10" stroke-linecap="round" stroke-linejoin="round"/>
<path d="M473.326 206.977C473.326 206.977 472.839 209.9 471.053 211.362C469.266 212.824 465.694 214.122 465.531 212.661C465.369 211.2 467.155 209.738 467.155 209.738C467.155 209.738 472.189 207.626 473.326 206.977Z" fill="white"/>
<path d="M473.326 206.977C473.326 206.977 472.839 209.9 471.053 211.362C469.266 212.824 465.694 214.122 465.531 212.661C465.369 211.2 467.155 209.738 467.155 209.738C467.155 209.738 472.189 207.626 473.326 206.977Z" stroke="#1A2E35" stroke-width="1.33333" stroke-miterlimit="10" stroke-linecap="round" stroke-linejoin="round"/>
</g>
<mask id="mask4_281_2751" style="mask-type:luminance" maskUnits="userSpaceOnUse" x="0" y="0" width="668" height="668">
<path d="M0.5 0.499877H667.167V667.167H0.5V0.499877Z" fill="white"/>
</mask>
<g mask="url(#mask4_281_2751)">
<path d="M138.02 508.391H77.4917C56.1224 508.391 38.7984 525.715 38.7984 547.084V588.439H176.713V547.084C176.713 525.715 159.389 508.391 138.02 508.391Z" fill="#D0D0D0"/>
<path d="M138.02 508.391H77.4917C56.1224 508.391 38.7984 525.715 38.7984 547.084V588.439H176.713V547.084C176.713 525.715 159.389 508.391 138.02 508.391Z" stroke="#1A2E35" stroke-width="1.33333" stroke-miterlimit="10" stroke-linecap="round" stroke-linejoin="round"/>
<path d="M287.507 508.391H226.979C205.61 508.391 188.286 525.715 188.286 547.084V588.439H326.201V547.084C326.201 525.715 308.877 508.391 287.507 508.391Z" fill="#D0D0D0"/>
<path d="M287.507 508.391H226.979C205.61 508.391 188.286 525.715 188.286 547.084V588.439H326.201V547.084C326.201 525.715 308.877 508.391 287.507 508.391Z" stroke="#1A2E35" stroke-width="1.33333" stroke-miterlimit="10" stroke-linecap="round" stroke-linejoin="round"/>
<path d="M436.995 508.391H376.467C355.098 508.391 337.774 525.715 337.774 547.084V588.439H475.688V547.084C475.688 525.715 458.364 508.391 436.995 508.391Z" fill="#D0D0D0"/>
<path d="M436.995 508.391H376.467C355.098 508.391 337.774 525.715 337.774 547.084V588.439H475.688V547.084C475.688 525.715 458.364 508.391 436.995 508.391Z" stroke="#1A2E35" stroke-width="1.33333" stroke-miterlimit="10" stroke-linecap="round" stroke-linejoin="round"/>
<path d="M586.483 508.391H525.955C504.585 508.391 487.261 525.715 487.261 547.084V588.439H625.176V547.084C625.176 525.715 607.852 508.391 586.483 508.391Z" fill="#D0D0D0"/>
<path d="M586.483 508.391H525.955C504.585 508.391 487.261 525.715 487.261 547.084V588.439H625.176V547.084C625.176 525.715 607.852 508.391 586.483 508.391Z" stroke="#1A2E35" stroke-width="1.33333" stroke-miterlimit="10" stroke-linecap="round" stroke-linejoin="round"/>
</g>
<mask id="mask5_281_2751" style="mask-type:luminance" maskUnits="userSpaceOnUse" x="0" y="0" width="668" height="668">
<path d="M0.5 0.499877H667.167V667.167H0.5V0.499877Z" fill="white"/>
</mask>
<g mask="url(#mask5_281_2751)">
<path d="M386.089 428.517C386.089 428.517 385.431 418.919 385.876 415.8C386.321 412.68 397.239 416.691 400.136 417.804C403.032 418.919 399.691 423.82 396.571 426.048C393.452 428.277 388.531 429.427 386.089 428.517Z" stroke="#1A2E35" stroke-width="1.33333" stroke-miterlimit="10" stroke-linecap="round" stroke-linejoin="round"/>
<path d="M405.957 389.273C405.957 389.273 407.054 367.329 409.238 353.434C411.422 339.538 413.01 327.033 413.01 327.033C413.01 327.033 418.568 322.666 419.361 320.484C420.156 318.3 420.553 314.726 420.95 313.933C421.346 313.138 426.706 305.993 428.096 303.413C429.485 300.832 430.081 297.061 427.5 298.252C424.92 299.442 422.141 303.016 419.957 305.993C417.774 308.97 417.576 307.581 416.186 307.184C414.797 306.786 413.605 300.038 413.605 298.649C413.605 297.26 414.797 285.945 414.598 283.562C414.4 281.181 411.025 281.578 410.23 285.15C409.437 288.724 406.658 301.03 406.658 301.03C406.658 301.03 405.269 304.405 404.474 305.397C403.681 306.39 393.954 312.146 392.961 315.72C391.969 319.292 395.344 333.782 395.344 333.782C395.344 333.782 382.441 366.932 378.074 376.261C373.708 385.59 374.501 407.226 376.884 413.181C379.265 419.137 393.16 420.725 394.549 419.732C395.94 418.74 403.085 405.044 404.276 400.28C405.466 395.516 405.957 389.273 405.957 389.273Z" fill="white"/>
<path d="M405.957 389.273C405.957 389.273 407.054 367.329 409.238 353.434C411.422 339.538 413.01 327.033 413.01 327.033C413.01 327.033 418.568 322.666 419.361 320.484C420.156 318.3 420.553 314.726 420.95 313.933C421.346 313.138 426.706 305.993 428.096 303.413C429.485 300.832 430.081 297.061 427.5 298.252C424.92 299.442 422.141 303.016 419.957 305.993C417.774 308.97 417.576 307.581 416.186 307.184C414.797 306.786 413.605 300.038 413.605 298.649C413.605 297.26 414.797 285.945 414.598 283.562C414.4 281.181 411.025 281.578 410.23 285.15C409.437 288.724 406.658 301.03 406.658 301.03C406.658 301.03 405.269 304.405 404.474 305.397C403.681 306.39 393.954 312.146 392.961 315.72C391.969 319.292 395.344 333.782 395.344 333.782C395.344 333.782 382.441 366.932 378.074 376.261C373.708 385.59 374.501 407.226 376.884 413.181C379.265 419.137 393.16 420.725 394.549 419.732C395.94 418.74 403.085 405.044 404.276 400.28C405.466 395.516 405.957 389.273 405.957 389.273Z" stroke="#1A2E35" stroke-width="1.33333" stroke-miterlimit="10" stroke-linecap="round" stroke-linejoin="round"/>
<path d="M392.961 318.697C392.961 318.697 392.365 313.933 393.755 310.359C395.145 306.787 399.115 307.779 400.504 309.367C401.893 310.955 404.276 315.123 404.871 316.91C405.467 318.697 404.871 321.475 403.879 322.27C402.887 323.063 399.909 323.063 398.519 321.475L396.733 317.902" fill="white"/>
<path d="M392.961 318.697C392.961 318.697 392.365 313.933 393.755 310.359C395.145 306.787 399.115 307.779 400.504 309.367C401.893 310.955 404.276 315.123 404.871 316.91C405.467 318.697 404.871 321.475 403.879 322.27C402.887 323.063 399.909 323.063 398.519 321.475L396.733 317.902" stroke="#1A2E35" stroke-width="1.33333" stroke-miterlimit="10" stroke-linecap="round" stroke-linejoin="round"/>
<path d="M398.321 307.581C398.321 307.581 400.108 303.413 402.688 303.612C405.269 303.809 410.23 314.33 410.033 317.308C409.834 320.285 405.864 320.881 405.864 320.881C405.864 320.881 406.062 319.49 404.872 316.91C403.681 314.33 399.313 306.985 398.321 307.581Z" fill="white"/>
<path d="M398.321 307.581C398.321 307.581 400.108 303.413 402.688 303.612C405.269 303.809 410.23 314.33 410.033 317.308C409.834 320.285 405.864 320.881 405.864 320.881C405.864 320.881 406.062 319.49 404.872 316.91C403.681 314.33 399.313 306.985 398.321 307.581Z" stroke="#1A2E35" stroke-width="1.33333" stroke-miterlimit="10" stroke-linecap="round" stroke-linejoin="round"/>
<path d="M402.688 303.611C402.688 303.611 403.68 298.648 406.657 301.031C409.636 303.412 413.605 310.36 413.605 313.536C413.605 316.712 410.032 317.307 410.032 317.307C410.032 317.307 409.636 313.536 408.048 310.36C406.46 307.184 402.688 303.611 402.688 303.611Z" fill="white"/>
<path d="M402.688 303.611C402.688 303.611 403.68 298.648 406.657 301.031C409.636 303.412 413.605 310.36 413.605 313.536C413.605 316.712 410.032 317.307 410.032 317.307C410.032 317.307 409.636 313.536 408.048 310.36C406.46 307.184 402.688 303.611 402.688 303.611Z" stroke="#1A2E35" stroke-width="1.33333" stroke-miterlimit="10" stroke-linecap="round" stroke-linejoin="round"/>
<path d="M399.512 330.805C399.512 330.805 403.283 332.79 405.864 331.003C408.444 329.217 410.429 326.239 410.429 326.239" stroke="#1A2E35" stroke-width="1.33333" stroke-miterlimit="10" stroke-linecap="round" stroke-linejoin="round"/>
<path d="M398.122 358.396C393.953 358.067 390.214 355.435 387.698 353.144C384.092 362.164 380.133 371.862 378.074 376.26C373.708 385.591 374.501 407.227 376.884 413.182C379.265 419.136 393.16 420.724 394.549 419.732C395.938 418.739 403.085 405.043 404.276 400.279C405.466 395.515 405.957 389.274 405.957 389.274C405.957 389.274 406.966 369.122 408.972 355.214C406.292 356.896 402.333 358.728 398.122 358.396Z" fill="#5AE4A7"/>
<path d="M398.122 358.396C393.953 358.067 390.214 355.435 387.698 353.144C384.092 362.164 380.133 371.862 378.074 376.26C373.708 385.591 374.501 407.227 376.884 413.182C379.265 419.136 393.16 420.724 394.549 419.732C395.938 418.739 403.085 405.043 404.276 400.279C405.466 395.515 405.957 389.274 405.957 389.274C405.957 389.274 406.966 369.122 408.972 355.214C406.292 356.896 402.333 358.728 398.122 358.396Z" stroke="#1A2E35" stroke-width="1.33333" stroke-miterlimit="10" stroke-linecap="round" stroke-linejoin="round"/>
<path d="M561.532 389.273C561.532 389.273 560.435 367.329 558.251 353.434C556.067 339.538 554.479 327.033 554.479 327.033C554.479 327.033 548.921 322.666 548.128 320.484C547.333 318.3 546.936 314.726 546.539 313.933C546.143 313.138 540.783 305.993 539.393 303.413C538.004 300.832 537.408 297.061 539.989 298.252C542.569 299.442 545.348 303.016 547.532 305.993C549.716 308.97 549.913 307.581 551.303 307.184C552.693 306.786 553.884 300.038 553.884 298.649C553.884 297.26 552.693 285.945 552.892 283.562C553.089 281.181 556.464 281.578 557.259 285.15C558.052 288.724 560.831 301.03 560.831 301.03C560.831 301.03 562.221 304.405 563.015 305.397C563.808 306.39 573.535 312.146 574.528 315.72C575.52 319.292 572.145 333.782 572.145 333.782C572.145 333.782 585.048 366.932 589.415 376.261C593.781 385.59 592.988 407.226 590.605 413.181C588.224 419.137 574.329 420.725 572.94 419.732C571.549 418.74 564.404 405.044 563.213 400.28C562.023 395.516 561.532 389.273 561.532 389.273Z" fill="white"/>
<path d="M561.532 389.273C561.532 389.273 560.435 367.329 558.251 353.434C556.067 339.538 554.479 327.033 554.479 327.033C554.479 327.033 548.921 322.666 548.128 320.484C547.333 318.3 546.936 314.726 546.539 313.933C546.143 313.138 540.783 305.993 539.393 303.413C538.004 300.832 537.408 297.061 539.989 298.252C542.569 299.442 545.348 303.016 547.532 305.993C549.716 308.97 549.913 307.581 551.303 307.184C552.693 306.786 553.884 300.038 553.884 298.649C553.884 297.26 552.693 285.945 552.892 283.562C553.089 281.181 556.464 281.578 557.259 285.15C558.052 288.724 560.831 301.03 560.831 301.03C560.831 301.03 562.221 304.405 563.015 305.397C563.808 306.39 573.535 312.146 574.528 315.72C575.52 319.292 572.145 333.782 572.145 333.782C572.145 333.782 585.048 366.932 589.415 376.261C593.781 385.59 592.988 407.226 590.605 413.181C588.224 419.137 574.329 420.725 572.94 419.732C571.549 418.74 564.404 405.044 563.213 400.28C562.023 395.516 561.532 389.273 561.532 389.273Z" stroke="#1A2E35" stroke-width="1.33333" stroke-miterlimit="10" stroke-linecap="round" stroke-linejoin="round"/>
<path d="M574.528 318.697C574.528 318.697 575.124 313.933 573.733 310.359C572.344 306.787 568.374 307.779 566.985 309.367C565.596 310.955 563.213 315.123 562.618 316.91C562.022 318.697 562.618 321.475 563.61 322.27C564.602 323.063 567.58 323.063 568.97 321.475L570.756 317.902" fill="white"/>
<path d="M574.528 318.697C574.528 318.697 575.124 313.933 573.733 310.359C572.344 306.787 568.374 307.779 566.985 309.367C565.596 310.955 563.213 315.123 562.618 316.91C562.022 318.697 562.618 321.475 563.61 322.27C564.602 323.063 567.58 323.063 568.97 321.475L570.756 317.902" stroke="#1A2E35" stroke-width="1.33333" stroke-miterlimit="10" stroke-linecap="round" stroke-linejoin="round"/>
<path d="M569.168 307.581C569.168 307.581 567.381 303.413 564.801 303.612C562.22 303.809 557.259 314.33 557.456 317.308C557.655 320.285 561.625 320.881 561.625 320.881C561.625 320.881 561.427 319.49 562.617 316.91C563.808 314.33 568.176 306.985 569.168 307.581Z" fill="white"/>
<path d="M569.168 307.581C569.168 307.581 567.381 303.413 564.801 303.612C562.22 303.809 557.259 314.33 557.456 317.308C557.655 320.285 561.625 320.881 561.625 320.881C561.625 320.881 561.427 319.49 562.617 316.91C563.808 314.33 568.176 306.985 569.168 307.581Z" stroke="#1A2E35" stroke-width="1.33333" stroke-miterlimit="10" stroke-linecap="round" stroke-linejoin="round"/>
<path d="M564.801 303.611C564.801 303.611 563.809 298.648 560.832 301.031C557.853 303.412 553.884 310.36 553.884 313.536C553.884 316.712 557.457 317.307 557.457 317.307C557.457 317.307 557.853 313.536 559.441 310.36C561.029 307.184 564.801 303.611 564.801 303.611Z" fill="white"/>
<path d="M564.801 303.611C564.801 303.611 563.809 298.648 560.832 301.031C557.853 303.412 553.884 310.36 553.884 313.536C553.884 316.712 557.457 317.307 557.457 317.307C557.457 317.307 557.853 313.536 559.441 310.36C561.029 307.184 564.801 303.611 564.801 303.611Z" stroke="#1A2E35" stroke-width="1.33333" stroke-miterlimit="10" stroke-linecap="round" stroke-linejoin="round"/>
<path d="M567.977 330.805C567.977 330.805 564.205 332.79 561.625 331.003C559.045 329.217 557.06 326.239 557.06 326.239" stroke="#1A2E35" stroke-width="1.33333" stroke-miterlimit="10" stroke-linecap="round" stroke-linejoin="round"/>
<path d="M580.595 427.291C580.595 427.291 581.327 416.734 580.805 412.818C580.283 408.903 571.93 416.472 570.886 418.56C569.842 420.648 578.298 426.887 580.595 427.291Z" fill="white"/>
<path d="M580.595 427.291C580.595 427.291 581.327 416.734 580.805 412.818C580.283 408.903 571.93 416.472 570.886 418.56C569.842 420.648 578.298 426.887 580.595 427.291Z" stroke="#1A2E35" stroke-width="1.33333" stroke-miterlimit="10" stroke-linecap="round" stroke-linejoin="round"/>
<path d="M569.367 358.396C573.536 358.067 577.275 355.435 579.791 353.144C583.397 362.164 587.356 371.862 589.415 376.26C593.781 385.591 592.988 407.227 590.605 413.182C588.224 419.136 574.329 420.724 572.94 419.732C571.551 418.739 564.404 405.043 563.213 400.279C562.023 395.515 561.532 389.274 561.532 389.274C561.532 389.274 560.523 369.122 558.517 355.214C561.197 356.896 565.156 358.728 569.367 358.396Z" fill="#5AE4A7"/>
<path d="M569.367 358.396C573.536 358.067 577.275 355.435 579.791 353.144C583.397 362.164 587.356 371.862 589.415 376.26C593.781 385.591 592.988 407.227 590.605 413.182C588.224 419.136 574.329 420.724 572.94 419.732C571.551 418.739 564.404 405.043 563.213 400.279C562.023 395.515 561.532 389.274 561.532 389.274C561.532 389.274 560.523 369.122 558.517 355.214C561.197 356.896 565.156 358.728 569.367 358.396Z" stroke="#1A2E35" stroke-width="1.33333" stroke-miterlimit="10" stroke-linecap="round" stroke-linejoin="round"/>
<path d="M419.447 588.439C419.447 588.439 419.202 583.534 423.862 555.082C428.523 526.628 439.806 497.44 440.297 494.252C440.787 491.063 433.919 445.442 433.919 445.442C433.919 445.442 429.994 442.988 417.485 438.574C404.977 434.159 386.09 428.518 386.09 428.518C386.09 428.518 394.919 420.668 397.618 412.33C400.315 403.99 405.957 389.272 405.957 389.272L416.75 390.99C416.75 390.99 429.994 390.744 437.843 391.726C445.693 392.707 460.163 397.858 460.163 397.858C460.163 397.858 473.409 402.763 487.635 404.971C501.86 407.178 504.068 404.726 513.879 399.575C523.691 394.424 530.068 390.499 538.652 390.744C547.238 390.99 553.37 390.254 553.37 390.254L561.463 388.292C561.463 388.292 562.935 400.311 567.35 407.668C571.765 415.027 580.595 427.291 580.595 427.291C580.595 427.291 545.03 438.819 542.333 440.782C539.634 442.743 538.652 443.97 538.652 443.97C538.652 443.97 533.011 487.63 533.011 492.044C533.011 496.459 545.275 534.968 548.708 546.496C552.143 558.024 556.558 579.119 557.539 587.948" fill="white"/>
<path d="M419.447 588.439C419.447 588.439 419.202 583.534 423.862 555.082C428.523 526.628 439.806 497.44 440.297 494.252C440.787 491.063 433.919 445.442 433.919 445.442C433.919 445.442 429.994 442.988 417.485 438.574C404.977 434.159 386.09 428.518 386.09 428.518C386.09 428.518 394.919 420.668 397.618 412.33C400.315 403.99 405.957 389.272 405.957 389.272L416.75 390.99C416.75 390.99 429.994 390.744 437.843 391.726C445.693 392.707 460.163 397.858 460.163 397.858C460.163 397.858 473.409 402.763 487.635 404.971C501.86 407.178 504.068 404.726 513.879 399.575C523.691 394.424 530.068 390.499 538.652 390.744C547.238 390.99 553.37 390.254 553.37 390.254L561.463 388.292C561.463 388.292 562.935 400.311 567.35 407.668C571.765 415.027 580.595 427.291 580.595 427.291C580.595 427.291 545.03 438.819 542.333 440.782C539.634 442.743 538.652 443.97 538.652 443.97C538.652 443.97 533.011 487.63 533.011 492.044C533.011 496.459 545.275 534.968 548.708 546.496C552.143 558.024 556.558 579.119 557.539 587.948" stroke="#1A2E35" stroke-width="1.33333" stroke-miterlimit="10" stroke-linecap="round" stroke-linejoin="round"/>
<path d="M452.11 567.434L479.818 583.991" stroke="#1A2E35" stroke-width="1.33333" stroke-miterlimit="10" stroke-linecap="round" stroke-linejoin="round"/>
<path d="M527.463 566.42L497.39 582.64" stroke="#1A2E35" stroke-width="1.33333" stroke-miterlimit="10" stroke-linecap="round" stroke-linejoin="round"/>
<path d="M542.332 440.781C545.029 438.819 580.596 427.291 580.596 427.291C580.596 427.291 571.765 415.027 567.35 407.669C562.934 400.311 561.464 388.292 561.464 388.292L553.369 390.253C553.369 390.253 547.237 390.989 538.653 390.744C530.068 390.499 523.69 394.424 513.88 399.575C504.068 404.725 501.861 407.179 487.634 404.971C473.408 402.763 460.164 397.857 460.164 397.857C460.164 397.857 445.692 392.707 437.842 391.725C429.994 390.744 416.749 390.989 416.749 390.989L405.957 389.273C405.957 389.273 400.316 403.989 397.617 412.329C394.92 420.668 386.089 428.517 386.089 428.517C386.089 428.517 404.976 434.159 417.485 438.573C429.994 442.989 433.918 445.441 433.918 445.441C433.918 445.441 440.786 491.064 440.296 494.252C439.829 497.288 429.581 523.897 424.578 550.999C434.889 555.892 458.141 564.508 493.521 564.156C521.994 563.873 540.06 557.456 550.257 552.083C549.729 550.068 549.209 548.173 548.709 546.496C545.274 534.968 533.01 496.46 533.01 492.044C533.01 487.629 538.653 443.969 538.653 443.969C538.653 443.969 539.633 442.744 542.332 440.781Z" fill="#1A2E35"/>
<path d="M542.332 440.781C545.029 438.819 580.596 427.291 580.596 427.291C580.596 427.291 571.765 415.027 567.35 407.669C562.934 400.311 561.464 388.292 561.464 388.292L553.369 390.253C553.369 390.253 547.237 390.989 538.653 390.744C530.068 390.499 523.69 394.424 513.88 399.575C504.068 404.725 501.861 407.179 487.634 404.971C473.408 402.763 460.164 397.857 460.164 397.857C460.164 397.857 445.692 392.707 437.842 391.725C429.994 390.744 416.749 390.989 416.749 390.989L405.957 389.273C405.957 389.273 400.316 403.989 397.617 412.329C394.92 420.668 386.089 428.517 386.089 428.517C386.089 428.517 404.976 434.159 417.485 438.573C429.994 442.989 433.918 445.441 433.918 445.441C433.918 445.441 440.786 491.064 440.296 494.252C439.829 497.288 429.581 523.897 424.578 550.999C434.889 555.892 458.141 564.508 493.521 564.156C521.994 563.873 540.06 557.456 550.257 552.083C549.729 550.068 549.209 548.173 548.709 546.496C545.274 534.968 533.01 496.46 533.01 492.044C533.01 487.629 538.653 443.969 538.653 443.969C538.653 443.969 539.633 442.744 542.332 440.781Z" stroke="#1A2E35" stroke-width="1.33333" stroke-miterlimit="10" stroke-linecap="round" stroke-linejoin="round"/>
<path d="M505.049 403.254C505.049 403.254 507.503 461.63 507.503 484.44C507.503 507.252 509.955 516.327 509.955 516.327C509.955 516.327 523.445 517.554 530.068 514.61C536.691 511.667 543.068 508.968 543.068 508.968C543.068 508.968 537.427 488.611 530.559 461.139C523.691 433.668 518.049 417.235 515.841 410.367C513.635 403.499 511.917 400.066 511.917 400.066L505.049 403.254Z" fill="#5AE4A7"/>
<path d="M505.049 403.254C505.049 403.254 507.503 461.63 507.503 484.44C507.503 507.252 509.955 516.327 509.955 516.327C509.955 516.327 523.445 517.554 530.068 514.61C536.691 511.667 543.068 508.968 543.068 508.968C543.068 508.968 537.427 488.611 530.559 461.139C523.691 433.668 518.049 417.235 515.841 410.367C513.635 403.499 511.917 400.066 511.917 400.066L505.049 403.254Z" stroke="#1A2E35" stroke-width="1.33333" stroke-miterlimit="10" stroke-linecap="round" stroke-linejoin="round"/>
<path d="M507.343 471.579L532.047 467.06C531.559 465.127 531.063 463.155 530.559 461.14C530.369 460.381 530.184 459.664 529.997 458.923L507.141 463.005C507.219 465.977 507.287 468.857 507.343 471.579Z" fill="white"/>
<path d="M507.343 471.579L532.047 467.06C531.559 465.127 531.063 463.155 530.559 461.14C530.369 460.381 530.184 459.664 529.997 458.923L507.141 463.005C507.219 465.977 507.287 468.857 507.343 471.579Z" stroke="#1A2E35" stroke-width="1.33333" stroke-miterlimit="10" stroke-linecap="round" stroke-linejoin="round"/>
<path d="M535.655 481.144L507.511 486.657C507.535 490.125 507.617 493.25 507.737 496.056L538.527 492.109C537.66 488.83 536.693 485.148 535.655 481.144Z" fill="white"/>
<path d="M535.655 481.144L507.511 486.657C507.535 490.125 507.617 493.25 507.737 496.056L538.527 492.109C537.66 488.83 536.693 485.148 535.655 481.144Z" stroke="#1A2E35" stroke-width="1.33333" stroke-miterlimit="10" stroke-linecap="round" stroke-linejoin="round"/>
<path d="M456.239 395.159C456.239 395.159 452.07 430.234 448.144 453.045C444.22 475.857 433.919 512.402 433.919 512.402C433.919 512.402 443.484 515.101 449.862 516.082C456.239 517.063 463.352 518.043 463.352 518.043C463.352 518.043 467.522 489.101 468.994 457.215C470.466 425.329 464.824 396.386 464.824 396.386L456.239 395.159Z" fill="#5AE4A7"/>
<path d="M456.239 395.159C456.239 395.159 452.07 430.234 448.144 453.045C444.22 475.857 433.919 512.402 433.919 512.402C433.919 512.402 443.484 515.101 449.862 516.082C456.239 517.063 463.352 518.043 463.352 518.043C463.352 518.043 467.522 489.101 468.994 457.215C470.466 425.329 464.824 396.386 464.824 396.386L456.239 395.159Z" stroke="#1A2E35" stroke-width="1.33333" stroke-miterlimit="10" stroke-linecap="round" stroke-linejoin="round"/>
<path d="M444.691 470.07L467.995 473.735C468.207 470.866 468.404 467.927 468.581 464.942L446.491 461.731C445.933 464.444 445.328 467.242 444.691 470.07Z" fill="white"/>
<path d="M444.691 470.07L467.995 473.735C468.207 470.866 468.404 467.927 468.581 464.942L446.491 461.731C445.933 464.444 445.328 467.242 444.691 470.07Z" stroke="#1A2E35" stroke-width="1.33333" stroke-miterlimit="10" stroke-linecap="round" stroke-linejoin="round"/>
<path d="M467.104 484.657L442.057 481.28C441.266 484.527 440.474 487.696 439.708 490.699L466.232 493.787C466.524 490.913 466.817 487.859 467.104 484.657Z" fill="white"/>
<path d="M467.104 484.657L442.057 481.28C441.266 484.527 440.474 487.696 439.708 490.699L466.232 493.787C466.524 490.913 466.817 487.859 467.104 484.657Z" stroke="#1A2E35" stroke-width="1.33333" stroke-miterlimit="10" stroke-linecap="round" stroke-linejoin="round"/>
<path d="M463.843 405.216L482.975 506.761H487.389L466.296 405.461L463.843 405.216Z" fill="#9D9D9D"/>
<path d="M463.843 405.216L482.975 506.761H487.389L466.296 405.461L463.843 405.216Z" stroke="#1A2E35" stroke-width="1.33333" stroke-miterlimit="10" stroke-linecap="round" stroke-linejoin="round"/>
<path d="M487.389 506.761L505.049 403.253L509.464 402.028L491.313 507.497L487.389 506.761Z" fill="#9D9D9D"/>
<path d="M487.389 506.761L505.049 403.253L509.464 402.028L491.313 507.497L487.389 506.761Z" stroke="#1A2E35" stroke-width="1.33333" stroke-miterlimit="10" stroke-linecap="round" stroke-linejoin="round"/>
<path d="M463.352 379.707L463.843 405.216C463.843 405.216 463.352 410.858 475.125 416.254C486.899 421.65 493.767 415.763 496.709 413.064C499.653 410.367 505.049 403.254 505.049 403.254L501.371 384.122C501.371 384.122 484.691 388.292 477.088 387.556C469.484 386.82 463.352 379.707 463.352 379.707Z" fill="white"/>
<path d="M463.352 379.707L463.843 405.216C463.843 405.216 463.352 410.858 475.125 416.254C486.899 421.65 493.767 415.763 496.709 413.064C499.653 410.367 505.049 403.254 505.049 403.254L501.371 384.122C501.371 384.122 484.691 388.292 477.088 387.556C469.484 386.82 463.352 379.707 463.352 379.707Z" stroke="#1A2E35" stroke-width="1.33333" stroke-miterlimit="10" stroke-linecap="round" stroke-linejoin="round"/>
<path d="M495.974 328.934C495.974 328.934 488.37 318.142 478.805 317.406C469.238 316.67 446.427 341.689 444.466 353.217C442.503 364.745 448.39 371.858 449.862 375.046C451.334 378.236 446.918 387.556 444.711 397.857C442.503 408.16 447.409 413.31 452.069 419.442C456.73 425.574 456.239 432.688 452.559 430.725C448.881 428.762 451.334 423.612 448.635 425.82C445.937 428.026 439.561 436.121 453.541 442.498C467.522 448.876 471.937 431.216 473.163 425.82C474.39 420.424 473.899 412.084 469.238 404.97C464.578 397.857 462.862 387.065 462.862 383.141C462.862 379.217 468.013 351.99 478.559 346.104C489.106 340.217 496.955 344.141 500.389 350.273C503.823 356.405 507.257 364.99 509.219 364.745C511.181 364.5 512.162 366.708 512.898 365.236C513.634 363.764 518.294 353.953 512.898 342.916C507.502 331.878 495.974 328.934 495.974 328.934Z" fill="#5AE4A7"/>
<path d="M495.974 328.934C495.974 328.934 488.37 318.142 478.805 317.406C469.238 316.67 446.427 341.689 444.466 353.217C442.503 364.745 448.39 371.858 449.862 375.046C451.334 378.236 446.918 387.556 444.711 397.857C442.503 408.16 447.409 413.31 452.069 419.442C456.73 425.574 456.239 432.688 452.559 430.725C448.881 428.762 451.334 423.612 448.635 425.82C445.937 428.026 439.561 436.121 453.541 442.498C467.522 448.876 471.937 431.216 473.163 425.82C474.39 420.424 473.899 412.084 469.238 404.97C464.578 397.857 462.862 387.065 462.862 383.141C462.862 379.217 468.013 351.99 478.559 346.104C489.106 340.217 496.955 344.141 500.389 350.273C503.823 356.405 507.257 364.99 509.219 364.745C511.181 364.5 512.162 366.708 512.898 365.236C513.634 363.764 518.294 353.953 512.898 342.916C507.502 331.878 495.974 328.934 495.974 328.934Z" stroke="#1A2E35" stroke-width="1.33333" stroke-miterlimit="10" stroke-linecap="round" stroke-linejoin="round"/>
<path d="M493.276 328.198C493.276 328.198 475.616 333.84 470.956 339.481C466.295 345.122 461.88 353.462 460.408 357.386C458.937 361.312 457.22 365.726 457.22 365.726C457.22 365.726 452.315 361.065 450.597 368.178C448.88 375.292 453.541 379.461 456.239 380.442L458.937 381.424C458.937 381.424 461.88 386.084 464.824 388.537C467.767 390.989 475.371 399.084 486.653 398.593C497.936 398.102 504.313 388.046 506.031 384.613L507.747 381.178C507.747 381.178 514.615 375.046 515.105 369.65C515.596 364.254 511.672 361.801 510.2 361.556C508.728 361.312 507.257 361.065 507.257 361.065C507.257 361.065 505.785 346.349 500.389 337.518C494.993 328.689 493.276 328.198 493.276 328.198Z" fill="white"/>
<path d="M493.276 328.198C493.276 328.198 475.616 333.84 470.956 339.481C466.295 345.122 461.88 353.462 460.408 357.386C458.937 361.312 457.22 365.726 457.22 365.726C457.22 365.726 452.315 361.065 450.597 368.178C448.88 375.292 453.541 379.461 456.239 380.442L458.937 381.424C458.937 381.424 461.88 386.084 464.824 388.537C467.767 390.989 475.371 399.084 486.653 398.593C497.936 398.102 504.313 388.046 506.031 384.613L507.747 381.178C507.747 381.178 514.615 375.046 515.105 369.65C515.596 364.254 511.672 361.801 510.2 361.556C508.728 361.312 507.257 361.065 507.257 361.065C507.257 361.065 505.785 346.349 500.389 337.518C494.993 328.689 493.276 328.198 493.276 328.198Z" stroke="#1A2E35" stroke-width="1.33333" stroke-miterlimit="10" stroke-linecap="round" stroke-linejoin="round"/>
<path d="M479.541 360.575C479.541 360.575 482.729 362.783 484.937 362.538C487.145 362.293 489.351 360.33 489.351 360.33" fill="white"/>
<path d="M479.541 360.575C479.541 360.575 482.729 362.783 484.937 362.538C487.145 362.293 489.351 360.33 489.351 360.33" stroke="#1A2E35" stroke-width="1.33333" stroke-miterlimit="10" stroke-linecap="round" stroke-linejoin="round"/>
<path d="M477.333 367.198C477.333 367.198 484.937 369.651 492.294 366.707C492.294 366.707 491.069 376.518 486.898 378.48C482.729 380.443 480.276 377.008 477.333 367.198Z" fill="#1A2E35"/>
<path d="M481.012 348.802C481.012 348.802 474.88 347.33 468.257 347.575C461.635 347.821 455.012 349.538 455.012 351.01C455.012 352.481 456.729 353.707 457.22 356.161C457.711 358.613 456.975 363.274 465.805 364.009C474.635 364.745 479.54 360.821 480.521 355.915C481.503 351.01 481.012 348.802 481.012 348.802Z" fill="#1A2E35"/>
<path d="M481.012 348.802C481.012 348.802 474.88 347.33 468.257 347.575C461.635 347.821 455.012 349.538 455.012 351.01C455.012 352.481 456.729 353.707 457.22 356.161C457.711 358.613 456.975 363.274 465.805 364.009C474.635 364.745 479.54 360.821 480.521 355.915C481.503 351.01 481.012 348.802 481.012 348.802Z" stroke="#1A2E35" stroke-width="1.33333" stroke-miterlimit="10" stroke-linecap="round" stroke-linejoin="round"/>
<path d="M487.144 348.802C487.144 348.802 493.276 347.33 499.899 347.575C506.521 347.821 513.144 349.538 513.144 351.01C513.144 352.481 511.427 353.707 510.936 356.161C510.445 358.613 511.181 363.274 502.351 364.009C493.521 364.745 488.616 360.821 487.635 355.915C486.653 351.01 487.144 348.802 487.144 348.802Z" fill="#1A2E35"/>
<path d="M487.144 348.802C487.144 348.802 493.276 347.33 499.899 347.575C506.521 347.821 513.144 349.538 513.144 351.01C513.144 352.481 511.427 353.707 510.936 356.161C510.445 358.613 511.181 363.274 502.351 364.009C493.521 364.745 488.616 360.821 487.635 355.915C486.653 351.01 487.144 348.802 487.144 348.802Z" stroke="#1A2E35" stroke-width="1.33333" stroke-miterlimit="10" stroke-linecap="round" stroke-linejoin="round"/>
<path d="M481.012 348.802C481.012 348.802 485.181 347.575 487.144 348.802V351.5C487.144 351.5 485.181 350.028 481.503 351.5L481.012 348.802Z" fill="#1A2E35"/>
<path d="M481.012 348.802C481.012 348.802 485.181 347.575 487.144 348.802V351.5C487.144 351.5 485.181 350.028 481.503 351.5L481.012 348.802Z" stroke="#1A2E35" stroke-width="1.33333" stroke-miterlimit="10" stroke-linecap="round" stroke-linejoin="round"/>
<path d="M498.556 546.343L474.178 545.785L475.119 504.623L499.498 505.18L498.556 546.343Z" fill="white"/>
<path d="M498.556 546.343L474.178 545.785L475.119 504.623L499.498 505.18L498.556 546.343Z" stroke="#1A2E35" stroke-width="1.33333" stroke-miterlimit="10" stroke-linecap="round" stroke-linejoin="round"/>
</g>
<mask id="mask6_281_2751" style="mask-type:luminance" maskUnits="userSpaceOnUse" x="0" y="0" width="668" height="668">
<path d="M0.5 0.499877H667.167V667.167H0.5V0.499877Z" fill="white"/>
</mask>
<g mask="url(#mask6_281_2751)">
<path d="M223.347 328.706C223.347 328.706 222.519 331.464 223.899 332.016C225.279 332.568 227.762 333.12 229.142 331.74C230.522 330.362 229.694 328.706 229.694 328.706H223.347Z" stroke="#1A2E35" stroke-width="1.33333" stroke-miterlimit="10" stroke-linecap="round" stroke-linejoin="round"/>
<path d="M229.693 330.039C229.693 330.039 231.349 332.523 234.384 332.798C237.419 333.074 244.041 329.487 244.041 329.487C244.041 329.487 233.28 324.245 232.452 324.245C231.625 324.245 230.245 327.005 229.693 330.039Z" stroke="#1A2E35" stroke-width="1.33333" stroke-miterlimit="10" stroke-linecap="round" stroke-linejoin="round"/>
<path d="M143.926 588.439L146.637 538.666C146.637 538.666 165.61 551.726 196.657 547.043C227.704 542.362 239.53 534.476 239.53 534.476L248.648 587.454" fill="#1A2E35"/>
<path d="M143.926 588.439L146.637 538.666C146.637 538.666 165.61 551.726 196.657 547.043C227.704 542.362 239.53 534.476 239.53 534.476L248.648 587.454" stroke="#1A2E35" stroke-width="1.33333" stroke-miterlimit="10" stroke-linecap="round" stroke-linejoin="round"/>
<path d="M167.335 385.776C167.335 385.776 131.189 401.228 125.671 407.298C120.152 413.368 110.495 456.412 110.495 456.412C110.495 456.412 103.32 479.865 103.872 485.108C104.424 490.35 116.565 493.386 126.497 490.074C136.431 486.764 141.949 481.797 141.949 481.797L146.088 509.113L145.813 543.052C145.813 543.052 165.403 556.297 193.824 552.985C222.243 549.674 237.695 538.913 239.075 537.809L240.455 536.706C240.455 536.706 235.212 488.42 235.212 485.108C235.212 481.797 243.765 420.542 244.317 419.714C244.869 418.886 267.494 422.749 281.29 418.61C295.086 414.472 297.571 409.505 296.467 402.056C295.363 394.605 279.911 363.702 271.909 352.941C263.908 342.18 251.49 322.313 248.456 319.278C245.421 316.244 228.037 312.932 225.279 311.828C222.519 310.725 220.864 313.484 220.588 314.588C220.312 315.692 219.76 324.245 218.932 326.176C218.104 328.108 223.899 329.488 226.659 330.04C229.417 330.592 231.073 327.556 231.073 327.556C231.073 327.556 235.212 329.488 237.971 329.488H244.041C244.041 329.488 254.251 352.113 255.905 360.39C257.561 368.669 260.596 387.708 260.596 387.708L238.799 378.602C238.799 378.602 233.004 373.36 224.451 374.186C215.897 375.014 205.412 380.809 204.032 380.809H194.099L167.335 385.776Z" fill="white"/>
<path d="M167.335 385.776C167.335 385.776 131.189 401.228 125.671 407.298C120.152 413.368 110.495 456.412 110.495 456.412C110.495 456.412 103.32 479.865 103.872 485.108C104.424 490.35 116.565 493.386 126.497 490.074C136.431 486.764 141.949 481.797 141.949 481.797L146.088 509.113L145.813 543.052C145.813 543.052 165.403 556.297 193.824 552.985C222.243 549.674 237.695 538.913 239.075 537.809L240.455 536.706C240.455 536.706 235.212 488.42 235.212 485.108C235.212 481.797 243.765 420.542 244.317 419.714C244.869 418.886 267.494 422.749 281.29 418.61C295.086 414.472 297.571 409.505 296.467 402.056C295.363 394.605 279.911 363.702 271.909 352.941C263.908 342.18 251.49 322.313 248.456 319.278C245.421 316.244 228.037 312.932 225.279 311.828C222.519 310.725 220.864 313.484 220.588 314.588C220.312 315.692 219.76 324.245 218.932 326.176C218.104 328.108 223.899 329.488 226.659 330.04C229.417 330.592 231.073 327.556 231.073 327.556C231.073 327.556 235.212 329.488 237.971 329.488H244.041C244.041 329.488 254.251 352.113 255.905 360.39C257.561 368.669 260.596 387.708 260.596 387.708L238.799 378.602C238.799 378.602 233.004 373.36 224.451 374.186C215.897 375.014 205.412 380.809 204.032 380.809H194.099L167.335 385.776Z" stroke="#1A2E35" stroke-width="1.33333" stroke-miterlimit="10" stroke-linecap="round" stroke-linejoin="round"/>
<path d="M255.039 385.385L238.799 378.601C238.799 378.601 233.004 373.359 224.451 374.187C215.897 375.015 205.412 380.809 204.032 380.809H194.099L167.335 385.776C167.335 385.776 131.188 401.227 125.671 407.297C120.152 413.368 110.495 456.412 110.495 456.412C110.495 456.412 110.244 457.228 109.843 458.588L137.811 465.517L141.949 481.797L146.088 509.113L145.812 543.052C145.812 543.052 165.403 556.296 193.823 552.985C222.243 549.673 237.695 538.913 239.075 537.809L240.455 536.705C240.455 536.705 235.212 488.419 235.212 485.108C235.212 481.797 243.765 420.541 244.317 419.715C244.501 419.437 247.164 419.685 251.132 419.984C249.001 416.968 247.076 412.687 247.076 407.021C247.076 397.441 252.417 388.968 255.039 385.385Z" fill="#5AE4A7"/>
<path d="M255.039 385.385L238.799 378.601C238.799 378.601 233.004 373.359 224.451 374.187C215.897 375.015 205.412 380.809 204.032 380.809H194.099L167.335 385.776C167.335 385.776 131.188 401.227 125.671 407.297C120.152 413.368 110.495 456.412 110.495 456.412C110.495 456.412 110.244 457.228 109.843 458.588L137.811 465.517L141.949 481.797L146.088 509.113L145.812 543.052C145.812 543.052 165.403 556.296 193.823 552.985C222.243 549.673 237.695 538.913 239.075 537.809L240.455 536.705C240.455 536.705 235.212 488.419 235.212 485.108C235.212 481.797 243.765 420.541 244.317 419.715C244.501 419.437 247.164 419.685 251.132 419.984C249.001 416.968 247.076 412.687 247.076 407.021C247.076 397.441 252.417 388.968 255.039 385.385Z" stroke="#1A2E35" stroke-width="1.33333" stroke-miterlimit="10" stroke-linecap="round" stroke-linejoin="round"/>
<path d="M164.023 398.192L164.233 387.123C162.921 387.699 161.257 388.435 159.351 389.29C159.459 398.883 160.087 421.82 163.471 442.34C167.886 469.104 177.267 494.766 177.267 494.766L181.13 494.214C181.13 494.214 176.163 472.691 170.922 455.308C165.679 437.926 164.023 398.192 164.023 398.192Z" fill="#9D9D9D"/>
<path d="M164.023 398.192L164.233 387.123C162.921 387.699 161.257 388.435 159.351 389.29C159.459 398.883 160.087 421.82 163.471 442.34C167.886 469.104 177.267 494.766 177.267 494.766L181.13 494.214C181.13 494.214 176.163 472.691 170.922 455.308C165.679 437.926 164.023 398.192 164.023 398.192Z" stroke="#1A2E35" stroke-width="1.33333" stroke-miterlimit="10" stroke-linecap="round" stroke-linejoin="round"/>
<path d="M197.686 443.719C201.549 422.198 203.757 395.709 204.033 389.362C204.183 385.882 204.251 382.823 204.283 380.763C204.19 380.785 204.091 380.809 204.033 380.809H199.853C200.287 384.493 200.161 393.078 197.41 413.091C192.443 449.238 181.131 494.213 181.131 494.213L185.822 495.593C185.822 495.593 193.823 465.242 197.686 443.719Z" fill="#9D9D9D"/>
<path d="M197.686 443.719C201.549 422.198 203.757 395.709 204.033 389.362C204.183 385.882 204.251 382.823 204.283 380.763C204.19 380.785 204.091 380.809 204.033 380.809H199.853C200.287 384.493 200.161 393.078 197.41 413.091C192.443 449.238 181.131 494.213 181.131 494.213L185.822 495.593C185.822 495.593 193.823 465.242 197.686 443.719Z" stroke="#1A2E35" stroke-width="1.33333" stroke-miterlimit="10" stroke-linecap="round" stroke-linejoin="round"/>
<path d="M231.073 327.556L227.21 323.417L225.278 326.176" stroke="#1A2E35" stroke-width="1.33333" stroke-miterlimit="10" stroke-linecap="round" stroke-linejoin="round"/>
<path d="M260.596 387.707C260.596 387.707 261.424 398.468 263.631 401.503" stroke="#1A2E35" stroke-width="1.33333" stroke-miterlimit="10" stroke-linecap="round" stroke-linejoin="round"/>
<path d="M137.535 463.586L132.568 437.097" stroke="#1A2E35" stroke-width="1.33333" stroke-miterlimit="10" stroke-linecap="round" stroke-linejoin="round"/>
<path d="M244.317 419.714L232.453 419.162" stroke="#1A2E35" stroke-width="1.33333" stroke-miterlimit="10" stroke-linecap="round" stroke-linejoin="round"/>
<path d="M189.927 532.018L167.211 529.383L171.659 491.027L194.375 493.661L189.927 532.018Z" fill="white"/>
<path d="M189.927 532.018L167.211 529.383L171.659 491.027L194.375 493.661L189.927 532.018Z" stroke="#1A2E35" stroke-width="1.33333" stroke-miterlimit="10" stroke-linecap="round" stroke-linejoin="round"/>
<path d="M141.95 471.588C141.95 471.588 130.636 472.416 129.81 472.416C128.982 472.416 116.564 471.588 107.735 474.072C98.9056 476.555 98.0776 490.075 98.0776 493.661C98.0776 497.249 102.492 505.803 111.874 506.631C121.255 507.457 138.087 488.42 138.639 487.592C139.19 486.764 146.916 487.04 149.123 486.212C151.331 485.384 155.47 482.349 155.47 482.349C155.47 482.349 156.574 484.832 158.506 484.556C160.436 484.28 174.784 469.656 175.612 466.897C176.44 464.139 177.268 463.311 175.06 461.931C172.852 460.551 165.127 453.929 162.092 454.757C159.056 455.584 141.95 471.588 141.95 471.588Z" fill="white"/>
<path d="M141.95 471.588C141.95 471.588 130.636 472.416 129.81 472.416C128.982 472.416 116.564 471.588 107.735 474.072C98.9056 476.555 98.0776 490.075 98.0776 493.661C98.0776 497.249 102.492 505.803 111.874 506.631C121.255 507.457 138.087 488.42 138.639 487.592C139.19 486.764 146.916 487.04 149.123 486.212C151.331 485.384 155.47 482.349 155.47 482.349C155.47 482.349 156.574 484.832 158.506 484.556C160.436 484.28 174.784 469.656 175.612 466.897C176.44 464.139 177.268 463.311 175.06 461.931C172.852 460.551 165.127 453.929 162.092 454.757C159.056 455.584 141.95 471.588 141.95 471.588Z" stroke="#1A2E35" stroke-width="1.33333" stroke-miterlimit="10" stroke-linecap="round" stroke-linejoin="round"/>
<path d="M175.612 466.897C175.612 466.897 179.751 466.345 179.475 468.277C179.199 470.208 176.164 476.003 173.129 476.831C170.093 477.659 169.265 474.623 169.265 474.623L175.612 466.897Z" fill="white"/>
<path d="M175.612 466.897C175.612 466.897 179.751 466.345 179.475 468.277C179.199 470.208 176.164 476.003 173.129 476.831C170.093 477.659 169.265 474.623 169.265 474.623L175.612 466.897Z" stroke="#1A2E35" stroke-width="1.33333" stroke-miterlimit="10" stroke-linecap="round" stroke-linejoin="round"/>
<path d="M150.509 466.722C150.509 466.722 151.866 466.314 152.681 467.943C153.495 469.573 154.717 470.795 154.717 470.795L164.085 479.347" stroke="#1A2E35" stroke-width="1.33333" stroke-miterlimit="10" stroke-linecap="round" stroke-linejoin="round"/>
<path d="M155.803 461.699C155.803 461.699 157.161 461.699 157.297 462.785C157.433 463.871 157.569 464.549 157.569 464.549L169.266 474.623" stroke="#1A2E35" stroke-width="1.33333" stroke-miterlimit="10" stroke-linecap="round" stroke-linejoin="round"/>
<path d="M160.691 457.354C160.691 457.354 162.591 458.169 162.863 459.256C163.135 460.341 163.542 461.02 163.542 461.02C163.542 461.02 173.316 468.622 173.316 469.03" stroke="#1A2E35" stroke-width="1.33333" stroke-miterlimit="10" stroke-linecap="round" stroke-linejoin="round"/>
<path d="M155.47 482.349C155.47 482.349 156.347 479.619 156.89 479.483C157.432 479.347 157.976 480.57 157.976 480.57" stroke="#1A2E35" stroke-width="1.33333" stroke-miterlimit="10" stroke-linecap="round" stroke-linejoin="round"/>
<path d="M163.971 372.66C163.971 372.66 162.645 389.638 164.553 403.054C165.019 406.336 175.006 412.154 184.686 410.605C194.366 409.057 198.819 399.57 199.594 395.698C200.369 391.826 196.302 363.173 196.302 363.173C196.302 363.173 194.754 372.853 181.395 375.564C168.037 378.274 163.971 372.66 163.971 372.66Z" fill="white"/>
<path d="M163.971 372.66C163.971 372.66 162.645 389.638 164.553 403.054C165.019 406.336 175.006 412.154 184.686 410.605C194.366 409.057 198.819 399.57 199.594 395.698C200.369 391.826 196.302 363.173 196.302 363.173C196.302 363.173 194.754 372.853 181.395 375.564C168.037 378.274 163.971 372.66 163.971 372.66Z" stroke="#1A2E35" stroke-width="1.33333" stroke-miterlimit="10" stroke-linecap="round" stroke-linejoin="round"/>
<path d="M155.552 344.734C155.552 344.734 151.837 340.666 149.714 343.142C147.593 345.618 148.3 352.87 152.368 355.877C156.436 358.883 157.852 357.469 157.852 357.469L157.321 345.795L155.552 344.734Z" fill="white"/>
<path d="M155.552 344.734C155.552 344.734 151.837 340.666 149.714 343.142C147.593 345.618 148.3 352.87 152.368 355.877C156.436 358.883 157.852 357.469 157.852 357.469L157.321 345.795L155.552 344.734Z" stroke="#1A2E35" stroke-width="1.33333" stroke-miterlimit="10" stroke-linecap="round" stroke-linejoin="round"/>
<path d="M153.252 318.734C153.252 318.734 147.239 326.693 149.007 331.469C150.776 336.245 155.022 342.611 155.198 343.319C155.375 344.026 156.967 347.563 156.967 347.563L156.259 321.21C156.259 321.21 155.906 316.611 153.252 318.734Z" fill="#1A2E35"/>
<path d="M153.252 318.734C153.252 318.734 147.239 326.693 149.007 331.469C150.776 336.245 155.022 342.611 155.198 343.319C155.375 344.026 156.967 347.563 156.967 347.563L156.259 321.21C156.259 321.21 155.906 316.611 153.252 318.734Z" stroke="#1A2E35" stroke-width="1.33333" stroke-miterlimit="10" stroke-linecap="round" stroke-linejoin="round"/>
<path d="M199.946 344.734C199.946 344.734 203.661 340.666 205.784 343.142C207.905 345.618 207.198 352.87 203.13 355.877C199.062 358.883 197.646 357.469 197.646 357.469L198.177 345.795L199.946 344.734Z" fill="white"/>
<path d="M199.946 344.734C199.946 344.734 203.661 340.666 205.784 343.142C207.905 345.618 207.198 352.87 203.13 355.877C199.062 358.883 197.646 357.469 197.646 357.469L198.177 345.795L199.946 344.734Z" stroke="#1A2E35" stroke-width="1.33333" stroke-miterlimit="10" stroke-linecap="round" stroke-linejoin="round"/>
<path d="M193.818 312.838C193.818 312.838 199.77 313.252 201.891 317.85C204.014 322.449 199.238 340.842 199.062 342.789C198.885 344.734 191.103 313.252 191.103 313.252C191.103 313.252 192.819 312.425 193.818 312.838Z" fill="#1A2E35"/>
<path d="M193.818 312.838C193.818 312.838 199.77 313.252 201.891 317.85C204.014 322.449 199.238 340.842 199.062 342.789C198.885 344.734 191.103 313.252 191.103 313.252C191.103 313.252 192.819 312.425 193.818 312.838Z" stroke="#1A2E35" stroke-width="1.33333" stroke-miterlimit="10" stroke-linecap="round" stroke-linejoin="round"/>
<path d="M193.818 312.838C193.818 312.838 171.114 319.03 164.922 321.61C158.73 324.19 148.926 323.158 147.379 314.902C145.831 306.646 166.986 294.778 179.37 295.294C191.754 295.81 198.203 307.162 193.818 312.838Z" fill="#1A2E35"/>
<path d="M193.818 312.838C193.818 312.838 171.114 319.03 164.922 321.61C158.73 324.19 148.926 323.158 147.379 314.902C145.831 306.646 166.986 294.778 179.37 295.294C191.754 295.81 198.203 307.162 193.818 312.838Z" stroke="#1A2E35" stroke-width="1.33333" stroke-miterlimit="10" stroke-linecap="round" stroke-linejoin="round"/>
<path d="M193.818 312.838C193.818 312.838 197.687 321.868 198.462 328.576C199.235 335.284 198.719 353.602 198.719 360.052C198.719 366.501 197.375 374.772 190.926 379.932C184.475 385.092 176.478 385.092 170.286 381.996C164.094 378.9 158.73 367.276 157.957 361.6C157.182 355.924 154.861 321.094 154.861 321.094C154.861 321.094 160.278 315.418 174.469 312.064C188.658 308.71 193.818 312.838 193.818 312.838Z" fill="white"/>
<path d="M193.818 312.838C193.818 312.838 197.687 321.868 198.462 328.576C199.235 335.284 198.719 353.602 198.719 360.052C198.719 366.501 197.375 374.772 190.926 379.932C184.475 385.092 176.478 385.092 170.286 381.996C164.094 378.9 158.73 367.276 157.957 361.6C157.182 355.924 154.861 321.094 154.861 321.094C154.861 321.094 160.278 315.418 174.469 312.064C188.658 308.71 193.818 312.838 193.818 312.838Z" stroke="#1A2E35" stroke-width="1.33333" stroke-miterlimit="10" stroke-linecap="round" stroke-linejoin="round"/>
<path d="M198.835 335.809C198.605 335.801 198.462 335.8 198.462 335.8L195.623 354.633C195.623 354.633 184.789 347.668 177.306 348.7C169.825 349.732 162.601 358.504 160.794 357.988C158.989 357.472 156.409 337.348 156.409 337.348L156.014 337.761C156.714 347.566 157.55 358.614 157.957 361.6C158.73 367.276 164.094 378.9 170.286 381.996C176.478 385.092 184.475 385.092 190.926 379.932C197.375 374.772 198.719 366.501 198.719 360.052C198.719 355.288 198.999 344.061 198.835 335.809Z" fill="#1A2E35"/>
<path d="M198.835 335.809C198.605 335.801 198.462 335.8 198.462 335.8L195.623 354.633C195.623 354.633 184.789 347.668 177.306 348.7C169.825 349.732 162.601 358.504 160.794 357.988C158.989 357.472 156.409 337.348 156.409 337.348L156.014 337.761C156.714 347.566 157.55 358.614 157.957 361.6C158.73 367.276 164.094 378.9 170.286 381.996C176.478 385.092 184.475 385.092 190.926 379.932C197.375 374.772 198.719 366.501 198.719 360.052C198.719 355.288 198.999 344.061 198.835 335.809Z" stroke="#1A2E35" stroke-width="1.33333" stroke-miterlimit="10" stroke-linecap="round" stroke-linejoin="round"/>
<path d="M174.468 344.056C174.468 344.056 172.146 346.636 173.952 347.925C175.758 349.216 179.37 352.828 181.434 351.021C183.498 349.216 185.562 347.409 185.304 345.604L185.046 343.797" fill="white"/>
<path d="M174.468 344.056C174.468 344.056 172.146 346.636 173.952 347.925C175.758 349.216 179.37 352.828 181.434 351.021C183.498 349.216 185.562 347.409 185.304 345.604L185.046 343.797" stroke="#1A2E35" stroke-width="1.33333" stroke-miterlimit="10" stroke-linecap="round" stroke-linejoin="round"/>
<path d="M170.34 357.471C170.34 357.471 179.37 361.857 188.916 356.955C188.916 356.955 187.532 368.525 179.886 369.855C173.952 370.887 170.34 357.471 170.34 357.471Z" fill="white"/>
<path d="M170.34 357.471C170.34 357.471 179.37 361.857 188.916 356.955C188.916 356.955 187.532 368.525 179.886 369.855C173.952 370.887 170.34 357.471 170.34 357.471Z" stroke="#1A2E35" stroke-width="1.33333" stroke-miterlimit="10" stroke-linecap="round" stroke-linejoin="round"/>
<path d="M183.851 333.945C183.851 333.945 189.334 329.877 194.463 331.115" stroke="#1A2E35" stroke-width="1.33333" stroke-miterlimit="10" stroke-linecap="round" stroke-linejoin="round"/>
<path d="M173.239 334.476C173.239 334.476 168.817 330.585 162.096 332.53" stroke="#1A2E35" stroke-width="1.33333" stroke-miterlimit="10" stroke-linecap="round" stroke-linejoin="round"/>
<path d="M171.293 337.747C171.293 339.261 170.501 340.489 169.525 340.489C168.548 340.489 167.756 339.261 167.756 337.747C167.756 336.233 168.548 335.006 169.525 335.006C170.501 335.006 171.293 336.233 171.293 337.747Z" fill="#1A2E35"/>
<path d="M189.511 337.129C189.511 338.642 188.719 339.87 187.743 339.87C186.766 339.87 185.974 338.642 185.974 337.129C185.974 335.614 186.766 334.387 187.743 334.387C188.719 334.387 189.511 335.614 189.511 337.129Z" fill="#1A2E35"/>
</g>
<path d="M264.586 198.306L266.483 204.717L273.128 203.985L267.618 207.77L270.367 213.865L265.064 209.793L260.118 214.292L262.351 207.99L256.544 204.676L263.228 204.853L264.586 198.306Z" fill="#1A2E35"/>
<path d="M417.768 198.306L419.665 204.717L426.311 203.985L420.8 207.77L423.549 213.865L418.247 209.793L413.301 214.292L415.533 207.99L409.727 204.676L416.411 204.853L417.768 198.306Z" fill="#1A2E35"/>
<mask id="mask7_281_2751" style="mask-type:luminance" maskUnits="userSpaceOnUse" x="0" y="0" width="668" height="668">
<path d="M0.5 0.499877H667.167V667.167H0.5V0.499877Z" fill="white"/>
</mask>
<g mask="url(#mask7_281_2751)">
<path d="M282.64 216.403C281.22 216.403 280.119 216.105 279.335 215.511C278.551 214.917 278.005 214.117 277.7 213.109C277.395 212.103 277.243 210.981 277.243 209.743V202.661C277.243 201.308 277.395 200.128 277.7 199.121C278.005 198.113 278.551 197.334 279.335 196.782C280.119 196.228 281.22 195.952 282.64 195.952C283.895 195.952 284.889 196.183 285.624 196.646C286.359 197.107 286.887 197.767 287.208 198.625C287.531 199.484 287.691 200.516 287.691 201.72V203.305H285.041V201.893C285.041 201.151 285.004 200.495 284.931 199.925C284.856 199.356 284.653 198.915 284.324 198.601C283.993 198.288 283.44 198.131 282.665 198.131C281.872 198.131 281.295 198.3 280.932 198.637C280.568 198.976 280.333 199.455 280.225 200.074C280.119 200.692 280.065 201.415 280.065 202.24V210.188C280.065 211.195 280.148 211.992 280.312 212.577C280.477 213.163 280.749 213.58 281.129 213.828C281.509 214.075 282.021 214.199 282.665 214.199C283.424 214.199 283.969 214.029 284.299 213.692C284.629 213.353 284.836 212.887 284.917 212.293C285.001 211.699 285.041 211.005 285.041 210.213V208.727H287.691V210.213C287.691 211.435 287.543 212.512 287.245 213.444C286.948 214.376 286.436 215.103 285.711 215.623C284.984 216.143 283.96 216.403 282.64 216.403Z" fill="#1A2E35"/>
<path d="M292.841 216.18V196.124H295.638V204.791H300.789V196.124H303.586V216.18H300.789V206.796H295.638V216.18H292.841Z" fill="#1A2E35"/>
<path d="M312.079 209.124H315.422L313.738 200.086L312.079 209.124ZM308.118 216.18L312.377 196.125H315.075L319.358 216.18H316.71L315.793 211.129H311.709L310.742 216.18H308.118Z" fill="#1A2E35"/>
<path d="M323.815 216.18L324.185 196.124H326.935L330.475 212.392L334.04 196.124H336.763L337.135 216.18H334.883L334.659 201.622L331.267 216.18H329.683L326.315 201.622L326.092 216.18H323.815Z" fill="#1A2E35"/>
<path d="M345.478 204.841H346.766C347.574 204.841 348.21 204.75 348.673 204.569C349.134 204.387 349.465 204.069 349.664 203.614C349.861 203.161 349.96 202.522 349.96 201.697C349.96 200.739 349.89 200.005 349.749 199.493C349.609 198.981 349.316 198.626 348.87 198.427C348.425 198.23 347.732 198.131 346.79 198.131H345.478V204.841ZM342.681 216.181V196.125H347.657C348.862 196.125 349.824 196.343 350.542 196.781C351.26 197.219 351.784 197.85 352.114 198.675C352.445 199.501 352.609 200.499 352.609 201.671C352.609 202.727 352.424 203.643 352.052 204.419C351.681 205.195 351.132 205.794 350.405 206.214C349.678 206.635 348.772 206.846 347.682 206.846H345.478V216.181H342.681Z" fill="#1A2E35"/>
<path d="M357.191 196.125H359.939V216.181H357.191V196.125Z" fill="#1A2E35"/>
<path d="M370.782 214.199C371.525 214.199 372.085 214.047 372.466 213.741C372.845 213.437 373.1 213.007 373.233 212.454C373.365 211.901 373.43 211.253 373.43 210.51V201.721C373.43 200.978 373.365 200.338 373.233 199.802C373.1 199.265 372.845 198.853 372.466 198.563C372.085 198.275 371.525 198.131 370.782 198.131C370.04 198.131 369.473 198.275 369.085 198.563C368.697 198.853 368.438 199.265 368.306 199.802C368.173 200.338 368.109 200.978 368.109 201.721V210.51C368.109 211.253 368.173 211.901 368.306 212.454C368.438 213.007 368.697 213.437 369.085 213.741C369.473 214.047 370.04 214.199 370.782 214.199ZM370.782 216.403C369.428 216.403 368.348 216.139 367.538 215.611C366.73 215.082 366.152 214.327 365.806 213.346C365.458 212.363 365.285 211.213 365.285 209.891V202.29C365.285 200.97 365.462 199.835 365.818 198.886C366.173 197.937 366.75 197.21 367.552 196.707C368.352 196.203 369.428 195.951 370.782 195.951C372.136 195.951 373.209 196.207 374 196.719C374.793 197.231 375.366 197.957 375.721 198.898C376.076 199.839 376.254 200.97 376.254 202.29V209.915C376.254 211.221 376.076 212.359 375.721 213.333C375.366 214.307 374.793 215.062 374 215.598C373.209 216.135 372.136 216.403 370.782 216.403Z" fill="#1A2E35"/>
<path d="M381.478 216.18V196.124H383.385L389.079 209.446V196.124H391.407V216.18H389.623L383.855 202.488V216.18H381.478Z" fill="#1A2E35"/>
<path d="M401.756 216.403C400.601 216.403 399.638 216.155 398.872 215.66C398.104 215.165 397.522 214.48 397.126 213.605C396.729 212.731 396.498 211.715 396.433 210.56L398.908 209.891C398.958 210.601 399.069 211.287 399.242 211.947C399.417 212.607 399.701 213.147 400.097 213.568C400.493 213.988 401.046 214.199 401.756 214.199C402.482 214.199 403.032 213.997 403.402 213.593C403.774 213.188 403.96 212.607 403.96 211.847C403.96 210.939 403.753 210.209 403.341 209.656C402.928 209.103 402.408 208.547 401.781 207.984L398.413 205.013C397.753 204.436 397.265 203.804 396.953 203.119C396.638 202.435 396.482 201.588 396.482 200.581C396.482 199.112 396.902 197.973 397.745 197.165C398.586 196.356 399.734 195.952 401.186 195.952C401.978 195.952 402.677 196.055 403.278 196.261C403.881 196.467 404.384 196.785 404.789 197.213C405.193 197.644 405.516 198.184 405.754 198.836C405.994 199.488 406.156 200.252 406.237 201.127L403.86 201.771C403.81 201.109 403.712 200.503 403.562 199.949C403.414 199.397 403.156 198.952 402.784 198.613C402.412 198.275 401.88 198.106 401.186 198.106C400.493 198.106 399.953 198.291 399.565 198.663C399.177 199.035 398.984 199.583 398.984 200.31C398.984 200.92 399.086 201.424 399.293 201.82C399.498 202.216 399.833 202.62 400.296 203.033L403.686 206.004C404.446 206.664 405.116 207.452 405.693 208.368C406.27 209.284 406.56 210.369 406.56 211.624C406.56 212.615 406.353 213.469 405.941 214.187C405.528 214.905 404.962 215.453 404.244 215.833C403.526 216.212 402.696 216.403 401.756 216.403Z" fill="#1A2E35"/>
</g>
<path d="M22.403 588.439H640.607" stroke="#1A2E35" stroke-width="1.33333" stroke-miterlimit="10" stroke-linecap="round" stroke-linejoin="round"/>
<path d="M335.42 133.618L329.057 139.981L335.42 144.526V133.618Z" fill="white"/>
<path d="M335.42 133.618L329.057 139.981L335.42 144.526V133.618Z" stroke="#1A2E35" stroke-width="1.33333" stroke-miterlimit="10" stroke-linecap="round" stroke-linejoin="round"/>
<path d="M390.741 128.762L384.361 122.416L379.833 128.791L390.741 128.762Z" fill="white"/>
<path d="M390.741 128.762L384.361 122.416L379.833 128.791L390.741 128.762Z" stroke="#1A2E35" stroke-width="1.33333" stroke-miterlimit="10" stroke-linecap="round" stroke-linejoin="round"/>
<path d="M374.073 169.308L367.693 162.962L363.165 169.337L374.073 169.308Z" fill="white"/>
<path d="M374.073 169.308L367.693 162.962L363.165 169.337L374.073 169.308Z" stroke="#1A2E35" stroke-width="1.33333" stroke-miterlimit="10" stroke-linecap="round" stroke-linejoin="round"/>
<path d="M229.425 104.233L223.062 110.595L229.425 115.141V104.233Z" fill="white"/>
<path d="M229.425 104.233L223.062 110.595L229.425 115.141V104.233Z" stroke="#1A2E35" stroke-width="1.33333" stroke-miterlimit="10" stroke-linecap="round" stroke-linejoin="round"/>
<path d="M284.746 99.3759L278.366 93.0306L273.838 99.4053L284.746 99.3759Z" fill="white"/>
<path d="M284.746 99.3759L278.366 93.0306L273.838 99.4053L284.746 99.3759Z" stroke="#1A2E35" stroke-width="1.33333" stroke-miterlimit="10" stroke-linecap="round" stroke-linejoin="round"/>
<path d="M268.078 139.922L261.698 133.577L257.17 139.951L268.078 139.922Z" fill="white"/>
<path d="M268.078 139.922L261.698 133.577L257.17 139.951L268.078 139.922Z" stroke="#1A2E35" stroke-width="1.33333" stroke-miterlimit="10" stroke-linecap="round" stroke-linejoin="round"/>
<path d="M504.579 111.556L498.217 117.919L504.579 122.464V111.556Z" fill="white"/>
<path d="M504.579 111.556L498.217 117.919L504.579 122.464V111.556Z" stroke="#1A2E35" stroke-width="1.33333" stroke-miterlimit="10" stroke-linecap="round" stroke-linejoin="round"/>
<path d="M559.9 106.699L553.52 100.354L548.992 106.729L559.9 106.699Z" fill="white"/>
<path d="M559.9 106.699L553.52 100.354L548.992 106.729L559.9 106.699Z" stroke="#1A2E35" stroke-width="1.33333" stroke-miterlimit="10" stroke-linecap="round" stroke-linejoin="round"/>
<path d="M543.232 147.245L536.852 140.9L532.324 147.274L543.232 147.245Z" fill="white"/>
<path d="M543.232 147.245L536.852 140.9L532.324 147.274L543.232 147.245Z" stroke="#1A2E35" stroke-width="1.33333" stroke-miterlimit="10" stroke-linecap="round" stroke-linejoin="round"/>
<path d="M363.535 503.485L357.172 509.847L363.535 514.393V503.485Z" fill="white"/>
<path d="M363.535 503.485L357.172 509.847L363.535 514.393V503.485Z" stroke="#1A2E35" stroke-width="1.33333" stroke-miterlimit="10" stroke-linecap="round" stroke-linejoin="round"/>
<path d="M418.856 498.628L412.476 492.282L407.948 498.658L418.856 498.628Z" fill="white"/>
<path d="M418.856 498.628L412.476 492.282L407.948 498.658L418.856 498.628Z" stroke="#1A2E35" stroke-width="1.33333" stroke-miterlimit="10" stroke-linecap="round" stroke-linejoin="round"/>
<path d="M402.188 539.173L395.808 532.828L391.28 539.204L402.188 539.173Z" fill="white"/>
<path d="M402.188 539.173L395.808 532.828L391.28 539.204L402.188 539.173Z" stroke="#1A2E35" stroke-width="1.33333" stroke-miterlimit="10" stroke-linecap="round" stroke-linejoin="round"/>
<path d="M576.286 406.645L569.923 413.007L576.286 417.553V406.645Z" fill="white"/>
<path d="M576.286 406.645L569.923 413.007L576.286 417.553V406.645Z" stroke="#1A2E35" stroke-width="1.33333" stroke-miterlimit="10" stroke-linecap="round" stroke-linejoin="round"/>
<path d="M631.607 401.788L625.227 395.443L620.699 401.817L631.607 401.788Z" fill="white"/>
<path d="M631.607 401.788L625.227 395.443L620.699 401.817L631.607 401.788Z" stroke="#1A2E35" stroke-width="1.33333" stroke-miterlimit="10" stroke-linecap="round" stroke-linejoin="round"/>
<path d="M614.939 442.334L608.559 435.989L604.031 442.363L614.939 442.334Z" fill="white"/>
<path d="M614.939 442.334L608.559 435.989L604.031 442.363L614.939 442.334Z" stroke="#1A2E35" stroke-width="1.33333" stroke-miterlimit="10" stroke-linecap="round" stroke-linejoin="round"/>
<path d="M398.584 82.1701L392.221 88.5328L398.584 93.0781V82.1701Z" fill="white"/>
<path d="M398.584 82.1701L392.221 88.5328L398.584 93.0781V82.1701Z" stroke="#1A2E35" stroke-width="1.33333" stroke-miterlimit="10" stroke-linecap="round" stroke-linejoin="round"/>
<path d="M453.905 77.3134L447.525 70.9681L442.997 77.3428L453.905 77.3134Z" fill="white"/>
<path d="M453.905 77.3134L447.525 70.9681L442.997 77.3428L453.905 77.3134Z" stroke="#1A2E35" stroke-width="1.33333" stroke-miterlimit="10" stroke-linecap="round" stroke-linejoin="round"/>
<path d="M437.237 117.859L430.857 111.514L426.329 117.889L437.237 117.859Z" fill="white"/>
<path d="M437.237 117.859L430.857 111.514L426.329 117.889L437.237 117.859Z" stroke="#1A2E35" stroke-width="1.33333" stroke-miterlimit="10" stroke-linecap="round" stroke-linejoin="round"/>
<path d="M368.851 268.715L362.488 275.078L368.851 279.623V268.715Z" fill="white"/>
<path d="M368.851 268.715L362.488 275.078L368.851 279.623V268.715Z" stroke="#1A2E35" stroke-width="1.33333" stroke-miterlimit="10" stroke-linecap="round" stroke-linejoin="round"/>
<path d="M424.172 263.858L417.792 257.513L413.264 263.888L424.172 263.858Z" fill="white"/>
<path d="M424.172 263.858L417.792 257.513L413.264 263.888L424.172 263.858Z" stroke="#1A2E35" stroke-width="1.33333" stroke-miterlimit="10" stroke-linecap="round" stroke-linejoin="round"/>
<path d="M407.504 304.404L401.124 298.059L396.596 304.434L407.504 304.404Z" fill="white"/>
<path d="M407.504 304.404L401.124 298.059L396.596 304.434L407.504 304.404Z" stroke="#1A2E35" stroke-width="1.33333" stroke-miterlimit="10" stroke-linecap="round" stroke-linejoin="round"/>
<path d="M262.856 239.329L256.493 245.691L262.856 250.237V239.329Z" fill="white"/>
<path d="M262.856 239.329L256.493 245.691L262.856 250.237V239.329Z" stroke="#1A2E35" stroke-width="1.33333" stroke-miterlimit="10" stroke-linecap="round" stroke-linejoin="round"/>
<path d="M318.177 234.473L311.797 228.127L307.269 234.502L318.177 234.473Z" fill="white"/>
<path d="M318.177 234.473L311.797 228.127L307.269 234.502L318.177 234.473Z" stroke="#1A2E35" stroke-width="1.33333" stroke-miterlimit="10" stroke-linecap="round" stroke-linejoin="round"/>
<path d="M301.508 275.018L295.128 268.673L290.6 275.047L301.508 275.018Z" fill="white"/>
<path d="M301.508 275.018L295.128 268.673L290.6 275.047L301.508 275.018Z" stroke="#1A2E35" stroke-width="1.33333" stroke-miterlimit="10" stroke-linecap="round" stroke-linejoin="round"/>
<path d="M195.024 271.89L188.661 278.253L195.024 282.798V271.89Z" fill="white"/>
<path d="M195.024 271.89L188.661 278.253L195.024 282.798V271.89Z" stroke="#1A2E35" stroke-width="1.33333" stroke-miterlimit="10" stroke-linecap="round" stroke-linejoin="round"/>
<path d="M250.345 267.033L243.965 260.688L239.437 267.062L250.345 267.033Z" fill="white"/>
<path d="M250.345 267.033L243.965 260.688L239.437 267.062L250.345 267.033Z" stroke="#1A2E35" stroke-width="1.33333" stroke-miterlimit="10" stroke-linecap="round" stroke-linejoin="round"/>
<path d="M233.676 307.579L227.296 301.234L222.768 307.61L233.676 307.579Z" fill="white"/>
<path d="M233.676 307.579L227.296 301.234L222.768 307.61L233.676 307.579Z" stroke="#1A2E35" stroke-width="1.33333" stroke-miterlimit="10" stroke-linecap="round" stroke-linejoin="round"/>
<path d="M89.0283 242.504L82.6656 248.867L89.0283 253.412V242.504Z" fill="white"/>
<path d="M89.0283 242.504L82.6656 248.867L89.0283 253.412V242.504Z" stroke="#1A2E35" stroke-width="1.33333" stroke-miterlimit="10" stroke-linecap="round" stroke-linejoin="round"/>
<path d="M144.349 237.647L137.969 231.302L133.441 237.677L144.349 237.647Z" fill="white"/>
<path d="M144.349 237.647L137.969 231.302L133.441 237.677L144.349 237.647Z" stroke="#1A2E35" stroke-width="1.33333" stroke-miterlimit="10" stroke-linecap="round" stroke-linejoin="round"/>
<path d="M127.681 278.193L121.301 271.848L116.773 278.224L127.681 278.193Z" fill="white"/>
<path d="M127.681 278.193L121.301 271.848L116.773 278.224L127.681 278.193Z" stroke="#1A2E35" stroke-width="1.33333" stroke-miterlimit="10" stroke-linecap="round" stroke-linejoin="round"/>
<path d="M173.593 375.075L167.23 381.438L173.593 385.983V375.075Z" fill="white"/>
<path d="M173.593 375.075L167.23 381.438L173.593 385.983V375.075Z" stroke="#1A2E35" stroke-width="1.33333" stroke-miterlimit="10" stroke-linecap="round" stroke-linejoin="round"/>
<path d="M67.5975 345.689L61.2348 352.052L67.5975 356.597V345.689Z" fill="white"/>
<path d="M67.5975 345.689L61.2348 352.052L67.5975 356.597V345.689Z" stroke="#1A2E35" stroke-width="1.33333" stroke-miterlimit="10" stroke-linecap="round" stroke-linejoin="round"/>
<path d="M122.919 340.832L116.539 334.487L112.011 340.862L122.919 340.832Z" fill="white"/>
<path d="M122.919 340.832L116.539 334.487L112.011 340.862L122.919 340.832Z" stroke="#1A2E35" stroke-width="1.33333" stroke-miterlimit="10" stroke-linecap="round" stroke-linejoin="round"/>
<path d="M106.25 381.378L99.8703 375.033L95.3423 381.408L106.25 381.378Z" fill="white"/>
<path d="M106.25 381.378L99.8703 375.033L95.3423 381.408L106.25 381.378Z" stroke="#1A2E35" stroke-width="1.33333" stroke-miterlimit="10" stroke-linecap="round" stroke-linejoin="round"/>
<path d="M340.946 455.15L334.583 461.513L340.946 466.058V455.15Z" fill="white"/>
<path d="M340.946 455.15L334.583 461.513L340.946 466.058V455.15Z" stroke="#1A2E35" stroke-width="1.33333" stroke-miterlimit="10" stroke-linecap="round" stroke-linejoin="round"/>
<path d="M234.951 425.764L228.588 432.127L234.951 436.672V425.764Z" fill="white"/>
<path d="M234.951 425.764L228.588 432.127L234.951 436.672V425.764Z" stroke="#1A2E35" stroke-width="1.33333" stroke-miterlimit="10" stroke-linecap="round" stroke-linejoin="round"/>
<path d="M290.271 420.907L283.891 414.562L279.363 420.937L290.271 420.907Z" fill="white"/>
<path d="M290.271 420.907L283.891 414.562L279.363 420.937L290.271 420.907Z" stroke="#1A2E35" stroke-width="1.33333" stroke-miterlimit="10" stroke-linecap="round" stroke-linejoin="round"/>
<path d="M273.603 461.454L267.223 455.108L262.695 461.483L273.603 461.454Z" fill="white"/>
<path d="M273.603 461.454L267.223 455.108L262.695 461.483L273.603 461.454Z" stroke="#1A2E35" stroke-width="1.33333" stroke-miterlimit="10" stroke-linecap="round" stroke-linejoin="round"/>
<path d="M168.736 545.566L162.374 551.928L168.736 556.474V545.566Z" fill="white"/>
<path d="M168.736 545.566L162.374 551.928L168.736 556.474V545.566Z" stroke="#1A2E35" stroke-width="1.33333" stroke-miterlimit="10" stroke-linecap="round" stroke-linejoin="round"/>
<path d="M62.7411 516.18L56.3784 522.543L62.7411 527.088V516.18Z" fill="white"/>
<path d="M62.7411 516.18L56.3784 522.543L62.7411 527.088V516.18Z" stroke="#1A2E35" stroke-width="1.33333" stroke-miterlimit="10" stroke-linecap="round" stroke-linejoin="round"/>
<path d="M118.062 511.323L111.682 504.978L107.154 511.353L118.062 511.323Z" fill="white"/>
<path d="M118.062 511.323L111.682 504.978L107.154 511.353L118.062 511.323Z" stroke="#1A2E35" stroke-width="1.33333" stroke-miterlimit="10" stroke-linecap="round" stroke-linejoin="round"/>
<path d="M101.394 551.869L95.0137 545.523L90.4857 551.899L101.394 551.869Z" fill="white"/>
<path d="M101.394 551.869L95.0137 545.523L90.4857 551.899L101.394 551.869Z" stroke="#1A2E35" stroke-width="1.33333" stroke-miterlimit="10" stroke-linecap="round" stroke-linejoin="round"/>
<path d="M593.383 519.372L587.021 525.735L593.383 530.28V519.372Z" fill="white"/>
<path d="M593.383 519.372L587.021 525.735L593.383 530.28V519.372Z" stroke="#1A2E35" stroke-width="1.33333" stroke-miterlimit="10" stroke-linecap="round" stroke-linejoin="round"/>
<path d="M487.388 489.987L481.025 496.349L487.388 500.895V489.987Z" fill="white"/>
<path d="M487.388 489.987L481.025 496.349L487.388 500.895V489.987Z" stroke="#1A2E35" stroke-width="1.33333" stroke-miterlimit="10" stroke-linecap="round" stroke-linejoin="round"/>
<path d="M542.709 485.13L536.329 478.785L531.801 485.159L542.709 485.13Z" fill="white"/>
<path d="M542.709 485.13L536.329 478.785L531.801 485.159L542.709 485.13Z" stroke="#1A2E35" stroke-width="1.33333" stroke-miterlimit="10" stroke-linecap="round" stroke-linejoin="round"/>
<path d="M526.041 525.676L519.661 519.33L515.133 525.705L526.041 525.676Z" fill="white"/>
<path d="M526.041 525.676L519.661 519.33L515.133 525.705L526.041 525.676Z" stroke="#1A2E35" stroke-width="1.33333" stroke-miterlimit="10" stroke-linecap="round" stroke-linejoin="round"/>
<path d="M613.196 283.638L606.833 290.001L613.196 294.546V283.638Z" fill="white"/>
<path d="M613.196 283.638L606.833 290.001L613.196 294.546V283.638Z" stroke="#1A2E35" stroke-width="1.33333" stroke-miterlimit="10" stroke-linecap="round" stroke-linejoin="round"/>
<path d="M507.201 254.252L500.838 260.615L507.201 265.16V254.252Z" fill="white"/>
<path d="M507.201 254.252L500.838 260.615L507.201 265.16V254.252Z" stroke="#1A2E35" stroke-width="1.33333" stroke-miterlimit="10" stroke-linecap="round" stroke-linejoin="round"/>
<path d="M562.522 249.395L556.142 243.05L551.614 249.425L562.522 249.395Z" fill="white"/>
<path d="M562.522 249.395L556.142 243.05L551.614 249.425L562.522 249.395Z" stroke="#1A2E35" stroke-width="1.33333" stroke-miterlimit="10" stroke-linecap="round" stroke-linejoin="round"/>
<path d="M545.853 289.941L539.473 283.596L534.945 289.971L545.853 289.941Z" fill="white"/>
<path d="M545.853 289.941L539.473 283.596L534.945 289.971L545.853 289.941Z" stroke="#1A2E35" stroke-width="1.33333" stroke-miterlimit="10" stroke-linecap="round" stroke-linejoin="round"/>
<path d="M177.561 156.799L171.199 163.161L177.561 167.707V156.799Z" fill="white"/>
<path d="M177.561 156.799L171.199 163.161L177.561 167.707V156.799Z" stroke="#1A2E35" stroke-width="1.33333" stroke-miterlimit="10" stroke-linecap="round" stroke-linejoin="round"/>
<path d="M232.882 151.942L226.502 145.597L221.974 151.971L232.882 151.942Z" fill="white"/>
<path d="M232.882 151.942L226.502 145.597L221.974 151.971L232.882 151.942Z" stroke="#1A2E35" stroke-width="1.33333" stroke-miterlimit="10" stroke-linecap="round" stroke-linejoin="round"/>
<path d="M216.214 192.488L209.834 186.142L205.306 192.517L216.214 192.488Z" fill="white"/>
<path d="M216.214 192.488L209.834 186.142L205.306 192.517L216.214 192.488Z" stroke="#1A2E35" stroke-width="1.33333" stroke-miterlimit="10" stroke-linecap="round" stroke-linejoin="round"/>
<path d="M71.5662 127.413L65.2035 133.775L71.5662 138.321V127.413Z" fill="white"/>
<path d="M71.5662 127.413L65.2035 133.775L71.5662 138.321V127.413Z" stroke="#1A2E35" stroke-width="1.33333" stroke-miterlimit="10" stroke-linecap="round" stroke-linejoin="round"/>
<path d="M126.887 122.556L120.507 116.211L115.979 122.585L126.887 122.556Z" fill="white"/>
<path d="M126.887 122.556L120.507 116.211L115.979 122.585L126.887 122.556Z" stroke="#1A2E35" stroke-width="1.33333" stroke-miterlimit="10" stroke-linecap="round" stroke-linejoin="round"/>
<path d="M110.219 163.102L103.839 156.757L99.3109 163.131L110.219 163.102Z" fill="white"/>
<path d="M110.219 163.102L103.839 156.757L99.3109 163.131L110.219 163.102Z" stroke="#1A2E35" stroke-width="1.33333" stroke-miterlimit="10" stroke-linecap="round" stroke-linejoin="round"/>
<path d="M563.403 173.837L557.04 180.2L563.403 184.745V173.837Z" fill="white"/>
<path d="M563.403 173.837L557.04 180.2L563.403 184.745V173.837Z" stroke="#1A2E35" stroke-width="1.33333" stroke-miterlimit="10" stroke-linecap="round" stroke-linejoin="round"/>
<path d="M618.724 168.98L612.344 162.635L607.816 169.011L618.724 168.98Z" fill="white"/>
<path d="M618.724 168.98L612.344 162.635L607.816 169.011L618.724 168.98Z" stroke="#1A2E35" stroke-width="1.33333" stroke-miterlimit="10" stroke-linecap="round" stroke-linejoin="round"/>
<path d="M602.055 209.526L595.675 203.181L591.147 209.556L602.055 209.526Z" fill="white"/>
<path d="M602.055 209.526L595.675 203.181L591.147 209.556L602.055 209.526Z" stroke="#1A2E35" stroke-width="1.33333" stroke-miterlimit="10" stroke-linecap="round" stroke-linejoin="round"/>
<path d="M185.692 62.8925L179.312 56.5472L174.784 62.9219L185.692 62.8925Z" fill="white"/>
<path d="M185.692 62.8925L179.312 56.5472L174.784 62.9219L185.692 62.8925Z" stroke="#1A2E35" stroke-width="1.33333" stroke-miterlimit="10" stroke-linecap="round" stroke-linejoin="round"/>
<path d="M169.024 103.438L162.644 97.0931L158.116 103.468L169.024 103.438Z" fill="white"/>
<path d="M169.024 103.438L162.644 97.0931L158.116 103.468L169.024 103.438Z" stroke="#1A2E35" stroke-width="1.33333" stroke-miterlimit="10" stroke-linecap="round" stroke-linejoin="round"/>
</svg>
