<svg width="1001" height="668" viewBox="0 0 1001 668" fill="none" xmlns="http://www.w3.org/2000/svg">
<mask id="mask0_281_2350" style="mask-type:luminance" maskUnits="userSpaceOnUse" x="0" y="0" width="1001" height="668">
<path d="M0.5 0.499877H1000.5V667.167H0.5V0.499877Z" fill="white"/>
</mask>
<g mask="url(#mask0_281_2350)">
<path d="M948.28 414.041C936.085 356.363 911.391 299.909 881.687 249.157C833.445 166.737 761.365 94.2508 665.464 72.6721C448.139 23.7734 401.413 237.839 352.516 266.091C303.617 294.344 181.916 279.131 115.632 369.32C49.3481 459.511 56.9534 601.857 56.9534 601.857H957.765C959.817 538.92 961.267 475.475 948.28 414.041Z" fill="#5AE4A7"/>
<mask id="mask1_281_2350" style="mask-type:luminance" maskUnits="userSpaceOnUse" x="56" y="65" width="904" height="537">
<path d="M56.6888 65.441H959.105V601.858H56.6888V65.441Z" fill="white"/>
</mask>
<g mask="url(#mask1_281_2350)">
<g opacity="0.699997">
<path d="M948.28 414.041C936.085 356.363 911.391 299.909 881.687 249.157C833.445 166.737 761.365 94.2508 665.464 72.6721C448.139 23.7734 401.413 237.839 352.516 266.091C303.617 294.344 181.916 279.131 115.632 369.32C49.3481 459.511 56.9534 601.857 56.9534 601.857H957.765C959.817 538.92 961.267 475.475 948.28 414.041Z" fill="white"/>
</g>
</g>
</g>
<mask id="mask2_281_2350" style="mask-type:luminance" maskUnits="userSpaceOnUse" x="0" y="0" width="1001" height="668">
<path d="M0.5 0.499877H1000.5V667.167H0.5V0.499877Z" fill="white"/>
</mask>
<g mask="url(#mask2_281_2350)">
<mask id="mask3_281_2350" style="mask-type:luminance" maskUnits="userSpaceOnUse" x="197" y="87" width="459" height="515">
<path d="M197.197 87.1746H655.588V601.564H197.197V87.1746Z" fill="white"/>
</mask>
<g mask="url(#mask3_281_2350)">
<g opacity="0.149994">
<path d="M435.456 601.026C435.376 600.591 427.394 556.839 424.085 496.543C421.034 440.934 420.454 361.91 439.742 289.648L437.862 286.45C427.158 326.551 415.565 395.588 421.122 496.75C424.442 557.226 432.453 601.128 432.534 601.563L435.456 601.026Z" fill="black"/>
<path d="M468.349 336.209C445.984 344.435 432.605 352.319 425.493 357.293C426.329 348.48 432.24 327.588 466.444 303.135C520.636 264.393 625.829 297.448 650.368 305.967C596.556 308.213 524.872 315.428 468.349 336.209Z" fill="black"/>
<path d="M469.266 337.984C527.258 316.716 601.288 309.755 655.35 307.753C655.492 307.807 655.588 307.843 655.588 307.843C655.588 307.843 595.494 362.608 522.463 374.719C449.434 386.829 425.488 361.767 425.488 361.767C425.488 361.767 425.376 361.101 425.37 359.853C432.026 355.041 445.682 346.632 469.266 337.984Z" fill="black"/>
<path d="M391.862 369.228C408.209 380.142 417.414 389.048 422.155 394.412C423.187 387.182 422.482 369.288 399.778 343.073C363.803 301.54 273.065 307.729 251.743 309.821C294.461 322.016 350.551 341.645 391.862 369.228Z" fill="black"/>
<path d="M390.784 370.472C348.389 342.219 290.368 322.338 247.403 310.292C247.279 310.307 247.195 310.318 247.195 310.318C247.195 310.318 284.807 365.839 341.031 389.656C397.253 413.472 421.296 398 421.296 398C421.296 398 421.515 397.487 421.76 396.488C417.352 391.343 408.027 381.963 390.784 370.472Z" fill="black"/>
<path d="M455.452 502.311C439.105 513.225 429.9 522.131 425.157 527.495C424.127 520.267 424.831 502.371 447.536 476.156C483.509 434.623 574.249 440.813 595.571 442.904C552.855 455.1 496.763 474.728 455.452 502.311Z" fill="black"/>
<path d="M456.53 503.555C498.925 475.302 556.946 455.421 599.91 443.374C600.037 443.39 600.119 443.401 600.119 443.401C600.119 443.401 562.506 498.923 506.283 522.739C450.059 546.555 426.017 531.083 426.017 531.083C426.017 531.083 425.799 530.57 425.554 529.571C429.962 524.426 439.287 515.046 456.53 503.555Z" fill="black"/>
<path d="M380.788 461.734C402.248 472.096 414.795 481.245 421.39 486.886C421.415 478.036 417.566 456.665 385.902 429.001C335.738 385.172 227.826 407.834 202.575 413.925C255.914 421.397 326.556 435.55 380.788 461.734Z" fill="black"/>
<path d="M379.703 463.41C324.056 436.602 251.054 422.47 197.443 415.217C197.296 415.258 197.198 415.283 197.198 415.283C197.198 415.283 251.678 475.636 323.183 494.795C394.688 513.954 420.96 491.339 420.96 491.339C420.96 491.339 421.136 490.687 421.263 489.447C415.107 484.01 402.335 474.312 379.703 463.41Z" fill="black"/>
<path d="M452.303 242.231C442.815 264.091 439.284 279.212 437.975 287.792C432.176 281.104 421.139 262.405 427.056 220.777C436.433 154.825 532.964 101.531 556.065 89.656C520.545 130.143 476.283 186.989 452.303 242.231Z" fill="black"/>
<path d="M454.219 242.792C478.861 186.152 524.927 127.782 560.797 87.2851C560.935 87.2185 561.025 87.1745 561.025 87.1745C561.025 87.1745 559.169 168.458 517.52 229.658C475.871 290.858 441.207 290.884 441.207 290.884C441.207 290.884 440.648 290.505 439.743 289.649C440.855 281.51 444.196 265.826 454.219 242.792Z" fill="black"/>
</g>
</g>
<mask id="mask4_281_2350" style="mask-type:luminance" maskUnits="userSpaceOnUse" x="565" y="294" width="274" height="308">
<path d="M565.217 294.604H838.76V601.564H565.217V294.604Z" fill="white"/>
</mask>
<g mask="url(#mask4_281_2350)">
<g opacity="0.149994">
<path d="M707.397 601.243C707.349 600.983 702.588 574.875 700.612 538.893C698.791 505.709 698.445 458.551 709.955 415.43L708.833 413.521C702.445 437.451 695.528 478.649 698.844 539.017C700.825 575.105 705.605 601.305 705.653 601.563L707.397 601.243Z" fill="black"/>
<path d="M727.026 443.215C713.679 448.123 705.697 452.828 701.451 455.797C701.951 450.537 705.478 438.071 725.889 423.477C758.227 400.359 821.001 420.084 835.645 425.168C803.533 426.508 760.755 430.813 727.026 443.215Z" fill="black"/>
<path d="M727.573 444.274C762.18 431.582 806.357 427.427 838.618 426.234C838.703 426.266 838.761 426.287 838.761 426.287C838.761 426.287 802.898 458.968 759.32 466.195C715.738 473.422 701.448 458.467 701.448 458.467C701.448 458.467 701.381 458.07 701.378 457.324C705.35 454.454 713.498 449.435 727.573 444.274Z" fill="black"/>
<path d="M681.383 462.918C691.136 469.431 696.631 474.746 699.462 477.946C700.076 473.632 699.655 462.952 686.106 447.31C664.639 422.526 610.491 426.22 597.767 427.467C623.258 434.744 656.731 446.459 681.383 462.918Z" fill="black"/>
<path d="M680.74 463.661C655.44 446.8 620.817 434.937 595.177 427.748C595.102 427.757 595.053 427.764 595.053 427.764C595.053 427.764 617.497 460.897 651.049 475.109C684.601 489.321 698.948 480.087 698.948 480.087C698.948 480.087 699.078 479.781 699.224 479.187C696.594 476.116 691.029 470.519 680.74 463.661Z" fill="black"/>
<path d="M719.329 542.336C709.576 548.85 704.081 554.163 701.251 557.364C700.636 553.05 701.057 542.371 714.607 526.728C736.073 501.943 790.221 505.638 802.945 506.886C777.453 514.163 743.981 525.876 719.329 542.336Z" fill="black"/>
<path d="M719.973 543.078C745.273 526.217 779.895 514.354 805.535 507.165C805.61 507.174 805.659 507.181 805.659 507.181C805.659 507.181 783.215 540.314 749.663 554.526C716.111 568.738 701.765 559.505 701.765 559.505C701.765 559.505 701.634 559.199 701.489 558.603C704.118 555.533 709.683 549.935 719.973 543.078Z" fill="black"/>
<path d="M674.775 518.121C687.58 524.305 695.068 529.764 699.003 533.132C699.019 527.849 696.721 515.096 677.825 498.589C647.891 472.432 583.495 485.957 568.427 489.592C600.255 494.049 642.412 502.496 674.775 518.121Z" fill="black"/>
<path d="M674.126 519.121C640.921 503.124 597.356 494.691 565.365 490.364C565.276 490.387 565.217 490.403 565.217 490.403C565.217 490.403 597.729 526.419 640.4 537.851C683.07 549.283 698.748 535.788 698.748 535.788C698.748 535.788 698.852 535.4 698.928 534.659C695.254 531.415 687.632 525.628 674.126 519.121Z" fill="black"/>
<path d="M717.451 387.134C711.788 400.178 709.683 409.202 708.9 414.322C705.44 410.33 698.853 399.172 702.385 374.332C707.98 334.976 765.585 303.172 779.369 296.085C758.175 320.245 731.76 354.168 717.451 387.134Z" fill="black"/>
<path d="M718.594 387.469C733.299 353.669 760.788 318.837 782.194 294.67C782.276 294.631 782.331 294.605 782.331 294.605C782.331 294.605 781.223 343.11 756.368 379.631C731.514 416.153 710.83 416.167 710.83 416.167C710.83 416.167 710.496 415.941 709.955 415.43C710.619 410.574 712.614 401.214 718.594 387.469Z" fill="black"/>
</g>
</g>
<mask id="mask5_281_2350" style="mask-type:luminance" maskUnits="userSpaceOnUse" x="764" y="369" width="208" height="233">
<path d="M764.84 369.324H971.798V601.564H764.84V369.324Z" fill="white"/>
</mask>
<g mask="url(#mask5_281_2350)">
<g opacity="0.149994">
<path d="M872.411 601.321C872.375 601.125 868.773 581.371 867.277 554.148C865.899 529.041 865.638 493.363 874.346 460.737L873.497 459.293C868.665 477.4 863.431 508.569 865.939 554.241C867.439 581.547 871.054 601.367 871.093 601.564L872.411 601.321Z" fill="black"/>
<path d="M887.261 481.76C877.164 485.472 871.123 489.032 867.912 491.279C868.289 487.3 870.959 477.867 886.401 466.827C910.868 449.336 958.361 464.259 969.441 468.105C945.145 469.12 912.781 472.377 887.261 481.76Z" fill="black"/>
<path d="M887.675 482.561C913.858 472.958 947.282 469.814 971.69 468.912C971.755 468.936 971.798 468.953 971.798 468.953C971.798 468.953 944.666 493.678 911.694 499.145C878.721 504.614 867.91 493.298 867.91 493.298C867.91 493.298 867.859 492.997 867.858 492.434C870.862 490.261 877.027 486.466 887.675 482.561Z" fill="black"/>
<path d="M852.729 496.666C860.109 501.594 864.265 505.616 866.406 508.036C866.872 504.773 866.553 496.694 856.302 484.858C840.061 466.106 799.093 468.901 789.468 469.846C808.753 475.352 834.077 484.214 852.729 496.666Z" fill="black"/>
<path d="M852.242 497.229C833.102 484.473 806.905 475.497 787.507 470.058C787.45 470.065 787.413 470.07 787.413 470.07C787.413 470.07 804.394 495.138 829.778 505.89C855.162 516.644 866.018 509.657 866.018 509.657C866.018 509.657 866.117 509.425 866.227 508.976C864.237 506.652 860.027 502.417 852.242 497.229Z" fill="black"/>
<path d="M881.438 556.752C874.058 561.68 869.902 565.702 867.761 568.122C867.296 564.859 867.614 556.78 877.865 544.944C894.106 526.192 935.074 528.987 944.7 529.931C925.414 535.438 900.09 544.299 881.438 556.752Z" fill="black"/>
<path d="M881.925 557.315C901.065 544.559 927.263 535.582 946.66 530.143C946.717 530.151 946.755 530.156 946.755 530.156C946.755 530.156 929.773 555.224 904.389 565.976C879.005 576.73 868.149 569.742 868.149 569.742C868.149 569.742 868.051 569.511 867.94 569.06C869.931 566.738 874.14 562.503 881.925 557.315Z" fill="black"/>
<path d="M847.729 538.432C857.418 543.111 863.084 547.24 866.06 549.79C866.072 545.792 864.333 536.144 850.037 523.654C827.389 503.866 778.669 514.098 767.268 516.848C791.35 520.22 823.245 526.612 847.729 538.432Z" fill="black"/>
<path d="M847.239 539.189C822.115 527.086 789.155 520.705 764.951 517.431C764.885 517.449 764.839 517.461 764.839 517.461C764.839 517.461 789.437 544.71 821.721 553.359C854.005 562.009 865.866 551.799 865.866 551.799C865.866 551.799 865.946 551.505 866.003 550.945C863.223 548.49 857.457 544.111 847.239 539.189Z" fill="black"/>
<path d="M880.017 439.329C875.733 449.199 874.139 456.025 873.547 459.9C870.93 456.88 865.946 448.437 868.618 429.643C872.853 399.867 916.434 375.804 926.865 370.444C910.827 388.723 890.843 414.388 880.017 439.329Z" fill="black"/>
<path d="M880.883 439.583C892.008 414.01 912.805 387.658 929.001 369.374C929.064 369.343 929.104 369.324 929.104 369.324C929.104 369.324 928.265 406.022 909.463 433.654C890.657 461.284 875.264 460.948 875.264 460.948C875.264 460.948 874.755 461.124 874.347 460.738C874.849 457.063 876.357 449.983 880.883 439.583Z" fill="black"/>
</g>
</g>
<mask id="mask6_281_2350" style="mask-type:luminance" maskUnits="userSpaceOnUse" x="33" y="369" width="208" height="233">
<path d="M33.4536 369.324H240.412V601.564H33.4536V369.324Z" fill="white"/>
</mask>
<g mask="url(#mask6_281_2350)">
<g opacity="0.149994">
<path d="M132.841 601.321C132.877 601.125 136.479 581.371 137.974 554.148C139.351 529.041 139.614 493.363 130.906 460.737L131.755 459.293C136.587 477.4 141.821 508.569 139.313 554.241C137.813 581.547 134.197 601.367 134.159 601.564L132.841 601.321Z" fill="black"/>
<path d="M117.99 481.76C128.088 485.472 134.128 489.032 137.339 491.279C136.962 487.3 134.292 477.867 118.85 466.827C94.3829 449.336 46.8896 464.259 35.8109 468.105C60.1056 469.12 92.4709 472.377 117.99 481.76Z" fill="black"/>
<path d="M117.575 482.561C91.3928 472.958 57.9688 469.814 33.5608 468.912C33.4968 468.936 33.4541 468.953 33.4541 468.953C33.4541 468.953 60.5848 493.678 93.5568 499.145C126.53 504.614 137.341 493.298 137.341 493.298C137.341 493.298 137.391 492.997 137.394 492.434C134.389 490.261 128.223 486.466 117.575 482.561Z" fill="black"/>
<path d="M152.523 496.666C145.143 501.594 140.987 505.616 138.845 508.036C138.38 504.773 138.697 496.694 148.949 484.858C165.191 466.106 206.159 468.901 215.784 469.846C196.499 475.352 171.175 484.214 152.523 496.666Z" fill="black"/>
<path d="M153.01 497.229C172.15 484.473 198.346 475.497 217.744 470.058C217.8 470.065 217.839 470.07 217.839 470.07C217.839 470.07 200.856 495.138 175.472 505.89C150.088 516.644 139.232 509.657 139.232 509.657C139.232 509.657 139.135 509.425 139.024 508.976C141.014 506.652 145.224 502.417 153.01 497.229Z" fill="black"/>
<path d="M123.812 556.752C131.192 561.68 135.348 565.702 137.49 568.122C137.955 564.859 137.638 556.78 127.386 544.944C111.144 526.192 70.1765 528.987 60.5511 529.931C79.8378 535.438 105.162 544.299 123.812 556.752Z" fill="black"/>
<path d="M123.326 557.315C104.185 544.559 77.99 535.582 58.5914 530.143L58.4967 530.156C58.4967 530.156 75.478 555.224 100.862 565.976C126.246 576.73 137.102 569.742 137.102 569.742C137.102 569.742 137.201 569.511 137.311 569.06C135.321 566.738 131.11 562.503 123.326 557.315Z" fill="black"/>
<path d="M157.522 538.432C147.833 543.111 142.169 547.24 139.191 549.79C139.181 545.792 140.918 536.144 155.214 523.654C177.862 503.866 226.582 514.098 237.983 516.848C213.902 520.22 182.007 526.612 157.522 538.432Z" fill="black"/>
<path d="M158.012 539.189C183.136 527.086 216.096 520.705 240.3 517.431C240.367 517.449 240.411 517.461 240.411 517.461C240.411 517.461 215.814 544.71 183.53 553.359C151.246 562.009 139.386 551.799 139.386 551.799C139.386 551.799 139.306 551.505 139.248 550.945C142.028 548.49 147.794 544.111 158.012 539.189Z" fill="black"/>
<path d="M125.234 439.329C129.518 449.199 131.112 456.025 131.704 459.9C134.321 456.88 139.305 448.437 136.633 429.643C132.4 399.867 88.817 375.804 78.3864 370.444C94.4237 388.723 114.408 414.388 125.234 439.329Z" fill="black"/>
<path d="M124.369 439.583C113.244 414.01 92.4452 387.658 76.2505 369.374C76.1891 369.343 76.1465 369.324 76.1465 369.324C76.1465 369.324 76.9852 406.022 95.7892 433.654C114.593 461.284 130.244 461.295 130.244 461.295C130.244 461.295 130.496 461.124 130.905 460.738C130.402 457.063 128.894 449.983 124.369 439.583Z" fill="black"/>
</g>
</g>
</g>
<path d="M822.9 201.408H729.497V601.564H822.9V201.408Z" fill="#1A2E35" stroke="#1A2E35" stroke-width="1.33333" stroke-miterlimit="10"/>
<path d="M851.413 201.408H758.011V601.564H851.413V201.408Z" fill="white" stroke="#1A2E35" stroke-width="1.33333" stroke-miterlimit="10"/>
<path d="M612.499 340.036H519.096V601.564H612.499V340.036Z" fill="#1A2E35" stroke="#1A2E35" stroke-width="1.33333" stroke-miterlimit="10"/>
<path d="M641.011 340.036H547.608V601.564H641.011V340.036Z" fill="white" stroke="#1A2E35" stroke-width="1.33333" stroke-miterlimit="10"/>
<path d="M394.232 418.692H300.829V601.564H394.232V418.692Z" fill="#1A2E35" stroke="#1A2E35" stroke-width="1.33333" stroke-miterlimit="10"/>
<path d="M422.744 418.692H329.341V601.564H422.744V418.692Z" fill="white" stroke="#1A2E35" stroke-width="1.33333" stroke-miterlimit="10"/>
<path d="M440.858 601.563V467.559" stroke="#1A2E35" stroke-width="5.33333" stroke-miterlimit="10"/>
<mask id="mask7_281_2350" style="mask-type:luminance" maskUnits="userSpaceOnUse" x="0" y="0" width="1001" height="668">
<path d="M0.5 0.499877H1000.5V667.167H0.5V0.499877Z" fill="white"/>
</mask>
<g mask="url(#mask7_281_2350)">
<path d="M440.858 473.113L429.713 479.892L429.461 479.51L436.679 461.337C438.071 455.005 439.465 448.674 440.858 442.342C442.25 448.674 443.643 455.005 445.037 461.337L452.255 479.51L452.065 479.892L440.858 473.113Z" fill="#1A2E35"/>
<path d="M470.989 601.563V467.559" stroke="#1A2E35" stroke-width="5.33333" stroke-miterlimit="10"/>
<path d="M470.989 473.113L459.844 479.892L459.592 479.51L466.81 461.337C468.202 455.005 469.596 448.674 470.989 442.342C472.381 448.674 473.774 455.005 475.168 461.337L482.386 479.51L482.196 479.892L470.989 473.113Z" fill="#1A2E35"/>
<path d="M501.12 601.563V467.559" stroke="#1A2E35" stroke-width="5.33333" stroke-miterlimit="10"/>
<path d="M501.12 473.113L489.974 479.892L489.722 479.51L496.941 461.337C498.333 455.005 499.726 448.674 501.12 442.342C502.513 448.674 503.905 455.005 505.3 461.337L512.517 479.51L512.326 479.892L501.12 473.113Z" fill="#1A2E35"/>
<path d="M531.251 601.563V467.559" stroke="white" stroke-width="5.33333" stroke-miterlimit="10"/>
<path d="M531.251 473.113L520.106 479.892L519.853 479.51L527.071 461.337C528.463 455.005 529.857 448.674 531.251 442.342C532.643 448.674 534.037 455.005 535.43 461.337L542.649 479.51L542.458 479.892L531.251 473.113Z" fill="white"/>
<path d="M652.272 601.563V399.549" stroke="#1A2E35" stroke-width="5.33333" stroke-miterlimit="10"/>
<path d="M652.272 405.101L641.127 411.88L640.875 411.5L648.092 393.327C649.485 386.995 650.877 380.663 652.272 374.332C653.665 380.663 655.057 386.995 656.452 393.327L663.669 411.5L663.479 411.88L652.272 405.101Z" fill="#1A2E35"/>
<path d="M682.402 601.563V399.549" stroke="#1A2E35" stroke-width="5.33333" stroke-miterlimit="10"/>
<path d="M682.402 405.101L671.258 411.88L671.005 411.5L678.224 393.327C679.616 386.995 681.009 380.663 682.402 374.332C683.796 380.663 685.188 386.995 686.582 393.327L693.801 411.5L693.61 411.88L682.402 405.101Z" fill="#1A2E35"/>
<path d="M712.534 601.563V399.549" stroke="#1A2E35" stroke-width="5.33333" stroke-miterlimit="10"/>
<path d="M712.534 405.101L701.388 411.88L701.136 411.5L708.354 393.327C709.747 386.995 711.139 380.663 712.534 374.332C713.927 380.663 715.319 386.995 716.714 393.327L723.931 411.5L723.74 411.88L712.534 405.101Z" fill="#1A2E35"/>
<path d="M742.664 601.563V399.549" stroke="white" stroke-width="5.33333" stroke-miterlimit="10"/>
<path d="M742.664 405.101L731.52 411.88L731.267 411.5L738.485 393.327C739.877 386.995 741.271 380.663 742.664 374.332C744.057 380.663 745.449 386.995 746.844 393.327L754.063 411.5L753.872 411.88L742.664 405.101Z" fill="white"/>
</g>
<mask id="mask8_281_2350" style="mask-type:luminance" maskUnits="userSpaceOnUse" x="0" y="0" width="1001" height="668">
<path d="M0.5 0.499877H1000.5V667.167H0.5V0.499877Z" fill="white"/>
</mask>
<g mask="url(#mask8_281_2350)">
<path d="M461.282 132.531C461.282 132.531 456.12 108.436 438.049 102.412C419.977 96.3898 415.674 108.436 410.512 115.32C405.348 122.204 397.604 111.879 386.417 115.32C375.229 118.763 379.532 128.228 372.648 131.671C365.764 135.112 353.717 127.367 345.972 133.392C338.226 139.415 336.506 144.579 336.506 144.579H500.006C500.006 144.579 474.19 120.483 461.282 132.531Z" fill="white"/>
<path d="M461.282 132.531C461.282 132.531 456.12 108.436 438.049 102.412C419.977 96.3898 415.674 108.436 410.512 115.32C405.348 122.204 397.604 111.879 386.417 115.32C375.229 118.763 379.532 128.228 372.648 131.671C365.764 135.112 353.717 127.367 345.972 133.392C338.226 139.415 336.506 144.579 336.506 144.579H500.006C500.006 144.579 474.19 120.483 461.282 132.531Z" stroke="#1A2E35" stroke-width="1.33333" stroke-miterlimit="10"/>
<path d="M754.671 257.493C754.671 257.493 749.508 233.399 731.437 227.375C713.365 221.351 709.064 233.399 703.9 240.283C698.737 247.167 690.992 236.84 679.805 240.283C668.619 243.724 672.92 253.189 666.036 256.632C659.152 260.075 647.105 252.329 639.361 258.353C631.616 264.377 629.895 269.54 629.895 269.54H793.395C793.395 269.54 767.58 245.445 754.671 257.493Z" fill="white"/>
<path d="M754.671 257.493C754.671 257.493 749.508 233.399 731.437 227.375C713.365 221.351 709.064 233.399 703.9 240.283C698.737 247.167 690.992 236.84 679.805 240.283C668.619 243.724 672.92 253.189 666.036 256.632C659.152 260.075 647.105 252.329 639.361 258.353C631.616 264.377 629.895 269.54 629.895 269.54H793.395C793.395 269.54 767.58 245.445 754.671 257.493Z" stroke="#1A2E35" stroke-width="1.33333" stroke-miterlimit="10"/>
<path d="M224.585 228.76C224.585 228.76 221.233 213.115 209.5 209.204C197.765 205.292 194.972 213.115 191.619 217.585C188.267 222.055 183.237 215.349 175.973 217.585C168.709 219.82 171.504 225.967 167.033 228.201C162.563 230.436 154.741 225.407 149.712 229.319C144.683 233.231 143.565 236.583 143.565 236.583H249.729C249.729 236.583 232.967 220.937 224.585 228.76Z" fill="white"/>
<path d="M224.585 228.76C224.585 228.76 221.233 213.115 209.5 209.204C197.765 205.292 194.972 213.115 191.619 217.585C188.267 222.055 183.237 215.349 175.973 217.585C168.709 219.82 171.504 225.967 167.033 228.201C162.563 230.436 154.741 225.407 149.712 229.319C144.683 233.231 143.565 236.583 143.565 236.583H249.729C249.729 236.583 232.967 220.937 224.585 228.76Z" stroke="#1A2E35" stroke-width="1.33333" stroke-miterlimit="10"/>
</g>
<mask id="mask9_281_2350" style="mask-type:luminance" maskUnits="userSpaceOnUse" x="0" y="0" width="1001" height="668">
<path d="M0.5 0.499877H1000.5V667.167H0.5V0.499877Z" fill="white"/>
</mask>
<g mask="url(#mask9_281_2350)">
<path d="M153.125 541.021C153.125 541.021 147.178 542.83 143.3 542.314C139.422 541.797 136.061 541.797 135.285 545.158C134.51 548.518 135.285 551.881 134.51 553.947C133.734 556.017 131.149 558.861 131.665 562.738C132.182 566.617 133.476 575.665 135.802 574.374C138.129 573.081 141.232 561.963 142.525 559.635C143.817 557.309 147.304 551.971 149.893 550.838C151.962 549.933 155.068 549.933 155.068 549.933L153.125 541.021Z" fill="white"/>
<path d="M153.125 541.021C153.125 541.021 147.178 542.83 143.3 542.314C139.422 541.797 136.061 541.797 135.285 545.158C134.51 548.518 135.285 551.881 134.51 553.947C133.734 556.017 131.149 558.861 131.665 562.738C132.182 566.617 133.476 575.665 135.802 574.374C138.129 573.081 141.232 561.963 142.525 559.635C143.817 557.309 147.304 551.971 149.893 550.838C151.962 549.933 155.068 549.933 155.068 549.933L153.125 541.021Z" stroke="#1A2E35" stroke-width="1.33333" stroke-miterlimit="10"/>
<path d="M137.345 560.541C137.345 560.541 139.156 556.142 140.061 549.803C140.538 546.465 141.481 543.925 142.381 542.202C138.901 541.821 135.998 542.066 135.285 545.158C134.51 548.518 135.285 551.881 134.51 553.949C133.734 556.017 131.149 558.861 131.665 562.738C132.182 566.618 133.476 575.666 135.802 574.374C137.557 573.399 139.752 566.843 141.28 562.677L137.345 560.541Z" fill="#1A2E35"/>
<path d="M137.345 560.541C137.345 560.541 139.156 556.142 140.061 549.803C140.538 546.465 141.481 543.925 142.381 542.202C138.901 541.821 135.998 542.066 135.285 545.158C134.51 548.518 135.285 551.881 134.51 553.949C133.734 556.017 131.149 558.861 131.665 562.738C132.182 566.618 133.476 575.666 135.802 574.374C137.557 573.399 139.752 566.843 141.28 562.677L137.345 560.541Z" stroke="#1A2E35" stroke-width="1.33333" stroke-miterlimit="10"/>
<path d="M190.097 513.615L186.477 463.457L189.58 463.197L195.785 510.771L190.097 513.615ZM218.796 454.924C218.537 434.241 211.04 428.553 211.04 428.553C174.844 433.207 167.862 422.348 167.862 422.348L163.466 425.709C155.969 433.724 152.349 445.1 151.057 458.028C149.764 470.955 165.536 514.132 165.536 514.132C165.536 514.132 158.813 527.059 153.642 537.143C148.472 547.225 151.057 569.719 149.246 575.665C147.437 581.612 142.784 585.232 143.817 590.403C144.852 595.575 144.593 600.228 148.472 600.745C152.349 601.261 158.037 602.296 159.589 600.745C161.14 599.195 158.037 596.867 157.004 592.472C155.969 588.076 155.193 581.355 155.193 581.355L175.36 542.572C175.36 542.572 215.176 522.147 216.21 520.079C217.244 518.011 219.054 475.608 218.796 454.924Z" fill="#1A2E35"/>
<path d="M190.097 513.615L186.477 463.457L189.58 463.197L195.785 510.771L190.097 513.615ZM218.796 454.924C218.537 434.241 211.04 428.553 211.04 428.553C174.844 433.207 167.862 422.348 167.862 422.348L163.466 425.709C155.969 433.724 152.349 445.1 151.057 458.028C149.764 470.955 165.536 514.132 165.536 514.132C165.536 514.132 158.813 527.059 153.642 537.143C148.472 547.225 151.057 569.719 149.246 575.665C147.437 581.612 142.784 585.232 143.817 590.403C144.852 595.575 144.593 600.228 148.472 600.745C152.349 601.261 158.037 602.296 159.589 600.745C161.14 599.195 158.037 596.867 157.004 592.472C155.969 588.076 155.193 581.355 155.193 581.355L175.36 542.572C175.36 542.572 215.176 522.147 216.21 520.079C217.244 518.011 219.054 475.608 218.796 454.924Z" stroke="#1A2E35" stroke-width="1.33333" stroke-miterlimit="10"/>
<path d="M150.469 552.029C149.786 561.652 150.385 571.928 149.246 575.666C147.437 581.612 142.783 585.232 143.817 590.402C144.851 595.574 144.593 600.228 148.471 600.745C152.349 601.262 158.037 602.296 159.589 600.745C161.139 599.194 158.037 596.868 157.003 592.472C155.969 588.076 155.193 581.354 155.193 581.354L167.665 557.369C158.362 559.77 152.975 555.224 150.469 552.029Z" fill="white"/>
<path d="M150.469 552.029C149.786 561.652 150.385 571.928 149.246 575.666C147.437 581.612 142.783 585.232 143.817 590.402C144.851 595.574 144.593 600.228 148.471 600.745C152.349 601.262 158.037 602.296 159.589 600.745C161.139 599.194 158.037 596.868 157.003 592.472C155.969 588.076 155.193 581.354 155.193 581.354L167.665 557.369C158.362 559.77 152.975 555.224 150.469 552.029Z" stroke="#1A2E35" stroke-width="1.33333" stroke-miterlimit="10"/>
<path d="M159.589 600.745C161.141 599.194 158.037 596.868 157.003 592.472L148.73 592.989C148.73 592.989 147.023 587.601 145.855 582.633C144.402 585.184 143.249 587.558 143.817 590.402C144.851 595.574 144.593 600.228 148.471 600.745C152.349 601.262 158.037 602.296 159.589 600.745Z" fill="#1A2E35"/>
<path d="M159.589 600.745C161.141 599.194 158.037 596.868 157.003 592.472L148.73 592.989C148.73 592.989 147.023 587.601 145.855 582.633C144.402 585.184 143.249 587.558 143.817 590.402C144.851 595.574 144.593 600.228 148.471 600.745C152.349 601.262 158.037 602.296 159.589 600.745Z" stroke="#1A2E35" stroke-width="1.33333" stroke-miterlimit="10"/>
<path d="M189.322 516.2L178.204 538.435" stroke="white" stroke-width="1.33333" stroke-miterlimit="10"/>
<path d="M223.967 399.854C223.967 399.854 223.967 405.284 221.381 408.646C218.796 412.006 212.849 414.85 212.849 414.85L211.039 428.553C211.039 428.553 206.905 431.601 197.077 432.173C187.251 432.745 177.687 428.037 177.687 428.037L184.151 372.449C184.151 372.449 196.56 368.053 204.317 365.986C212.073 363.917 222.415 366.502 222.415 366.502C222.415 366.502 223.967 387.704 223.967 399.854Z" fill="white"/>
<path d="M223.967 399.854C223.967 399.854 223.967 405.284 221.381 408.646C218.796 412.006 212.849 414.85 212.849 414.85L211.039 428.553C211.039 428.553 206.905 431.601 197.077 432.173C187.251 432.745 177.687 428.037 177.687 428.037L184.151 372.449C184.151 372.449 196.56 368.053 204.317 365.986C212.073 363.917 222.415 366.502 222.415 366.502C222.415 366.502 223.967 387.704 223.967 399.854Z" stroke="#1A2E35" stroke-width="1.33333" stroke-miterlimit="10"/>
<path d="M222.415 366.503C222.415 366.503 212.074 363.918 204.317 365.986C196.561 368.054 184.15 372.45 184.15 372.45L183.098 381.499C188.474 385.052 196.905 388.778 208.195 388.22C214.082 387.93 219.17 386.004 223.446 383.388C222.997 374.442 222.415 366.503 222.415 366.503Z" stroke="#1A2E35" stroke-width="1.33333" stroke-miterlimit="10"/>
<path d="M219.418 366.156C219.418 366.156 249.478 362.962 255.49 362.211C261.502 361.46 269.393 359.958 269.393 359.958L282.297 366.002C282.297 366.002 283.297 370.102 281.042 373.295C278.787 376.49 229.939 391.143 229.939 391.143C229.939 391.143 228.437 444.876 228.437 448.447C228.437 452.016 228.625 452.579 226.37 454.459C224.115 456.338 211.715 461.786 211.715 461.786C211.715 461.786 217.915 437.738 219.606 427.028C221.297 416.319 222.425 380.811 221.673 374.611C220.921 368.41 219.418 366.156 219.418 366.156Z" fill="#5AE4A7"/>
<path d="M219.418 366.156C219.418 366.156 249.478 362.962 255.49 362.211C261.502 361.46 269.393 359.958 269.393 359.958L282.297 366.002C282.297 366.002 283.297 370.102 281.042 373.295C278.787 376.49 229.939 391.143 229.939 391.143C229.939 391.143 228.437 444.876 228.437 448.447C228.437 452.016 228.625 452.579 226.37 454.459C224.115 456.338 211.715 461.786 211.715 461.786C211.715 461.786 217.915 437.738 219.606 427.028C221.297 416.319 222.425 380.811 221.673 374.611C220.921 368.41 219.418 366.156 219.418 366.156Z" stroke="#1A2E35" stroke-width="1.33333" stroke-miterlimit="10"/>
<path d="M232.006 371.98L229.939 391.143L237.266 372.919" stroke="#1A2E35" stroke-width="1.33333" stroke-miterlimit="10"/>
<path d="M221.673 374.61C222.425 380.81 221.297 416.318 219.606 427.028C219.385 428.436 219.082 430.077 218.729 431.861L218.855 431.913C218.855 431.913 225.618 416.318 226.558 395.841C227.219 381.432 226.021 370.66 225.251 365.533C221.755 365.908 219.418 366.156 219.418 366.156C219.418 366.156 220.922 368.41 221.673 374.61Z" fill="#5AE4A7"/>
<path d="M221.673 374.61C222.425 380.81 221.297 416.318 219.606 427.028C219.385 428.436 219.082 430.077 218.729 431.861L218.855 431.913C218.855 431.913 225.618 416.318 226.558 395.841C227.219 381.432 226.021 370.66 225.251 365.533C221.755 365.908 219.418 366.156 219.418 366.156C219.418 366.156 220.922 368.41 221.673 374.61Z" stroke="#1A2E35" stroke-width="1.33333" stroke-miterlimit="10"/>
<path d="M198.941 374.086L201.727 362.418C201.727 362.418 199.463 361.199 196.677 359.631C193.89 358.063 188.143 351.969 190.93 341.346C193.717 330.725 200.507 329.157 200.507 329.157C200.507 329.157 210.086 324.454 219.141 327.415C228.197 330.375 229.242 335.601 229.59 336.994C229.938 338.387 228.545 341.521 229.242 342.043C229.938 342.565 236.73 345.351 236.207 346.919C235.685 348.487 233.421 351.274 233.421 351.274C233.421 351.274 232.725 361.722 231.331 363.114C229.938 364.507 222.45 364.855 222.45 364.855L216.181 377.917" fill="white"/>
<path d="M198.941 374.086L201.727 362.418C201.727 362.418 199.463 361.199 196.677 359.631C193.89 358.063 188.143 351.969 190.93 341.346C193.717 330.725 200.507 329.157 200.507 329.157C200.507 329.157 210.086 324.454 219.141 327.415C228.197 330.375 229.242 335.601 229.59 336.994C229.938 338.387 228.545 341.521 229.242 342.043C229.938 342.565 236.73 345.351 236.207 346.919C235.685 348.487 233.421 351.274 233.421 351.274C233.421 351.274 232.725 361.722 231.331 363.114C229.938 364.507 222.45 364.855 222.45 364.855L216.181 377.917" stroke="#1A2E35" stroke-width="1.33333" stroke-miterlimit="10"/>
<path d="M215.484 329.679C218.334 328.833 220.942 328.803 222.968 329.034C221.88 328.453 220.628 327.902 219.142 327.415C210.086 324.455 200.508 329.157 200.508 329.157C200.508 329.157 193.716 330.725 190.93 341.346C188.144 351.969 193.891 358.065 196.678 359.631C198.328 360.562 199.784 361.361 200.706 361.863C201.954 359.174 203.616 355.417 204.862 351.969C205.787 349.409 209.186 352.675 210.608 349.881C210.928 349.253 210.392 345.593 210.695 344.982C212.35 341.651 213.655 338.647 213.395 336.819C212.872 333.162 209.04 331.595 215.484 329.679Z" fill="#1A2E35"/>
<path d="M215.484 329.679C218.334 328.833 220.942 328.803 222.968 329.034C221.88 328.453 220.628 327.902 219.142 327.415C210.086 324.455 200.508 329.157 200.508 329.157C200.508 329.157 193.716 330.725 190.93 341.346C188.144 351.969 193.891 358.065 196.678 359.631C198.328 360.562 199.784 361.361 200.706 361.863C201.954 359.174 203.616 355.417 204.862 351.969C205.787 349.409 209.186 352.675 210.608 349.881C210.928 349.253 210.392 345.593 210.695 344.982C212.35 341.651 213.655 338.647 213.395 336.819C212.872 333.162 209.04 331.595 215.484 329.679Z" stroke="#1A2E35" stroke-width="1.33333" stroke-miterlimit="10"/>
<path d="M208.519 352.84C208.519 352.84 204.687 347.267 201.552 350.053C198.419 352.84 201.204 358.935 207.126 358.239" fill="white"/>
<path d="M208.519 352.84C208.519 352.84 204.687 347.267 201.552 350.053C198.419 352.84 201.204 358.935 207.126 358.239" stroke="#1A2E35" stroke-width="1.33333" stroke-miterlimit="10"/>
<path d="M194.239 333.685C194.239 333.685 188.667 327.938 184.487 326.893C180.307 325.849 175.083 325.499 171.948 332.291C168.814 339.082 169.859 344.482 173.864 347.267C177.87 350.054 181.352 350.403 184.66 348.313C187.97 346.223 190.059 343.089 190.931 341.347C191.8 339.606 194.239 333.685 194.239 333.685Z" fill="#1A2E35"/>
<path d="M194.239 333.685C194.239 333.685 188.667 327.938 184.487 326.893C180.307 325.849 175.083 325.499 171.948 332.291C168.814 339.082 169.859 344.482 173.864 347.267C177.87 350.054 181.352 350.403 184.66 348.313C187.97 346.223 190.059 343.089 190.931 341.347C191.8 339.606 194.239 333.685 194.239 333.685Z" stroke="#1A2E35" stroke-width="1.33333" stroke-miterlimit="10"/>
<path d="M225.933 342.13C225.933 343.332 225.426 344.308 224.801 344.308C224.176 344.308 223.669 343.332 223.669 342.13C223.669 340.929 224.176 339.953 224.801 339.953C225.426 339.953 225.933 340.929 225.933 342.13Z" fill="#1A2E35"/>
<path d="M221.928 338.038C221.928 338.038 225.41 336.819 226.978 338.038" stroke="#1A2E35" stroke-width="1.33333" stroke-miterlimit="10"/>
<path d="M228.023 354.059C228.023 354.059 230.287 353.885 231.157 354.583" stroke="#1A2E35" stroke-width="1.33333" stroke-miterlimit="10"/>
<path d="M222.451 364.856L216.356 363.637L219.664 370.081L222.451 364.856Z" fill="#1A2E35"/>
<path d="M222.451 364.856L216.356 363.637L219.664 370.081L222.451 364.856Z" stroke="#1A2E35" stroke-width="1.33333" stroke-miterlimit="10"/>
<path d="M201.029 365.992C201.029 365.992 166.71 376.288 165.918 378.135C165.126 379.983 159.319 419.318 159.055 421.694C158.791 424.07 149.815 436.742 151.135 440.964C152.455 445.188 162.223 456.804 167.766 460.236C173.31 463.668 177.006 465.251 177.006 465.251C177.006 465.251 185.982 437.27 191.262 419.582C196.541 401.895 201.029 365.992 201.029 365.992Z" fill="#5AE4A7"/>
<path d="M201.029 365.992C201.029 365.992 166.71 376.288 165.918 378.135C165.126 379.983 159.319 419.318 159.055 421.694C158.791 424.07 149.815 436.742 151.135 440.964C152.455 445.188 162.223 456.804 167.766 460.236C173.31 463.668 177.006 465.251 177.006 465.251C177.006 465.251 185.982 437.27 191.262 419.582C196.541 401.895 201.029 365.992 201.029 365.992Z" stroke="#1A2E35" stroke-width="1.33333" stroke-miterlimit="10"/>
<path d="M201.029 365.992C201.029 365.992 195.695 367.592 189.188 369.643C188.556 380.773 186.821 412.32 187.037 420.109C187.149 424.121 187.213 428.743 187.251 432.744C188.679 428.127 190.065 423.588 191.261 419.581C196.541 401.895 201.029 365.992 201.029 365.992Z" fill="#5AE4A7"/>
<path d="M201.029 365.992C201.029 365.992 195.695 367.592 189.188 369.643C188.556 380.773 186.821 412.32 187.037 420.109C187.149 424.121 187.213 428.743 187.251 432.744C188.679 428.127 190.065 423.588 191.261 419.581C196.541 401.895 201.029 365.992 201.029 365.992Z" stroke="#1A2E35" stroke-width="1.33333" stroke-miterlimit="10"/>
<path d="M268.454 371.604C263.944 365.217 263.026 351.848 259.436 345.865C255.846 339.883 251.36 338.653 251.36 338.653L249.48 338.14C249.48 338.14 247.258 338.653 245.548 338.14C243.84 337.628 239.396 336.089 239.396 336.089C239.396 336.089 236.148 336.603 234.952 335.747C233.755 334.893 237.174 334.721 235.464 334.209C233.755 333.696 226.918 333.355 225.551 331.988C224.183 330.62 231.362 330.277 231.362 330.277C231.362 330.277 235.635 328.911 238.883 329.252C242.13 329.595 251.36 330.961 253.068 331.132C254.779 331.304 260.078 336.089 260.078 336.089C260.078 336.089 273.922 350.447 277.34 355.745C280.759 361.044 282.126 364.633 282.296 366.001C282.468 367.368 282.468 368.223 282.468 368.223" fill="white"/>
<path d="M268.454 371.604C263.944 365.217 263.026 351.848 259.436 345.865C255.846 339.883 251.36 338.653 251.36 338.653L249.48 338.14C249.48 338.14 247.258 338.653 245.548 338.14C243.84 337.628 239.396 336.089 239.396 336.089C239.396 336.089 236.148 336.603 234.952 335.747C233.755 334.893 237.174 334.721 235.464 334.209C233.755 333.696 226.918 333.355 225.551 331.988C224.183 330.62 231.362 330.277 231.362 330.277C231.362 330.277 235.635 328.911 238.883 329.252C242.13 329.595 251.36 330.961 253.068 331.132C254.779 331.304 260.078 336.089 260.078 336.089C260.078 336.089 273.922 350.447 277.34 355.745C280.759 361.044 282.126 364.633 282.296 366.001C282.468 367.368 282.468 368.223 282.468 368.223" stroke="#1A2E35" stroke-width="1.33333" stroke-miterlimit="10"/>
<path d="M269.697 374.551C267.086 373.572 263.495 364.759 261.863 360.516C260.231 356.273 254.03 344.523 254.03 344.523L262.842 337.343L279.489 357.905C279.489 357.905 286.511 364.532 281.042 373.296" fill="#5AE4A7"/>
<path d="M269.697 374.551C267.086 373.572 263.495 364.759 261.863 360.516C260.231 356.273 254.03 344.523 254.03 344.523L262.842 337.343L279.489 357.905C279.489 357.905 286.511 364.532 281.042 373.296" stroke="#1A2E35" stroke-width="1.33333" stroke-miterlimit="10"/>
<path d="M234.268 330.108C234.268 330.108 232.388 331.646 237.003 332.158C241.618 332.672 242.814 332.5 242.814 332.5C242.814 332.5 245.207 335.577 249.651 336.432" stroke="#1A2E35" stroke-width="1.33333" stroke-miterlimit="10"/>
<path d="M131.966 478.965L129.265 478.277L131.68 468.805L134.381 469.493L131.966 478.965Z" fill="#1A2E35"/>
<path d="M131.966 478.965L129.265 478.277L131.68 468.805L134.381 469.493L131.966 478.965Z" stroke="#1A2E35" stroke-width="1.33333" stroke-miterlimit="10"/>
<path d="M117.648 471.999L115 471.129L117.816 462.555L120.464 463.424L117.648 471.999Z" fill="#1A2E35"/>
<path d="M117.648 471.999L115 471.129L117.816 462.555L120.464 463.424L117.648 471.999Z" stroke="#1A2E35" stroke-width="1.33333" stroke-miterlimit="10"/>
<path d="M133.497 469.941C133.241 469.941 132.98 469.889 132.732 469.779L118.592 463.508C117.637 463.085 117.207 461.968 117.629 461.013C118.053 460.059 119.172 459.627 120.125 460.051L134.265 466.32C135.22 466.744 135.651 467.86 135.227 468.816C134.915 469.523 134.223 469.941 133.497 469.941Z" fill="#1A2E35"/>
<path d="M133.497 469.941C133.241 469.941 132.98 469.889 132.732 469.779L118.592 463.508C117.637 463.085 117.207 461.968 117.629 461.013C118.053 460.059 119.172 459.627 120.125 460.051L134.265 466.32C135.22 466.744 135.651 467.86 135.227 468.816C134.915 469.523 134.223 469.941 133.497 469.941Z" stroke="#1A2E35" stroke-width="1.33333" stroke-miterlimit="10"/>
<path d="M102.936 461.328L145.068 482.49L139.513 532.25L132.801 533.408L86.9983 508.427L102.936 461.328Z" fill="#B3B3B3"/>
<path d="M102.936 461.328L145.068 482.49L139.513 532.25L132.801 533.408L86.9983 508.427L102.936 461.328Z" stroke="#1A2E35" stroke-width="1.33333" stroke-miterlimit="10"/>
<path d="M145.068 482.489L132.801 533.407L139.513 532.249L145.068 482.489Z" fill="#B3B3B3"/>
<path d="M145.068 482.489L132.801 533.407L139.513 532.249L145.068 482.489Z" stroke="#1A2E35" stroke-width="1.33333" stroke-miterlimit="10"/>
<path d="M102.936 461.328C102.936 461.328 109.481 497.043 117.734 496.617C124.13 496.287 145.068 482.489 145.068 482.489" stroke="#1A2E35" stroke-width="1.33333" stroke-miterlimit="10"/>
<path d="M114.035 491.637L111.757 499.605L115.173 501.739L117.876 493.486L114.035 491.637Z" fill="white"/>
<path d="M114.035 491.637L111.757 499.605L115.173 501.739L117.876 493.486L114.035 491.637Z" stroke="#1A2E35" stroke-width="1.33333" stroke-miterlimit="10"/>
<path d="M134.251 457.579L131.457 472.821C131.457 472.821 129.679 474.218 128.409 473.836C127.139 473.454 126.63 471.295 126.63 471.295C126.63 471.295 119.645 469.518 119.138 466.217C118.629 462.913 125.139 453.373 125.139 453.373L134.251 457.579Z" fill="white"/>
<path d="M134.251 457.579L131.457 472.821C131.457 472.821 129.679 474.218 128.409 473.836C127.139 473.454 126.63 471.295 126.63 471.295C126.63 471.295 119.645 469.518 119.138 466.217C118.629 462.913 125.139 453.373 125.139 453.373L134.251 457.579Z" stroke="#1A2E35" stroke-width="1.33333" stroke-miterlimit="10"/>
<path d="M165.919 378.135L136.616 413.774L124.473 453.373L135.027 458.027L151.664 424.069L175.949 402.95C175.949 402.95 178.327 398.726 176.477 393.975" fill="#5AE4A7"/>
<path d="M165.919 378.135L136.616 413.774L124.473 453.373L135.027 458.027L151.664 424.069L175.949 402.95C175.949 402.95 178.327 398.726 176.477 393.975" stroke="#1A2E35" stroke-width="1.33333" stroke-miterlimit="10"/>
</g>
<path d="M794.667 200.516H783.852V133.638H794.667V200.516Z" fill="#5AE4A7" stroke="#1A2E35" stroke-width="1.33333" stroke-miterlimit="10"/>
<mask id="mask10_281_2350" style="mask-type:luminance" maskUnits="userSpaceOnUse" x="0" y="0" width="1001" height="668">
<path d="M0.5 0.499877H1000.5V667.167H0.5V0.499877Z" fill="white"/>
</mask>
<g mask="url(#mask10_281_2350)">
<path d="M766.913 132.722C753.79 132.722 743.486 128.652 736.282 120.626C723.241 106.087 725.474 83.9963 725.575 83.063C725.795 81.0324 727.509 79.495 729.551 79.495H764.946V87.495H737.526C735.209 87.495 733.367 89.4537 733.534 91.7657C734.018 98.5137 735.907 108.25 742.266 115.315C747.885 121.556 756.175 124.722 766.913 124.722V132.722Z" fill="#5AE4A7"/>
<path d="M766.913 132.722C753.79 132.722 743.486 128.652 736.282 120.626C723.241 106.087 725.474 83.9963 725.575 83.063C725.795 81.0324 727.509 79.495 729.551 79.495H764.946V87.495H737.526C735.209 87.495 733.367 89.4537 733.534 91.7657C734.018 98.5137 735.907 108.25 742.266 115.315C747.885 121.556 756.175 124.722 766.913 124.722V132.722Z" stroke="#1A2E35" stroke-width="1.33333" stroke-miterlimit="10"/>
<path d="M811.607 132.722C824.729 132.722 835.033 128.652 842.236 120.626C855.279 106.087 853.045 83.9963 852.944 83.063C852.723 81.0324 851.009 79.495 848.968 79.495H813.573V87.495H840.992C843.309 87.495 845.151 89.4537 844.985 91.7657C844.5 98.5137 842.611 108.25 836.252 115.315C830.635 121.556 822.343 124.722 811.607 124.722V132.722Z" fill="#5AE4A7"/>
<path d="M811.607 132.722C824.729 132.722 835.033 128.652 842.236 120.626C855.279 106.087 853.045 83.9963 852.944 83.063C852.723 81.0324 851.009 79.495 848.968 79.495H813.573V87.495H840.992C843.309 87.495 845.151 89.4537 844.985 91.7657C844.5 98.5137 842.611 108.25 836.252 115.315C830.635 121.556 822.343 124.722 811.607 124.722V132.722Z" stroke="#1A2E35" stroke-width="1.33333" stroke-miterlimit="10"/>
<path d="M789.173 147.402H788.894C772.41 147.402 759.046 134.04 759.046 117.554V71.697H819.021V117.554C819.021 134.04 805.657 147.402 789.173 147.402Z" fill="#5AE4A7"/>
<path d="M789.173 147.402H788.894C772.41 147.402 759.046 134.04 759.046 117.554V71.697H819.021V117.554C819.021 134.04 805.657 147.402 789.173 147.402Z" stroke="#1A2E35" stroke-width="1.33333" stroke-miterlimit="10"/>
<path d="M813.218 71.6968V116.098C813.218 131.498 800.776 144.081 785.096 144.948C785.668 144.978 786.243 145 786.823 145C803.307 145 816.671 132.06 816.671 116.098V71.6968H813.218Z" fill="#1A2E35"/>
<path d="M765.021 71.6972V115.844C765.021 131.154 776.045 143.665 789.938 144.526C789.433 144.558 788.924 144.577 788.41 144.577C773.802 144.577 761.961 131.713 761.961 115.844V71.6972H765.021Z" fill="white"/>
<path d="M819.021 71.6971H759.048V84.8291H819.021V71.6971Z" fill="#5AE4A7" stroke="#1A2E35" stroke-width="1.33333" stroke-miterlimit="10"/>
<path d="M795.242 179.662H783.681C782.111 179.662 780.839 178.39 780.839 176.822V164.753C780.839 163.185 782.111 161.913 783.681 161.913H795.242C796.811 161.913 798.083 163.185 798.083 164.753V176.822C798.083 178.39 796.811 179.662 795.242 179.662Z" fill="#5AE4A7"/>
<path d="M795.242 179.662H783.681C782.111 179.662 780.839 178.39 780.839 176.822V164.753C780.839 163.185 782.111 161.913 783.681 161.913H795.242C796.811 161.913 798.083 163.185 798.083 164.753V176.822C798.083 178.39 796.811 179.662 795.242 179.662Z" stroke="#1A2E35" stroke-width="1.33333" stroke-miterlimit="10"/>
<path d="M823.797 201.304C822.312 197.26 818.437 194.369 813.878 194.369H765.046C760.486 194.369 756.612 197.26 755.126 201.304H823.797Z" fill="#5AE4A7"/>
<path d="M823.797 201.304C822.312 197.26 818.437 194.369 813.878 194.369H765.046C760.486 194.369 756.612 197.26 755.126 201.304H823.797Z" stroke="#1A2E35" stroke-width="1.33333" stroke-miterlimit="10"/>
<path d="M769.684 78.236C769.684 76.836 768.548 75.7 767.149 75.7C765.748 75.7 764.612 76.836 764.612 78.236C764.612 79.636 765.748 80.772 767.149 80.772C768.548 80.772 769.684 79.636 769.684 78.236Z" fill="#5AE4A7"/>
<path d="M769.684 78.236C769.684 76.836 768.548 75.7 767.149 75.7C765.748 75.7 764.612 76.836 764.612 78.236C764.612 79.636 765.748 80.772 767.149 80.772C768.548 80.772 769.684 79.636 769.684 78.236Z" stroke="#1A2E35" stroke-width="1.33333" stroke-miterlimit="10"/>
<path d="M780.84 78.236C780.84 76.836 779.705 75.7 778.305 75.7C776.905 75.7 775.769 76.836 775.769 78.236C775.769 79.636 776.905 80.772 778.305 80.772C779.705 80.772 780.84 79.636 780.84 78.236Z" fill="#5AE4A7"/>
<path d="M780.84 78.236C780.84 76.836 779.705 75.7 778.305 75.7C776.905 75.7 775.769 76.836 775.769 78.236C775.769 79.636 776.905 80.772 778.305 80.772C779.705 80.772 780.84 79.636 780.84 78.236Z" stroke="#1A2E35" stroke-width="1.33333" stroke-miterlimit="10"/>
<path d="M791.997 78.236C791.997 76.836 790.861 75.7 789.461 75.7C788.061 75.7 786.925 76.836 786.925 78.236C786.925 79.636 788.061 80.772 789.461 80.772C790.861 80.772 791.997 79.636 791.997 78.236Z" fill="#5AE4A7"/>
<path d="M791.997 78.236C791.997 76.836 790.861 75.7 789.461 75.7C788.061 75.7 786.925 76.836 786.925 78.236C786.925 79.636 788.061 80.772 789.461 80.772C790.861 80.772 791.997 79.636 791.997 78.236Z" stroke="#1A2E35" stroke-width="1.33333" stroke-miterlimit="10"/>
<path d="M803.154 78.236C803.154 76.836 802.019 75.7 800.619 75.7C799.219 75.7 798.083 76.836 798.083 78.236C798.083 79.636 799.219 80.772 800.619 80.772C802.019 80.772 803.154 79.636 803.154 78.236Z" fill="#5AE4A7"/>
<path d="M803.154 78.236C803.154 76.836 802.019 75.7 800.619 75.7C799.219 75.7 798.083 76.836 798.083 78.236C798.083 79.636 799.219 80.772 800.619 80.772C802.019 80.772 803.154 79.636 803.154 78.236Z" stroke="#1A2E35" stroke-width="1.33333" stroke-miterlimit="10"/>
<path d="M814.311 78.236C814.311 76.836 813.175 75.7 811.775 75.7C810.375 75.7 809.239 76.836 809.239 78.236C809.239 79.636 810.375 80.772 811.775 80.772C813.175 80.772 814.311 79.636 814.311 78.236Z" fill="#5AE4A7"/>
<path d="M814.311 78.236C814.311 76.836 813.175 75.7 811.775 75.7C810.375 75.7 809.239 76.836 809.239 78.236C809.239 79.636 810.375 80.772 811.775 80.772C813.175 80.772 814.311 79.636 814.311 78.236Z" stroke="#1A2E35" stroke-width="1.33333" stroke-miterlimit="10"/>
<path d="M788.909 91.7244C799.577 91.7244 808.225 100.372 808.225 111.04C808.225 121.708 799.577 130.356 788.909 130.356C778.241 130.356 769.593 121.708 769.593 111.04C769.593 100.372 778.241 91.7244 788.909 91.7244Z" fill="#1A2E35"/>
<path d="M788.909 91.7244C799.577 91.7244 808.225 100.372 808.225 111.04C808.225 121.708 799.577 130.356 788.909 130.356C778.241 130.356 769.593 121.708 769.593 111.04C769.593 100.372 778.241 91.7244 788.909 91.7244Z" stroke="#1A2E35" stroke-width="1.33333" stroke-miterlimit="10"/>
<path d="M792.772 121.343H788.84V106.52C787.403 107.863 785.708 108.856 783.757 109.5V105.931C784.784 105.596 785.9 104.957 787.103 104.021C788.307 103.084 789.132 101.988 789.58 100.739H792.772V121.343Z" fill="white"/>
<path d="M789.807 36.1111V59.3511" stroke="#1A2E35" stroke-width="1.33333" stroke-miterlimit="10"/>
<path d="M690.07 106.798H713.31" stroke="#1A2E35" stroke-width="1.33333" stroke-miterlimit="10"/>
<path d="M741.202 153.466L744.766 149.902" stroke="#1A2E35" stroke-width="1.33333" stroke-miterlimit="10"/>
<path d="M728.332 166.336L737.741 156.928" stroke="#1A2E35" stroke-width="1.33333" stroke-miterlimit="10"/>
<path d="M851.136 160.38L840.658 149.903" stroke="#1A2E35" stroke-width="1.33333" stroke-miterlimit="10"/>
<path d="M857.091 166.336L854.091 163.336" stroke="#1A2E35" stroke-width="1.33333" stroke-miterlimit="10"/>
<path d="M741.715 65.485L744.766 68.5356" stroke="#1A2E35" stroke-width="1.33333" stroke-miterlimit="10"/>
<path d="M728.332 52.102L738.555 62.3247" stroke="#1A2E35" stroke-width="1.33333" stroke-miterlimit="10"/>
<path d="M857.091 52.1018L840.658 68.5352" stroke="#1A2E35" stroke-width="1.33333" stroke-miterlimit="10"/>
<path d="M882.107 106.798H886.637" stroke="#1A2E35" stroke-width="1.33333" stroke-miterlimit="10"/>
<path d="M863.398 106.798H877.593" stroke="#1A2E35" stroke-width="1.33333" stroke-miterlimit="10"/>
</g>
<path d="M941.466 601.563H969.394" stroke="#1A2E35" stroke-width="1.33333" stroke-miterlimit="10"/>
<path d="M115.631 601.563H930.6" stroke="#1A2E35" stroke-width="1.33333" stroke-miterlimit="10"/>
<path d="M26.5287 601.563H103.678" stroke="#1A2E35" stroke-width="1.33333" stroke-miterlimit="10"/>
</svg>
