<svg width="40" height="40" viewBox="0 0 40 40" fill="none" xmlns="http://www.w3.org/2000/svg">
<path d="M7.18138 32.6974H16.1167C16.9073 32.6974 17.5441 32.0606 17.5441 31.27C17.5441 30.4793 16.9073 29.8426 16.1167 29.8426H7.18138C6.39071 29.8426 5.75397 30.4793 5.75397 31.27C5.75397 32.0606 6.3977 32.6974 7.18138 32.6974ZM35.7155 34.2857H32.049C35.1067 29.6117 35.9184 25.6093 34.456 22.3557C32.9656 19.0531 29.4461 17.3108 26.4444 16.4082L24.905 18.9411C27.4869 19.6058 30.6916 20.9353 31.8531 23.5382C33.0356 26.1691 31.9231 29.7866 28.5645 34.2927H4.28458C3.49391 34.2927 2.85718 34.9294 2.85718 35.7201C2.85718 36.5108 3.49391 37.1405 4.28458 37.1405H35.7155C36.5062 37.1405 37.1429 36.5038 37.1429 35.7131C37.1429 34.9224 36.5062 34.2857 35.7155 34.2857ZM10.449 22.6426L11.8274 23.5242L10.589 25.5044C10.1691 26.1761 10.372 27.0507 11.0438 27.4706C11.2817 27.6174 12.2753 28.0303 13.0099 27.0158L14.2344 25.0636C14.2344 25.0636 15.7948 26.1551 16.3546 26.1551C16.9353 26.1551 17.3761 25.7982 17.572 25.4694L25.8776 11.8321C26.2834 11.1674 26.0805 10.3067 25.4298 9.88687L20.3009 6.59127C19.9651 6.36727 18.9645 6.06647 18.3067 7.05307L10.0012 20.6974C9.60237 21.3621 9.79829 22.2228 10.449 22.6426ZM22.2461 5.48572L25.5207 7.59184C26.4374 8.13761 27.221 7.58612 27.4939 7.16501C27.9207 6.50029 27.7248 5.61867 27.0671 5.19184L23.7925 3.08572C23.1277 2.65889 22.2461 2.85487 21.8193 3.51252C21.3925 4.17727 21.5884 5.05889 22.2461 5.48572Z" fill="#005B38"/>
</svg>
