<svg width="40" height="40" viewBox="0 0 40 40" fill="none" xmlns="http://www.w3.org/2000/svg">
<g clip-path="url(#clip0_286_3438)">
<path fill-rule="evenodd" clip-rule="evenodd" d="M28.1624 3.5293H7.25184V5.95518L-0.0183105 5.95518V17.334C-0.0183105 21.7317 4.88948 25.3505 9.70595 25.7269C11.2871 27.4211 14.0683 28.6516 16.5436 29.1764V32.1505C14.1765 32.8775 9.94831 34.5857 9.70595 36.4469H25.9508C25.7061 34.5857 21.0471 32.8752 18.6754 32.1505V29.1764C21.1601 28.6516 24.066 27.4211 25.6495 25.7269C30.4636 25.3505 35.1554 21.7317 35.1554 17.334V5.95518H28.1624V3.5293ZM2.21419 8.11139H7.08242V17.9128C7.08242 19.8469 7.58125 21.6869 8.45889 23.3434C4.81654 22.1834 2.21419 19.1952 2.21419 15.6987V8.11139ZM21.2829 20.0658L17.6491 18.0634L14.0114 20.0658L14.706 15.8305L11.7648 12.8328L15.8283 12.214L17.6491 8.36459L19.466 12.214L23.5295 12.8328L20.5903 15.8305L21.2829 20.0658ZM26.6824 23.6564C27.5648 21.9246 28.0707 20.0093 28.0707 17.9834V8.17458H32.9507V15.6705C32.9507 19.3246 30.3365 22.4446 26.6824 23.6564Z" fill="#005B38"/>
</g>
<defs>
<clipPath id="clip0_286_3438">
<rect width="40" height="40" fill="white"/>
</clipPath>
</defs>
</svg>
