<svg width="40" height="40" viewBox="0 0 40 40" fill="none" xmlns="http://www.w3.org/2000/svg">
<g clip-path="url(#clip0_286_3455)">
<path d="M37.375 21.875C37.125 21.5 36.75 21.25 36.25 21.25C33.5 21.25 30.875 22.5 29.25 24.75L28.125 26.25C26.75 27.875 24.625 28.75 22.5 28.75H18.75C18 28.75 17.5 28.25 17.5 27.5C17.5 26.75 18 26.25 18.75 26.25H21.125C23.125 26.25 25 24.625 25 22.625V22.5C25 21.875 24.375 21.25 23.75 21.25H16.125C11.625 21.25 8 23.25 6 26.5L2.625 31.75C2.375 32.125 2.375 32.625 2.625 33L6.375 39.25C6.5 39.5 6.875 39.75 7.125 39.875C7.25 39.875 7.25 39.875 7.375 39.875C7.625 39.875 7.875 39.75 8.125 39.625C12.875 36.5 18.375 34.875 24 34.875C28.125 34.875 31.875 32.625 33.875 29L37.25 23C37.5 22.75 37.5 22.25 37.375 21.875Z" fill="#005B38" stroke="#005B38" stroke-width="2"/>
<path d="M5.625 22.5002C5.75 22.5002 6 22.5002 6.125 22.5002C7.625 21.1252 9.5 20.1252 11.5 19.5002C11.375 18.8752 11.25 18.1252 11.25 17.5002C11.25 12.0002 15.75 7.50018 21.25 7.50018C26.75 7.50018 31.25 12.0002 31.25 17.5002C31.25 18.3752 31.125 19.2502 30.875 20.1252C32.5 19.2502 34.375 18.7502 36.25 18.7502C37.125 18.7502 38 19.1252 38.625 19.6252C38.75 18.8752 38.75 18.2502 38.75 17.5002C38.75 16.1252 38.625 14.7502 38.25 13.3752C38.125 12.7502 37.5 12.3752 36.875 12.3752C35.375 12.6252 33.875 11.8752 33.125 10.5002C32.375 9.25018 32.5 7.50018 33.375 6.37518C33.75 5.87518 33.75 5.12518 33.25 4.75018C31.25 2.87518 28.875 1.50018 26.25 0.750183C25.625 0.625183 25 0.875183 24.75 1.50018C24.125 2.87518 22.75 3.75018 21.25 3.75018C19.75 3.75018 18.375 2.87518 17.75 1.50018C17.5 0.875183 16.875 0.500183 16.25 0.750183C13.625 1.50018 11.25 2.87518 9.25 4.87518C8.75 5.25018 8.75 6.00018 9.125 6.50018C10 7.75018 10.125 9.37518 9.375 10.6252C8.625 11.8752 7.125 12.6252 5.625 12.5002C5 12.3752 4.375 12.8752 4.25 13.5002C3.875 14.7502 3.75 16.1252 3.75 17.5002C3.75 18.8752 3.875 20.2502 4.25 21.6252C4.375 22.2502 5 22.6252 5.625 22.5002Z" fill="#005B38" stroke="#005B38" stroke-width="2"/>
</g>
<defs>
<clipPath id="clip0_286_3455">
<rect width="40" height="40" fill="white"/>
</clipPath>
</defs>
</svg>
