<svg width="1000" height="667" viewBox="0 0 1000 667" fill="none" xmlns="http://www.w3.org/2000/svg">
<mask id="mask0_324_620" style="mask-type:luminance" maskUnits="userSpaceOnUse" x="0" y="0" width="1000" height="667">
<path d="M0 0.000121117H1000V666.667H0V0.000121117Z" fill="white"/>
</mask>
<g mask="url(#mask0_324_620)">
<path d="M901.951 310.119C874.977 255.821 841.714 205.964 803.276 161.977C761.801 114.513 719.519 82.4254 664.973 61.66C628.044 47.6 589.524 39.556 550.829 38.06C478.875 35.28 419.524 54.8627 360.413 104.268C297.041 157.236 237.923 217.179 176.168 272.805C169.721 278.611 163.251 284.376 156.745 290.084C49.0399 384.58 -3.27346 552.433 69.5559 593.465H907.601C907.601 593.465 983.831 588.86 965.043 495.237C951.893 429.705 930.425 367.437 901.951 310.119Z" fill="#5AE4A7"/>
<mask id="mask1_324_620" style="mask-type:luminance" maskUnits="userSpaceOnUse" x="35" y="37" width="934" height="557">
<path d="M35.7979 37.8027H968.023V593.465H35.7979V37.8027Z" fill="white"/>
</mask>
<g mask="url(#mask1_324_620)">
<g opacity="0.699997">
<path d="M901.951 310.119C874.977 255.821 841.714 205.964 803.276 161.977C761.801 114.513 719.519 82.4254 664.973 61.66C628.044 47.6 589.524 39.556 550.829 38.06C478.875 35.28 419.524 54.8627 360.413 104.268C297.041 157.236 237.923 217.179 176.168 272.805C169.721 278.611 163.251 284.376 156.745 290.084C49.0399 384.58 -3.27346 552.433 69.5559 593.465H907.601C907.601 593.465 983.831 588.86 965.043 495.237C951.893 429.705 930.425 367.437 901.951 310.119Z" fill="white"/>
</g>
</g>
</g>
<path d="M884.428 433.637H821.059V518.129H884.428V433.637Z" fill="#1A2E35"/>
<path d="M849.036 261.532V446.461L855.512 439.984V332.428L875.569 285.02L854.269 324.781L853.469 267.392L849.036 261.532Z" fill="#1A2E35"/>
<path d="M836.422 253.385L799.538 230.025L821.669 254L786.013 245.393L811.218 257.689H768.185L803.841 263.221L762.038 271.213L795.849 269.984L764.498 282.893L798.309 277.36L753.433 308.097L806.914 282.278L778.637 310.556L804.455 293.958L786.013 326.54L813.061 295.188L799.538 323.466L823.513 293.344V314.245L834.578 289.04V303.18L845.643 273.672V288.425L853.47 267.392L855.479 261.992L831.505 229.41L838.882 249.081L831.505 242.934L836.422 253.385Z" fill="#5AE4A7"/>
<path d="M831.755 311.218L788.428 316.598L820.75 321.062L787.742 337.058L815.019 330.548L781.78 357.876L812.835 339.507L785.619 372.228L810.955 349.806L794.938 379.69L817.54 353.943L802.396 406.186L827.312 352.275L823.427 392.079L832.831 362.859L839.276 399.74L840.259 358.344L847.771 388.776L847.16 350.282L860.435 366.427L852.975 339.93L861.954 350.852L851.762 321.031L861.131 332.428L853.819 311.21L851.942 305.763L812.73 295.822L830.922 306.332L821.32 306.268L831.755 311.218Z" fill="#5AE4A7"/>
<path d="M831.755 311.218L788.428 316.598L820.75 321.062L787.742 337.058L815.019 330.548L781.78 357.876L812.835 339.507L785.619 372.228L810.955 349.806L794.938 379.69L817.54 353.943L802.396 406.186L827.312 352.275L823.427 392.079L832.831 362.859L839.276 399.74L840.259 358.344L847.771 388.776L847.16 350.282L860.435 366.427L852.975 339.93L861.954 350.852L851.762 321.031L861.131 332.428L853.819 311.21L851.942 305.763L812.73 295.822L830.922 306.332L821.32 306.268L831.755 311.218Z" fill="#5AE4A7"/>
<path d="M871.243 242.082L928.516 234.027L888.715 250.881L936.447 259.962L899.314 261.038L951.252 284.535L905.196 271.745L951.286 304.215L911.15 284.27L941.94 316.971L904.154 291.831L941.534 353.434L891.08 293.067L909.771 342.638L887.67 308.507L892.139 357.901L876.611 305.291L877.494 346.807L865.004 297.359L853.592 322.586L853.999 286.123L846.279 303.189L849.036 261.531L840.98 279.339L843.019 249.678L843.543 242.063L890.271 215.831L870.624 235.546L882.884 232.154L871.243 242.082Z" fill="#5AE4A7"/>
<path d="M863.807 231.99L887.168 195.105L863.192 217.237L871.799 181.581L859.503 206.785V163.753L853.971 199.409L845.98 157.606L847.21 191.417L834.299 160.065L839.832 193.876L809.095 149L834.914 202.482L806.636 174.205L823.234 200.024L790.652 181.581L822.004 208.629L793.726 195.105L823.848 219.08H802.947L828.152 230.146H814.012L843.52 241.212H828.767L849.8 249.038L855.2 251.046L887.782 227.073L868.111 234.449L874.258 227.073L863.807 231.99Z" fill="#5AE4A7"/>
<path d="M42.1787 635.389V532.397L54.9907 517.309H956.205L971.617 535.629V634.22" fill="white"/>
<path d="M42.1787 635.389V532.397L54.9907 517.309H956.205L971.617 535.629V634.22" stroke="#1A2E35" stroke-width="1.33333" stroke-miterlimit="10" stroke-linecap="round" stroke-linejoin="round"/>
<path d="M49.0732 532.883H962.989" stroke="#1A2E35" stroke-width="1.33333" stroke-miterlimit="10" stroke-linecap="round" stroke-linejoin="round"/>
<mask id="mask2_324_620" style="mask-type:luminance" maskUnits="userSpaceOnUse" x="0" y="0" width="1000" height="667">
<path d="M0 0.000121117H1000V666.667H0V0.000121117Z" fill="white"/>
</mask>
<g mask="url(#mask2_324_620)">
<path d="M874.136 139.304H829.43C826.512 139.304 824.148 136.94 824.148 134.024V110.943C824.148 108.027 826.512 105.663 829.43 105.663H874.136C877.054 105.663 879.418 108.027 879.418 110.943V134.024C879.418 136.94 877.054 139.304 874.136 139.304Z" stroke="#1A2E35" stroke-width="1.33333" stroke-miterlimit="10" stroke-linecap="round" stroke-linejoin="round"/>
<path d="M900.569 75.6245H877.487C874.572 75.6245 872.208 73.2605 872.208 70.3445V64.0845C872.208 61.1672 874.572 58.8032 877.487 58.8032H900.569C903.485 58.8032 905.849 61.1672 905.849 64.0845V70.3445C905.849 73.2605 903.485 75.6245 900.569 75.6245Z" stroke="#1A2E35" stroke-width="1.33333" stroke-miterlimit="10" stroke-linecap="round" stroke-linejoin="round"/>
<path d="M916.188 175.348H906.324C903.408 175.348 901.044 172.984 901.044 170.068V168.614C901.044 165.698 903.408 163.334 906.324 163.334H916.188C919.105 163.334 921.469 165.698 921.469 168.614V170.068C921.469 172.984 919.105 175.348 916.188 175.348Z" stroke="#1A2E35" stroke-width="1.33333" stroke-miterlimit="10" stroke-linecap="round" stroke-linejoin="round"/>
<path d="M605.002 403.633H541.07C538.153 403.633 535.79 401.269 535.79 398.351V377.674C535.79 374.758 538.153 372.393 541.07 372.393H605.002C607.918 372.393 610.282 374.758 610.282 377.674V398.351C610.282 401.269 607.918 403.633 605.002 403.633Z" stroke="#1A2E35" stroke-width="1.33333" stroke-miterlimit="10" stroke-linecap="round" stroke-linejoin="round"/>
<path d="M661.472 367.587H648.003C645.087 367.587 642.722 365.224 642.722 362.307V358.45C642.722 355.534 645.087 353.17 648.003 353.17H661.472C664.388 353.17 666.752 355.534 666.752 358.45V362.307C666.752 365.224 664.388 367.587 661.472 367.587Z" stroke="#1A2E35" stroke-width="1.33333" stroke-miterlimit="10" stroke-linecap="round" stroke-linejoin="round"/>
<path d="M590.584 457.699H563.897C560.981 457.699 558.617 455.337 558.617 452.419V446.159C558.617 443.243 560.981 440.879 563.897 440.879H590.584C593.5 440.879 595.864 443.243 595.864 446.159V452.419C595.864 455.337 593.5 457.699 590.584 457.699Z" stroke="#1A2E35" stroke-width="1.33333" stroke-miterlimit="10" stroke-linecap="round" stroke-linejoin="round"/>
<path d="M388.732 380.805H348.831C345.914 380.805 343.55 378.441 343.55 375.523V362.054C343.55 359.138 345.914 356.775 348.831 356.775H388.732C391.648 356.775 394.012 359.138 394.012 362.054V375.523C394.012 378.441 391.648 380.805 388.732 380.805Z" stroke="#1A2E35" stroke-width="1.33333" stroke-miterlimit="10" stroke-linecap="round" stroke-linejoin="round"/>
<path d="M301.023 416.849H273.135C270.219 416.849 267.855 414.485 267.855 411.569V400.502C267.855 397.586 270.219 395.222 273.135 395.222H301.023C303.939 395.222 306.303 397.586 306.303 400.502V411.569C306.303 414.485 303.939 416.849 301.023 416.849Z" stroke="#1A2E35" stroke-width="1.33333" stroke-miterlimit="10" stroke-linecap="round" stroke-linejoin="round"/>
<path d="M291.412 369.991H275.54C272.624 369.991 270.26 367.627 270.26 364.71V359.652C270.26 356.736 272.624 354.371 275.54 354.371H291.412C294.328 354.371 296.692 356.736 296.692 359.652V364.71C296.692 367.627 294.328 369.991 291.412 369.991Z" stroke="#1A2E35" stroke-width="1.33333" stroke-miterlimit="10" stroke-linecap="round" stroke-linejoin="round"/>
<path d="M148.434 171.744H131.36C128.443 171.744 126.079 169.38 126.079 166.464V163.808C126.079 160.892 128.443 158.527 131.36 158.527H148.434C151.35 158.527 153.714 160.892 153.714 163.808V166.464C153.714 169.38 151.35 171.744 148.434 171.744Z" stroke="#1A2E35" stroke-width="1.33333" stroke-miterlimit="10" stroke-linecap="round" stroke-linejoin="round"/>
<path d="M129.21 121.281H84.5017C81.5857 121.281 79.2217 118.917 79.2217 116.001V96.5239C79.2217 93.6079 81.5857 91.2439 84.5017 91.2439H129.21C132.126 91.2439 134.49 93.6079 134.49 96.5239V116.001C134.49 118.917 132.126 121.281 129.21 121.281Z" stroke="#1A2E35" stroke-width="1.33333" stroke-miterlimit="10" stroke-linecap="round" stroke-linejoin="round"/>
<path d="M176.068 103.259H155.391C152.473 103.259 150.109 100.895 150.109 97.979V95.323C150.109 92.4057 152.473 90.0417 155.391 90.0417H176.068C178.984 90.0417 181.348 92.4057 181.348 95.323V97.979C181.348 100.895 178.984 103.259 176.068 103.259Z" stroke="#1A2E35" stroke-width="1.33333" stroke-miterlimit="10" stroke-linecap="round" stroke-linejoin="round"/>
<path d="M141.225 50.3933H122.949C120.033 50.3933 117.669 48.0293 117.669 45.1133V41.256C117.669 38.3386 120.033 35.976 122.949 35.976H141.225C144.141 35.976 146.505 38.3386 146.505 41.256V45.1133C146.505 48.0293 144.141 50.3933 141.225 50.3933Z" stroke="#1A2E35" stroke-width="1.33333" stroke-miterlimit="10" stroke-linecap="round" stroke-linejoin="round"/>
<path d="M73.9411 432.469H58.0691C55.1531 432.469 52.7891 430.105 52.7891 427.187V423.33C52.7891 420.414 55.1531 418.051 58.0691 418.051H73.9411C76.8571 418.051 79.2211 420.414 79.2211 423.33V427.187C79.2211 430.105 76.8571 432.469 73.9411 432.469Z" stroke="#1A2E35" stroke-width="1.33333" stroke-miterlimit="10" stroke-linecap="round" stroke-linejoin="round"/>
<path d="M925.8 419.253H889.503C886.587 419.253 884.223 416.889 884.223 413.971V393.293C884.223 390.378 886.587 388.013 889.503 388.013H925.8C928.717 388.013 931.081 390.378 931.081 393.293V413.971C931.081 416.889 928.717 419.253 925.8 419.253Z" stroke="#1A2E35" stroke-width="1.33333" stroke-miterlimit="10" stroke-linecap="round" stroke-linejoin="round"/>
</g>
<mask id="mask3_324_620" style="mask-type:luminance" maskUnits="userSpaceOnUse" x="0" y="0" width="1000" height="667">
<path d="M0 0.000121117H1000V666.667H0V0.000121117Z" fill="white"/>
</mask>
<g mask="url(#mask3_324_620)">
<path d="M582.655 54.6881H511.301C506.607 54.6881 502.799 58.4948 502.799 63.1895V99.4508C502.799 103.96 506.313 107.64 510.752 107.925L506.56 122.365L525.296 107.953H582.655C587.349 107.953 591.156 104.145 591.156 99.4508V63.1895C591.156 58.4948 587.349 54.6881 582.655 54.6881Z" fill="#1A2E35"/>
<path d="M582.655 54.6881H511.301C506.607 54.6881 502.799 58.4948 502.799 63.1895V99.4508C502.799 103.96 506.313 107.64 510.752 107.925L506.56 122.365L525.296 107.953H582.655C587.349 107.953 591.156 104.145 591.156 99.4508V63.1895C591.156 58.4948 587.349 54.6881 582.655 54.6881Z" stroke="#1A2E35" stroke-width="1.33333" stroke-miterlimit="10" stroke-linecap="round" stroke-linejoin="round"/>
<path d="M579.724 50.7807H508.37C503.676 50.7807 499.869 54.5873 499.869 59.282V95.5433C499.869 100.054 503.382 103.733 507.821 104.018L503.629 118.458L522.365 104.046H579.724C584.418 104.046 588.226 100.239 588.226 95.5433V59.282C588.226 54.5873 584.418 50.7807 579.724 50.7807Z" fill="white"/>
<path d="M579.724 50.7807H508.37C503.676 50.7807 499.869 54.5873 499.869 59.282V95.5433C499.869 100.054 503.382 103.733 507.821 104.018L503.629 118.458L522.365 104.046H579.724C584.418 104.046 588.226 100.239 588.226 95.5433V59.282C588.226 54.5873 584.418 50.7807 579.724 50.7807Z" stroke="#1A2E35" stroke-width="1.33333" stroke-miterlimit="10"/>
<path d="M529.321 76.4735C529.321 78.0308 528.059 79.2935 526.501 79.2935C524.944 79.2935 523.683 78.0308 523.683 76.4735C523.683 74.9161 524.944 73.6535 526.501 73.6535C528.059 73.6535 529.321 74.9161 529.321 76.4735Z" fill="#1A2E35"/>
<path d="M546.867 76.4735C546.867 78.0308 545.606 79.2935 544.049 79.2935C542.491 79.2935 541.229 78.0308 541.229 76.4735C541.229 74.9161 542.491 73.6535 544.049 73.6535C545.606 73.6535 546.867 74.9161 546.867 76.4735Z" fill="#1A2E35"/>
<path d="M564.413 76.4735C564.413 78.0308 563.151 79.2935 561.593 79.2935C560.036 79.2935 558.773 78.0308 558.773 76.4735C558.773 74.9161 560.036 73.6535 561.593 73.6535C563.151 73.6535 564.413 74.9161 564.413 76.4735Z" fill="#1A2E35"/>
</g>
<path d="M793.129 333.243H181.16V31.804H793.129V333.243Z" stroke="#1A2E35" stroke-width="1.33333" stroke-miterlimit="10" stroke-linecap="round" stroke-linejoin="round"/>
<path d="M793.129 333.243H181.16V322.565H793.129V333.243Z" stroke="#1A2E35" stroke-width="1.33333" stroke-miterlimit="10" stroke-linecap="round" stroke-linejoin="round"/>
<path d="M221.096 289.87H86.8548L79.3975 198.315H228.555L221.096 289.87Z" fill="#5AE4A7"/>
<path d="M221.096 289.87H86.8548L79.3975 198.315H228.555L221.096 289.87Z" stroke="#1A2E35" stroke-width="1.33333" stroke-miterlimit="10" stroke-linecap="round" stroke-linejoin="round"/>
<path d="M221.096 296.416H86.8548L79.3975 205.589H228.555L221.096 296.416Z" fill="#1A2E35"/>
<path d="M221.096 296.416H86.8548L79.3975 205.589H228.555L221.096 296.416Z" stroke="#1A2E35" stroke-width="1.33333" stroke-miterlimit="10" stroke-linecap="round" stroke-linejoin="round"/>
<path d="M216.449 521.888H91.1172V224.518H216.449V521.888Z" fill="#5AE4A7" stroke="#1A2E35" stroke-width="1.33333" stroke-miterlimit="10" stroke-linecap="round" stroke-linejoin="round"/>
<path d="M188.557 356.775H116.468V266.663H188.557V356.775Z" stroke="#1A2E35" stroke-width="1.33333" stroke-miterlimit="10" stroke-linecap="round" stroke-linejoin="round"/>
<path d="M233.035 521.888H74.5332V496.75H233.035V521.888Z" fill="#5AE4A7" stroke="#1A2E35" stroke-width="1.33333" stroke-miterlimit="10" stroke-linecap="round" stroke-linejoin="round"/>
<mask id="mask4_324_620" style="mask-type:luminance" maskUnits="userSpaceOnUse" x="0" y="0" width="1000" height="667">
<path d="M0 0.000121117H1000V666.667H0V0.000121117Z" fill="white"/>
</mask>
<g mask="url(#mask4_324_620)">
<path d="M438.983 66.3647C438.983 66.3647 428.376 63.954 420.501 66.686C412.627 69.418 404.271 78.578 405.396 80.6674C406.52 82.7567 412.627 80.506 412.627 80.506C412.627 80.506 407.003 86.1314 407.807 86.9354C408.609 87.738 409.413 88.382 409.413 88.382C409.413 88.382 402.503 95.2914 401.539 103.809C400.575 112.326 404.431 115.862 404.431 115.862L409.252 112.809C409.252 112.809 408.288 120.683 414.073 124.701C419.859 128.718 420.501 126.79 420.501 126.79C420.501 126.79 427.412 136.271 438.661 137.879C449.911 139.486 456.179 138.199 460.357 135.95C464.536 133.701 467.749 130.969 467.749 130.969C467.749 130.969 466.785 134.343 471.124 132.735C475.463 131.129 483.498 121.809 483.498 121.809C483.498 121.809 485.267 124.379 487.516 121.166C489.765 117.951 487.837 104.934 487.837 104.934C487.837 104.934 493.944 106.863 492.659 102.041C491.373 97.2207 485.909 81.4714 480.926 77.614C475.945 73.7567 468.392 71.346 468.392 71.346C468.392 71.346 472.088 72.7927 471.124 70.382C470.16 67.9714 461.643 63.4727 453.607 63.3114C445.572 63.15 443.161 65.722 443.161 65.722C443.161 65.722 441.072 62.6687 439.947 63.954C438.823 65.2394 438.983 66.3647 438.983 66.3647Z" fill="#1A2E35"/>
<path d="M438.983 66.3647C438.983 66.3647 428.376 63.954 420.501 66.686C412.627 69.418 404.271 78.578 405.396 80.6674C406.52 82.7567 412.627 80.506 412.627 80.506C412.627 80.506 407.003 86.1314 407.807 86.9354C408.609 87.738 409.413 88.382 409.413 88.382C409.413 88.382 402.503 95.2914 401.539 103.809C400.575 112.326 404.431 115.862 404.431 115.862L409.252 112.809C409.252 112.809 408.288 120.683 414.073 124.701C419.859 128.718 420.501 126.79 420.501 126.79C420.501 126.79 427.412 136.271 438.661 137.879C449.911 139.486 456.179 138.199 460.357 135.95C464.536 133.701 467.749 130.969 467.749 130.969C467.749 130.969 466.785 134.343 471.124 132.735C475.463 131.129 483.498 121.809 483.498 121.809C483.498 121.809 485.267 124.379 487.516 121.166C489.765 117.951 487.837 104.934 487.837 104.934C487.837 104.934 493.944 106.863 492.659 102.041C491.373 97.2207 485.909 81.4714 480.926 77.614C475.945 73.7567 468.392 71.346 468.392 71.346C468.392 71.346 472.088 72.7927 471.124 70.382C470.16 67.9714 461.643 63.4727 453.607 63.3114C445.572 63.15 443.161 65.722 443.161 65.722C443.161 65.722 441.072 62.6687 439.947 63.954C438.823 65.2394 438.983 66.3647 438.983 66.3647Z" stroke="#1A2E35" stroke-width="1.33333" stroke-miterlimit="10" stroke-linecap="round" stroke-linejoin="round"/>
<path d="M425.429 96.9905C425.429 96.9905 423.09 97.7691 423.479 101.082C423.87 104.396 427.085 109.56 427.085 109.56L425.429 96.9905Z" stroke="#1A2E35" stroke-width="1.33333" stroke-miterlimit="10" stroke-linecap="round" stroke-linejoin="round"/>
<path d="M463.915 96.8927C463.915 96.8927 466.936 96.5034 466.643 100.693C466.351 104.882 463.525 110.241 463.525 110.241L463.915 96.8927Z" stroke="#1A2E35" stroke-width="1.33333" stroke-miterlimit="10" stroke-linecap="round" stroke-linejoin="round"/>
<path d="M394.105 263.755C394.105 263.755 391.666 291.21 398.494 312.477C405.324 333.742 415.286 357.262 415.741 363.734C416.197 370.206 405.562 394.697 408.488 414.478C411.412 434.259 427.368 473.338 428.62 481.707C429.873 490.077 425.378 520.659 425.801 524.083C426.226 527.507 432.99 528.523 435.712 528.497C438.433 528.469 442.146 525.887 442.146 525.887C442.146 525.887 447.038 527.331 451.604 526.687C456.168 526.045 456.426 521.562 455.165 517.394C453.904 513.227 449.077 488.489 448.716 483.117C448.356 477.745 459.605 444.047 461.83 424.751C464.349 402.925 464.464 384.409 465.6 376.335C466.736 368.259 467.3 363.775 467.3 363.775C467.3 363.775 481.238 326.305 485.905 305.95C490.572 285.597 488.824 263.814 488.805 262.022C488.788 260.23 482.185 240.587 482.185 240.587L399.277 239.93L394.105 263.755Z" fill="#1A2E35"/>
<path d="M394.105 263.755C394.105 263.755 391.666 291.21 398.494 312.477C405.324 333.742 415.286 357.262 415.741 363.734C416.197 370.206 405.562 394.697 408.488 414.478C411.412 434.259 427.368 473.338 428.62 481.707C429.873 490.077 425.378 520.659 425.801 524.083C426.226 527.507 432.99 528.523 435.712 528.497C438.433 528.469 442.146 525.887 442.146 525.887C442.146 525.887 447.038 527.331 451.604 526.687C456.168 526.045 456.426 521.562 455.165 517.394C453.904 513.227 449.077 488.489 448.716 483.117C448.356 477.745 459.605 444.047 461.83 424.751C464.349 402.925 464.464 384.409 465.6 376.335C466.736 368.259 467.3 363.775 467.3 363.775C467.3 363.775 481.238 326.305 485.905 305.95C490.572 285.597 488.824 263.814 488.805 262.022C488.788 260.23 482.185 240.587 482.185 240.587L399.277 239.93L394.105 263.755Z" stroke="#1A2E35" stroke-width="1.33333" stroke-miterlimit="10" stroke-linecap="round" stroke-linejoin="round"/>
<path d="M448.716 483.116C448.674 482.475 448.8 481.417 449.054 480.036L440.759 479.912L428.276 480.037C428.431 480.677 428.551 481.247 428.62 481.707C429.872 490.076 425.378 520.659 425.802 524.084C426.226 527.508 432.99 528.524 435.712 528.496C438.434 528.469 442.147 525.887 442.147 525.887C442.147 525.887 447.038 527.331 451.603 526.688C456.168 526.044 456.427 521.563 455.164 517.395C453.903 513.227 449.076 488.488 448.716 483.116Z" fill="#BEBEBE"/>
<path d="M448.716 483.116C448.674 482.475 448.8 481.417 449.054 480.036L440.759 479.912L428.276 480.037C428.431 480.677 428.551 481.247 428.62 481.707C429.872 490.076 425.378 520.659 425.802 524.084C426.226 527.508 432.99 528.524 435.712 528.496C438.434 528.469 442.147 525.887 442.147 525.887C442.147 525.887 447.038 527.331 451.603 526.688C456.168 526.044 456.427 521.563 455.164 517.395C453.903 513.227 449.076 488.488 448.716 483.116Z" stroke="#1A2E35" stroke-width="1.33333" stroke-miterlimit="10" stroke-linecap="round" stroke-linejoin="round"/>
<path d="M455.165 517.395C455.165 517.395 452.224 518.22 448.767 518.593C445.308 518.969 441.66 517.648 441.66 517.648C441.66 517.648 443.412 519.665 443.429 521.363C443.445 523.057 442.147 525.887 442.147 525.887C442.147 525.887 449.549 527.405 452.996 526.015C456.444 524.623 456.761 520.312 455.165 517.395Z" fill="#5AE4A7"/>
<path d="M455.165 517.395C455.165 517.395 452.224 518.22 448.767 518.593C445.308 518.969 441.66 517.648 441.66 517.648C441.66 517.648 443.412 519.665 443.429 521.363C443.445 523.057 442.147 525.887 442.147 525.887C442.147 525.887 449.549 527.405 452.996 526.015C456.444 524.623 456.761 520.312 455.165 517.395Z" stroke="#1A2E35" stroke-width="1.33333" stroke-miterlimit="10" stroke-linecap="round" stroke-linejoin="round"/>
<path d="M442.698 517.638L426.227 517.31C425.893 520.727 425.697 523.237 425.802 524.083C426.226 527.507 432.99 528.523 435.711 528.497C438.433 528.469 442.146 525.887 442.146 525.887C443.907 523.259 442.698 517.638 442.698 517.638Z" fill="#5AE4A7"/>
<path d="M442.698 517.638L426.227 517.31C425.893 520.727 425.697 523.237 425.802 524.083C426.226 527.507 432.99 528.523 435.711 528.497C438.433 528.469 442.146 525.887 442.146 525.887C443.907 523.259 442.698 517.638 442.698 517.638Z" stroke="#1A2E35" stroke-width="1.33333" stroke-miterlimit="10" stroke-linecap="round" stroke-linejoin="round"/>
<path d="M440.76 479.912L441.225 492.214L442.698 517.638" fill="#BEBEBE"/>
<path d="M440.76 479.912L441.225 492.214L442.698 517.638" stroke="#1A2E35" stroke-width="1.33333" stroke-miterlimit="10" stroke-linecap="round" stroke-linejoin="round"/>
<path d="M443.922 299.363C444.11 291.481 444.237 286.029 444.237 286.029" stroke="#888888" stroke-width="1.33333" stroke-miterlimit="10" stroke-linecap="round" stroke-linejoin="round"/>
<path d="M440.256 451.164C440.948 419.253 442.243 360.272 442.435 356.665C442.605 353.48 443.301 325.237 443.776 305.444" stroke="#888888" stroke-width="1.33333" stroke-miterlimit="10" stroke-linecap="round" stroke-linejoin="round"/>
<path d="M439.822 471.294C439.822 471.294 439.94 465.825 440.125 457.274" stroke="#888888" stroke-width="1.33333" stroke-miterlimit="10" stroke-linecap="round" stroke-linejoin="round"/>
<path d="M432.146 278.407L444.553 284.142L453.922 278.03" stroke="#888888" stroke-width="1.33333" stroke-miterlimit="10" stroke-linecap="round" stroke-linejoin="round"/>
<path d="M423.667 141.71C423.667 141.71 439.604 137.383 448.028 137.839C456.452 138.294 463.055 141.255 463.055 141.255C463.055 141.255 466.926 157.647 467.836 177.227C468.747 196.807 466.243 239.155 465.332 245.53C464.422 251.904 463.966 255.547 463.966 255.547C463.966 255.547 448.256 246.896 442.564 246.668C436.872 246.44 425.26 250.766 425.26 250.766C425.26 250.766 420.707 219.575 420.024 198.628C419.342 177.682 421.163 147.402 421.163 147.402L423.667 141.71Z" fill="white"/>
<path d="M423.667 141.71C423.667 141.71 439.604 137.383 448.028 137.839C456.452 138.294 463.055 141.255 463.055 141.255C463.055 141.255 466.926 157.647 467.836 177.227C468.747 196.807 466.243 239.155 465.332 245.53C464.422 251.904 463.966 255.547 463.966 255.547C463.966 255.547 448.256 246.896 442.564 246.668C436.872 246.44 425.26 250.766 425.26 250.766C425.26 250.766 420.707 219.575 420.024 198.628C419.342 177.682 421.163 147.402 421.163 147.402L423.667 141.71Z" stroke="#1A2E35" stroke-width="1.33333" stroke-miterlimit="10" stroke-linecap="round" stroke-linejoin="round"/>
<path d="M431.694 230.576L453.673 213.074" stroke="#1A2E35" stroke-width="1.33333" stroke-miterlimit="10" stroke-linecap="round" stroke-linejoin="round"/>
<path d="M459.779 201.269L449.604 210.224" stroke="#1A2E35" stroke-width="1.33333" stroke-miterlimit="10" stroke-linecap="round" stroke-linejoin="round"/>
<path d="M433.38 124.378L431.127 140.643C431.127 140.643 435.046 150.835 445.63 151.128C456.212 151.423 461.503 140.055 461.503 140.055L457.486 123.103L433.38 124.378Z" fill="#BEBEBE"/>
<path d="M433.38 124.378L431.127 140.643C431.127 140.643 435.046 150.835 445.63 151.128C456.212 151.423 461.503 140.055 461.503 140.055L457.486 123.103L433.38 124.378Z" stroke="#1A2E35" stroke-width="1.33333" stroke-miterlimit="10" stroke-linecap="round" stroke-linejoin="round"/>
<path d="M435.156 126.223L432.94 137.995L445.267 130.794L435.156 126.223Z" fill="#1A2E35"/>
<path d="M435.156 126.223L432.94 137.995L445.267 130.794L435.156 126.223Z" stroke="#1A2E35" stroke-width="1.33333" stroke-miterlimit="10" stroke-linecap="round" stroke-linejoin="round"/>
<path d="M440.861 78.9148C440.861 78.9148 436.19 79.2814 431.336 82.9441C426.481 86.6094 426.948 93.5694 427.038 98.7894C427.13 104.011 428.356 118.127 430.309 121.708C432.262 125.291 439.889 131.247 444.286 131.409C448.682 131.572 458.617 124.947 460.408 119.411C462.2 113.875 464.501 99.4014 463.036 90.9348C461.57 82.4694 453.104 80.3521 453.104 80.3521C453.104 80.3521 453.429 83.4454 452.126 82.7948C450.825 82.1428 440.861 78.9148 440.861 78.9148Z" fill="#BEBEBE"/>
<path d="M440.861 78.9148C440.861 78.9148 436.19 79.2814 431.336 82.9441C426.481 86.6094 426.948 93.5694 427.038 98.7894C427.13 104.011 428.356 118.127 430.309 121.708C432.262 125.291 439.889 131.247 444.286 131.409C448.682 131.572 458.617 124.947 460.408 119.411C462.2 113.875 464.501 99.4014 463.036 90.9348C461.57 82.4694 453.104 80.3521 453.104 80.3521C453.104 80.3521 453.429 83.4454 452.126 82.7948C450.825 82.1428 440.861 78.9148 440.861 78.9148Z" stroke="#1A2E35" stroke-width="1.33333" stroke-miterlimit="10" stroke-linecap="round" stroke-linejoin="round"/>
<path d="M442.035 108.903C442.035 108.903 441.755 110.623 442.492 111.177C443.231 111.731 444.777 111.672 445.885 111.303C446.993 110.933 447.141 108.816 447.141 108.539" stroke="#1A2E35" stroke-width="1.33333" stroke-miterlimit="10" stroke-linecap="round" stroke-linejoin="round"/>
<path d="M435.789 114.555C435.789 114.555 444.9 116.385 452.86 113.739C452.86 113.739 450.361 119.307 445.08 120.793C439.798 122.279 435.789 114.555 435.789 114.555Z" fill="white"/>
<path d="M435.789 114.555C435.789 114.555 444.9 116.385 452.86 113.739C452.86 113.739 450.361 119.307 445.08 120.793C439.798 122.279 435.789 114.555 435.789 114.555Z" stroke="#1A2E35" stroke-width="1.33333" stroke-miterlimit="10" stroke-linecap="round" stroke-linejoin="round"/>
<path d="M430.457 95.6558C430.457 95.6558 433.901 93.0371 437.346 94.4158" stroke="#1A2E35" stroke-width="1.33333" stroke-miterlimit="10" stroke-linecap="round" stroke-linejoin="round"/>
<path d="M452.09 94.9662C452.09 94.9662 456.775 95.2422 458.015 96.8955" stroke="#1A2E35" stroke-width="1.33333" stroke-miterlimit="10" stroke-linecap="round" stroke-linejoin="round"/>
<path d="M437.468 101.994C437.468 103.27 436.95 104.302 436.313 104.302C435.676 104.302 435.158 103.27 435.158 101.994C435.158 100.719 435.676 99.6855 436.313 99.6855C436.95 99.6855 437.468 100.719 437.468 101.994Z" fill="#1A2E35"/>
<path d="M452.355 101.994C452.355 103.276 451.835 104.316 451.194 104.316C450.552 104.316 450.032 103.276 450.032 101.994C450.032 100.712 450.552 99.6724 451.194 99.6724C451.835 99.6724 452.355 100.712 452.355 101.994Z" fill="#1A2E35"/>
<path d="M425.771 98.9623L427.287 106.128C427.287 106.128 435.003 106.954 441.342 105.025L442.813 97.7223C442.813 97.7223 431.971 94.829 425.771 98.9623Z" stroke="#1A2E35" stroke-width="1.33333" stroke-miterlimit="10" stroke-linecap="round" stroke-linejoin="round"/>
<path d="M463.25 98.9623L461.734 106.128C461.734 106.128 454.018 106.954 447.68 105.025L446.209 97.7223C446.209 97.7223 457.05 94.829 463.25 98.9623Z" stroke="#1A2E35" stroke-width="1.33333" stroke-miterlimit="10" stroke-linecap="round" stroke-linejoin="round"/>
<path d="M442.812 97.7222C442.812 97.7222 445.579 97.4568 446.209 97.7222" stroke="#1A2E35" stroke-width="1.33333" stroke-miterlimit="10" stroke-linecap="round" stroke-linejoin="round"/>
<path d="M431.56 138.895C431.56 138.895 419.164 142.073 411.608 143.472C404.053 144.871 398.4 146.451 397.281 148.689C396.162 150.927 380.072 206.613 381.192 210.811C382.31 215.008 385.249 216.547 389.865 218.505C394.482 220.465 398.26 221.024 398.26 221.024C398.26 221.024 387.626 266.636 388.186 268.455C388.746 270.275 397.701 279.089 410.573 279.788C423.445 280.488 428.202 279.788 428.901 268.035C429.601 256.283 425.544 222.983 425.544 222.983C425.544 222.983 424.004 201.996 424.004 184.927C424.004 167.857 431.56 138.895 431.56 138.895Z" fill="#5AE4A7"/>
<path d="M431.56 138.895C431.56 138.895 419.164 142.073 411.608 143.472C404.053 144.871 398.4 146.451 397.281 148.689C396.162 150.927 380.072 206.613 381.192 210.811C382.31 215.008 385.249 216.547 389.865 218.505C394.482 220.465 398.26 221.024 398.26 221.024C398.26 221.024 387.626 266.636 388.186 268.455C388.746 270.275 397.701 279.089 410.573 279.788C423.445 280.488 428.202 279.788 428.901 268.035C429.601 256.283 425.544 222.983 425.544 222.983C425.544 222.983 424.004 201.996 424.004 184.927C424.004 167.857 431.56 138.895 431.56 138.895Z" stroke="#1A2E35" stroke-width="1.33333" stroke-miterlimit="10" stroke-linecap="round" stroke-linejoin="round"/>
<path d="M408.983 158.747C408.983 158.747 401.584 184.286 400.391 191.685C399.197 199.083 398.004 217.701 398.004 217.701" stroke="#1A2E35" stroke-width="1.33333" stroke-miterlimit="10" stroke-linecap="round" stroke-linejoin="round"/>
<path d="M445.3 149.68L436.423 147.929L438.595 141.595L445.696 142.995L445.3 149.68Z" fill="#1A2E35"/>
<path d="M444.094 155.794L435.218 154.044L436.502 147.534L445.378 149.285L444.094 155.794Z" fill="#1A2E35"/>
<path d="M437.818 182.935L430.717 181.535L435.185 154.203L444.062 155.953L437.818 182.935Z" fill="#616161"/>
<path d="M437.818 182.935L430.717 181.535L435.185 154.203L444.062 155.953L437.818 182.935Z" stroke="#1A2E35" stroke-width="1.33333" stroke-miterlimit="10" stroke-linecap="round" stroke-linejoin="round"/>
<path d="M445.266 150.297L436.304 148.529L436.501 147.534L445.462 149.302L445.266 150.297Z" fill="white"/>
<path d="M445.266 150.297L436.304 148.529L436.501 147.534L445.462 149.302L445.266 150.297Z" stroke="#1A2E35" stroke-width="0.666667" stroke-miterlimit="10" stroke-linecap="round" stroke-linejoin="round"/>
<path d="M410.379 187.789L421.023 180.525C421.023 180.525 431.471 156.879 432.426 156.013C433.38 155.146 443.792 157.583 444.451 157.949C445.11 158.313 445.56 159.215 445.456 160.049C445.351 160.882 445.003 162.53 445.003 162.53C445.003 162.53 444.879 164.63 444.792 165.323C444.706 166.018 444.166 168.066 444.096 168.621C444.026 169.177 443.678 170.823 443.678 170.823C443.678 170.823 446.488 172.023 447.702 173.587C448.915 175.15 448.43 175.651 447.422 175.807C446.415 175.963 444.698 175.042 444.004 174.955C443.31 174.867 436.942 173.926 435.327 174.427C433.712 174.929 433.52 177.585 431.608 180.446C429.698 183.309 426.33 185.423 426.33 185.423L414.238 203.081L410.379 187.789Z" fill="#BEBEBE"/>
<path d="M410.379 187.789L421.023 180.525C421.023 180.525 431.471 156.879 432.426 156.013C433.38 155.146 443.792 157.583 444.451 157.949C445.11 158.313 445.56 159.215 445.456 160.049C445.351 160.882 445.003 162.53 445.003 162.53C445.003 162.53 444.879 164.63 444.792 165.323C444.706 166.018 444.166 168.066 444.096 168.621C444.026 169.177 443.678 170.823 443.678 170.823C443.678 170.823 446.488 172.023 447.702 173.587C448.915 175.15 448.43 175.651 447.422 175.807C446.415 175.963 444.698 175.042 444.004 174.955C443.31 174.867 436.942 173.926 435.327 174.427C433.712 174.929 433.52 177.585 431.608 180.446C429.698 183.309 426.33 185.423 426.33 185.423L414.238 203.081L410.379 187.789Z" stroke="#1A2E35" stroke-width="1.33333" stroke-miterlimit="10" stroke-linecap="round" stroke-linejoin="round"/>
<path d="M443.677 170.824C443.677 170.824 440.112 170.469 438.505 170.268C436.9 170.065 433.437 168.949 432.249 169.752" stroke="#1A2E35" stroke-width="1.33333" stroke-miterlimit="10" stroke-linecap="round" stroke-linejoin="round"/>
<path d="M431.775 165.41C431.985 165.368 440.482 166.437 442.081 166.706C443.678 166.974 444.179 167.31 444.179 167.31" stroke="#1A2E35" stroke-width="1.33333" stroke-miterlimit="10" stroke-linecap="round" stroke-linejoin="round"/>
<path d="M444.684 163.295C444.684 163.295 437.927 161.902 435.962 161.315C433.995 160.727 432.364 160.726 431.82 161.268" stroke="#1A2E35" stroke-width="1.33333" stroke-miterlimit="10" stroke-linecap="round" stroke-linejoin="round"/>
<path d="M412.375 185.519L417.653 204.52C417.653 204.52 402.925 227.508 396.092 230.15C389.257 232.791 382.591 231.452 380.748 226.219C378.905 220.987 378.317 212.41 381.152 208.432C383.985 204.454 412.375 185.519 412.375 185.519Z" fill="#5AE4A7"/>
<path d="M412.375 185.519L417.653 204.52C417.653 204.52 402.925 227.508 396.092 230.15C389.257 232.791 382.591 231.452 380.748 226.219C378.905 220.987 378.317 212.41 381.152 208.432C383.985 204.454 412.375 185.519 412.375 185.519Z" stroke="#1A2E35" stroke-width="1.33333" stroke-miterlimit="10" stroke-linecap="round" stroke-linejoin="round"/>
<path d="M504.692 191.446L509.943 178.557C509.943 178.557 511.852 170.203 512.808 168.057C513.763 165.907 524.98 162.566 525.696 162.327C526.412 162.089 531.186 157.793 531.902 160.657C532.618 163.521 532.38 163.998 530.231 165.191C528.083 166.385 523.548 169.01 523.548 169.01C523.548 169.01 538.584 167.578 539.54 167.578C540.495 167.578 549.803 166.863 548.132 170.681C546.462 174.501 542.643 179.274 539.54 180.945C536.438 182.615 517.104 187.627 517.104 187.627L511.376 198.845L504.692 191.446Z" fill="#BEBEBE"/>
<path d="M504.692 191.446L509.943 178.557C509.943 178.557 511.852 170.203 512.808 168.057C513.763 165.907 524.98 162.566 525.696 162.327C526.412 162.089 531.186 157.793 531.902 160.657C532.618 163.521 532.38 163.998 530.231 165.191C528.083 166.385 523.548 169.01 523.548 169.01C523.548 169.01 538.584 167.578 539.54 167.578C540.495 167.578 549.803 166.863 548.132 170.681C546.462 174.501 542.643 179.274 539.54 180.945C536.438 182.615 517.104 187.627 517.104 187.627L511.376 198.845L504.692 191.446Z" stroke="#1A2E35" stroke-width="1.33333" stroke-miterlimit="10" stroke-linecap="round" stroke-linejoin="round"/>
<path d="M548.606 169.157C548.606 169.157 545.492 160.504 544.54 161.109C543.586 161.716 543.501 162.321 543.933 163.62C544.366 164.917 546.097 170.283 546.097 170.543C546.097 170.801 548.433 172.532 548.606 169.157Z" fill="#BEBEBE"/>
<path d="M548.606 169.157C548.606 169.157 545.492 160.504 544.54 161.109C543.586 161.716 543.501 162.321 543.933 163.62C544.366 164.917 546.097 170.283 546.097 170.543C546.097 170.801 548.433 172.532 548.606 169.157Z" stroke="#1A2E35" stroke-width="1.33333" stroke-miterlimit="10" stroke-linecap="round" stroke-linejoin="round"/>
<path d="M544.652 175.859C544.652 175.859 547.831 173.244 548.132 170.682C548.434 168.119 548.607 164.138 548.175 162.582C547.74 161.023 545.632 162.738 545.995 163.611C546.356 164.484 544.68 174.252 544.652 175.859Z" fill="#BEBEBE"/>
<path d="M544.652 175.859C544.652 175.859 547.831 173.244 548.132 170.682C548.434 168.119 548.607 164.138 548.175 162.582C547.74 161.023 545.632 162.738 545.995 163.611C546.356 164.484 544.68 174.252 544.652 175.859Z" stroke="#1A2E35" stroke-width="1.33333" stroke-miterlimit="10" stroke-linecap="round" stroke-linejoin="round"/>
<path d="M540.04 181.098C540.04 181.098 544.484 176.529 544.652 175.858C544.82 175.188 547.337 163.276 545.995 163.61C544.652 163.946 543.143 166.294 542.807 168.309C542.471 170.321 540.04 181.098 540.04 181.098Z" fill="#BEBEBE"/>
<path d="M540.04 181.098C540.04 181.098 544.484 176.529 544.652 175.858C544.82 175.188 547.337 163.276 545.995 163.61C544.652 163.946 543.143 166.294 542.807 168.309C542.471 170.321 540.04 181.098 540.04 181.098Z" stroke="#1A2E35" stroke-width="1.33333" stroke-miterlimit="10" stroke-linecap="round" stroke-linejoin="round"/>
<path d="M515.795 182.738C515.795 182.738 518.143 179.55 520.324 178.543C522.506 177.536 536.934 177.034 536.934 177.034C536.934 177.034 542.135 164.45 542.807 166.799C543.478 169.147 540.467 179.99 539.54 180.944C538.612 181.899 524.015 186.094 520.995 186.764" fill="#BEBEBE"/>
<path d="M515.795 182.738C515.795 182.738 518.143 179.55 520.324 178.543C522.506 177.536 536.934 177.034 536.934 177.034C536.934 177.034 542.135 164.45 542.807 166.799C543.478 169.147 540.467 179.99 539.54 180.944C538.612 181.899 524.015 186.094 520.995 186.764" stroke="#1A2E35" stroke-width="1.33333" stroke-miterlimit="10" stroke-linecap="round" stroke-linejoin="round"/>
<path d="M461.504 140.056C461.504 140.056 465.788 169.488 465.549 196.936C465.311 224.385 457.196 260.425 456.719 266.63C456.241 272.836 456.003 277.61 463.64 280.234C471.279 282.861 478.439 279.28 485.36 274.745C492.281 270.21 493.713 266.392 493.713 266.392L483.928 228.918C483.928 228.918 494.191 237.034 500.396 228.442C506.603 219.849 514.956 199.084 514.956 199.084L506.125 188.582L495.863 198.845C495.863 198.845 489.656 149.44 487.985 147.769C486.315 146.098 484.167 145.86 483.212 145.86C482.257 145.86 461.504 140.056 461.504 140.056Z" fill="#5AE4A7"/>
<path d="M461.504 140.056C461.504 140.056 465.788 169.488 465.549 196.936C465.311 224.385 457.196 260.425 456.719 266.63C456.241 272.836 456.003 277.61 463.64 280.234C471.279 282.861 478.439 279.28 485.36 274.745C492.281 270.21 493.713 266.392 493.713 266.392L483.928 228.918C483.928 228.918 494.191 237.034 500.396 228.442C506.603 219.849 514.956 199.084 514.956 199.084L506.125 188.582L495.863 198.845C495.863 198.845 489.656 149.44 487.985 147.769C486.315 146.098 484.167 145.86 483.212 145.86C482.257 145.86 461.504 140.056 461.504 140.056Z" stroke="#1A2E35" stroke-width="1.33333" stroke-miterlimit="10" stroke-linecap="round" stroke-linejoin="round"/>
<path d="M495.862 198.845L487.731 206.143" stroke="#1A2E35" stroke-width="1.33333" stroke-miterlimit="10" stroke-linecap="round" stroke-linejoin="round"/>
<path d="M481.118 171.897C483.122 181.891 485.747 196.245 485.598 202.187C485.359 211.734 483.927 228.919 483.927 228.919" stroke="#1A2E35" stroke-width="1.33333" stroke-miterlimit="10" stroke-linecap="round" stroke-linejoin="round"/>
<path d="M478.915 161.373C478.915 161.373 479.404 163.58 480.116 167" stroke="#1A2E35" stroke-width="1.33333" stroke-miterlimit="10" stroke-linecap="round" stroke-linejoin="round"/>
</g>
<mask id="mask5_324_620" style="mask-type:luminance" maskUnits="userSpaceOnUse" x="0" y="0" width="1000" height="667">
<path d="M0 0.000121117H1000V666.667H0V0.000121117Z" fill="white"/>
</mask>
<g mask="url(#mask5_324_620)">
<path d="M930.837 634.892L923.233 580.668V544.528H941.128C941.128 544.528 944.988 549.791 946.04 558.212C946.957 565.541 952.125 620.711 953.451 634.892H930.837Z" fill="white"/>
<path d="M930.837 634.892L923.233 580.668V544.528H941.128C941.128 544.528 944.988 549.791 946.04 558.212C946.957 565.541 952.125 620.711 953.451 634.892H930.837Z" stroke="#1A2E35" stroke-width="1.33333" stroke-miterlimit="10" stroke-linecap="round" stroke-linejoin="round"/>
<path d="M795.12 634.892C796.444 620.711 801.613 565.541 802.529 558.212C803.583 549.791 807.441 544.528 807.441 544.528H825.336V580.668L817.732 634.892H795.12Z" fill="white"/>
<path d="M795.12 634.892C796.444 620.711 801.613 565.541 802.529 558.212C803.583 549.791 807.441 544.528 807.441 544.528H825.336V580.668L817.732 634.892H795.12Z" stroke="#1A2E35" stroke-width="1.33333" stroke-miterlimit="10" stroke-linecap="round" stroke-linejoin="round"/>
<path d="M942.883 561.019C939.022 568.037 934.111 569.09 935.163 570.493C936.217 571.897 940.077 576.458 937.269 581.019C934.462 585.581 929.55 589.439 928.497 590.493C927.615 591.375 923.046 624.222 921.581 634.891H828.393C826.927 624.222 822.358 591.375 821.477 590.493C820.425 589.439 815.513 585.581 812.705 581.019C809.898 576.458 813.758 571.897 814.81 570.493C815.862 569.09 810.951 568.037 807.09 561.019C803.231 554.001 807.793 552.247 807.793 548.386C807.793 544.527 804.285 542.422 806.038 537.861C807.793 533.299 814.459 535.053 816.565 535.405C818.67 535.755 819.022 536.106 826.741 534.351C834.461 532.598 855.514 522.422 855.514 522.422L864.986 521.745V520.317L874.986 521.031L884.987 520.317V521.745L894.462 522.422C894.462 522.422 915.514 532.598 923.234 534.351C930.953 536.106 931.303 535.755 933.41 535.405C935.515 535.053 942.182 533.299 943.935 537.861C945.69 542.422 942.182 544.527 942.182 548.386C942.182 552.247 946.743 554.001 942.883 561.019Z" fill="#636363"/>
<path d="M942.883 561.019C939.022 568.037 934.111 569.09 935.163 570.493C936.217 571.897 940.077 576.458 937.269 581.019C934.462 585.581 929.55 589.439 928.497 590.493C927.615 591.375 923.046 624.222 921.581 634.891H828.393C826.927 624.222 822.358 591.375 821.477 590.493C820.425 589.439 815.513 585.581 812.705 581.019C809.898 576.458 813.758 571.897 814.81 570.493C815.862 569.09 810.951 568.037 807.09 561.019C803.231 554.001 807.793 552.247 807.793 548.386C807.793 544.527 804.285 542.422 806.038 537.861C807.793 533.299 814.459 535.053 816.565 535.405C818.67 535.755 819.022 536.106 826.741 534.351C834.461 532.598 855.514 522.422 855.514 522.422L864.986 521.745V520.317L874.986 521.031L884.987 520.317V521.745L894.462 522.422C894.462 522.422 915.514 532.598 923.234 534.351C930.953 536.106 931.303 535.755 933.41 535.405C935.515 535.053 942.182 533.299 943.935 537.861C945.69 542.422 942.182 544.527 942.182 548.386C942.182 552.247 946.743 554.001 942.883 561.019Z" stroke="#1A2E35" stroke-width="1.33333" stroke-miterlimit="10" stroke-linecap="round" stroke-linejoin="round"/>
<path d="M826.498 634.892L824.607 581.957C872.937 590.245 924.289 581.957 924.289 581.957L922.877 634.892H826.498Z" fill="#1A2E35"/>
<path d="M826.498 634.892L824.607 581.957C872.937 590.245 924.289 581.957 924.289 581.957L922.877 634.892H826.498Z" stroke="#1A2E35" stroke-width="1.33333" stroke-miterlimit="10" stroke-linecap="round" stroke-linejoin="round"/>
<path d="M853.456 449.81C853.456 449.81 849.545 455.985 849.34 460.511C849.135 465.041 849.135 468.127 847.693 469.567C846.253 471.009 843.988 471.215 845.223 473.478C846.459 475.742 847.899 477.389 847.899 477.389C847.899 477.389 849.752 484.798 851.192 488.091C852.633 491.385 853.251 495.911 854.484 497.146C855.719 498.382 858.6 498.587 858.6 498.587L859.836 507.847L868.48 496.941L860.041 445.077L853.456 449.81Z" fill="white"/>
<path d="M853.456 449.81C853.456 449.81 849.545 455.985 849.34 460.511C849.135 465.041 849.135 468.127 847.693 469.567C846.253 471.009 843.988 471.215 845.223 473.478C846.459 475.742 847.899 477.389 847.899 477.389C847.899 477.389 849.752 484.798 851.192 488.091C852.633 491.385 853.251 495.911 854.484 497.146C855.719 498.382 858.6 498.587 858.6 498.587L859.836 507.847L868.48 496.941L860.041 445.077L853.456 449.81Z" stroke="#1A2E35" stroke-width="1.33333" stroke-miterlimit="10" stroke-linecap="round" stroke-linejoin="round"/>
<path d="M882.175 433.643C882.175 433.643 891.679 432.724 899.651 445.907C907.623 459.092 905.783 477.182 902.103 485.767C898.426 494.352 890.147 504.47 880.028 506.004C869.911 507.536 859.179 501.711 852.74 483.007C846.302 464.304 853.659 443.455 859.792 438.243C865.924 433.031 875.123 430.578 882.175 433.643Z" fill="#BEBEBE"/>
<path d="M882.175 433.643C882.175 433.643 891.679 432.724 899.651 445.907C907.623 459.092 905.783 477.182 902.103 485.767C898.426 494.352 890.147 504.47 880.028 506.004C869.911 507.536 859.179 501.711 852.74 483.007C846.302 464.304 853.659 443.455 859.792 438.243C865.924 433.031 875.123 430.578 882.175 433.643Z" stroke="#1A2E35" stroke-width="1.33333" stroke-miterlimit="10" stroke-linecap="round" stroke-linejoin="round"/>
<path d="M886.16 461.546C886.16 461.546 909.768 483.927 907.623 504.778C905.476 525.627 894.744 524.094 895.971 539.423C897.198 554.754 907.93 559.047 906.396 569.164C904.863 579.283 899.651 586.335 892.906 589.707C886.16 593.08 881.562 593.08 881.562 593.08L882.788 585.108C882.788 585.108 876.962 592.774 868.684 591.24C860.405 589.707 855.499 583.575 853.966 578.976L852.432 574.378C852.432 574.378 857.952 574.991 859.484 567.631C861.019 560.274 853.659 556.594 850.9 550.155C848.14 543.716 845.075 529.919 850.287 515.815C855.499 501.711 865.309 497.418 868.376 483.927C871.443 470.436 871.748 460.319 876.962 457.252C882.175 454.186 886.16 461.546 886.16 461.546Z" fill="#BEBEBE"/>
<path d="M886.16 461.546C886.16 461.546 909.768 483.927 907.623 504.778C905.476 525.627 894.744 524.094 895.971 539.423C897.198 554.754 907.93 559.047 906.396 569.164C904.863 579.283 899.651 586.335 892.906 589.707C886.16 593.08 881.562 593.08 881.562 593.08L882.788 585.108C882.788 585.108 876.962 592.774 868.684 591.24C860.405 589.707 855.499 583.575 853.966 578.976L852.432 574.378C852.432 574.378 857.952 574.991 859.484 567.631C861.019 560.274 853.659 556.594 850.9 550.155C848.14 543.716 845.075 529.919 850.287 515.815C855.499 501.711 865.309 497.418 868.376 483.927C871.443 470.436 871.748 460.319 876.962 457.252C882.175 454.186 886.16 461.546 886.16 461.546Z" stroke="#1A2E35" stroke-width="1.33333" stroke-miterlimit="10" stroke-linecap="round" stroke-linejoin="round"/>
<path d="M883.708 580.815C883.708 580.815 890.147 577.443 886.161 560.579C882.176 543.716 872.976 544.33 879.109 525.32C885.24 506.31 893.827 497.418 891.373 483.314C888.92 469.211 881.563 461.851 881.563 461.851" stroke="#1A2E35" stroke-width="1.33333" stroke-miterlimit="10" stroke-linecap="round" stroke-linejoin="round"/>
<path d="M863.164 586.948C863.164 586.948 872.056 586.948 870.216 573.764C868.376 560.58 855.192 562.725 850.9 550.154" stroke="#1A2E35" stroke-width="1.33333" stroke-miterlimit="10" stroke-linecap="round" stroke-linejoin="round"/>
<path d="M876.349 464.611C876.349 464.611 882.175 473.809 875.736 494.353C869.297 514.895 855.807 519.801 856.725 536.359C857.647 552.915 865.004 557.513 865.004 557.513" stroke="#1A2E35" stroke-width="1.33333" stroke-miterlimit="10" stroke-linecap="round" stroke-linejoin="round"/>
<path d="M882.175 437.017C882.175 437.017 883.4 446.214 880.948 453.268" stroke="#1A2E35" stroke-width="1.33333" stroke-miterlimit="10" stroke-linecap="round" stroke-linejoin="round"/>
<path d="M872.975 458.173C872.975 458.173 860.711 458.478 853.353 456.026" stroke="#1A2E35" stroke-width="1.33333" stroke-miterlimit="10" stroke-linecap="round" stroke-linejoin="round"/>
<path d="M853.659 478.715C853.659 478.715 863.471 480.555 868.99 474.116" stroke="#1A2E35" stroke-width="1.33333" stroke-miterlimit="10" stroke-linecap="round" stroke-linejoin="round"/>
<path d="M901.492 453.88C901.492 453.88 895.053 462.464 886.161 461.545" stroke="#1A2E35" stroke-width="1.33333" stroke-miterlimit="10" stroke-linecap="round" stroke-linejoin="round"/>
</g>
<mask id="mask6_324_620" style="mask-type:luminance" maskUnits="userSpaceOnUse" x="0" y="0" width="1000" height="667">
<path d="M0 0.000121117H1000V666.667H0V0.000121117Z" fill="white"/>
</mask>
<g mask="url(#mask6_324_620)">
<path d="M776.435 634.892C774.607 617.664 767.311 548.619 767.311 544.676C767.311 540.168 758.837 538.197 753.275 534.533C747.713 530.872 722.024 513.689 722.024 513.689L695.013 512.844L668 513.689C668 513.689 642.311 530.872 636.749 534.533C631.188 538.197 622.713 540.168 622.713 544.676C622.713 548.619 615.417 617.664 613.591 634.892H776.435Z" fill="#BEBEBE"/>
<path d="M776.435 634.892C774.607 617.664 767.311 548.619 767.311 544.676C767.311 540.168 758.837 538.197 753.275 534.533C747.713 530.872 722.024 513.689 722.024 513.689L695.013 512.844L668 513.689C668 513.689 642.311 530.872 636.749 534.533C631.188 538.197 622.713 540.168 622.713 544.676C622.713 548.619 615.417 617.664 613.591 634.892H776.435Z" stroke="#1A2E35" stroke-width="1.33333" stroke-miterlimit="10" stroke-linecap="round" stroke-linejoin="round"/>
<path d="M629.237 546.366C629.237 546.366 639.377 570.872 643.885 577.351" stroke="#1A2E35" stroke-width="1.33333" stroke-miterlimit="10" stroke-linecap="round" stroke-linejoin="round"/>
<path d="M630.927 565.802L638.532 577.07" stroke="#1A2E35" stroke-width="1.33333" stroke-miterlimit="10" stroke-linecap="round" stroke-linejoin="round"/>
<path d="M758.254 553.126L745.576 578.761" stroke="#1A2E35" stroke-width="1.33333" stroke-miterlimit="10" stroke-linecap="round" stroke-linejoin="round"/>
<path d="M755.155 568.056L749.521 577.071" stroke="#1A2E35" stroke-width="1.33333" stroke-miterlimit="10" stroke-linecap="round" stroke-linejoin="round"/>
<path d="M678.399 484.18L676.223 509.197H716.903L712.552 485.268L678.399 484.18Z" fill="white"/>
<path d="M678.399 484.18L676.223 509.197H716.903L712.552 485.268L678.399 484.18Z" stroke="#1A2E35" stroke-width="1.33333" stroke-miterlimit="10" stroke-linecap="round" stroke-linejoin="round"/>
<path d="M670.566 460.506C670.566 460.506 663.727 458.228 664.869 467.345C666.007 476.462 675.125 481.876 675.125 481.876L670.566 460.506Z" fill="white"/>
<path d="M670.566 460.506C670.566 460.506 663.727 458.228 664.869 467.345C666.007 476.462 675.125 481.876 675.125 481.876L670.566 460.506Z" stroke="#1A2E35" stroke-width="1.33333" stroke-miterlimit="10" stroke-linecap="round" stroke-linejoin="round"/>
<path d="M722.103 460.506C722.103 460.506 728.941 458.228 727.801 467.345C726.663 476.462 717.544 481.876 717.544 481.876L722.103 460.506Z" fill="white"/>
<path d="M722.103 460.506C722.103 460.506 728.941 458.228 727.801 467.345C726.663 476.462 717.544 481.876 717.544 481.876L722.103 460.506Z" stroke="#1A2E35" stroke-width="1.33333" stroke-miterlimit="10" stroke-linecap="round" stroke-linejoin="round"/>
<path d="M724.702 443.982C724.416 441.987 717.008 431.446 713.019 429.451C709.031 427.455 705.327 425.176 700.768 431.16C700.768 431.16 700.624 431.062 700.378 430.896C700.678 430.4 700.644 429.964 700.644 429.964C700.644 429.964 698.158 422.314 693.566 420.4C688.976 418.488 679.795 421.55 677.118 428.243C677.05 428.411 677.018 428.54 676.963 428.694C673.802 431.038 670.882 434.764 669.142 440.563C665.723 451.959 667.147 452.814 668.286 453.67C669.427 454.523 668.003 463.071 669.427 469.624C670.851 476.176 675.98 487.574 686.807 492.418C697.634 497.262 707.606 493.274 710.171 491.564C712.734 489.854 722.707 473.898 723.562 468.77C724.416 463.64 721.283 451.104 721.283 451.104C721.283 451.104 724.987 445.975 724.702 443.982Z" fill="#1A2E35"/>
<path d="M724.702 443.982C724.416 441.987 717.008 431.446 713.019 429.451C709.031 427.455 705.327 425.176 700.768 431.16C700.768 431.16 700.624 431.062 700.378 430.896C700.678 430.4 700.644 429.964 700.644 429.964C700.644 429.964 698.158 422.314 693.566 420.4C688.976 418.488 679.795 421.55 677.118 428.243C677.05 428.411 677.018 428.54 676.963 428.694C673.802 431.038 670.882 434.764 669.142 440.563C665.723 451.959 667.147 452.814 668.286 453.67C669.427 454.523 668.003 463.071 669.427 469.624C670.851 476.176 675.98 487.574 686.807 492.418C697.634 497.262 707.606 493.274 710.171 491.564C712.734 489.854 722.707 473.898 723.562 468.77C724.416 463.64 721.283 451.104 721.283 451.104C721.283 451.104 724.987 445.975 724.702 443.982Z" stroke="#1A2E35" stroke-width="1.33333" stroke-miterlimit="10" stroke-linecap="round" stroke-linejoin="round"/>
<path d="M668.076 502.888L662.282 517.681L726.692 517.028L719.509 503.323L668.076 502.888Z" fill="#BEBEBE"/>
<path d="M668.076 502.888L662.282 517.681L726.692 517.028L719.509 503.323L668.076 502.888Z" stroke="#1A2E35" stroke-width="1.33333" stroke-miterlimit="10" stroke-linecap="round" stroke-linejoin="round"/>
<path d="M747.971 634.892L750.084 581.015C695.999 589.465 638.532 581.015 638.532 581.015L640.11 634.892H747.971Z" fill="#1A2E35"/>
<path d="M747.971 634.892L750.084 581.015C695.999 589.465 638.532 581.015 638.532 581.015L640.11 634.892H747.971Z" stroke="#1A2E35" stroke-width="1.33333" stroke-miterlimit="10" stroke-linecap="round" stroke-linejoin="round"/>
</g>
<mask id="mask7_324_620" style="mask-type:luminance" maskUnits="userSpaceOnUse" x="0" y="0" width="1000" height="667">
<path d="M0 0.000121117H1000V666.667H0V0.000121117Z" fill="white"/>
</mask>
<g mask="url(#mask7_324_620)">
<path d="M580.313 634.892C581.893 617.664 588.197 548.619 588.197 544.676C588.197 540.168 579.722 538.197 574.161 534.533C568.6 530.872 542.91 513.689 542.91 513.689L515.897 512.844L488.885 513.689C488.885 513.689 463.197 530.872 457.636 534.533C452.073 538.197 443.6 540.168 443.6 544.676C443.6 548.619 447.213 617.664 448.118 634.892H580.313Z" fill="white"/>
<path d="M580.313 634.892C581.893 617.664 588.197 548.619 588.197 544.676C588.197 540.168 579.722 538.197 574.161 534.533C568.6 530.872 542.91 513.689 542.91 513.689L515.897 512.844L488.885 513.689C488.885 513.689 463.197 530.872 457.636 534.533C452.073 538.197 443.6 540.168 443.6 544.676C443.6 548.619 447.213 617.664 448.118 634.892H580.313Z" stroke="#1A2E35" stroke-width="1.33333" stroke-miterlimit="10" stroke-linecap="round" stroke-linejoin="round"/>
<path d="M450.122 546.366C450.122 546.366 460.262 570.872 464.77 577.351" stroke="#1A2E35" stroke-width="1.33333" stroke-miterlimit="10" stroke-linecap="round" stroke-linejoin="round"/>
<path d="M451.812 565.802L459.418 577.07" stroke="#1A2E35" stroke-width="1.33333" stroke-miterlimit="10" stroke-linecap="round" stroke-linejoin="round"/>
<path d="M579.139 553.126L566.463 578.761" stroke="#1A2E35" stroke-width="1.33333" stroke-miterlimit="10" stroke-linecap="round" stroke-linejoin="round"/>
<path d="M576.039 568.056L570.404 577.071" stroke="#1A2E35" stroke-width="1.33333" stroke-miterlimit="10" stroke-linecap="round" stroke-linejoin="round"/>
<path d="M568.856 634.892L570.969 581.015C516.884 589.465 459.417 581.015 459.417 581.015L460.994 634.892H568.856Z" fill="#1A2E35"/>
<path d="M568.856 634.892L570.969 581.015C516.884 589.465 459.417 581.015 459.417 581.015L460.994 634.892H568.856Z" stroke="#1A2E35" stroke-width="1.33333" stroke-miterlimit="10" stroke-linecap="round" stroke-linejoin="round"/>
<path d="M511.668 423.979C511.668 423.979 495.117 422.519 491.224 432.254C487.329 441.99 478.081 487.744 474.188 497.479C470.293 507.215 473.7 516.462 482.463 520.843C491.224 525.224 532.597 525.711 539.413 525.224C546.227 524.736 556.449 519.87 558.396 515.003C560.343 510.135 559.369 497.479 555.963 492.124C552.555 486.771 549.147 461.947 543.307 444.91C537.465 427.874 529.677 413.758 511.668 423.979Z" fill="#1A2E35"/>
<path d="M511.668 423.979C511.668 423.979 495.117 422.519 491.224 432.254C487.329 441.99 478.081 487.744 474.188 497.479C470.293 507.215 473.7 516.462 482.463 520.843C491.224 525.224 532.597 525.711 539.413 525.224C546.227 524.736 556.449 519.87 558.396 515.003C560.343 510.135 559.369 497.479 555.963 492.124C552.555 486.771 549.147 461.947 543.307 444.91C537.465 427.874 529.677 413.758 511.668 423.979Z" stroke="#1A2E35" stroke-width="1.33333" stroke-miterlimit="10" stroke-linecap="round" stroke-linejoin="round"/>
</g>
<mask id="mask8_324_620" style="mask-type:luminance" maskUnits="userSpaceOnUse" x="0" y="0" width="1000" height="667">
<path d="M0 0.000121117H1000V666.667H0V0.000121117Z" fill="white"/>
</mask>
<g mask="url(#mask8_324_620)">
<path d="M424.75 634.892C423.089 620.043 416.142 559.321 413.142 554.884C409.722 549.825 372.958 525.311 372.958 525.311L343.889 524.143L314.818 525.311C314.818 525.311 278.054 549.825 274.634 554.884C271.634 559.321 264.687 620.043 263.027 634.892H424.75Z" fill="#636363"/>
<path d="M424.75 634.892C423.089 620.043 416.142 559.321 413.142 554.884C409.722 549.825 372.958 525.311 372.958 525.311L343.889 524.143L314.818 525.311C314.818 525.311 278.054 549.825 274.634 554.884C271.634 559.321 264.687 620.043 263.027 634.892H424.75Z" stroke="#1A2E35" stroke-width="1.33333" stroke-miterlimit="10" stroke-linecap="round" stroke-linejoin="round"/>
<path d="M305.812 573.634C305.812 573.634 329.63 584.453 333.541 585.438" stroke="#1A2E35" stroke-width="1.33333" stroke-miterlimit="10" stroke-linecap="round" stroke-linejoin="round"/>
<path d="M329.63 577.569L345.983 584.781" stroke="#1A2E35" stroke-width="1.33333" stroke-miterlimit="10" stroke-linecap="round" stroke-linejoin="round"/>
<path d="M405.708 568.717C405.708 568.717 396.465 581.175 393.621 582.813" stroke="#1A2E35" stroke-width="1.33333" stroke-miterlimit="10" stroke-linecap="round" stroke-linejoin="round"/>
<path d="M284.126 569.701C284.126 569.701 287.325 582.159 290.525 585.11" stroke="#1A2E35" stroke-width="1.33333" stroke-miterlimit="10" stroke-linecap="round" stroke-linejoin="round"/>
<path d="M326.868 495.905L324.692 518.976H365.372L361.022 496.908L326.868 495.905Z" fill="white"/>
<path d="M326.868 495.905L324.692 518.976H365.372L361.022 496.908L326.868 495.905Z" stroke="#1A2E35" stroke-width="1.33333" stroke-miterlimit="10" stroke-linecap="round" stroke-linejoin="round"/>
<path d="M319.037 474.073C319.037 474.073 312.199 471.972 313.338 480.38C314.478 488.788 323.595 493.78 323.595 493.78L319.037 474.073Z" fill="white"/>
<path d="M319.037 474.073C319.037 474.073 312.199 471.972 313.338 480.38C314.478 488.788 323.595 493.78 323.595 493.78L319.037 474.073Z" stroke="#1A2E35" stroke-width="1.33333" stroke-miterlimit="10" stroke-linecap="round" stroke-linejoin="round"/>
<path d="M370.573 474.073C370.573 474.073 377.411 471.972 376.271 480.38C375.132 488.788 366.015 493.78 366.015 493.78L370.573 474.073Z" fill="white"/>
<path d="M370.573 474.073C370.573 474.073 377.411 471.972 376.271 480.38C375.132 488.788 366.015 493.78 366.015 493.78L370.573 474.073Z" stroke="#1A2E35" stroke-width="1.33333" stroke-miterlimit="10" stroke-linecap="round" stroke-linejoin="round"/>
<path d="M317.848 515.639L310.753 526.799L375.161 526.198L369.486 515.905L317.848 515.639Z" fill="#636363"/>
<path d="M317.848 515.639L310.753 526.799L375.161 526.198L369.486 515.905L317.848 515.639Z" stroke="#1A2E35" stroke-width="1.33333" stroke-miterlimit="10" stroke-linecap="round" stroke-linejoin="round"/>
<path d="M396.442 634.892L398.554 585.205C344.47 592.999 287.003 585.205 287.003 585.205L288.58 634.892H396.442Z" fill="#1A2E35"/>
<path d="M396.442 634.892L398.554 585.205C344.47 592.999 287.003 585.205 287.003 585.205L288.58 634.892H396.442Z" stroke="#1A2E35" stroke-width="1.33333" stroke-miterlimit="10" stroke-linecap="round" stroke-linejoin="round"/>
<path d="M358.58 441.341C358.58 441.341 347.452 437.065 337.716 438.989C327.978 440.913 320.56 449.465 317.546 458.23C314.533 466.996 317.778 477.257 317.778 478.54C317.778 479.822 320.56 490.3 322.184 493.72C323.806 497.141 331.689 506.976 331.689 506.976H356.029C356.029 506.976 365.766 493.933 367.621 491.369C369.476 488.802 372.257 476.83 372.721 471.7C373.185 466.568 369.708 451.602 366.23 447.113C362.753 442.624 358.58 441.341 358.58 441.341Z" fill="#1A2E35"/>
<path d="M358.58 441.341C358.58 441.341 347.452 437.065 337.716 438.989C327.978 440.913 320.56 449.465 317.546 458.23C314.533 466.996 317.778 477.257 317.778 478.54C317.778 479.822 320.56 490.3 322.184 493.72C323.806 497.141 331.689 506.976 331.689 506.976H356.029C356.029 506.976 365.766 493.933 367.621 491.369C369.476 488.802 372.257 476.83 372.721 471.7C373.185 466.568 369.708 451.602 366.23 447.113C362.753 442.624 358.58 441.341 358.58 441.341Z" stroke="#1A2E35" stroke-width="1.33333" stroke-miterlimit="10" stroke-linecap="round" stroke-linejoin="round"/>
</g>
<mask id="mask9_324_620" style="mask-type:luminance" maskUnits="userSpaceOnUse" x="0" y="0" width="1000" height="667">
<path d="M0 0.000121117H1000V666.667H0V0.000121117Z" fill="white"/>
</mask>
<g mask="url(#mask9_324_620)">
<path d="M105.866 634.892L113.471 580.668V544.528H95.5752C95.5752 544.528 91.7152 549.791 90.6632 558.212C89.7472 565.541 84.5779 620.711 83.2539 634.892H105.866Z" fill="white"/>
<path d="M105.866 634.892L113.471 580.668V544.528H95.5752C95.5752 544.528 91.7152 549.791 90.6632 558.212C89.7472 565.541 84.5779 620.711 83.2539 634.892H105.866Z" stroke="#1A2E35" stroke-width="1.33333" stroke-miterlimit="10" stroke-linecap="round" stroke-linejoin="round"/>
<path d="M241.585 634.892C240.261 620.711 235.091 565.541 234.175 558.212C233.122 549.791 229.263 544.528 229.263 544.528H211.367V580.668L218.973 634.892H241.585Z" fill="white"/>
<path d="M241.585 634.892C240.261 620.711 235.091 565.541 234.175 558.212C233.122 549.791 229.263 544.528 229.263 544.528H211.367V580.668L218.973 634.892H241.585Z" stroke="#1A2E35" stroke-width="1.33333" stroke-miterlimit="10" stroke-linecap="round" stroke-linejoin="round"/>
<path d="M115.123 634.892H208.312C209.603 625.481 213.309 598.833 214.771 592.065L229.263 544.528L217.807 537.849C216.49 537.752 213.735 535.208 209.964 534.352C202.244 532.597 181.191 522.421 181.191 522.421L171.717 521.745V520.316L161.717 521.031L151.718 520.316V521.745L142.243 522.421C142.243 522.421 121.191 532.597 113.471 534.352C105.752 536.107 97.6802 544.879 95.5762 544.528L108.207 590.493C109.09 591.375 113.659 624.223 115.123 634.892Z" fill="#D2D2D2"/>
<path d="M115.123 634.892H208.312C209.603 625.481 213.309 598.833 214.771 592.065L229.263 544.528L217.807 537.849C216.49 537.752 213.735 535.208 209.964 534.352C202.244 532.597 181.191 522.421 181.191 522.421L171.717 521.745V520.316L161.717 521.031L151.718 520.316V521.745L142.243 522.421C142.243 522.421 121.191 532.597 113.471 534.352C105.752 536.107 97.6802 544.879 95.5762 544.528L108.207 590.493C109.09 591.375 113.659 624.223 115.123 634.892Z" stroke="#1A2E35" stroke-width="1.33333" stroke-miterlimit="10" stroke-linecap="round" stroke-linejoin="round"/>
<path d="M210.205 634.892L212.096 581.957C163.767 590.245 112.416 581.957 112.416 581.957L113.827 634.892H210.205Z" fill="#1A2E35"/>
<path d="M210.205 634.892L212.096 581.957C163.767 590.245 112.416 581.957 112.416 581.957L113.827 634.892H210.205Z" stroke="#1A2E35" stroke-width="1.33333" stroke-miterlimit="10" stroke-linecap="round" stroke-linejoin="round"/>
<path d="M191.186 491.885C188.444 475.443 189.542 460.096 184.608 448.037C183.968 446.475 182.756 445.173 181.142 444.091C179.788 441.465 178.318 439.439 176.911 438.244C170.779 433.029 161.58 430.579 154.528 433.643C154.528 433.643 147.008 432.924 139.736 442.044C139.447 442.213 139.223 442.384 139.116 442.557C139.116 442.557 126.511 460.644 128.155 474.895C129.799 489.144 128.703 511.069 124.318 520.387C119.934 529.704 113.47 534.352 113.47 534.352C113.47 534.352 123.222 545.051 127.059 558.204C130.895 571.359 142.954 597.12 158.299 597.668C164.322 597.883 170.191 594.421 175.231 588.969C175.599 585.633 175.939 581.257 175.939 576.444C175.939 565.969 175.134 557.508 175.134 557.508C175.134 557.508 180.371 568.387 179.968 577.249C179.852 579.817 179.324 582.413 178.64 584.813C184.694 576.54 189.032 565.503 190.09 555.465C192.282 534.636 202.695 531.348 202.695 531.348C202.695 531.348 193.926 508.328 191.186 491.885Z" fill="#BEBEBE"/>
<path d="M191.186 491.885C188.444 475.443 189.542 460.096 184.608 448.037C183.968 446.475 182.756 445.173 181.142 444.091C179.788 441.465 178.318 439.439 176.911 438.244C170.779 433.029 161.58 430.579 154.528 433.643C154.528 433.643 147.008 432.924 139.736 442.044C139.447 442.213 139.223 442.384 139.116 442.557C139.116 442.557 126.511 460.644 128.155 474.895C129.799 489.144 128.703 511.069 124.318 520.387C119.934 529.704 113.47 534.352 113.47 534.352C113.47 534.352 123.222 545.051 127.059 558.204C130.895 571.359 142.954 597.12 158.299 597.668C164.322 597.883 170.191 594.421 175.231 588.969C175.599 585.633 175.939 581.257 175.939 576.444C175.939 565.969 175.134 557.508 175.134 557.508C175.134 557.508 180.371 568.387 179.968 577.249C179.852 579.817 179.324 582.413 178.64 584.813C184.694 576.54 189.032 565.503 190.09 555.465C192.282 534.636 202.695 531.348 202.695 531.348C202.695 531.348 193.926 508.328 191.186 491.885Z" stroke="#1A2E35" stroke-width="1.33333" stroke-miterlimit="10" stroke-linecap="round" stroke-linejoin="round"/>
<path d="M152.09 566.552C151.83 569.568 151.352 572.309 150.627 574.647" stroke="#1A2E35" stroke-width="1.33333" stroke-miterlimit="10" stroke-linecap="round" stroke-linejoin="round"/>
<path d="M132.54 474.346C132.54 474.346 133.636 499.01 141.309 511.617C147.337 521.518 152.688 544.946 152.316 562.246" stroke="#1A2E35" stroke-width="1.33333" stroke-miterlimit="10" stroke-linecap="round" stroke-linejoin="round"/>
<path d="M136.796 534.242C137.335 543.44 133.636 548.477 128.703 548.886" stroke="#1A2E35" stroke-width="1.33333" stroke-miterlimit="10" stroke-linecap="round" stroke-linejoin="round"/>
<path d="M131.444 492.982C131.444 492.982 129.8 507.78 134.733 523.675C135.349 525.662 135.82 527.538 136.16 529.299" stroke="#1A2E35" stroke-width="1.33333" stroke-miterlimit="10" stroke-linecap="round" stroke-linejoin="round"/>
<path d="M177.346 536.763C179.364 538.772 181.712 539.692 184.06 539.022" stroke="#1A2E35" stroke-width="1.33333" stroke-miterlimit="10" stroke-linecap="round" stroke-linejoin="round"/>
<path d="M185.157 469.962C185.157 469.962 176.388 497.914 172.55 512.165C170.577 519.496 171.65 526.973 174.201 532.206" stroke="#1A2E35" stroke-width="1.33333" stroke-miterlimit="10" stroke-linecap="round" stroke-linejoin="round"/>
<path d="M158.176 525.73C157.955 528.153 157.807 530.585 157.752 532.992" stroke="#1A2E35" stroke-width="1.33333" stroke-miterlimit="10" stroke-linecap="round" stroke-linejoin="round"/>
<path d="M168.166 482.568C168.166 482.568 161.33 500.797 158.722 520.817" stroke="#1A2E35" stroke-width="1.33333" stroke-miterlimit="10" stroke-linecap="round" stroke-linejoin="round"/>
<path d="M181.143 444.091C181.143 444.091 175.291 442.008 172.003 451.327" stroke="#1A2E35" stroke-width="1.33333" stroke-miterlimit="10" stroke-linecap="round" stroke-linejoin="round"/>
</g>
<path d="M23.9531 634.892H988.754" stroke="#1A2E35" stroke-width="1.33333" stroke-miterlimit="10" stroke-linecap="round" stroke-linejoin="round"/>
</svg>
